# Blender 5.0.0
# www.blender.org
mtllib RocketLauncher.mtl
o Right_Arm
v -0.800000 4.000000 3.800000
v -0.800000 4.200000 4.000000
v -1.000000 4.200000 3.800000
v -0.800000 4.026721 3.899869
v -0.899869 4.026721 3.800000
v -0.895642 4.052673 3.895642
v -0.899869 4.200000 3.973281
v -0.800000 4.100132 3.973281
v -0.895642 4.104361 3.947326
v -0.973281 4.100132 3.800000
v -0.973281 4.200000 3.899869
v -0.947326 4.104361 3.895642
v -0.800000 7.800003 4.000000
v -0.800000 8.000000 3.799997
v -1.000000 7.800003 3.799999
v -0.800000 7.899869 3.973278
v -0.899869 7.800003 3.973279
v -0.895642 7.895642 3.947323
v -0.899869 7.973281 3.799997
v -0.800000 7.973281 3.899866
v -0.895642 7.947330 3.895639
v -0.973281 7.800003 3.899868
v -0.973281 7.899869 3.799997
v -0.947326 7.895642 3.895639
v -0.800000 4.000000 2.200000
v -1.000000 4.200000 2.200000
v -0.800000 4.200000 2.000000
v -0.899869 4.026719 2.200000
v -0.800000 4.026719 2.100131
v -0.895642 4.052673 2.104358
v -0.973281 4.200000 2.100131
v -0.973281 4.100131 2.200000
v -0.947326 4.104358 2.104358
v -0.800000 4.100131 2.026719
v -0.899869 4.200000 2.026719
v -0.895642 4.104358 2.052674
v -0.800000 8.000000 2.199997
v -0.800000 7.800000 1.999997
v -1.000000 7.800000 2.200000
v -0.800000 7.973281 2.100128
v -0.899869 7.973281 2.199997
v -0.895642 7.947327 2.104355
v -0.899869 7.800000 2.026719
v -0.800000 7.899869 2.026716
v -0.895642 7.895642 2.052671
v -0.973281 7.899869 2.199997
v -0.973281 7.800000 2.100131
v -0.947326 7.895642 2.104355
v 0.800000 4.000000 3.800000
v 1.000000 4.200000 3.800000
v 0.800000 4.200000 4.000000
v 0.899869 4.026721 3.800000
v 0.800000 4.026721 3.899869
v 0.895642 4.052673 3.895642
v 0.973281 4.200000 3.899869
v 0.973281 4.100132 3.800000
v 0.947326 4.104361 3.895642
v 0.800000 4.100132 3.973281
v 0.899869 4.200000 3.973281
v 0.895642 4.104361 3.947326
v 0.800000 8.000000 3.799997
v 0.800000 7.800003 4.000000
v 1.000000 7.800003 3.799999
v 0.800000 7.973281 3.899866
v 0.899869 7.973281 3.799997
v 0.895642 7.947330 3.895639
v 0.899869 7.800003 3.973279
v 0.800000 7.899869 3.973278
v 0.895642 7.895642 3.947323
v 0.973281 7.899869 3.799997
v 0.973281 7.800003 3.899868
v 0.947326 7.895642 3.895639
v 0.800000 4.000000 2.200000
v 0.800000 4.200000 2.000000
v 1.000000 4.200000 2.200000
v 0.800000 4.026719 2.100131
v 0.899869 4.026719 2.200000
v 0.895642 4.052673 2.104358
v 0.899869 4.200000 2.026719
v 0.800000 4.100131 2.026719
v 0.895642 4.104358 2.052674
v 0.973281 4.100131 2.200000
v 0.973281 4.200000 2.100131
v 0.947326 4.104358 2.104358
v 0.800000 8.000000 2.199997
v 1.000000 7.800000 2.200000
v 0.800000 7.800000 1.999997
v 0.899869 7.973281 2.199997
v 0.800000 7.973281 2.100128
v 0.895642 7.947327 2.104355
v 0.973281 7.800000 2.100131
v 0.973281 7.899869 2.199997
v 0.947326 7.895642 2.104355
v 0.800000 7.899869 2.026716
v 0.899869 7.800000 2.026719
v 0.895642 7.895642 2.052671
vn -0.1296 -0.9831 0.1296
vn -0.1216 -0.8623 0.4916
vn -0.4474 -0.7744 0.4474
vn -0.4916 -0.8623 0.1216
vn -0.1216 -0.4915 0.8623
vn -0.4474 -0.4473 0.7744
vn -0.1296 -0.1296 0.9831
vn -0.4915 -0.1216 0.8623
vn -0.8623 -0.1216 0.4915
vn -0.7744 -0.4473 0.4474
vn -0.9831 -0.1296 0.1296
vn -0.8623 -0.4915 0.1216
vn -0.1296 0.1296 0.9831
vn -0.1216 0.4916 0.8623
vn -0.4474 0.4473 0.7744
vn -0.4915 0.1216 0.8623
vn -0.1216 0.8623 0.4915
vn -0.4474 0.7744 0.4474
vn -0.1296 0.9831 0.1296
vn -0.4915 0.8623 0.1216
vn -0.8623 0.4915 0.1216
vn -0.7744 0.4473 0.4474
vn -0.9831 0.1296 0.1296
vn -0.8623 0.1216 0.4915
vn -0.1296 -0.9831 -0.1296
vn -0.4915 -0.8623 -0.1216
vn -0.4474 -0.7744 -0.4474
vn -0.1216 -0.8623 -0.4915
vn -0.8623 -0.4915 -0.1216
vn -0.7744 -0.4473 -0.4474
vn -0.9831 -0.1296 -0.1296
vn -0.8623 -0.1216 -0.4915
vn -0.4915 -0.1216 -0.8623
vn -0.4474 -0.4473 -0.7744
vn -0.1296 -0.1296 -0.9831
vn -0.1216 -0.4915 -0.8623
vn -0.1296 0.9831 -0.1296
vn -0.1216 0.8623 -0.4915
vn -0.4474 0.7744 -0.4474
vn -0.4915 0.8623 -0.1216
vn -0.1216 0.4915 -0.8623
vn -0.4474 0.4473 -0.7744
vn -0.1296 0.1296 -0.9831
vn -0.4916 0.1216 -0.8623
vn -0.8623 0.1216 -0.4915
vn -0.7744 0.4473 -0.4474
vn -0.9831 0.1296 -0.1296
vn -0.8623 0.4915 -0.1216
vn 0.1296 -0.9831 0.1296
vn 0.4916 -0.8623 0.1216
vn 0.4474 -0.7744 0.4474
vn 0.1216 -0.8623 0.4916
vn 0.8623 -0.4915 0.1216
vn 0.7744 -0.4473 0.4474
vn 0.9831 -0.1296 0.1296
vn 0.8623 -0.1216 0.4915
vn 0.4915 -0.1216 0.8623
vn 0.4474 -0.4473 0.7744
vn 0.1296 -0.1296 0.9831
vn 0.1216 -0.4915 0.8623
vn 0.1296 0.9831 0.1296
vn 0.1216 0.8623 0.4915
vn 0.4474 0.7744 0.4474
vn 0.4915 0.8623 0.1216
vn 0.1216 0.4916 0.8623
vn 0.4474 0.4473 0.7744
vn 0.1296 0.1296 0.9831
vn 0.4915 0.1216 0.8623
vn 0.8623 0.1216 0.4915
vn 0.7744 0.4473 0.4474
vn 0.9831 0.1296 0.1296
vn 0.8623 0.4915 0.1216
vn 0.1296 -0.9831 -0.1296
vn 0.1216 -0.8623 -0.4915
vn 0.4474 -0.7744 -0.4474
vn 0.4915 -0.8623 -0.1216
vn 0.1216 -0.4915 -0.8623
vn 0.4474 -0.4473 -0.7744
vn 0.1296 -0.1296 -0.9831
vn 0.4915 -0.1216 -0.8623
vn 0.8623 -0.1216 -0.4915
vn 0.7744 -0.4473 -0.4474
vn 0.9831 -0.1296 -0.1296
vn 0.8623 -0.4915 -0.1216
vn 0.1296 0.9831 -0.1296
vn 0.4915 0.8623 -0.1216
vn 0.4474 0.7744 -0.4474
vn 0.1216 0.8623 -0.4915
vn 0.8623 0.4915 -0.1216
vn 0.7744 0.4473 -0.4474
vn 0.9831 0.1296 -0.1296
vn 0.8623 0.1216 -0.4915
vn 0.4916 0.1216 -0.8623
vn 0.4474 0.4473 -0.7744
vn 0.1296 0.1296 -0.9831
vn 0.1216 0.4915 -0.8623
vt 0.572622 0.380996
vt 0.568018 0.380996
vt 0.568212 0.376587
vt 0.572622 0.376392
vt 0.563401 0.380996
vt 0.563401 0.376587
vt 0.779421 0.484998
vt 0.774800 0.484998
vt 0.774995 0.475743
vt 0.779421 0.475743
vt 0.770166 0.484998
vt 0.770166 0.475743
vt 0.646399 0.485262
vt 0.646399 0.476028
vt 0.650814 0.476028
vt 0.655632 0.485262
vt 0.572622 0.371775
vt 0.568212 0.371775
vt 0.779421 0.651588
vt 0.779421 0.660843
vt 0.774995 0.660843
vt 0.774800 0.651588
vt 0.459976 0.454736
vt 0.464585 0.454736
vt 0.464780 0.459138
vt 0.459976 0.459138
vt 0.469182 0.454736
vt 0.469182 0.459332
vt 0.469182 0.463941
vt 0.464780 0.463941
vt 0.646399 0.651462
vt 0.655632 0.651462
vt 0.650814 0.660695
vt 0.646399 0.660695
vt 0.770166 0.651588
vt 0.770166 0.660843
vt 0.646389 0.380996
vt 0.646389 0.376392
vt 0.650798 0.376587
vt 0.650993 0.380996
vt 0.646389 0.371775
vt 0.650798 0.371775
vt 0.572532 0.485262
vt 0.563299 0.485262
vt 0.568117 0.476028
vt 0.572532 0.476028
vt 0.759401 0.484717
vt 0.754754 0.484717
vt 0.754558 0.475436
vt 0.759401 0.475436
vt 0.750119 0.484717
vt 0.750119 0.475436
vt 0.655609 0.380996
vt 0.655609 0.376587
vt 0.542826 0.454736
vt 0.547423 0.454736
vt 0.547228 0.459138
vt 0.542826 0.459332
vt 0.552032 0.454736
vt 0.552032 0.459138
vt 0.750119 0.651780
vt 0.754754 0.651780
vt 0.754558 0.661061
vt 0.750119 0.661061
vt 0.759401 0.651780
vt 0.759401 0.661061
vt 0.572532 0.651462
vt 0.572532 0.660695
vt 0.568117 0.660695
vt 0.563299 0.651462
vt 0.542826 0.463941
vt 0.547229 0.463941
vt 0.572622 0.454763
vt 0.572622 0.459367
vt 0.568212 0.459172
vt 0.568018 0.454763
vt 0.572622 0.463984
vt 0.568212 0.463984
vt 0.468988 0.485149
vt 0.464371 0.485149
vt 0.464567 0.475904
vt 0.468988 0.475904
vt 0.459743 0.485149
vt 0.459743 0.475904
vt 0.853461 0.484998
vt 0.853461 0.475743
vt 0.857887 0.475743
vt 0.862716 0.484998
vt 0.563401 0.454763
vt 0.563401 0.459172
vt 0.469182 0.381091
vt 0.464585 0.381091
vt 0.464780 0.376689
vt 0.469182 0.376494
vt 0.459976 0.381091
vt 0.459976 0.376689
vt 0.853461 0.651588
vt 0.862716 0.651588
vt 0.857887 0.660843
vt 0.853461 0.660843
vt 0.459743 0.651551
vt 0.464371 0.651551
vt 0.464567 0.660796
vt 0.459743 0.660796
vt 0.468988 0.651551
vt 0.468988 0.660796
vt 0.469182 0.371885
vt 0.464780 0.371885
vt 0.646389 0.454763
vt 0.650993 0.454763
vt 0.650798 0.459172
vt 0.646389 0.459367
vt 0.655609 0.454763
vt 0.655609 0.459172
vt 0.675869 0.484717
vt 0.666588 0.484717
vt 0.671431 0.475436
vt 0.675869 0.475436
vt 0.552189 0.485149
vt 0.547561 0.485149
vt 0.547365 0.475904
vt 0.552189 0.475904
vt 0.542944 0.485149
vt 0.542944 0.475904
vt 0.646389 0.463984
vt 0.650798 0.463984
vt 0.542826 0.381091
vt 0.542826 0.376494
vt 0.547228 0.376689
vt 0.547423 0.381091
vt 0.542826 0.371885
vt 0.547229 0.371885
vt 0.542944 0.651551
vt 0.547561 0.651551
vt 0.547365 0.660796
vt 0.542944 0.660796
vt 0.552189 0.651551
vt 0.552189 0.660796
vt 0.675869 0.651780
vt 0.675869 0.661061
vt 0.671431 0.661061
vt 0.666588 0.651780
vt 0.552032 0.381091
vt 0.552032 0.376689
s 1
usemtl Material.009
f 1/1/1 4/2/2 6/3/3 5/4/4
f 4/2/2 8/5/5 9/6/6 6/3/3
f 2/7/7 7/8/8 9/9/6 8/10/5
f 7/8/8 11/11/9 12/12/10 9/9/6
f 3/13/11 10/14/12 12/15/10 11/16/9
f 10/17/12 5/4/4 6/3/3 12/18/10
f 6/3/3 9/6/6 12/18/10
f 13/19/13 16/20/14 18/21/15 17/22/16
f 16/23/14 20/24/17 21/25/18 18/26/15
f 14/27/19 19/28/20 21/25/18 20/24/17
f 19/28/20 23/29/21 24/30/22 21/25/18
f 15/31/23 22/32/24 24/33/22 23/34/21
f 22/35/24 17/22/16 18/21/15 24/36/22
f 18/26/15 21/25/18 24/30/22
f 25/37/25 28/38/26 30/39/27 29/40/28
f 28/38/26 32/41/29 33/42/30 30/39/27
f 26/43/31 31/44/32 33/45/30 32/46/29
f 31/47/32 35/48/33 36/49/34 33/50/30
f 27/51/35 34/52/36 36/49/34 35/48/33
f 34/53/36 29/40/28 30/39/27 36/54/34
f 30/39/27 33/42/30 36/54/34
f 37/55/37 40/56/38 42/57/39 41/58/40
f 40/56/38 44/59/41 45/60/42 42/57/39
f 38/61/43 43/62/44 45/63/42 44/64/41
f 43/62/44 47/65/45 48/66/46 45/63/42
f 39/67/47 46/68/48 48/69/46 47/70/45
f 46/71/48 41/58/40 42/57/39 48/72/46
f 42/57/39 45/60/42 48/72/46
f 49/73/49 52/74/50 54/75/51 53/76/52
f 52/74/50 56/77/53 57/78/54 54/75/51
f 50/79/55 55/80/56 57/81/54 56/82/53
f 55/80/56 59/83/57 60/84/58 57/81/54
f 51/85/59 58/86/60 60/87/58 59/88/57
f 58/89/60 53/76/52 54/75/51 60/90/58
f 54/75/51 57/78/54 60/90/58
f 61/91/61 64/92/62 66/93/63 65/94/64
f 64/92/62 68/95/65 69/96/66 66/93/63
f 62/97/67 67/98/68 69/99/66 68/100/65
f 67/101/68 71/102/69 72/103/70 69/104/66
f 63/105/71 70/106/72 72/103/70 71/102/69
f 70/107/72 65/94/64 66/93/63 72/108/70
f 66/93/63 69/96/66 72/108/70
f 73/109/73 76/110/74 78/111/75 77/112/76
f 76/110/74 80/113/77 81/114/78 78/111/75
f 74/115/79 79/116/80 81/117/78 80/118/77
f 79/119/80 83/120/81 84/121/82 81/122/78
f 75/123/83 82/124/84 84/121/82 83/120/81
f 82/125/84 77/112/76 78/111/75 84/126/82
f 78/111/75 81/114/78 84/126/82
f 85/127/85 88/128/86 90/129/87 89/130/88
f 88/128/86 92/131/89 93/132/90 90/129/87
f 86/133/91 91/134/92 93/135/90 92/136/89
f 91/134/92 95/137/93 96/138/94 93/135/90
f 87/139/95 94/140/96 96/141/94 95/142/93
f 94/143/96 89/130/88 90/129/87 96/144/94
f 90/129/87 93/132/90 96/144/94
f 25/37/25 1/1/1 5/4/4 28/38/26
f 28/38/26 5/4/4 10/17/12 32/41/29
f 32/46/29 10/14/12 3/13/11 26/43/31
f 2/7/7 13/19/13 17/22/16 7/8/8
f 7/8/8 17/22/16 22/35/24 11/11/9
f 11/16/9 22/32/24 15/31/23 3/13/11
f 14/27/19 37/55/37 41/58/40 19/28/20
f 19/28/20 41/58/40 46/71/48 23/29/21
f 23/34/21 46/68/48 39/67/47 15/31/23
f 38/61/43 27/51/35 35/48/33 43/62/44
f 43/62/44 35/48/33 31/47/32 47/65/45
f 47/70/45 31/44/32 26/43/31 39/67/47
f 73/109/73 25/37/25 29/40/28 76/110/74
f 76/110/74 29/40/28 34/53/36 80/113/77
f 80/118/77 34/52/36 27/51/35 74/115/79
f 37/55/37 85/127/85 89/130/88 40/56/38
f 40/56/38 89/130/88 94/143/96 44/59/41
f 44/64/41 94/140/96 87/139/95 38/61/43
f 86/133/91 75/123/83 83/120/81 91/134/92
f 91/134/92 83/120/81 79/119/80 95/137/93
f 95/142/93 79/116/80 74/115/79 87/139/95
f 49/73/49 73/109/73 77/112/76 52/74/50
f 52/74/50 77/112/76 82/125/84 56/77/53
f 56/82/53 82/124/84 75/123/83 50/79/55
f 85/127/85 61/91/61 65/94/64 88/128/86
f 88/128/86 65/94/64 70/107/72 92/131/89
f 92/136/89 70/106/72 63/105/71 86/133/91
f 62/97/67 51/85/59 59/88/57 67/98/68
f 67/101/68 59/83/57 55/80/56 71/102/69
f 71/102/69 55/80/56 50/79/55 63/105/71
f 1/1/1 49/73/49 53/76/52 4/2/2
f 4/2/2 53/76/52 58/89/60 8/5/5
f 8/10/5 58/86/60 51/85/59 2/7/7
f 61/91/61 14/27/19 20/24/17 64/92/62
f 64/92/62 20/24/17 16/23/14 68/95/65
f 68/100/65 16/20/14 13/19/13 62/97/67
f 25/37/25 73/109/73 49/73/49 1/1/1
f 3/13/11 15/31/23 39/67/47 26/43/31
f 51/85/59 62/97/67 13/19/13 2/7/7
f 85/127/85 37/55/37 14/27/19 61/91/61
f 27/51/35 38/61/43 87/139/95 74/115/79
f 75/123/83 86/133/91 63/105/71 50/79/55
o RightArm
v 0.831025 1.669540 2.846333
v 0.794275 2.322970 2.929464
v 0.875275 3.456325 2.790684
v 0.808377 3.456430 2.885149
v 0.793075 3.456430 3.059110
v 0.785125 4.900435 3.060507
v 1.236925 3.456325 3.307333
v 1.125325 5.106715 3.337791
v 1.125325 3.456325 3.327021
v 1.182025 0.763465 3.322023
v 0.746875 7.186855 3.221367
v 0.803575 5.986765 3.057247
v 0.842425 5.986765 3.163851
v 1.551625 7.186855 2.924527
v 1.450375 5.977810 2.943219
v 1.335325 5.986765 2.750299
v 1.013575 3.456325 3.307333
v 0.912025 0.763360 3.254803
v 1.236925 3.456325 2.693721
v 1.338625 0.763360 2.746248
v 1.182025 0.763465 2.679027
v 1.455775 7.186795 2.720142
v 0.847975 7.186795 3.334714
v 1.288676 5.986765 3.283379
v 1.201226 7.187005 3.435465
v 1.125325 5.986765 3.327174
v 1.005175 5.321635 2.670456
v 1.013726 5.113345 2.693825
v 0.833275 5.106715 2.831895
v 0.903325 4.900435 2.735916
v 1.125325 5.113345 2.674141
v 1.013575 3.456325 2.693721
v 1.293926 5.106715 3.292572
v 0.912775 1.781695 2.747761
v 0.915475 3.456325 2.750415
v 0.912025 0.763360 2.746248
v 0.802375 0.763375 2.943583
v 0.798925 2.086180 3.000771
v 0.818575 2.244055 3.112144
v 0.794125 2.874865 3.071677
v 0.795925 2.270275 3.061052
v 0.795925 3.018730 2.940547
v 1.304725 6.773995 2.689416
v 1.462225 6.773905 2.877743
v 1.493575 7.317445 2.787899
v 0.706525 7.317400 3.074373
v 0.756925 7.317445 3.213153
v 0.788425 6.773890 3.123309
v 1.313875 1.400440 2.775889
v 1.024975 1.400440 2.724966
v 1.179177 0.682450 2.695453
v 1.179177 0.682450 3.305598
v 0.970375 0.682450 3.268801
v 1.125325 1.400440 3.293771
v 1.449625 3.456400 2.943348
v 1.424425 3.662710 2.827799
v 1.457425 5.106715 2.941961
v 1.432075 0.763465 2.888871
v 1.408075 3.456325 2.837277
v 0.779425 5.926585 3.061524
v 0.774175 5.321635 3.000525
v 0.821125 5.926585 3.176160
v 1.142425 5.787565 3.369924
v 0.612925 2.981815 3.051030
v 0.205525 3.020485 3.062864
v 0.555325 2.706340 3.051030
v 0.640525 2.983030 2.947821
v 0.552475 2.706475 2.950329
v 0.204325 2.717455 2.938251
v 1.450375 5.977810 3.057834
v 1.555525 7.186810 3.077221
v 1.406125 7.186915 3.338878
v 1.304725 6.773995 3.311634
v 1.462225 6.773905 3.123309
v 1.247425 6.366340 3.212490
v 1.394425 5.321635 3.226279
v 1.351075 5.926585 3.269610
v 1.234825 5.787565 3.365427
v 1.458625 5.885260 2.879190
v 1.471225 5.926585 3.061524
v 0.844525 7.186915 2.662172
v 0.913225 5.977810 2.747716
v 0.746875 7.186855 2.779687
v 0.945925 6.773995 2.689416
v 0.788425 6.773890 2.877743
v 1.003226 6.366340 2.788563
v 0.839575 1.400560 2.835130
v 0.834175 0.682450 2.894576
v 0.970375 0.682450 2.732250
v 0.871375 1.400440 2.853904
v 1.405975 2.261695 2.502534
v 1.492075 2.261695 2.517729
v 1.391125 1.974220 2.507421
v 1.419625 2.488150 2.676466
v 1.353625 2.261695 2.614693
v 1.420675 2.261695 2.670939
v 0.945625 2.936215 3.273598
v 0.912325 2.874865 3.254406
v 0.789325 3.035170 3.024920
v 1.391125 1.974220 2.662113
v 1.523875 1.974220 2.600277
v 1.493275 1.974220 2.516343
v 1.351675 2.846545 2.536162
v 1.334125 2.853835 2.602701
v 1.303525 3.279685 2.608104
v 1.525975 2.488150 2.568871
v 1.482477 2.488150 2.665409
v 1.533175 2.848465 2.567616
v 1.515025 2.853835 2.518384
v 1.552225 3.279685 2.517575
v 1.404025 2.488150 2.497258
v 0.899575 5.321635 2.731452
v 0.977725 7.186795 2.590581
v 1.068625 5.986765 2.678877
v 1.347325 4.900435 2.735916
v 1.417375 5.106715 2.831895
v 1.374175 5.790130 2.728127
v 1.240675 5.106715 2.683602
v 1.338325 3.320725 2.666630
v 1.361425 2.846545 2.647245
v 1.435825 3.320725 2.457397
v 1.521175 3.310465 2.482981
v 1.471225 2.853835 2.487712
v 0.836575 1.400440 3.051447
v 0.815575 0.682450 3.000525
v 1.332025 1.938940 2.925315
v 1.235275 1.938940 2.810082
v 1.125325 3.456325 2.674029
v 1.010425 0.753235 2.684853
v 1.502575 1.674850 2.528827
v 1.424577 1.683145 2.520490
v 1.435825 1.663810 2.492292
v 1.451425 1.891195 2.672723
v 1.451425 1.974220 2.672723
v 0.912325 2.996890 3.254406
v 0.866875 3.456430 3.217362
v 0.798925 2.996965 3.058069
v 0.721675 2.874895 3.058151
v 1.510375 2.846545 2.647245
v 1.533175 2.848465 2.601918
v 1.561225 3.320725 2.606886
v 1.435825 2.570425 2.679341
v 1.516375 2.570485 2.631267
v 1.451725 0.763465 3.000525
v 1.362625 0.682450 2.801403
v 1.435077 0.682450 3.000525
v 1.414077 1.400440 2.949605
v 1.363375 2.570425 2.523984
v 1.402525 2.846545 2.493418
v 1.435825 2.570425 2.490196
v 0.819625 5.248075 3.179250
v 0.793225 5.106715 2.941961
v 1.354525 6.366265 3.084123
v 0.896125 6.366265 2.916929
v 1.347925 1.891195 2.600277
v 1.360375 1.807000 2.541193
v 1.355725 1.806880 2.631060
v 1.368777 2.261695 2.528523
v 1.337275 1.977835 2.584769
v 0.729327 2.642215 3.051030
v 0.760375 2.324995 3.058069
v 0.604975 2.351470 3.051030
v 0.687925 2.344420 3.051030
v 0.722425 2.353120 3.053565
v 0.722125 2.352820 2.947685
v 0.204325 2.718340 3.063107
v 0.205525 3.019585 2.938493
v 0.720025 2.551195 2.943099
v 0.718075 2.685220 2.947821
v 0.760375 2.978395 2.950329
v 0.720025 2.551195 3.001627
v 0.977725 7.186795 3.410469
v 0.945925 6.773995 3.311634
v 1.187576 6.774025 3.354388
v 1.082875 6.366370 3.241674
v 0.892975 1.461430 2.749189
v 0.839125 1.664965 2.696429
v 0.831175 1.468915 2.705808
v 0.470725 1.451395 2.383669
v 0.776125 1.520260 2.771475
v 0.784075 1.722160 2.762095
v 0.404125 1.739680 2.462961
v 0.813475 0.763360 3.114040
v 0.888025 0.682450 3.199647
v 1.435825 3.254440 2.584769
v 1.504675 3.262720 2.526983
v 1.390825 3.262720 2.506916
v 1.517725 3.320725 2.682338
v 1.435825 3.310465 2.717638
v 1.469125 2.846545 2.676116
v 1.347025 2.570425 2.617109
v 1.375077 2.570425 2.657216
v 1.333525 2.484250 2.584769
v 1.375375 0.763465 3.210369
v 1.335175 3.456325 3.250637
v 1.288525 0.763465 3.283248
v 1.362625 0.682450 3.199647
v 1.506775 1.806880 2.644275
v 1.419775 1.806880 2.675936
v 1.451875 1.663810 2.675828
v 1.515925 1.663810 2.538529
v 1.506775 1.806880 2.525262
v 1.182025 5.986765 2.678877
v 1.125325 7.186795 2.564274
v 1.341025 7.186795 2.622763
v 0.852025 7.317490 2.674785
v 0.979825 7.317535 2.600971
v 1.433425 0.763375 3.112664
v 1.457575 3.456430 3.059110
v 1.383625 5.106715 3.217292
v 1.383775 3.456430 3.217362
v 1.125325 1.960300 3.000525
v 0.936775 1.400440 3.225165
v 0.914125 5.878615 3.459838
v 0.843775 5.818435 3.431129
v 0.843775 5.899750 3.414953
v 0.730376 5.835220 3.564603
v 0.800725 5.772355 3.542343
v 0.800725 5.802010 3.597815
v 0.800725 5.955220 3.444600
v 0.843775 5.986960 3.521206
v 0.883525 5.943550 3.456264
v 0.883525 5.788540 3.503291
v 0.843775 5.788540 3.581396
v 1.508275 2.570425 2.523984
v 1.389625 1.663810 2.664845
v 1.340725 1.789000 2.567997
v 1.360525 1.674850 2.628285
v 0.887125 5.839225 3.291186
v 0.895675 5.248075 3.269862
v 1.188626 5.826130 3.367676
v 0.404125 1.451395 2.462961
v 0.481827 1.674970 2.370455
v 1.012375 5.110030 3.310085
v 0.909025 5.106715 3.258726
v 1.466425 1.891195 2.500830
v 1.405975 1.807000 2.502876
v 1.353925 1.891075 2.554964
v 1.405225 1.891195 2.500832
v 1.698925 5.714380 3.181287
v 1.773325 5.730805 3.212257
v 1.746475 5.725765 3.254611
v 1.783525 5.831515 3.194715
v 1.731025 5.870080 3.212257
v 1.760725 5.837665 3.260772
v 0.640525 3.001885 2.970933
v 0.220225 3.041080 2.965452
v 0.721675 2.996860 3.058090
v 0.829525 2.996785 3.316899
v 1.518327 1.891165 2.554761
v 1.523875 1.891195 2.600277
v 0.777025 2.874895 3.307705
v 0.744775 2.996785 3.243308
v 1.125625 5.838985 2.640271
v 1.356775 5.838985 2.724403
v 1.493575 7.317445 3.213153
v 1.398625 7.317490 3.326265
v 1.125325 7.317550 3.425714
v 1.398625 7.317490 2.674785
v 1.270825 7.317535 2.600971
v 1.435825 2.846545 2.681979
v 1.369375 3.310465 2.699823
v 0.584575 2.683855 2.947685
v 0.612925 2.703550 3.051030
v 0.581125 2.387860 3.058069
v 0.572125 2.381665 2.950329
v 0.221575 2.701525 2.968524
v 1.471225 5.321635 3.061519
v 1.457425 5.106715 3.059093
v 1.173775 2.027020 2.605770
v 1.055575 2.203735 2.591940
v 1.215175 2.071240 2.591940
v 1.077025 2.115370 2.702116
v 1.068925 2.457790 2.702116
v 1.714975 5.757580 3.136020
v 1.773325 5.740645 3.179840
v 1.656625 5.846380 3.223639
v 1.714975 5.847505 3.270606
v 1.093827 2.170150 2.601378
v 1.113025 2.212105 2.530692
v 1.080925 2.156335 2.530692
v 1.176175 2.209750 2.511347
v 1.200177 2.156335 2.549940
v 1.198675 2.125510 2.511347
v 0.760825 5.968690 3.503291
v 0.730376 5.878615 3.459838
v 0.780025 5.898520 3.421118
v 0.780025 5.821915 3.436355
v 1.010425 0.692560 3.316175
v 1.182925 0.682450 3.327271
v 1.338625 0.682450 3.254719
v 1.215175 2.424595 2.591940
v 1.048225 2.424595 2.591940
v 1.215325 2.424655 2.702116
v 1.204975 2.038045 2.702116
v 0.868075 0.692560 3.216415
v 1.392025 1.891165 2.660749
v 1.507225 2.488150 2.524914
v 1.125325 0.682450 2.668701
v 1.291225 0.682450 2.713190
v 0.912025 0.682450 2.746334
v 0.813475 0.682450 2.887047
v 0.730376 5.878615 3.582576
v 0.800725 5.878615 3.629545
v 0.800725 5.955220 3.597815
v 0.883525 5.878615 3.613053
v 0.930625 5.858710 3.529455
v 0.924325 5.913760 3.544693
v 1.313875 1.400440 3.225165
v 1.332025 1.938940 3.075739
v 1.235275 1.938940 3.190973
v 1.335175 3.456325 2.750415
v 1.240675 3.456430 2.683496
v 1.099825 2.110840 2.530692
v 1.145275 2.091955 2.530692
v 1.118575 2.110120 2.601378
v 1.175125 2.186260 2.519660
v 1.145275 2.094670 2.511347
v 1.091875 2.125510 2.511347
v 1.372525 5.805295 3.351756
v 1.146625 5.763430 3.350439
v 1.494925 5.763430 3.184588
v 1.352875 5.805295 3.301369
v 1.062925 6.774025 2.646662
v 1.167775 6.366370 2.759377
v 1.125325 7.317550 2.575341
v 1.005925 5.926255 2.670138
v 1.261975 5.931445 2.621208
v 1.303825 5.839090 2.650926
v 0.993475 5.927305 3.349950
v 0.888625 5.927305 3.289452
v 0.797275 5.863810 3.501387
v 0.992726 5.839225 3.352078
v 0.855625 5.906725 3.535047
v 1.364575 2.488150 2.524914
v 0.979825 7.317535 3.400080
v 0.852025 7.317490 3.326265
v 1.125325 6.320995 3.000525
v 0.896125 6.366265 3.084123
v 0.853525 5.885260 2.772487
v 0.795325 5.321635 2.880404
v 0.779425 5.926585 2.939531
v 0.803575 5.986765 2.943805
v 0.679075 2.704000 3.065836
v 1.354525 6.366265 2.916929
v 1.468827 1.789000 2.494009
v 1.365025 1.663810 2.525331
v 1.519075 1.806910 2.615055
v 1.698925 5.789155 3.293191
v 1.638775 5.789155 3.243835
v 1.669075 5.740645 3.260772
v 1.646275 5.746810 3.194715
v 1.633975 5.800540 3.200876
v 1.646275 5.798095 3.167295
v 1.526875 2.115295 2.584769
v 1.550125 2.276980 2.584769
v 1.541725 2.201605 2.671076
v 1.437025 0.682450 2.887047
v 1.270825 7.317535 3.400080
v 1.452025 0.682450 3.058147
v 0.809725 0.692560 3.115398
v 1.783525 5.831515 3.229801
v 1.783525 5.789155 3.258103
v 1.714975 5.757580 3.288495
v 1.183075 2.194060 2.601378
v 1.159075 2.104810 2.601378
v 1.190875 2.110810 2.527802
v 0.699625 2.678890 3.035601
v 0.205675 3.042160 3.036659
v 0.204175 2.696845 3.036820
v 0.837925 1.729660 2.815670
v 0.865375 1.749790 2.782429
v 0.437425 1.761250 2.423313
v 0.694975 7.186810 3.077221
v 0.706525 7.317400 2.926677
v 1.351375 3.262720 2.615512
v 1.325577 3.320725 2.521083
v 1.544125 7.317400 2.926677
v 1.544125 7.317400 3.074373
v 0.756925 7.317445 2.787899
v 1.495825 3.287590 2.688571
v 1.548475 3.287590 2.625762
v 0.865375 1.443235 2.782429
v 0.435325 1.437640 2.421541
v 1.465825 2.261695 2.667000
v 0.744175 5.950780 3.551099
v 0.713875 5.899750 3.517004
v 0.720175 5.837155 3.512961
v 0.956877 1.938940 2.859173
v 1.087075 1.938940 2.783959
v 1.315075 2.418475 2.584769
v 1.283427 2.480980 2.596344
v 1.302775 1.936120 2.596539
v 1.297975 2.525095 2.572351
v 1.302775 1.936120 2.572995
v 0.465775 1.734550 2.385260
v 0.914125 5.818435 3.533180
v 0.930625 5.890585 3.503291
v 0.817075 5.119975 3.324389
v 0.828025 5.114155 3.170955
v 0.754525 5.113345 3.272529
v 1.125625 5.931550 2.640298
v 0.589227 2.393875 2.950329
v 1.477975 1.685080 2.633061
v 0.678777 3.001570 2.935293
v 1.258075 2.184835 2.762002
v 1.210225 2.212450 2.558281
v 1.305925 2.212450 2.558281
v 1.258075 2.295295 2.558281
v 1.503925 2.163895 2.473932
v 1.373425 2.239285 2.473932
v 1.503925 2.239285 2.473932
v 1.669075 5.827270 3.269307
v 0.913225 5.977810 3.253335
v 1.194325 2.457790 2.702116
v 0.864475 5.839555 3.615492
v 1.244575 5.856040 2.621099
v 1.288075 5.856040 2.672954
v 1.259725 5.749990 2.623761
v 1.244575 5.856040 2.709465
v 1.229425 5.749990 2.706800
v 1.683325 5.804020 3.137486
v 1.698925 5.856460 3.167295
v 1.760725 5.802535 3.144966
v 1.795825 5.777770 3.200876
v 0.678777 2.700070 2.935290
v 0.822175 5.770270 3.499658
v 1.347325 3.662710 3.265160
v 1.495225 1.663810 2.655607
v 1.526875 1.663810 2.600826
v 1.451425 3.262720 2.673300
v 1.375975 3.287590 2.688571
v 1.350475 3.310465 2.482981
v 1.243975 2.248225 2.529669
v 1.258075 2.295295 2.762002
v 1.011775 0.682450 2.688713
v 1.071475 0.682450 2.695453
v 1.356625 5.931550 2.724417
v 1.201075 5.749990 2.672954
v 1.425025 5.816125 2.781600
v 0.838225 2.874880 3.166267
v 1.438675 2.276980 2.473932
v 0.905425 1.938940 3.000525
v 0.956877 1.938940 3.141879
v 1.087075 1.938940 3.217092
v 1.543075 5.805295 3.211618
v 1.526125 5.805295 3.097475
v 1.101775 2.199925 2.511347
v 1.145275 2.220730 2.530692
v 1.175125 2.126425 2.519660
v 1.135075 2.038045 2.702116
v 1.102075 2.071240 2.591940
v 1.528675 2.302150 2.494047
v 1.528675 2.100550 2.494047
v 1.347175 2.100550 2.494047
v 1.347175 2.100550 2.675490
v 1.528675 2.100550 2.675490
v 1.528675 2.302150 2.675490
v 1.347175 2.302150 2.494047
v 1.347175 2.302150 2.675490
v 1.134325 2.197195 2.519660
v 1.202875 2.240065 2.762002
v 1.348825 1.674850 2.584769
v 0.883525 5.954980 3.572232
v 1.526875 2.158450 2.510020
v 0.760825 5.793760 3.486060
v 1.201075 5.856040 2.672954
v 1.282825 5.749990 2.687373
v 1.198675 2.156335 2.601378
v 0.854575 5.115655 3.266280
v 0.772075 5.115655 3.244190
v 0.788275 2.992795 3.304547
v 0.832375 2.992795 3.228017
v 0.854575 2.992795 3.266280
v 1.256275 2.156005 2.584769
v 1.490125 5.763430 2.917074
v 1.580425 5.805295 3.107082
v 1.683325 5.800285 3.229299
v 1.310425 3.320725 2.606886
v 1.414975 3.287590 2.466726
v 0.679525 3.003895 3.066027
v 1.526875 2.262595 2.645761
v 1.416325 2.118280 2.497082
v 0.627325 2.540005 2.989321
v 0.604825 2.521570 2.956613
v 0.892975 1.729660 2.749189
v 1.550125 2.239285 2.519478
v 1.526875 2.276350 2.541612
v 1.164475 5.805295 3.300272
v 0.837925 1.461430 2.815670
v 1.537225 5.805295 2.890600
v 1.343725 5.763430 2.798607
v 1.361575 5.805295 2.748440
v 1.352275 2.201605 2.497082
v 1.395475 2.276350 2.497082
v 1.524925 2.201605 2.497082
v 1.541725 2.126860 2.627922
v 1.526875 2.201605 2.671076
v 1.481725 2.126860 2.497082
v 1.481725 2.276350 2.497082
vn -0.9972 0.0333 0.0662
vn -0.7170 -0.2163 -0.6627
vn -0.8264 -0.0038 -0.5631
vn -0.9631 -0.0045 -0.2693
vn -0.9747 -0.0051 0.2234
vn -0.9957 0.0267 0.0892
vn 0.3333 -0.0143 0.9427
vn -0.0149 -0.0033 0.9999
vn -0.0484 -0.0037 0.9988
vn 0.0248 0.0841 0.9961
vn -0.8899 0.0017 0.4561
vn -0.9732 0.0987 0.2076
vn -0.8556 0.1485 0.4959
vn 0.9656 -0.0402 -0.2568
vn 0.9606 0.1606 -0.2267
vn 0.6965 0.1636 -0.6987
vn -0.3503 -0.0011 0.9367
vn -0.6176 0.0634 0.7840
vn 0.3598 0.0003 -0.9330
vn 0.6615 -0.0304 -0.7494
vn 0.1940 0.0403 -0.9802
vn 0.7885 -0.0199 -0.6147
vn -0.6846 -0.0041 0.7290
vn 0.5064 0.1513 0.8489
vn 0.1818 -0.0119 0.9833
vn -0.0710 0.2823 0.9567
vn -0.2844 -0.0744 -0.9558
vn -0.4016 -0.0455 -0.9147
vn -0.7793 -0.0403 -0.6254
vn -0.5332 0.0051 -0.8460
vn -0.0789 -0.0265 -0.9965
vn -0.3636 0.0005 -0.9315
vn 0.4138 -0.0364 0.9097
vn -0.3799 0.0442 -0.9240
vn -0.4866 -0.0043 -0.8736
vn -0.5972 0.0204 -0.8018
vn -0.9766 0.0143 -0.2148
vn -0.9878 -0.0842 0.1313
vn -0.9165 -0.0254 0.3992
vn -0.7430 -0.0132 0.6691
vn -0.5909 -0.0993 0.8006
vn -0.7649 0.1299 -0.6310
vn -0.5535 0.2030 0.8077
vn -0.9506 0.1982 0.2390
vn -0.8277 0.1374 0.5441
vn 0.9762 0.1316 -0.1722
vn 0.8277 0.1375 -0.5441
vn 0.9506 0.1983 -0.2388
vn -0.5961 -0.0840 0.7985
vn 0.2143 -0.0819 0.9733
vn -0.1332 -0.8155 0.5632
vn -0.2329 -0.0166 -0.9724
vn 0.3954 -0.0207 -0.9183
vn 0.0004 -0.0793 -0.9968
vn 0.9961 -0.0104 -0.0877
vn 0.8677 -0.0319 -0.4961
vn 0.9721 -0.0236 -0.2334
vn 0.9087 0.0208 -0.4170
vn 0.8589 -0.0467 -0.5100
vn 0.9961 -0.0104 -0.0876
vn -0.9527 0.2533 0.1680
vn -0.9953 -0.0388 0.0893
vn -0.8774 0.2039 0.4343
vn -0.0967 -0.1142 0.9887
vn -0.1004 0.4684 0.8778
vn 0.0561 0.2774 0.9591
vn -0.1912 -0.1711 0.9665
vn -0.1129 0.3101 -0.9440
vn -0.0258 -0.3929 -0.9192
vn -0.1353 -0.5511 -0.8234
vn 0.9402 0.1502 0.3057
vn 0.9754 -0.0067 0.2203
vn 0.6897 -0.0209 0.7238
vn -0.5495 0.1873 -0.8142
vn -0.8823 0.1981 -0.4270
vn -0.4284 0.6026 -0.6733
vn 0.7997 -0.0302 0.5996
vn 0.6585 0.2698 0.7026
vn 0.3504 0.0406 0.9357
vn 0.9027 0.2248 -0.3670
vn 0.9763 0.1383 0.1661
vn -0.6070 0.0239 -0.7943
vn -0.6486 0.1019 -0.7543
vn -0.8916 -0.0115 -0.4526
vn 0.5497 0.1873 0.8141
vn 0.8823 0.1982 0.4269
vn 0.4285 0.6026 0.6732
vn -0.8670 -0.1550 -0.4737
vn 0.9062 -0.0230 0.4223
vn 0.5977 -0.0208 0.8015
vn 0.8881 -0.0742 0.4537
vn -0.2158 -0.0150 -0.9763
vn 0.5581 -0.0168 -0.8296
vn -0.3007 0.0184 -0.9535
vn -0.3128 -0.0447 0.9488
vn -0.8912 -0.0005 0.4537
vn -0.2740 -0.0000 0.9617
vn -0.4852 0.0076 0.8744
vn -0.1932 -0.0532 0.9797
vn -0.9877 0.1473 0.0516
vn -0.5551 -0.0028 0.8317
vn 0.9647 0.0072 0.2632
vn 0.6352 0.0432 -0.7712
vn -0.8697 -0.0526 -0.4908
vn -0.9957 -0.0495 0.0779
vn -0.9899 0.0112 0.1410
vn 0.9958 -0.0190 -0.0898
vn 0.6026 -0.0278 0.7976
vn 0.9877 -0.0609 -0.1438
vn 0.7240 -0.0615 -0.6871
vn 0.9214 0.0761 -0.3810
vn -0.2262 -0.0262 -0.9737
vn -0.6532 -0.0551 -0.7552
vn -0.3153 -0.0051 -0.9490
vn -0.2107 0.2082 -0.9551
vn 0.6345 0.0236 -0.7726
vn 0.8160 0.0165 -0.5778
vn 0.6847 0.0032 -0.7289
vn 0.3204 0.0060 -0.9472
vn -0.7561 0.2810 0.5910
vn -0.7295 -0.0457 0.6824
vn -0.0252 -0.0563 -0.9981
vn 0.6496 0.0839 -0.7556
vn 0.2663 -0.0544 -0.9624
vn 0.9695 -0.0792 -0.2320
vn 0.9369 -0.3497 0.0014
vn -0.7207 -0.6202 0.3098
vn -0.3156 -0.6092 0.7275
vn -0.0253 0.0006 -0.9997
vn -0.2909 0.0067 -0.9567
vn -0.4481 -0.8088 0.3809
vn 0.0923 -0.9479 0.3048
vn -0.1421 -0.5745 0.8061
vn 0.3935 0.0739 0.9163
vn 0.2548 -0.0040 0.9670
vn -0.6304 -0.0068 0.7762
vn -0.6978 -0.0052 0.7163
vn -0.9246 -0.0055 0.3809
vn -0.6938 -0.3581 0.6248
vn -0.2235 -0.5007 0.8362
vn 0.7415 -0.0485 0.6692
vn 0.9720 -0.0473 0.2302
vn 0.9908 0.0572 0.1223
vn 0.1930 -0.0010 0.9812
vn 0.9229 -0.0110 0.3848
vn 0.9994 0.0252 -0.0228
vn -0.8036 -0.0165 0.5950
vn -0.9996 -0.0292 0.0003
vn -0.9962 -0.0724 0.0484
vn -0.7530 0.0664 -0.6547
vn -0.3700 -0.0422 -0.9281
vn 0.1158 -0.0397 -0.9925
vn -0.9518 0.0987 0.2905
vn -0.9938 -0.0236 -0.1088
vn -0.7297 0.6597 -0.1798
vn 0.7297 0.6597 0.1798
vn -0.9515 -0.1402 0.2739
vn -0.8899 0.0343 -0.4548
vn -0.8696 0.1087 0.4817
vn -0.8146 -0.0173 -0.5798
vn -0.8628 0.0680 -0.5010
vn -0.8170 -0.1414 0.5591
vn -0.4309 -0.2615 0.8637
vn -0.2235 -0.5007 0.8363
vn -0.7525 -0.3398 -0.5641
vn -0.6394 -0.4494 0.6239
vn -0.4252 -0.8648 0.2670
vn 0.1624 0.9725 0.1672
vn -0.7156 0.3064 0.6277
vn -0.5034 0.6266 -0.5950
vn 0.0164 -0.4281 0.9036
vn -0.2570 0.6038 -0.7546
vn -0.5742 0.3426 -0.7436
vn -0.5131 -0.4232 -0.7467
vn -0.1806 0.6093 -0.7721
vn -0.7155 0.3064 0.6278
vn -0.9795 0.1950 0.0511
vn -0.3238 -0.0050 0.9461
vn 0.5534 0.2025 -0.8079
vn -0.0727 0.1945 -0.9782
vn 0.1718 0.6771 -0.7156
vn -0.0066 -0.2934 -0.9560
vn 0.6577 -0.0323 -0.7525
vn 0.4596 -0.6588 -0.5956
vn 0.6117 -0.4409 -0.6569
vn -0.6873 -0.0184 0.7261
vn -0.5856 0.5864 0.5596
vn -0.5688 0.3812 0.7288
vn -0.9414 0.0525 0.3331
vn 0.8358 -0.0207 -0.5486
vn 0.9996 -0.0294 0.0014
vn -0.1215 0.9924 -0.0208
vn -0.3200 0.9323 0.1686
vn 0.1822 0.8953 0.4065
vn 0.6348 -0.0597 0.7704
vn 0.0643 0.2156 0.9743
vn 0.3857 -0.0544 0.9210
vn -0.8598 0.1301 0.4937
vn -0.5990 -0.0510 0.7991
vn -0.8480 -0.1635 0.5042
vn 0.7848 -0.0272 0.6192
vn 0.6915 -0.0275 0.7219
vn 0.4869 0.0222 0.8732
vn -0.5238 -0.8519 0.0001
vn -0.5650 -0.7384 -0.3681
vn 0.6281 0.0892 0.7730
vn -0.1509 0.0128 0.9885
vn 0.2042 0.0255 0.9786
vn 0.9030 0.0267 -0.4288
vn 0.1758 -0.0536 -0.9830
vn 0.7739 0.0605 -0.6304
vn 0.2319 0.1055 -0.9670
vn 0.0588 -0.0194 -0.9981
vn 0.4641 -0.0238 -0.8855
vn -0.6837 0.1067 -0.7219
vn -0.3854 0.0911 -0.9182
vn 0.9392 -0.0004 0.3433
vn 0.9638 0.0001 0.2665
vn 0.8154 -0.0200 0.5786
vn 0.7740 -0.0310 0.6324
vn -0.0000 -1.0000 -0.0000
vn 0.6176 -0.0814 -0.7822
vn 0.0003 -0.0793 -0.9968
vn 0.3719 -0.3406 -0.8636
vn 0.7924 -0.1375 -0.5944
vn 0.2787 -0.5581 -0.7816
vn 0.1807 0.1203 -0.9761
vn -0.7944 -0.5032 0.3402
vn -0.1970 -0.9551 0.2214
vn -0.2889 -0.5879 0.7556
vn -0.1169 0.7271 -0.6765
vn 0.2587 0.9656 -0.0255
vn 0.5687 0.6087 -0.5532
vn 0.5857 -0.7843 -0.2044
vn 0.3049 -0.8270 0.4723
vn 0.8659 0.0008 -0.5002
vn -0.5360 -0.0084 0.8442
vn -0.9717 0.0462 -0.2317
vn -0.9246 -0.0381 0.3791
vn -0.6483 -0.3661 0.6676
vn -0.3777 0.1552 0.9128
vn 0.1760 0.2119 0.9613
vn -0.9326 0.3031 0.1962
vn -0.5029 -0.5968 0.6252
vn 0.6629 0.1036 -0.7415
vn -0.8264 0.0871 0.5564
vn -0.9691 0.0918 0.2288
vn -0.3463 -0.0083 0.9381
vn -0.2829 -0.2963 0.9122
vn -0.6977 -0.0052 0.7163
vn 0.3092 0.0132 -0.9509
vn -0.3081 0.0395 -0.9505
vn -0.8143 -0.2211 -0.5368
vn -0.5263 0.0162 -0.8501
vn -0.0768 -0.9685 -0.2369
vn 0.6927 -0.7180 0.0673
vn 0.2858 -0.8201 0.4957
vn 0.6731 0.6858 -0.2767
vn 0.1657 0.9843 0.0610
vn 0.5020 0.6548 0.5649
vn -0.1528 0.9716 -0.1807
vn -0.0746 0.9613 -0.2653
vn -0.0682 0.5884 0.8057
vn -0.2973 0.9534 0.0507
vn 0.0891 0.9948 -0.0502
vn -0.1908 0.9568 0.2195
vn 0.9116 0.0147 -0.4108
vn 0.9730 -0.0199 0.2300
vn -0.3323 -0.7631 0.5544
vn -0.1216 -0.7018 0.7020
vn 0.1472 -0.9158 0.3737
vn -0.7462 -0.0654 0.6625
vn 0.0819 0.7725 0.6297
vn -0.7697 0.4897 0.4095
vn -0.0378 -0.0586 -0.9976
vn 0.6285 0.1230 -0.7680
vn 0.8664 0.0308 0.4984
vn 0.6389 0.1102 0.7613
vn -0.0382 0.0886 0.9953
vn 0.6420 0.0852 -0.7619
vn 0.8792 0.0435 -0.4744
vn 0.3143 0.0628 -0.9472
vn -0.8819 0.3257 -0.3409
vn -0.5742 0.3426 -0.7435
vn -0.1897 -0.0434 0.9809
vn -0.4524 0.2045 0.8680
vn 0.3796 -0.3776 -0.8446
vn 0.6673 -0.7437 -0.0414
vn 0.8330 0.5037 -0.2290
vn -0.4432 -0.6565 0.6104
vn -0.3486 -0.5861 -0.7314
vn -0.8826 -0.4701 0.0060
vn -0.1160 -0.9762 -0.1833
vn -0.3671 -0.7519 -0.5476
vn -0.5465 -0.8151 0.1921
vn -0.8500 -0.4187 -0.3197
vn 0.9816 -0.0328 0.1883
vn 0.9782 -0.0333 0.2051
vn 0.0853 -0.7822 -0.6172
vn -0.2043 -0.1011 -0.9737
vn 0.2358 -0.3694 -0.8989
vn -0.9866 -0.1310 0.0969
vn -0.9426 -0.3297 0.0519
vn -0.9826 -0.0280 0.1835
vn -0.1492 -0.4387 -0.8862
vn 0.6114 -0.5824 -0.5357
vn -0.6379 0.7542 0.1556
vn -0.0652 0.7425 0.6667
vn -0.8493 0.4217 0.3177
vn -0.4890 0.8661 0.1038
vn -0.9993 -0.0063 0.0374
vn 0.5783 0.6449 -0.4997
vn 0.9972 -0.0366 0.0656
vn 0.8268 -0.1293 -0.5475
vn -0.6223 0.7178 -0.3123
vn -0.8258 0.0594 -0.5609
vn -0.4626 0.2304 -0.8561
vn -0.4039 -0.4787 -0.7795
vn -0.3405 -0.4701 0.8143
vn 0.1911 -0.2704 0.9436
vn 0.6640 -0.0172 0.7475
vn -0.0000 0.9575 -0.2885
vn 0.2311 0.6702 -0.7053
vn -0.0000 0.5964 -0.8027
vn 0.9840 0.1762 0.0282
vn 0.7017 -0.7122 0.0214
vn 0.9653 -0.2602 -0.0227
vn -0.3404 -0.4701 0.8143
vn -0.6349 -0.5761 0.5149
vn -0.3725 -0.0847 0.9242
vn -0.5462 0.0365 0.8368
vn -0.8937 -0.1009 0.4372
vn -0.9720 0.0525 0.2289
vn 0.6089 -0.0543 -0.7914
vn 0.0120 -0.5552 -0.8316
vn 0.1940 0.0402 -0.9802
vn 0.3969 -0.5932 -0.7004
vn -0.6285 -0.0198 -0.7776
vn -0.9468 -0.1466 -0.2866
vn -0.7465 0.0575 0.6628
vn -0.1586 -0.0090 0.9873
vn -0.1541 0.6469 0.7468
vn 0.6114 0.0738 0.7879
vn 0.9711 -0.2384 0.0103
vn 0.8960 0.3996 0.1934
vn -0.4524 0.1915 -0.8710
vn -0.6831 -0.0750 -0.7264
vn -0.7438 -0.6111 -0.2707
vn -0.3528 -0.6203 -0.7005
vn 0.6830 -0.1852 -0.7066
vn 0.2702 -0.4577 -0.8471
vn 0.6952 -0.0199 -0.7186
vn -0.6681 -0.7436 -0.0275
vn -0.0285 -0.9992 0.0274
vn -0.6434 -0.7352 0.2133
vn -0.1238 -0.0642 -0.9902
vn 0.0026 -0.5844 -0.8115
vn -0.2244 -0.1314 -0.9656
vn 0.2879 -0.8579 0.4256
vn 0.1001 -0.9810 -0.1663
vn 0.1094 -0.9722 0.2070
vn -0.2612 0.9073 -0.3295
vn -0.7840 0.3394 -0.5198
vn -0.2817 0.9594 -0.0113
vn 0.0729 0.1945 0.9782
vn -0.1718 0.6771 0.7156
vn -0.0591 0.0834 -0.9948
vn -0.4041 0.1554 -0.9014
vn 0.2406 -0.0615 -0.9687
vn 0.5389 -0.3921 -0.7456
vn -0.0368 -0.2243 -0.9738
vn -0.3575 0.2857 0.8891
vn -0.0372 0.6012 0.7982
vn -0.6536 0.6387 0.4059
vn -0.6333 0.7540 -0.1745
vn 0.0591 0.4538 0.8891
vn 0.1590 -0.6644 0.7303
vn 0.2085 -0.4843 0.8497
vn 0.0591 0.4539 0.8891
vn 0.6244 -0.4542 0.6354
vn -0.9828 -0.0861 0.1634
vn -0.7519 -0.0214 -0.6590
vn -0.3410 0.0799 0.9366
vn -0.5964 0.0720 0.7995
vn 0.1300 -0.0010 0.9915
vn -0.1452 -0.5151 0.8447
vn -0.1707 -0.4712 0.8654
vn -0.3730 -0.0060 0.9278
vn -0.0000 1.0000 -0.0000
vn 0.6400 0.6770 -0.3635
vn -0.7764 0.1584 -0.6101
vn -0.9246 -0.0274 -0.3801
vn -0.9642 0.1554 -0.2147
vn -0.9538 0.1853 -0.2366
vn -0.5662 -0.0690 0.8213
vn -0.4167 -0.0210 0.9088
vn -0.9236 0.0095 0.3832
vn 0.1042 -0.1829 0.9776
vn -0.2579 -0.0476 0.9650
vn -0.2713 -0.0001 0.9625
vn -0.6400 0.6769 0.3635
vn 0.2722 0.2624 -0.9258
vn -0.7525 -0.0103 -0.6585
vn 0.9697 0.0782 0.2315
vn -0.1372 0.0663 0.9883
vn -0.8935 -0.0113 0.4490
vn -0.5069 -0.6663 0.5469
vn -0.8260 -0.5019 -0.2566
vn -0.8913 0.3862 -0.2377
vn -0.7612 0.0075 -0.6484
vn 0.9862 -0.0245 -0.1637
vn 0.9949 0.0987 0.0209
vn 0.9520 -0.0202 0.3053
vn 0.4927 -0.0383 -0.8694
vn 0.4827 -0.7767 -0.4047
vn 0.6615 -0.0305 -0.7493
vn 0.8077 -0.4890 -0.3294
vn -0.6802 0.1372 -0.7201
vn 0.3695 0.1018 0.9236
vn 0.4567 -0.7258 0.5143
vn 0.7370 -0.6408 0.2148
vn 0.9253 -0.0388 -0.3773
vn -0.9073 -0.3907 0.1558
vn 0.8579 0.4734 0.1994
vn 0.7567 -0.0848 0.6483
vn 0.1129 -0.3935 0.9124
vn -0.6022 0.7476 0.2802
vn 0.5287 0.8247 0.2009
vn 0.9972 -0.0366 0.0657
vn 0.5494 -0.8137 0.1900
vn 0.6813 -0.7320 0.0065
vn -0.0801 -0.4249 0.9017
vn -0.4786 -0.5722 -0.6660
vn -0.5185 -0.7785 0.3536
vn -0.1437 -0.9638 0.2246
vn -0.0747 0.9613 -0.2652
vn -0.1877 0.9627 0.1948
vn -0.0034 0.9619 0.2735
vn -0.9820 -0.1849 -0.0395
vn -0.9674 0.2468 -0.0562
vn -0.9675 0.2466 -0.0557
vn -0.8031 0.5671 -0.1827
vn -0.2758 0.9544 -0.1144
vn -0.3696 0.9271 -0.0624
vn -0.9979 -0.0312 0.0570
vn -0.9847 0.0241 -0.1727
vn 0.4909 0.8666 -0.0894
vn -0.9431 0.0114 -0.3323
vn 0.9899 0.0689 -0.1240
vn 0.9809 0.0894 0.1728
vn -0.9838 0.1379 -0.1149
vn -0.9762 0.1315 0.1727
vn -0.1676 -0.9751 0.1451
vn -0.8604 -0.4986 -0.1056
vn 0.9838 0.1379 0.1146
vn -0.8619 0.0976 -0.4977
vn -0.3422 0.7616 -0.5503
vn -0.8128 0.5528 -0.1838
vn -0.3173 -0.3679 -0.8740
vn -0.2314 -0.9178 -0.3227
vn 0.1500 -0.9780 -0.1451
vn 0.0145 0.0139 -0.9998
vn 0.3593 -0.0165 0.9331
vn -0.6375 0.7019 0.3177
vn -0.9821 0.1884 -0.0003
vn -0.9009 -0.3805 -0.2089
vn 0.4132 -0.7226 0.5542
vn 0.5713 -0.6203 0.5375
vn 0.1171 -0.7345 0.6684
vn 0.5322 -0.0870 0.8421
vn -0.0609 0.0092 0.9981
vn 0.1271 0.0537 0.9904
vn -0.0601 -0.0681 -0.9959
vn 0.4738 -0.1484 -0.8681
vn 0.1594 0.0888 -0.9832
vn 0.1470 0.7257 -0.6722
vn -0.7641 0.0656 -0.6418
vn -0.7775 0.0006 -0.6289
vn -0.7721 -0.0192 -0.6352
vn 0.7847 -0.5349 0.3133
vn 0.9201 0.3426 -0.1900
vn -0.3778 0.1552 0.9128
vn 0.0003 -0.2515 0.9679
vn -0.2680 -0.5091 0.8179
vn -0.9641 -0.1677 0.2060
vn -0.9696 0.1012 0.2230
vn 0.0152 0.4412 -0.8973
vn 0.9954 -0.0436 -0.0858
vn 0.8489 0.5204 0.0931
vn 0.6591 0.7408 0.1300
vn -0.6338 -0.2862 0.7186
vn -0.3243 -0.4971 0.8048
vn 0.1624 0.9725 0.1673
vn 0.0656 0.9797 -0.1894
vn -0.7708 -0.4038 -0.4928
vn -0.1291 -0.9683 -0.2139
vn 0.0838 -0.9200 -0.3827
vn 0.0929 -0.9768 -0.1929
vn 0.0929 0.8088 -0.5807
vn -0.1316 0.7286 -0.6721
vn -0.1482 -0.4795 -0.8649
vn 0.0252 0.5940 -0.8040
vn -0.3838 -0.9227 -0.0349
vn -0.2746 -0.9035 -0.3290
vn -0.0000 -0.8701 -0.4929
vn 0.9580 0.2520 0.1366
vn 0.8232 0.4755 -0.3104
vn 0.9286 0.3107 -0.2028
vn -0.6833 -0.7002 -0.2069
vn -0.3407 -0.9383 0.0598
vn -0.3473 -0.8779 0.3296
vn -0.6348 -0.5761 0.5149
vn 0.1881 -0.2190 -0.9574
vn -0.1967 0.0221 -0.9802
vn 0.3103 0.1791 -0.9336
vn -0.5658 0.4447 0.6944
vn -0.7620 0.0984 -0.6400
vn -0.6018 0.2501 0.7585
vn -0.4997 0.6878 0.5265
vn 0.3037 -0.0033 -0.9528
vn 0.4855 0.8582 -0.1667
vn 0.3648 -0.4251 0.8284
vn 0.7628 0.0929 -0.6399
vn 0.8662 0.0002 -0.4997
vn 0.8155 -0.0396 0.5774
vn -0.0026 -0.0721 0.9974
vn 0.4452 -0.4550 0.7712
vn -0.3420 0.4202 -0.8405
vn -0.1656 0.7863 -0.5953
vn 0.5303 0.1743 -0.8297
vn 0.9866 -0.0896 -0.1361
vn -0.0363 -0.1634 -0.9859
vn 0.1638 -0.1716 -0.9715
vn 0.0771 -0.6392 0.7651
vn 0.4569 -0.8003 -0.3883
vn -0.2840 -0.9223 -0.2621
vn -0.0157 -0.9404 -0.3397
vn -0.9204 0.2031 0.3341
vn -0.4697 0.1913 -0.8619
vn 0.1552 -0.0606 -0.9860
vn 0.5828 -0.0358 0.8118
vn -0.0943 -0.8673 -0.4889
vn 0.7763 -0.0030 0.6303
vn 0.9840 0.0363 0.1744
vn 0.0207 0.3192 -0.9475
vn -0.6920 0.1759 -0.7002
vn -0.0594 0.9253 -0.3746
vn 0.4153 0.6160 -0.6694
vn -0.6148 -0.0716 -0.7854
vn 0.6342 0.7261 0.2656
vn 0.1466 -0.6739 0.7241
vn 0.4568 -0.7258 0.5143
vn -0.8373 -0.0375 -0.5455
vn -0.2330 -0.0165 -0.9723
vn -0.6831 -0.0749 -0.7265
vn 0.3217 -0.1856 -0.9285
vn 0.7241 0.0898 -0.6838
vn -0.7922 0.6072 -0.0609
vn -0.8506 0.4913 -0.1874
vn -0.9466 0.2957 -0.1287
vn 0.2842 0.1366 -0.9490
vn -0.0004 0.1301 -0.9915
vn -0.3399 0.1172 -0.9331
vn -0.9398 0.0667 -0.3351
vn -0.1827 -0.8455 -0.5017
vn -0.4356 -0.7209 -0.5390
vn 0.5976 -0.0208 0.8015
vn 0.1737 -0.0292 0.9844
vn 0.2143 -0.0818 0.9733
vn 0.6876 0.4160 -0.5951
vn -0.4286 -0.7451 -0.5110
vn -0.4847 -0.7282 -0.4845
vn -0.7062 -0.0555 -0.7059
vn -0.9428 0.0404 0.3310
vn -0.2579 0.1237 0.9582
vn -0.7066 0.0467 0.7061
vn -0.4927 0.0723 -0.8672
vn -0.6205 0.0772 -0.7804
vn -0.7085 0.1174 -0.6958
vn 0.1594 0.0889 -0.9832
vn -0.3711 0.0579 0.9268
vn -0.6469 0.0863 0.7577
vn 0.7917 0.1417 -0.5943
vn 0.7355 0.2328 -0.6363
vn -0.0011 0.9984 -0.0561
vn -0.1806 0.6092 -0.7722
vn 0.0890 0.9948 -0.0502
vn -0.8590 -0.0066 0.5120
vn -0.7004 -0.4211 0.5762
vn -0.2841 0.1366 0.9490
vn 0.0004 0.1301 0.9915
vn 0.3400 0.1172 0.9331
vn 0.6800 0.1373 0.7203
vn 0.0002 0.4797 -0.8774
vn -0.9761 -0.0168 0.2166
vn -0.9607 -0.2545 0.1108
vn -0.2157 -0.8798 0.4237
vn -0.3956 -0.8943 -0.2093
vn 0.7831 -0.6203 0.0446
vn 0.6287 -0.6203 -0.4691
vn 0.1800 -0.6203 -0.7635
vn -0.9805 -0.0326 0.1940
vn -0.0000 0.5965 -0.8026
vn 0.0086 1.0000 0.0031
vn -0.3185 0.9479 -0.0048
vn -0.0778 0.9835 -0.1634
vn 0.1471 -0.6503 0.7453
vn 0.2880 -0.8578 0.4257
vn 0.2549 -0.9055 0.3392
vn 0.3601 0.5982 -0.7159
vn -0.4006 0.4490 -0.7987
vn -0.1706 0.8383 -0.5179
vn 0.5880 0.7788 -0.2185
vn -0.1214 0.1704 -0.9779
vn 0.7017 -0.7121 0.0213
vn 0.7534 -0.2652 -0.6017
vn 0.0168 -0.9254 -0.3787
vn -0.4704 -0.8821 0.0239
vn -0.7821 -0.6215 -0.0449
vn -0.2748 -0.9035 -0.3290
vn 0.3217 -0.1855 -0.9285
vn 0.2452 -0.5906 -0.7688
vn -0.8051 0.4650 -0.3682
vn -0.6369 0.1305 0.7598
vn -0.0000 -0.0000 -1.0000
vn -0.0000 -0.0000 1.0000
vn -0.8586 0.1314 -0.4955
vn -0.7707 -0.3360 0.5414
vn -0.7247 0.6136 0.3134
vn -0.8839 -0.1777 0.4326
vn -0.6332 0.7540 -0.1746
vn -0.4096 0.7808 0.4718
vn -0.8726 -0.3280 0.3620
vn -0.8828 0.0145 0.4695
vn -0.9806 -0.0973 0.1699
vn -0.0710 0.2824 0.9567
vn -0.9836 0.0711 0.1656
vn -0.0379 -0.0586 -0.9976
vn 0.0161 0.2925 -0.9561
vn -0.2030 -0.2421 0.9488
vn -0.6542 -0.1427 0.7428
vn 0.1408 -0.1137 0.9835
vn -0.8090 0.3033 -0.5034
vn 0.6366 0.1305 -0.7600
vn 0.1368 0.0338 -0.9900
vn 0.8586 0.1316 0.4954
vn -0.2299 -0.0416 0.9723
vn -0.8035 -0.0166 0.5950
vn -0.5961 -0.0839 0.7985
vn -0.6541 -0.5810 0.4844
vn -0.7941 -0.4529 -0.4054
vn -0.3839 -0.9227 -0.0349
vn -0.7056 -0.7052 0.0701
vn 0.9286 0.3106 -0.2028
vn 1.0000 -0.0000 -0.0000
vn 0.9581 0.2519 0.1366
vn -0.0002 -1.0000 -0.0000
vn -0.1290 -0.7132 0.6890
vn -0.1547 -0.9879 -0.0117
vn 0.0922 -0.9480 0.3047
vn -0.6362 -0.7714 -0.0117
vn -0.4925 0.1758 -0.8524
vn 0.0406 0.2663 -0.9630
vn -0.0255 0.7274 -0.6857
vn -0.5873 0.1779 -0.7896
vn -0.7170 -0.2164 -0.6627
vn -0.6068 0.4232 -0.6729
vn 0.2396 -0.9276 -0.2866
vn 0.5867 -0.7714 -0.2465
vn -0.2923 -0.9504 -0.1063
vn 0.7370 -0.6409 0.2149
vn 0.8077 -0.4891 -0.3293
vn 0.5179 0.6802 0.5188
vn 0.9749 -0.2186 0.0434
vn 0.2007 -0.9501 0.2390
vn 0.4330 -0.8982 0.0760
vn -0.4283 -0.9036 0.0010
vn -0.1401 0.0099 0.9901
vn -0.3242 0.7157 0.6186
vn -0.3282 -0.6332 0.7009
vn 0.1467 -0.6739 0.7241
vn -0.1824 -0.9424 0.2803
vn -0.3546 -0.9163 0.1862
vn -0.5723 -0.7954 -0.1997
vn -0.7661 -0.0000 -0.6427
vn -0.7062 -0.0555 -0.7058
vn -0.9430 -0.0075 -0.3327
vn 0.4039 -0.9030 -0.1467
vn 0.7718 -0.4541 -0.4452
vn 0.9946 -0.0468 -0.0930
vn 0.1793 -0.7256 -0.6644
vn 0.4038 -0.9030 -0.1467
vn -0.2738 -0.9047 -0.3264
vn -0.1596 -0.7282 -0.6666
vn 0.0296 -0.7353 -0.6771
vn 0.3478 -0.7673 -0.5387
vn -0.0378 -0.9005 0.4331
vn 0.0121 -0.5553 -0.8316
vn 0.9909 -0.1312 0.0289
vn -0.3778 0.1553 0.9128
vn -0.8313 0.5132 0.2135
vn 0.1305 0.0138 0.9913
vn -0.2586 0.0255 0.9657
vn 0.1306 0.0138 0.9913
vn -0.3832 -0.0038 -0.9237
vn 0.6078 0.0079 -0.7940
vn 0.1298 -0.0031 -0.9915
vn -0.3831 -0.0038 -0.9237
vn -0.8663 -0.0208 -0.4992
vn -0.3831 -0.0039 -0.9237
vn 0.4999 -0.0000 0.8661
vn -0.3385 0.7949 0.5036
vn -0.5100 0.6581 0.5539
vn -0.8455 -0.0469 -0.5318
vn -0.4696 0.1913 -0.8619
vn -0.2709 -0.1623 -0.9488
vn -0.7907 -0.1352 0.5970
vn -0.4194 -0.3313 0.8452
vn -0.0610 0.0092 0.9981
vn -0.4796 0.8687 -0.1238
vn -0.5970 0.7603 0.2561
vn -0.7840 0.3393 -0.5198
vn -0.3470 -0.8395 -0.4181
vn -0.4273 -0.3141 -0.8478
vn -0.9416 0.0010 -0.3367
vn 0.1094 -0.9722 0.2069
vn 0.4400 -0.8890 -0.1268
vn 0.0744 -0.9004 0.4287
vn 0.4999 -0.8388 -0.2159
vn -0.9641 -0.1677 0.2061
vn 0.7905 0.5739 -0.2137
vn 0.1737 0.6903 0.7024
vn 0.0283 0.2543 0.9667
vn 0.3972 0.6896 0.6055
vn 0.9604 0.2787 -0.0015
vn -0.4251 -0.8649 0.2670
vn -0.2795 -0.2518 0.9265
vn -0.0612 0.8181 0.5718
vn -0.1609 0.4045 0.9003
vn 0.8330 0.5036 -0.2290
vn 0.2582 0.7361 -0.6257
vn 0.1883 0.9768 -0.1024
vn -0.6482 -0.3661 0.6677
vn -0.0594 -0.7570 0.6507
vn 0.1252 -0.9396 0.3186
vn 0.0254 -0.5648 -0.8248
vn 0.0363 -0.8000 -0.5988
vn 0.0007 -1.0000 -0.0019
vn 0.5849 -0.0603 -0.8089
vn 0.9469 0.3176 0.0499
vn 0.2475 0.7381 0.6276
vn 0.8308 0.0992 0.5476
vn 0.9587 -0.0532 0.2795
vn -0.1580 -0.3778 -0.9123
vn -0.1989 0.9661 -0.1649
vn -0.9794 0.1951 0.0511
vn -0.6199 0.4065 -0.6712
vn 0.1520 -0.9584 0.2417
vn 0.1520 -0.9584 0.2418
vn 0.2491 -0.9685 -0.0000
vn -0.7403 0.3196 -0.5915
vn -0.8266 0.5626 0.0127
vn 0.3235 0.3244 -0.8889
vn 0.0534 -0.4330 0.8998
vn -0.0780 -0.5275 0.8460
vn 0.1042 -0.1830 0.9776
vn -0.2709 -0.7990 0.5369
vn -0.1371 -0.5946 0.7922
vn -1.0000 -0.0000 -0.0000
vn 0.1093 0.9120 0.3954
vn -0.2597 -0.0892 0.9616
vn -0.7438 -0.0037 0.6684
vn 0.9697 0.2114 -0.1221
vn 0.9748 -0.2186 0.0434
vn -0.0196 0.8557 -0.5171
vn 0.2476 0.7381 0.6276
vn 0.5328 0.8434 0.0692
vn -0.0375 -0.9975 0.0595
vn -0.2679 -0.5091 0.8179
vn 0.3684 -0.6645 0.6501
vn 0.0188 0.3818 0.9241
vn 0.1000 -0.9810 -0.1663
vn 0.0037 -0.7684 -0.6399
vn -0.3150 -0.7296 -0.6070
vn -0.2817 0.9594 -0.0114
vn -0.0522 0.9761 0.2109
vn -0.0788 0.9446 0.3186
vn 0.3235 0.3243 -0.8889
vn -0.7090 -0.3184 -0.6293
vn -0.8091 0.3033 -0.5034
vn -0.8455 -0.0469 -0.5319
vn -0.9498 0.3130 -0.0005
vn -0.8658 0.4987 -0.0408
vn -0.4349 0.1558 0.8869
vn -0.9204 0.2032 0.3341
vn -0.0067 -0.2934 -0.9560
vn -0.8732 -0.3577 0.3311
vn 0.5409 0.7266 -0.4237
vn -0.1067 -0.9500 -0.2933
vn -0.5086 -0.8409 -0.1850
vn 0.3464 -0.8583 0.3786
vn 0.6175 -0.7583 0.2088
vn -0.6537 0.6387 0.4059
vn 0.0113 0.9999 0.0040
vn 0.0342 0.9993 0.0122
vn 0.4852 -0.7870 -0.3811
vn 0.4998 -0.8388 -0.2160
vn 0.4028 -0.7681 -0.4977
vn 0.4853 -0.7870 -0.3810
vn -0.5969 0.7603 0.2562
vn -0.3898 0.9056 0.1669
vn -0.4028 0.7681 0.4977
vn -0.3898 0.9057 0.1669
vn -0.5969 0.7603 0.2561
vn -0.8280 0.4449 0.3414
vn -0.9268 0.3668 0.0805
vn -0.2780 0.4373 -0.8553
vn -0.0627 0.9976 0.0280
vn -0.0954 0.9107 -0.4020
vn -0.1528 0.9716 -0.1806
vn -0.0892 0.4301 -0.8984
vn -0.1581 -0.3778 -0.9123
vn -0.8262 0.1264 -0.5491
vn -0.3646 0.1241 -0.9229
vn -0.8261 0.1263 -0.5491
vn -0.4848 0.8398 -0.2442
vn -0.6872 0.3505 -0.6363
vn 0.4912 0.2837 -0.8236
vn 0.9706 -0.0000 -0.2407
vn 0.3885 -0.3247 -0.8624
vn -0.3712 -0.1722 0.9124
vn -0.2207 0.0338 0.9748
vn 0.4725 -0.3755 -0.7973
vn 0.0634 -0.7285 -0.6822
vn 0.9252 -0.3181 -0.2069
vn -0.4717 0.8433 -0.2575
vn -0.3163 0.9340 0.1662
vn 0.6244 -0.4543 0.6354
vn 0.1253 -0.9395 0.3187
vn 0.1591 -0.6644 0.7303
vn -0.2138 0.3585 -0.9087
vn -0.2124 -0.7926 0.5715
vn -0.8126 -0.4111 -0.4132
vn -0.8121 -0.5184 0.2678
vn -0.9856 -0.0523 -0.1605
vn -0.8755 -0.3139 -0.3673
vn -0.5333 -0.7133 0.4548
vn -0.7526 -0.3398 -0.5641
vn -0.7608 -0.4730 0.4444
vn 0.0022 -1.0000 0.0008
vn 0.3826 -0.7375 0.5565
vn 0.3604 -0.7380 0.5705
vn -0.8069 0.5668 -0.1662
vn -0.7021 0.7018 -0.1205
vn -0.9483 0.2828 -0.1442
vn -0.1553 -0.9506 -0.2688
vn -0.0000 -0.9500 0.3121
vn -0.9515 -0.1402 0.2740
vn -0.0536 -0.0700 -0.9961
vn -0.0345 0.0030 -0.9994
vn -0.1220 0.5330 -0.8373
vn -0.0307 -0.1988 -0.9795
vn -0.1344 -0.6360 -0.7599
vn 0.1618 -0.3994 -0.9024
vn 0.0252 0.5941 -0.8040
vn 0.0071 -0.3787 -0.9255
vn -0.0362 -0.1634 -0.9859
vn -0.8090 0.3753 0.4523
vn -0.9340 0.2714 -0.2323
vn -0.3695 0.9271 -0.0625
vn -0.3423 0.6381 -0.6897
vn -0.4481 -0.8088 0.3808
vn -0.5585 -0.8267 -0.0685
vn -0.4086 -0.7990 -0.4412
vn -0.9426 -0.3298 0.0519
vn 0.2304 0.2950 -0.9273
vn 0.6877 0.4159 -0.5951
vn 0.4901 0.7464 -0.4503
vn 0.1085 0.6082 -0.7863
vn 0.5444 0.6263 -0.5580
vn -0.4522 0.2309 -0.8615
vn -0.0196 0.8557 -0.5170
vn 0.1433 0.5722 -0.8075
vn 0.6912 0.3469 -0.6340
vn -0.3378 0.1077 -0.9350
vn -0.2940 -0.1568 -0.9429
vn -0.2138 0.3586 -0.9087
vn 0.0576 0.2022 -0.9776
vn -0.1236 -0.0643 -0.9902
vn 0.6285 -0.7379 -0.2458
vn -0.3339 -0.0076 0.9426
vn -0.6429 -0.0000 0.7660
vn -0.7065 0.0467 0.7061
vn 0.0919 0.0395 0.9950
vn 0.3398 0.1102 0.9340
vn 0.5000 -0.0001 0.8660
vn 0.4288 -0.7451 0.5109
vn -0.8361 -0.4129 -0.3612
vn -0.4188 -0.2097 -0.8836
vn -0.6680 -0.7437 -0.0276
vn 0.4856 0.8582 -0.1666
vn 0.9839 0.1762 0.0282
vn 0.5910 0.7850 -0.1857
vn -0.1826 -0.8455 -0.5018
vn 0.0940 -0.8408 0.5331
vn -0.4187 -0.2097 -0.8836
vn -0.9993 -0.0063 0.0375
vn -0.5927 0.6775 -0.4356
vn 0.6236 0.5848 -0.5188
vn -0.8266 0.5627 0.0127
vn -0.2711 0.9063 -0.3243
vn -0.1989 0.9660 -0.1650
vn 0.0446 -0.8831 0.4671
vn -0.7509 0.1960 -0.6307
vn 0.9862 -0.0244 -0.1638
vn 0.9871 0.1599 0.0034
vn 0.9050 0.2127 -0.3684
vn -0.3485 -0.2127 0.9128
vn -0.8328 -0.3915 0.3915
vn -0.4754 -0.5088 0.7177
vn -0.3486 -0.2127 0.9128
vn 0.3533 0.1080 0.9292
vn 0.6434 0.0399 0.7645
vn -0.0746 0.9613 -0.2652
vn -0.7487 0.4156 -0.5164
vn -0.7041 0.6962 0.1399
vn 0.1644 -0.3163 -0.9343
vn 0.5781 -0.6527 -0.4898
vn -0.1580 -0.3779 -0.9123
vn 0.9706 -0.0000 -0.2408
vn 0.5780 -0.6526 -0.4898
vn 0.6801 -0.4293 -0.5943
vn 0.6483 -0.3496 0.6764
vn 0.7258 -0.3491 0.5928
vn -0.4028 0.7682 0.4977
vn 0.5632 -0.2803 0.7773
vn 0.9143 -0.0940 0.3941
vn 0.9590 -0.2690 0.0896
vn -0.2031 -0.2421 0.9488
vn 0.8650 -0.0000 -0.5018
vn 0.6079 0.0080 -0.7940
vn 0.1069 -0.9269 0.3598
vn -0.0649 -0.9966 -0.0516
vn -0.2436 -0.2066 -0.9476
vn -0.0183 0.6482 -0.7613
vn 0.6627 0.2979 -0.6871
vn 0.0207 0.3191 -0.9475
vn -0.2578 -0.0476 0.9650
vn 0.4338 0.7526 -0.4954
vn -0.7833 0.0009 -0.6216
vn -0.7722 -0.0192 -0.6351
vn -0.9362 0.0006 -0.3516
vn 0.9867 -0.1377 -0.0868
vn 0.0001 0.7016 -0.7126
vn -0.3645 0.1241 -0.9229
vn 0.4851 0.8404 -0.2416
vn 0.0002 0.8660 -0.5001
vn -0.3242 -0.4971 0.8048
vn -0.1677 -0.9751 0.1451
vn -1.0000 0.0042 0.0002
vn -1.0000 0.0040 0.0025
vn -0.0626 0.9976 0.0280
vn -0.7429 -0.1359 -0.6555
vn 0.0243 -0.0223 -0.9995
vn 0.3353 -0.3325 -0.8815
vn 0.2382 0.0836 -0.9676
vn -0.9016 -0.1632 0.4007
vn -0.5185 -0.7785 0.3537
vn -0.5758 -0.6182 -0.5351
vn -0.2709 -0.7990 0.5368
vn 0.6223 -0.7271 0.2900
vn 0.1844 -0.9708 0.1534
vn 0.3955 -0.0208 -0.9182
vn -0.3473 -0.8779 0.3297
vn -0.1824 -0.9424 0.2804
vn -0.3936 0.6118 -0.6862
vn 0.1670 -0.9834 0.0704
vn 0.3090 -0.8401 0.4457
vn -0.1160 -0.9762 -0.1834
vn -0.2258 -0.3951 -0.8904
vn -0.8598 -0.5050 0.0756
vn -0.4115 -0.5061 -0.7580
vn -0.3119 0.2114 -0.9263
vn -0.2378 0.5999 -0.7639
vn -0.7998 0.5018 -0.3294
vn -0.8913 0.3861 -0.2377
vn 0.1863 -0.6966 0.6929
vn -0.9975 -0.0695 0.0083
vn -0.1295 -0.0727 -0.9889
vn -0.1215 0.1704 -0.9779
vn -0.1478 0.1938 -0.9699
vn 0.0706 0.4962 0.8654
vn -0.6289 0.5296 0.5692
vn -0.4524 0.2046 0.8680
vn -0.7375 0.6349 0.2305
vn 0.0202 0.7133 -0.7005
vn -0.1420 -0.5745 0.8061
vn -0.7220 -0.3471 0.5985
vn -0.5296 -0.7140 0.4579
vn 0.0002 0.7015 -0.7126
vn 0.4852 0.8404 -0.2416
vn 0.7504 0.4334 -0.4990
vn 0.0033 -1.0000 -0.0091
vn 0.2591 -0.8923 -0.3698
vn 0.6324 -0.3498 -0.6911
vn 0.0017 -1.0000 -0.0096
vn -0.9773 0.1682 0.1287
vt 0.282572 0.895322
vt 0.262825 0.894380
vt 0.299028 0.798499
vt 0.272698 0.798477
vt 0.233204 0.798477
vt 0.233204 0.715870
vt 0.101556 0.798499
vt 0.127885 0.704069
vt 0.127885 0.798499
vt 0.114720 0.982493
vt 0.206874 0.522925
vt 0.233204 0.608814
vt 0.206874 0.608814
vt 0.447955 0.522927
vt 0.470171 0.614197
vt 0.417511 0.608814
vt 0.154215 0.798499
vt 0.180544 0.982507
vt 0.391182 0.798499
vt 0.417511 0.982507
vt 0.378017 0.982493
vt 0.430676 0.522933
vt 0.180544 0.522933
vt 0.088391 0.608814
vt 0.114720 0.522925
vt 0.127885 0.608814
vt 0.338522 0.688324
vt 0.338522 0.703519
vt 0.285863 0.704069
vt 0.312193 0.715870
vt 0.364852 0.703519
vt 0.338522 0.798499
vt 0.088391 0.704069
vt 0.312193 0.894828
vt 0.312193 0.798499
vt 0.312193 0.982507
vt 0.259533 0.982503
vt 0.246313 0.894562
vt 0.220039 0.894455
vt 0.229914 0.892221
vt 0.232395 0.894443
vt 0.260217 0.884966
vt 0.129685 0.953185
vt 0.027075 0.830900
vt 0.244042 0.690949
vt 0.354710 0.612336
vt 0.327684 0.574252
vt 0.465662 0.671267
vt 0.096346 0.929874
vt 0.326194 0.970402
vt 0.205845 0.980905
vt 0.205845 0.521262
vt 0.363052 0.548982
vt 0.246369 0.517689
vt 0.447955 0.798482
vt 0.443841 0.786676
vt 0.470171 0.704069
vt 0.457006 0.982493
vt 0.443841 0.798499
vt 0.233204 0.647590
vt 0.246369 0.688324
vt 0.206874 0.647590
vt 0.124594 0.671305
vt 0.234814 0.891832
vt 0.234821 0.891840
vt 0.234814 0.892990
vt 0.257853 0.891835
vt 0.257853 0.892994
vt 0.257860 0.893002
vt 0.022567 0.609056
vt 0.022567 0.522925
vt 0.075226 0.522925
vt 0.129685 0.548982
vt 0.027075 0.671267
vt 0.158856 0.599507
vt 0.062061 0.688324
vt 0.075226 0.647590
vt 0.104847 0.671305
vt 0.457006 0.659951
vt 0.496500 0.650353
vt 0.312193 0.522925
vt 0.312193 0.614197
vt 0.285863 0.522925
vt 0.363052 0.953185
vt 0.465662 0.830900
vt 0.333881 0.902660
vt 0.285863 0.903660
vt 0.448494 0.867781
vt 0.338522 0.852641
vt 0.417511 0.852641
vt 0.325357 0.895979
vt 0.141050 0.733964
vt 0.220039 0.784936
vt 0.141050 0.784936
vt 0.171751 0.891985
vt 0.180545 0.892206
vt 0.240788 0.883986
vt 0.141050 0.852641
vt 0.220039 0.852641
vt 0.167380 0.895979
vt 0.496500 0.895979
vt 0.417511 0.895979
vt 0.285863 0.649552
vt 0.233204 0.649526
vt 0.233204 0.547969
vt 0.048896 0.784936
vt 0.447955 0.733971
vt 0.088391 0.733964
vt 0.447955 0.649533
vt 0.430676 0.649526
vt 0.443841 0.547969
vt 0.338522 0.784936
vt 0.338522 0.733964
vt 0.417511 0.784936
vt 0.312193 0.688324
vt 0.338522 0.522933
vt 0.351687 0.608814
vt 0.417511 0.715870
vt 0.443841 0.704069
vt 0.420802 0.671217
vt 0.391182 0.704069
vt 0.309424 0.557597
vt 0.193709 0.649552
vt 0.305610 0.749297
vt 0.377366 0.574549
vt 0.391182 0.649526
vt 0.476217 0.710555
vt 0.479735 0.751083
vt 0.081899 0.810946
vt 0.158856 0.902660
vt 0.364852 0.798499
vt 0.338522 0.983200
vt 0.067599 0.901089
vt 0.276761 0.923450
vt 0.305610 0.986264
vt 0.114720 0.908069
vt 0.022567 0.895979
vt 0.114720 0.895979
vt 0.180555 0.891747
vt 0.193709 0.798477
vt 0.233218 0.891743
vt 0.233204 0.892285
vt 0.062061 0.649552
vt 0.022567 0.649526
vt 0.017784 0.612026
vt 0.127885 0.714579
vt 0.078517 0.714572
vt 0.483335 0.982493
vt 0.013002 0.751083
vt 0.016520 0.791612
vt 0.299028 0.714579
vt 0.338522 0.649552
vt 0.364852 0.714579
vt 0.206869 0.696062
vt 0.259533 0.704069
vt 0.081899 0.691221
vt 0.410838 0.810946
vt 0.233204 0.908069
vt 0.285863 0.920329
vt 0.206874 0.920345
vt 0.299028 0.852641
vt 0.246369 0.895979
vt 0.234814 0.893204
vt 0.233204 0.894377
vt 0.234814 0.893928
vt 0.234814 0.894206
vt 0.234235 0.894270
vt 0.258458 0.894283
vt 0.234821 0.892995
vt 0.257859 0.891844
vt 0.259533 0.893679
vt 0.257853 0.893053
vt 0.257853 0.891832
vt 0.246090 0.893677
vt 0.154215 0.522933
vt 0.276761 0.578717
vt 0.308901 0.896768
vt 0.312193 0.895326
vt 0.308901 0.896769
vt 0.285863 0.896391
vt 0.289154 0.894905
vt 0.289154 0.894904
vt 0.220039 0.982507
vt 0.425138 0.601078
vt 0.246369 0.751083
vt 0.112292 0.863587
vt 0.085786 0.543205
vt 0.142696 0.523026
vt 0.101556 0.649552
vt 0.220039 0.714579
vt 0.180544 0.714579
vt 0.246369 0.733964
vt 0.062061 0.982493
vt 0.075226 0.798499
vt 0.088391 0.982493
vt 0.067599 0.601078
vt 0.062061 0.920345
vt 0.141050 0.920345
vt 0.160283 0.754656
vt 0.244042 0.927915
vt 0.430676 0.920345
vt 0.378017 0.608814
vt 0.364852 0.522933
vt 0.404346 0.522933
vt 0.354292 0.721995
vt 0.332358 0.742259
vt 0.035731 0.982507
vt 0.022567 0.798477
vt 0.062061 0.704069
vt 0.062061 0.798477
vt 0.396391 0.572293
vt 0.246369 0.899188
vt 0.201937 0.780704
vt 0.261179 0.780704
vt 0.068644 0.602979
vt 0.113075 0.721463
vt 0.068644 0.721463
vt 0.305610 0.721463
vt 0.364852 0.780704
vt 0.305610 0.839946
vt 0.142696 0.839946
vt 0.083454 0.780704
vt 0.430676 0.714579
vt 0.265216 0.768516
vt 0.259533 0.928809
vt 0.448494 0.634386
vt 0.180544 0.668294
vt 0.180539 0.696062
vt 0.114720 0.669988
vt 0.289154 0.896768
vt 0.312193 0.895323
vt 0.154215 0.703932
vt 0.180488 0.704069
vt 0.391182 0.908069
vt 0.338522 0.920329
vt 0.272698 0.908085
vt 0.338522 0.908069
vt 0.157506 0.721463
vt 0.127885 0.869567
vt 0.083454 0.810325
vt 0.335231 0.899188
vt 0.424094 0.839946
vt 0.252811 0.891758
vt 0.252838 0.891758
vt 0.233216 0.891758
vt 0.187120 0.891758
vt 0.457006 0.908073
vt 0.022567 0.908069
vt 0.207713 0.892203
vt 0.229882 0.891758
vt 0.364868 0.669539
vt 0.417482 0.669541
vt 0.046570 0.574252
vt 0.187127 0.515903
vt 0.256928 0.721995
vt 0.278862 0.742259
vt 0.127885 0.649552
vt 0.191839 0.526938
vt 0.258458 0.893052
vt 0.234814 0.892987
vt 0.233204 0.893736
vt 0.257853 0.893751
vt 0.252826 0.893080
vt 0.022567 0.650353
vt 0.022567 0.688428
vt 0.246369 0.514591
vt 0.246369 0.514689
vt 0.056854 0.750823
vt 0.388549 0.750707
vt 0.009402 0.750503
vt 0.216748 0.751083
vt 0.172316 0.869567
vt 0.379662 0.632600
vt 0.424094 0.751083
vt 0.266116 0.514117
vt 0.360725 0.949602
vt 0.474374 0.752143
vt 0.131854 0.949429
vt 0.479096 0.985931
vt 0.048023 0.636568
vt 0.350042 0.662221
vt 0.246369 0.602979
vt 0.261179 0.691842
vt 0.201937 0.691842
vt 0.175712 0.930322
vt 0.085786 0.780172
vt 0.435883 0.751007
vt 0.246309 0.514667
vt 0.435942 0.750707
vt 0.222638 0.938986
vt 0.167380 0.908073
vt 0.496500 0.714579
vt 0.430676 0.733964
vt 0.267016 0.970618
vt 0.354292 0.958962
vt 0.369180 0.909475
vt 0.483335 0.602979
vt 0.483335 0.721463
vt 0.424094 0.721463
vt 0.483335 0.839946
vt 0.483335 0.928809
vt 0.409283 0.928809
vt 0.096346 0.572293
vt 0.417511 0.798499
vt 0.391182 0.798477
vt 0.407231 0.591016
vt 0.245839 0.524138
vt 0.167380 0.514117
vt 0.084517 0.912935
vt 0.246369 0.522054
vt 0.444714 0.636569
vt 0.009402 0.566776
vt 0.127885 0.514117
vt 0.246369 0.619435
vt 0.364852 0.566776
vt 0.286892 0.980905
vt 0.215976 0.923450
vt 0.338682 0.647847
vt 0.391187 0.650376
vt 0.414138 0.669526
vt 0.154215 0.648585
vt 0.180544 0.648585
vt 0.177253 0.667149
vt 0.154215 0.668294
vt 0.157506 0.652753
vt 0.299028 0.784936
vt 0.299028 0.733964
vt 0.240204 0.522941
vt 0.288468 0.543205
vt 0.410838 0.691221
vt 0.299028 0.659951
vt 0.272698 0.688324
vt 0.259533 0.647590
vt 0.259533 0.608814
vt 0.234814 0.892983
vt 0.391182 0.928809
vt 0.362083 0.944569
vt 0.035731 0.920345
vt 0.009402 0.721463
vt 0.009402 0.573358
vt 0.068644 0.662221
vt 0.157506 0.602979
vt 0.305610 0.543738
vt 0.261179 0.602979
vt 0.246369 0.514117
vt 0.246369 0.988050
vt 0.041149 0.632600
vt 0.242041 0.909475
vt 0.134049 0.522941
vt 0.254751 0.848992
vt 0.250742 0.947760
vt 0.394473 0.899188
vt 0.483335 0.899188
vt 0.039023 0.751083
vt 0.424094 0.514117
vt 0.108138 0.514117
vt 0.084500 0.589678
vt 0.239647 0.893078
vt 0.239672 0.891758
vt 0.239673 0.893078
vt 0.299028 0.894765
vt 0.233204 0.522925
vt 0.367875 0.652864
vt 0.367178 0.690949
vt 0.243345 0.652864
vt 0.254751 0.612026
vt 0.496500 0.522925
vt 0.027076 0.671267
vt 0.299028 0.896895
vt 0.101556 0.784936
vt 0.101556 0.852641
vt 0.394473 0.632600
vt 0.350042 0.543738
vt 0.142696 0.573358
vt 0.380445 0.863587
vt 0.246369 0.740715
vt 0.236495 0.717002
vt 0.236495 0.906558
vt 0.256242 0.717002
vt 0.256242 0.906558
vt 0.308901 0.894904
vt 0.113075 0.899188
vt 0.290800 0.958429
vt 0.182260 0.703519
vt 0.207604 0.703981
vt 0.200570 0.703519
vt 0.364891 0.650326
vt 0.257853 0.893723
vt 0.114036 0.593375
vt 0.496500 0.688428
vt 0.496500 0.704069
vt 0.257853 0.891841
vt 0.325357 0.988050
vt 0.167380 0.988050
vt 0.009402 0.988050
vt 0.451588 0.869567
vt 0.041149 0.869567
vt 0.438904 0.662221
vt 0.180544 0.614197
vt 0.483335 0.750503
vt 0.009402 0.602979
vt 0.039023 0.810325
vt 0.009402 0.839946
vt 0.364852 0.703690
vt 0.496500 0.703690
vt 0.391182 0.988050
vt 0.022567 0.703690
vt 0.127885 0.703690
vt 0.154215 0.988050
vt 0.320421 0.721463
vt 0.261179 0.839946
vt 0.187127 0.958429
vt 0.009402 0.899188
vt 0.257853 0.892999
vt 0.142696 0.751083
vt 0.075226 0.786676
vt 0.017784 0.848992
vt 0.215976 0.578717
vt 0.322717 0.574549
vt 0.281375 0.690450
vt 0.483335 0.751083
vt 0.127885 0.956303
vt 0.483335 0.514117
vt 0.483335 0.988050
vt 0.332358 0.979226
vt 0.417496 0.650326
vt 0.233204 0.988050
vt 0.470171 0.852641
vt 0.437698 0.670329
vt 0.206889 0.892202
vt 0.272698 0.920345
vt 0.421394 0.751083
vt 0.380446 0.638580
vt 0.098264 0.958429
vt 0.483335 0.619435
vt 0.364852 0.645765
vt 0.009402 0.619435
vt 0.408220 0.912935
vt 0.246898 0.980149
vt 0.084517 0.589232
vt 0.246428 0.514777
vt 0.127885 0.545864
vt 0.483335 0.573358
vt 0.009402 0.514117
vt 0.305610 0.972176
vt 0.364852 0.514117
vt 0.496500 0.609056
vt 0.409283 0.839946
vt 0.451588 0.632600
vt 0.496500 0.908069
vt 0.157506 0.662221
vt 0.233204 0.703690
vt 0.496500 0.988050
vt 0.165321 0.973759
vt 0.479735 0.709935
vt 0.285863 0.514117
vt 0.404346 0.988050
vt 0.246369 0.843572
vt 0.246369 0.698424
vt 0.009402 0.645765
vt 0.482861 0.751083
vt 0.246949 0.988050
vt 0.246949 0.514117
vt 0.234735 0.891833
vt 0.364852 0.988050
vt 0.083454 0.514117
vt 0.285863 0.988050
vt 0.048896 0.988050
vt 0.147632 0.514117
vt 0.247770 0.893590
vt 0.257853 0.893678
vt 0.308901 0.894905
vt 0.325357 0.514117
vt 0.483335 0.645765
vt 0.009402 0.698424
vt 0.483335 0.698424
vt 0.443841 0.988050
vt 0.206874 0.514117
vt 0.496500 0.798477
vt 0.327416 0.528408
vt 0.483335 0.566776
vt 0.009402 0.751083
vt 0.088391 0.751083
vt 0.088391 0.514117
vt 0.404346 0.514117
vt 0.022567 0.695698
vt 0.496500 0.649526
s 1
usemtl rocket
f 97/145/97 98/146/98 99/147/99
f 100/148/100 101/149/101 102/150/102
f 103/151/103 104/152/104 105/153/105
f 106/154/106 103/151/103 105/153/105
f 107/155/107 108/156/108 109/157/109
f 110/158/110 111/159/111 112/160/112
f 113/161/113 114/162/114 106/154/106
f 115/163/115 116/164/116 117/165/117
f 112/160/112 118/166/118 110/158/110
f 107/155/107 109/157/109 119/167/119
f 120/168/120 121/169/121 122/170/122
f 123/171/123 124/172/124 125/173/125
f 126/174/126 127/175/127 128/176/128
f 129/177/129 104/152/104 103/151/103
f 130/178/130 131/179/131 132/180/132
f 133/181/133 134/182/134 97/145/97
f 135/183/135 136/184/136 137/185/137
f 98/146/98 138/186/138 99/147/99
f 139/187/139 140/188/140 141/189/141
f 142/190/142 143/191/143 144/192/144
f 145/193/145 146/194/146 147/195/147
f 148/196/148 149/197/149 150/198/150
f 151/199/151 152/200/152 153/201/153
f 154/202/154 155/203/155 151/199/156
f 156/204/157 157/205/158 158/206/159
f 159/207/160 104/152/104 129/177/129
f 160/208/161 161/209/162 162/210/163
f 163/211/164 164/212/165 165/213/166
f 166/214/167 167/215/168 168/216/169
f 169/217/170 170/218/171 171/219/172
f 172/220/173 173/221/174 174/222/175
f 153/201/153 175/223/176 176/224/177
f 177/225/178 178/226/179 179/227/180
f 180/228/181 181/229/182 182/230/183
f 183/231/184 132/180/132 133/181/133
f 184/229/185 185/228/186 186/232/187
f 187/233/188 188/234/189 189/235/190
f 190/236/191 191/237/192 192/238/193
f 114/162/114 193/239/194 194/240/195
f 195/241/196 101/149/101 100/148/100
f 192/242/193 191/243/192 196/244/197
f 188/234/189 197/245/198 198/246/199
f 199/247/200 200/248/201 201/249/202
f 197/250/198 202/251/203 203/252/204
f 204/253/205 205/254/206 206/255/207
f 187/256/188 207/257/208 188/258/189
f 125/173/125 208/259/209 123/171/123
f 209/260/210 210/261/211 178/226/179
f 211/262/212 212/263/213 152/200/152
f 213/264/214 212/263/213 214/265/215
f 215/266/216 201/249/202 216/267/217
f 217/268/218 218/269/219 219/270/220
f 186/232/187 220/271/221 221/272/222
f 222/273/223 223/274/224 145/193/145
f 128/176/128 127/175/127 224/275/225
f 225/276/226 128/176/128 224/275/225
f 226/277/227 227/278/228 228/279/229
f 229/280/230 197/281/198 230/282/231
f 231/283/232 232/284/233 233/285/234
f 137/185/137 136/184/235 234/286/236
f 235/287/237 236/288/238 237/289/239
f 235/287/237 238/290/240 239/291/241
f 154/202/154 151/199/156 240/292/242
f 241/277/243 242/293/244 243/294/245
f 199/247/200 244/295/246 200/248/201
f 245/296/247 246/297/248 244/295/246
f 247/298/249 158/206/159 157/205/158
f 102/150/102 248/299/250 100/148/100
f 249/300/251 171/219/172 170/218/171
f 250/301/252 182/230/183 181/229/182
f 251/302/253 252/303/254 253/304/255
f 254/305/256 189/235/190 255/306/257
f 256/307/258 257/308/259 234/286/260
f 137/185/137 134/182/134 135/183/135
f 98/146/261 257/308/262 258/309/263
f 259/310/264 260/311/265 261/312/266
f 262/313/267 162/210/163 161/209/162
f 165/213/166 263/314/268 163/211/164
f 264/315/269 265/316/270 266/317/271
f 260/311/272 256/307/258 267/318/273
f 122/170/122 121/169/121 268/319/274
f 269/197/275 270/196/276 271/320/277
f 272/321/278 130/178/130 132/180/132
f 273/322/279 274/323/280 275/321/281
f 97/145/97 183/231/184 133/181/133
f 276/324/282 277/325/283 278/326/284
f 134/182/134 133/181/133 279/327/285
f 280/328/286 221/272/287 220/271/221
f 281/329/288 282/330/289 283/230/290
f 284/331/291 285/332/292 286/333/293
f 216/267/217 287/334/294 288/335/295
f 191/237/192 190/236/191 289/336/296
f 290/337/297 291/338/298 292/339/299
f 242/293/300 293/340/301 243/294/245
f 294/341/302 295/342/303 296/343/304
f 297/344/305 228/279/306 298/345/307
f 299/346/308 300/347/309 301/348/310
f 302/349/311 303/350/312 177/225/178
f 304/351/313 151/199/156 291/338/298
f 305/352/314 306/353/315 307/354/316
f 223/274/224 222/273/223 308/329/317
f 309/355/318 150/198/319 149/197/320
f 310/356/321 311/357/322 312/358/323
f 313/359/324 314/360/325 315/361/326
f 316/362/327 317/363/328 318/364/329
f 314/360/325 319/365/330 320/366/331
f 321/367/332 205/254/206 204/253/205
f 239/291/241 236/288/238 235/287/237
f 296/343/304 295/342/303 322/368/333
f 253/304/255 323/369/334 324/370/335
f 325/371/336 326/372/337 159/207/160
f 120/168/120 122/170/122 327/373/338
f 278/326/339 328/374/340 276/324/282
f 273/322/279 275/321/281 329/375/341
f 177/225/178 179/227/180 302/349/311
f 143/191/342 142/190/343 107/155/107
f 104/152/104 159/207/160 326/372/337
f 330/376/344 331/377/345 232/284/346
f 332/378/347 298/345/307 333/379/348
f 252/303/254 334/380/349 335/381/350
f 336/382/351 337/383/352 338/384/353
f 339/385/354 340/363/355 341/386/356
f 342/387/357 343/388/358 160/208/359
f 233/285/360 344/389/361 345/390/362
f 346/391/363 198/246/199 197/245/198
f 197/281/198 229/280/230 347/392/364
f 348/393/365 234/286/366 194/240/367
f 348/393/368 345/390/369 349/394/370
f 214/265/215 350/395/371 351/396/372
f 112/160/112 111/159/111 175/223/176
f 352/397/373 353/331/374 168/216/169
f 268/319/274 121/169/121 354/398/375
f 355/399/376 141/189/377 118/166/118
f 301/348/310 300/347/309 356/400/378
f 261/312/379 260/311/272 267/318/273
f 138/186/138 98/146/98 264/315/380
f 216/267/217 357/401/381 358/402/382
f 216/267/217 288/335/295 357/401/381
f 359/403/383 360/404/384 361/405/385
f 162/210/386 164/212/387 362/406/388
f 363/407/389 164/212/390 162/210/391
f 267/318/273 256/307/258 265/316/392
f 176/408/177 172/220/173 364/409/393
f 306/353/315 305/352/314 365/299/394
f 366/410/395 367/411/396 368/412/397
f 367/411/398 369/413/399 370/414/400
f 336/382/351 371/415/401 372/416/402
f 373/417/403 374/418/404 340/363/355
f 375/419/405 376/420/406 377/421/407
f 378/422/408 379/423/409 380/424/410
f 381/425/411 317/363/328 316/362/327
f 382/426/412 383/427/413 384/428/414
f 106/154/106 385/429/415 386/343/416
f 387/430/417 290/337/297 292/339/299
f 110/158/110 118/166/118 141/189/377
f 168/216/169 167/215/168 352/397/373
f 370/414/418 388/431/419 389/432/420
f 390/433/421 391/414/422 368/412/423
f 385/429/424 114/162/114 392/434/425
f 385/429/426 106/154/106 114/162/114
f 393/435/427 196/244/197 251/302/428
f 196/244/197 191/243/192 255/306/429
f 204/253/205 239/436/241 321/367/332
f 207/257/208 246/297/248 394/437/430
f 395/279/431 117/165/432 396/438/433
f 132/180/132 397/439/434 398/440/435
f 399/441/436 400/442/437 401/443/438
f 402/444/439 403/445/440 404/446/441
f 131/179/131 99/147/99 126/174/126
f 130/178/442 99/147/99 131/179/131
f 405/447/443 243/294/245 293/340/301
f 406/300/444 407/219/445 308/329/317
f 408/448/446 409/449/447 211/262/212
f 116/164/116 115/163/115 408/448/448
f 410/450/449 411/451/450 412/452/451
f 413/453/452 414/454/453 415/455/454
f 416/456/455 417/457/456 418/458/457
f 419/459/458 418/458/459 417/457/460
f 139/187/139 420/460/461 421/461/462
f 422/268/463 356/400/378 300/347/309
f 178/226/179 210/261/211 423/462/464
f 424/463/465 425/464/466 350/395/467
f 173/221/174 172/220/173 176/408/177
f 168/216/169 120/168/120 166/214/167
f 193/239/194 232/284/346 231/283/468
f 232/284/346 113/161/113 330/376/344
f 156/204/157 158/206/159 109/157/109
f 426/465/469 427/466/470 428/467/471
f 159/207/160 426/465/472 429/468/473
f 429/468/474 426/465/475 430/469/476
f 254/470/256 289/336/477 431/471/478
f 246/297/248 207/257/208 244/295/246
f 107/155/107 119/167/119 143/191/342
f 432/472/479 433/473/480 268/319/274
f 345/390/481 348/393/482 194/240/483
f 193/239/194 231/283/484 194/240/195
f 434/329/485 182/230/183 250/301/252
f 271/320/277 435/474/486 269/197/275
f 436/475/487 437/476/488 438/477/489
f 439/478/490 179/227/180 178/226/179
f 344/389/491 234/286/492 348/393/493
f 440/479/494 234/286/495 344/389/496
f 421/461/462 441/273/497 139/187/139
f 434/329/485 441/273/497 421/461/462
f 333/379/348 298/345/307 442/480/498
f 228/279/306 443/481/499 333/379/348
f 298/345/307 332/378/347 346/391/363
f 444/482/500 347/392/364 229/280/230
f 189/235/190 335/381/350 255/306/257
f 198/246/199 346/391/363 332/378/347
f 445/483/501 446/484/502 447/485/503
f 448/486/504 449/487/505 450/488/506
f 451/489/507 452/490/508 453/491/509
f 396/438/510 117/165/117 116/164/116
f 241/277/511 116/164/512 454/492/513
f 170/218/171 169/217/170 353/331/514
f 455/493/515 354/398/375 121/169/121
f 290/337/297 387/430/516 456/494/517
f 454/492/518 154/202/154 240/292/242
f 251/302/428 253/304/255 393/435/427
f 229/280/230 295/342/303 294/341/302
f 457/495/519 279/327/285 133/181/133
f 398/440/435 133/181/133 132/180/132
f 203/252/204 239/291/241 238/290/240
f 190/236/191 288/335/295 289/336/296
f 458/496/520 341/386/356 459/497/521
f 447/485/503 338/384/353 460/498/522
f 375/419/523 461/499/524 376/420/406
f 379/423/525 462/500/526 463/501/527
f 440/479/494 160/208/161 360/404/528
f 265/316/529 464/502/530 360/404/531
f 343/388/532 465/503/533 160/208/534
f 466/504/535 465/503/536 263/314/537
f 467/325/538 99/147/99 130/178/442
f 277/325/283 468/505/539 469/505/540
f 179/227/180 470/506/541 471/507/542
f 179/227/180 439/478/490 470/506/541
f 281/329/288 283/230/290 472/474/543
f 201/249/202 473/508/544 199/247/200
f 474/509/545 475/510/546 167/511/168
f 475/510/547 474/509/548 140/188/140
f 162/210/391 466/504/549 363/407/389
f 263/314/537 165/213/550 466/504/535
f 144/192/144 181/229/182 471/507/551
f 471/507/542 476/508/552 179/227/180
f 282/330/289 477/217/553 478/512/554
f 206/255/207 237/510/239 204/253/205
f 132/180/132 183/231/184 272/321/555
f 274/323/280 479/513/556 480/513/557
f 239/291/241 203/252/204 202/251/203
f 239/436/241 202/251/203 321/367/332
f 224/275/225 117/165/117 225/276/226
f 395/279/558 225/276/226 117/165/117
f 203/252/204 481/514/559 197/250/198
f 481/515/559 230/282/231 197/281/198
f 401/443/438 482/516/560 399/441/436
f 483/517/561 484/518/562 313/359/324
f 146/194/146 186/232/187 185/228/563
f 485/519/564 486/278/565 308/329/317
f 244/295/246 431/471/478 289/336/477
f 487/520/566 488/521/567 489/522/568
f 289/336/296 288/335/295 287/334/294
f 490/523/569 487/520/570 491/524/571
f 492/525/572 469/505/540 468/505/539
f 328/374/573 278/326/574 329/375/575
f 493/526/576 320/366/331 319/365/330
f 494/527/577 318/364/329 317/363/328
f 331/377/345 326/372/578 495/528/579
f 326/372/337 331/377/580 330/376/344
f 157/205/158 496/529/581 247/298/249
f 496/529/581 497/530/582 247/298/249
f 301/348/310 112/160/112 299/346/308
f 210/261/211 498/531/583 423/462/464
f 359/403/584 361/405/585 499/532/586
f 361/405/587 162/210/588 362/406/388
f 499/532/586 259/310/589 261/312/590
f 362/406/591 98/146/261 258/309/263
f 500/533/592 322/368/593 324/370/594
f 322/368/333 253/304/255 324/370/335
f 176/224/177 364/534/393 153/201/153
f 365/535/394 151/199/151 153/201/153
f 501/536/595 344/389/361 266/317/596
f 265/316/597 501/536/598 266/317/271
f 502/489/599 503/537/600 504/538/601
f 502/489/602 504/538/603 505/539/604
f 133/181/133 398/440/605 457/495/519
f 221/272/606 280/328/607 392/434/608
f 255/306/429 251/302/428 196/244/197
f 255/306/257 335/381/350 334/380/349
f 219/270/220 245/296/247 217/268/218
f 246/297/248 245/296/247 219/270/220
f 506/491/609 507/540/610 508/541/611
f 445/442/501 459/497/521 341/386/356
f 374/418/404 509/542/612 445/442/501
f 328/374/340 480/513/557 479/513/556
f 329/375/575 275/321/613 328/374/573
f 268/319/274 510/543/614 122/170/122
f 122/170/122 510/543/614 427/466/615
f 127/175/127 214/265/215 409/449/616
f 127/175/127 123/171/123 214/265/215
f 388/431/419 370/414/418 511/544/617
f 399/545/436 315/361/326 400/483/437
f 512/546/618 493/526/576 402/547/439
f 513/548/619 514/549/620 515/550/620
f 514/551/621 516/552/622 517/553/623
f 518/427/624 519/554/625 520/555/626
f 449/487/505 519/554/625 518/427/624
f 438/477/489 437/476/488 157/205/158
f 248/299/250 125/173/125 100/148/100
f 519/554/625 339/385/354 520/555/626
f 521/556/627 459/557/521 337/383/352
f 163/211/164 522/558/628 359/403/629
f 360/404/630 359/403/631 265/316/632
f 319/365/330 523/559/633 311/357/322
f 384/428/414 484/518/562 382/426/412
f 200/248/201 244/295/246 287/334/634
f 490/523/635 244/295/246 487/520/636
f 524/560/637 129/177/129 103/151/103
f 292/339/299 291/338/298 103/151/103
f 322/368/593 500/533/592 296/343/638
f 525/430/639 526/561/640 444/482/500
f 285/332/641 284/331/642 477/217/553
f 527/562/643 472/474/543 528/197/644
f 529/563/645 217/268/218 245/296/247
f 472/474/543 283/230/290 473/508/646
f 292/339/299 386/343/647 387/430/648
f 293/340/649 148/196/650 405/447/651
f 530/564/652 505/565/604 504/566/653
f 531/567/654 505/568/655 503/537/656
f 270/196/276 269/197/275 432/472/657
f 354/398/658 455/493/659 270/196/276
f 191/237/192 289/336/477 254/470/256
f 191/243/192 254/305/256 255/306/660
f 225/276/226 532/569/661 397/439/662
f 185/228/663 533/460/664 146/194/665
f 112/160/112 498/531/583 299/346/308
f 175/223/176 534/570/666 112/160/112
f 121/169/121 168/216/169 455/493/515
f 120/168/120 168/216/169 121/169/121
f 478/512/554 477/217/553 284/331/642
f 237/289/239 284/331/291 235/287/237
f 515/550/667 535/571/668 513/548/669
f 535/571/670 517/553/671 516/552/672
f 491/524/571 487/520/570 255/306/673
f 255/306/674 334/380/675 491/524/676
f 489/522/568 255/306/677 487/520/566
f 255/306/677 489/522/568 251/302/678
f 394/437/430 188/258/189 207/257/208
f 197/245/198 188/234/189 202/572/203
f 536/573/679 153/201/153 213/264/214
f 351/396/372 534/570/680 175/223/176
f 233/285/681 266/317/682 344/389/683
f 101/149/101 195/241/196 233/285/234
f 114/162/114 537/574/684 135/183/135
f 392/434/685 114/162/114 279/327/285
f 444/575/500 297/344/305 298/345/307
f 347/392/364 444/575/500 298/345/307
f 460/498/522 338/384/353 459/557/521
f 338/384/353 337/383/352 459/557/521
f 356/400/686 422/268/687 420/460/461
f 303/350/688 302/349/689 180/228/181
f 508/541/611 507/540/610 538/490/690
f 496/529/691 232/284/346 331/377/345
f 496/529/692 331/377/693 497/530/694
f 220/271/221 186/232/187 539/576/695
f 540/577/696 541/320/697 309/355/318
f 317/363/328 482/516/560 401/443/438
f 317/363/328 404/446/441 494/527/577
f 370/414/400 389/432/698 367/411/398
f 367/411/396 389/432/699 388/431/699
f 150/198/319 309/355/318 541/320/697
f 407/219/445 406/300/444 405/447/443
f 382/426/412 381/425/411 383/427/413
f 482/516/560 483/517/561 399/441/436
f 311/357/322 310/356/321 319/365/330
f 403/578/440 319/365/330 310/356/321
f 447/485/503 336/382/351 338/384/353
f 447/485/503 446/484/502 448/486/504
f 542/579/700 543/580/701 419/459/702
f 542/581/703 416/456/704 418/458/705
f 378/422/706 544/582/707 545/583/708
f 378/422/709 376/420/406 461/499/524
f 411/451/450 463/501/527 462/500/526
f 413/453/452 546/584/710 414/454/453
f 332/378/347 189/235/190 198/246/199
f 188/234/189 198/246/199 189/235/190
f 391/414/711 366/410/395 368/412/712
f 366/410/713 547/544/714 548/585/715
f 439/478/490 178/226/179 436/475/487
f 423/462/464 436/475/487 178/226/179
f 456/494/517 304/351/313 290/337/297
f 291/338/298 290/337/297 304/351/313
f 503/586/716 530/564/717 504/566/718
f 530/564/719 503/586/656 505/565/655
f 446/587/502 445/442/501 509/542/612
f 449/487/505 373/417/403 519/554/625
f 141/189/141 355/399/720 139/187/139
f 420/460/461 139/187/139 356/400/686
f 549/568/721 550/539/721 551/588/721
f 552/567/722 553/568/722 554/539/722
f 551/588/721 555/567/721 549/568/721
f 554/539/722 556/588/722 552/567/722
f 353/331/514 352/397/723 170/218/171
f 140/188/140 170/218/171 475/289/547
f 114/162/114 113/161/113 193/239/194
f 193/239/194 113/161/113 232/284/346
f 158/206/159 247/298/249 325/371/724
f 427/466/725 325/371/726 428/467/727
f 344/389/361 349/394/728 345/390/362
f 348/393/729 349/394/730 344/389/731
f 434/329/485 171/219/172 249/300/251
f 434/329/485 435/474/486 271/320/277
f 427/466/470 426/465/469 122/170/732
f 426/465/472 327/373/338 122/170/122
f 125/173/125 124/172/124 126/174/126
f 125/173/125 126/174/126 99/147/99
f 243/294/245 405/447/443 406/300/444
f 145/193/145 243/294/245 222/273/223
f 238/290/240 190/236/191 203/252/204
f 481/514/559 203/252/204 190/236/191
f 412/452/451 375/419/733 377/421/407
f 174/222/175 129/177/129 172/220/173
f 306/353/315 129/177/129 524/560/637
f 350/395/467 214/265/215 123/171/123
f 350/395/734 423/462/464 498/531/735
f 289/336/736 287/334/737 488/521/738
f 287/334/634 244/295/246 490/523/739
f 521/556/627 372/416/402 520/555/626
f 371/415/401 520/555/626 372/416/402
f 269/197/275 144/192/144 143/191/143
f 433/473/740 432/472/657 269/197/275
f 413/453/452 415/455/454 557/589/741
f 412/452/451 377/421/407 410/450/449
f 181/229/182 180/228/181 302/349/689
f 476/508/742 471/507/551 181/229/182
f 147/195/743 241/277/744 145/193/745
f 243/294/245 145/193/145 241/277/746
f 503/537/747 502/489/748 558/590/749
f 505/539/750 531/588/751 502/489/752
f 135/183/135 537/574/684 136/184/136
f 537/574/753 234/286/366 136/184/754
f 333/379/348 443/481/499 323/369/334
f 335/381/350 333/379/348 252/303/254
f 500/533/592 559/272/755 227/278/756
f 443/481/499 559/272/757 323/369/334
f 146/194/146 145/193/145 223/274/224
f 486/278/565 485/519/564 146/194/146
f 98/146/758 362/406/759 261/312/760
f 264/315/761 98/146/762 261/312/763
f 241/277/764 454/492/765 242/293/766
f 240/292/242 456/494/767 454/492/768
f 196/244/197 393/435/427 229/280/230
f 295/342/303 229/280/230 393/435/427
f 119/167/119 268/319/274 433/473/480
f 510/543/614 268/319/274 119/167/119
f 118/166/118 301/348/310 355/399/376
f 112/160/112 301/348/310 118/166/118
f 300/347/309 209/260/210 422/268/463
f 210/261/211 209/260/210 300/347/309
f 166/214/167 120/168/120 173/221/174
f 327/373/338 173/221/174 120/168/120
f 167/511/168 110/158/110 474/509/545
f 167/215/168 166/591/167 110/158/110
f 560/592/769 401/443/438 402/444/439
f 560/592/769 317/363/328 401/443/438
f 561/593/770 452/490/508 451/489/507
f 245/296/247 199/247/200 529/563/645
f 244/295/246 199/247/200 245/296/247
f 185/228/771 184/229/772 398/440/773
f 457/495/519 398/440/605 221/272/606
f 345/390/481 194/240/195 231/283/774
f 345/390/362 231/283/775 233/285/360
f 385/429/776 392/434/608 280/328/607
f 386/343/777 385/429/776 149/197/778
f 197/245/198 347/594/364 346/391/363
f 298/345/307 346/391/363 347/392/364
f 226/277/779 500/533/592 227/278/756
f 297/344/305 444/575/500 526/494/640
f 494/527/577 404/446/441 403/445/440
f 310/356/321 494/527/577 403/578/440
f 229/280/230 230/282/231 196/244/197
f 192/242/193 196/244/197 230/282/231
f 314/360/325 313/359/324 562/595/780
f 562/595/780 384/428/414 523/559/633
f 170/218/171 140/188/140 249/300/251
f 140/188/140 139/187/139 441/273/497
f 181/229/182 144/192/144 250/301/252
f 144/192/144 269/197/275 435/474/486
f 357/401/381 286/333/293 285/332/292
f 238/290/240 286/333/293 357/401/381
f 563/596/781 513/548/782 535/571/783
f 564/597/784 515/550/785 514/549/786
f 515/598/787 564/491/788 535/599/789
f 312/358/323 384/428/414 383/427/413
f 318/364/329 312/358/323 316/362/327
f 521/556/627 458/496/520 459/497/521
f 520/555/626 339/385/354 521/556/627
f 405/447/443 150/198/319 407/219/445
f 150/198/319 405/447/443 148/196/790
f 309/355/318 220/271/221 540/577/696
f 220/271/221 309/355/318 280/328/286
f 395/279/791 396/438/792 147/195/793
f 532/569/661 225/276/226 395/279/794
f 461/499/524 379/423/525 378/422/709
f 565/588/795 462/500/526 379/423/525
f 326/372/796 247/298/249 497/530/797
f 325/371/724 247/298/249 326/372/796
f 109/157/109 108/156/108 156/204/157
f 436/475/487 438/477/489 439/478/490
f 154/202/154 454/492/518 116/164/116
f 408/448/448 154/202/154 116/164/116
f 426/465/472 159/207/160 327/373/338
f 129/177/129 174/222/175 159/207/160
f 448/486/504 371/415/401 336/382/351
f 448/486/504 336/382/351 447/485/503
f 152/200/152 408/448/446 211/262/212
f 155/203/155 154/202/154 408/448/448
f 566/588/798 567/600/799 568/538/800
f 567/600/801 566/567/802 569/601/803
f 569/601/804 568/538/805 567/600/806
f 568/538/800 570/539/807 566/588/798
f 283/230/290 282/330/289 218/269/808
f 478/512/554 218/269/809 282/330/289
f 112/160/112 534/570/666 498/531/583
f 350/395/734 498/531/735 424/463/465
f 176/224/177 175/223/176 111/159/111
f 173/221/174 176/408/177 166/214/167
f 571/602/810 490/523/811 491/524/812
f 571/602/813 489/522/814 488/521/815
f 409/449/616 224/275/225 127/175/127
f 224/275/225 115/163/115 117/165/117
f 543/580/816 572/603/817 418/458/818
f 418/458/819 419/459/820 543/580/821
f 418/458/822 573/604/823 574/581/824
f 573/604/823 418/458/822 572/603/825
f 232/284/233 101/149/101 233/285/234
f 101/149/101 232/284/233 496/529/826
f 366/605/713 391/606/711 547/607/714
f 402/444/439 401/443/438 400/442/437
f 400/483/437 512/546/618 402/547/439
f 473/508/646 575/190/827 472/474/543
f 575/190/827 528/197/644 472/474/543
f 295/342/303 253/304/255 322/368/333
f 295/342/303 393/435/427 253/304/255
f 485/519/564 539/576/695 186/232/187
f 186/232/187 146/194/146 485/519/564
f 104/152/104 330/376/344 105/153/105
f 330/376/344 104/152/104 326/372/337
f 113/161/113 105/153/105 330/376/344
f 106/154/106 105/153/105 113/161/113
f 576/460/828 218/269/809 217/268/829
f 217/268/829 529/563/830 576/460/828
f 388/431/699 368/412/397 367/411/396
f 368/412/423 388/431/831 390/433/421
f 361/405/587 362/406/388 258/309/832
f 257/308/833 361/405/587 258/309/832
f 342/387/357 160/208/359 577/608/834
f 440/479/494 577/608/835 160/208/161
f 499/532/586 361/405/585 259/310/589
f 361/405/836 257/308/837 259/310/838
f 189/235/190 332/378/347 335/381/350
f 333/379/348 335/381/350 332/378/347
f 429/468/473 325/371/724 159/207/160
f 325/371/839 429/468/840 428/467/841
f 350/395/842 425/464/843 351/396/844
f 534/570/680 351/396/372 425/464/845
f 394/437/430 246/297/248 321/367/332
f 205/254/206 321/367/332 246/297/248
f 452/609/846 578/499/847 453/565/848
f 315/361/326 399/545/436 313/359/324
f 483/610/561 313/359/324 399/545/436
f 127/175/127 126/174/126 124/172/124
f 123/171/123 127/175/127 124/172/124
f 182/230/183 421/461/462 420/460/461
f 434/329/485 421/461/462 182/230/183
f 171/219/172 271/320/277 270/196/276
f 434/329/485 271/320/277 171/219/172
f 304/351/313 240/292/242 151/199/156
f 304/351/313 456/494/849 240/292/242
f 507/611/610 506/612/609 579/613/850
f 265/316/392 264/315/269 267/318/273
f 580/614/851 267/318/852 264/315/853
f 264/315/269 261/312/379 267/318/273
f 267/318/854 581/615/855 264/315/856
f 130/178/857 468/505/539 467/325/858
f 130/178/130 272/321/278 582/616/859
f 128/176/128 131/179/131 126/174/126
f 131/179/131 128/176/128 132/180/132
f 464/502/860 234/286/861 440/479/862
f 464/502/863 440/479/494 360/404/864
f 553/588/317 552/567/317 551/568/317
f 555/568/865 551/539/865 552/588/865
f 550/568/751 549/539/751 554/588/751
f 556/588/485 554/567/485 549/568/485
f 260/311/272 259/310/866 257/308/867
f 256/307/868 260/311/272 257/308/867
f 583/540/869 452/490/508 561/593/870
f 584/617/871 578/499/872 452/609/873
f 497/530/874 331/377/875 495/528/876
f 497/530/797 495/528/877 326/372/796
f 417/457/878 585/590/879 419/459/880
f 417/457/881 416/456/882 585/590/883
f 423/462/464 123/171/123 208/259/209
f 123/171/123 423/462/464 350/395/734
f 128/176/128 225/276/226 132/180/132
f 397/439/434 132/180/132 225/276/226
f 468/505/539 582/616/884 492/525/572
f 468/505/539 130/178/442 582/616/884
f 371/415/401 448/486/504 450/488/885
f 520/555/626 371/415/401 518/427/624
f 490/523/886 571/602/887 488/521/888
f 490/523/889 488/521/890 287/334/891
f 106/154/106 386/343/416 292/339/299
f 103/151/103 106/154/106 292/339/299
f 272/321/892 183/231/184 479/513/556
f 183/231/184 97/145/97 586/374/893
f 528/197/644 575/190/827 215/266/894
f 285/332/292 358/402/382 357/401/381
f 483/517/561 382/426/412 484/518/562
f 483/517/561 381/425/411 382/426/412
f 148/196/895 293/340/896 387/430/897
f 456/494/898 387/430/897 293/340/896
f 158/206/159 325/371/724 427/466/899
f 158/206/159 427/466/899 510/543/614
f 321/367/332 202/251/203 394/437/430
f 188/258/189 394/437/430 202/251/203
f 479/513/556 586/374/893 328/374/340
f 586/374/893 479/513/556 183/231/184
f 542/581/703 418/458/705 574/581/824
f 573/618/900 542/579/700 574/581/901
f 433/473/480 143/191/342 119/167/119
f 143/191/143 433/473/740 269/197/275
f 356/400/378 355/399/376 301/348/310
f 355/399/720 356/400/686 139/187/139
f 141/189/377 474/509/545 110/158/110
f 474/509/548 141/189/141 140/188/140
f 587/619/902 572/603/903 588/329/904
f 572/603/825 587/619/905 573/604/823
f 572/603/906 587/620/907 589/565/908
f 587/620/909 572/603/910 543/580/701
f 354/398/375 432/472/479 268/319/274
f 432/472/657 354/398/658 270/196/276
f 142/190/343 471/507/542 470/506/541
f 471/507/551 142/190/142 144/192/144
f 303/350/312 422/268/463 209/260/210
f 422/268/687 303/350/688 420/460/461
f 475/289/546 352/397/373 167/215/168
f 352/397/723 475/289/547 170/218/171
f 353/331/374 455/493/515 168/216/169
f 455/493/659 353/331/514 169/217/170
f 476/508/552 302/349/311 179/227/180
f 302/349/689 476/508/742 181/229/182
f 233/285/911 195/241/196 266/317/912
f 264/315/380 266/317/913 138/186/138
f 577/608/914 501/536/915 342/387/916
f 522/558/628 163/211/164 501/536/917
f 579/613/918 590/489/919 507/611/920
f 590/489/921 591/617/922 507/611/923
f 212/263/213 213/264/214 153/201/153
f 212/263/213 153/201/153 152/200/152
f 483/517/561 482/516/560 381/425/411
f 317/363/328 381/425/411 482/516/560
f 508/621/924 592/567/925 506/568/926
f 541/320/697 540/577/696 308/329/317
f 539/576/695 540/577/696 220/271/221
f 374/418/404 341/386/356 340/363/355
f 341/386/356 374/418/404 445/442/501
f 281/329/288 477/217/553 282/330/289
f 528/197/644 477/217/553 527/562/643
f 241/277/764 147/195/793 396/438/792
f 116/164/512 241/277/511 396/438/433
f 496/529/691 248/299/250 102/150/102
f 496/529/826 102/150/102 101/149/101
f 360/404/528 162/210/927 361/405/928
f 360/404/528 160/208/161 162/210/927
f 111/159/111 110/158/110 166/591/167
f 111/159/111 166/591/167 176/224/177
f 380/424/929 463/501/527 414/454/930
f 379/423/525 463/501/527 380/424/931
f 428/467/727 430/469/932 426/465/933
f 430/469/934 428/467/935 429/468/936
f 351/396/372 213/264/214 214/265/215
f 351/396/372 536/573/679 213/264/214
f 557/589/741 415/455/454 544/582/937
f 413/453/938 557/589/938 544/582/938
f 384/428/414 312/358/323 311/357/322
f 384/428/414 311/357/322 523/559/633
f 214/265/215 212/263/213 211/262/212
f 211/262/212 409/449/616 214/265/215
f 200/248/201 216/267/217 201/249/202
f 287/334/294 216/267/217 200/248/201
f 491/524/939 489/522/940 571/602/941
f 489/522/940 491/524/939 334/380/942
f 461/499/524 565/567/795 379/423/525
f 312/358/323 318/364/329 310/356/321
f 494/527/577 310/356/321 318/364/329
f 306/353/315 172/220/173 129/177/129
f 172/220/173 306/353/315 365/299/394
f 448/486/504 446/484/502 449/487/505
f 373/417/403 449/487/505 446/587/502
f 392/434/943 457/495/519 221/272/606
f 279/327/285 457/495/519 392/434/608
f 98/146/944 97/145/97 134/182/134
f 134/182/134 257/308/945 98/146/944
f 125/173/125 437/476/488 208/259/209
f 437/476/488 125/173/125 248/299/250
f 441/273/497 249/300/251 140/188/140
f 434/329/485 249/300/251 441/273/497
f 435/474/486 250/301/252 144/192/144
f 434/329/485 250/301/252 435/474/486
f 315/361/326 512/546/618 400/483/437
f 320/366/331 315/361/326 314/360/325
f 286/333/293 235/287/237 284/331/291
f 238/290/240 235/287/237 286/333/293
f 524/560/637 307/354/316 306/353/315
f 305/352/946 307/354/947 291/338/948
f 503/537/949 558/590/950 531/567/654
f 339/385/354 519/554/625 340/363/355
f 340/363/355 519/554/625 373/417/403
f 316/362/327 383/427/413 381/425/411
f 312/358/323 383/427/413 316/362/327
f 237/510/951 218/269/809 478/512/554
f 284/331/642 237/289/951 478/512/554
f 210/261/211 299/346/308 498/531/583
f 300/347/309 299/346/308 210/261/211
f 398/440/773 397/439/952 185/228/771
f 533/460/953 185/228/771 397/439/952
f 135/183/135 279/327/285 114/162/114
f 279/327/285 135/183/135 134/182/134
f 253/304/255 252/303/254 323/369/334
f 333/379/348 323/369/334 252/303/254
f 334/380/349 252/303/254 251/302/253
f 334/380/942 251/302/954 489/522/940
f 362/406/955 499/532/956 261/312/957
f 164/212/958 499/532/956 362/406/955
f 522/558/628 265/316/959 359/403/960
f 501/536/961 265/316/962 522/558/963
f 469/505/540 278/326/964 277/325/283
f 278/326/965 469/505/966 492/525/967
f 157/205/158 248/299/250 496/529/581
f 248/299/250 157/205/158 437/476/488
f 551/568/317 550/539/317 553/588/317
f 554/588/751 553/567/751 550/568/751
f 549/568/485 555/539/485 556/588/485
f 552/588/865 556/567/865 555/568/865
f 500/533/592 226/277/968 526/494/969
f 526/494/969 525/430/970 500/533/592
f 548/585/715 547/544/714 369/413/971
f 208/259/209 436/475/487 423/462/464
f 436/475/487 208/259/209 437/476/488
f 336/382/351 372/416/402 337/383/352
f 521/556/627 337/383/352 372/416/402
f 543/580/701 542/579/700 573/618/900
f 543/580/701 573/618/900 587/620/909
f 425/464/845 424/463/972 534/570/973
f 424/463/974 498/531/975 534/570/976
f 190/236/191 238/290/240 288/335/295
f 238/290/240 357/401/381 288/335/295
f 561/622/977 584/617/978 583/611/979
f 452/609/846 583/611/980 584/617/978
f 378/422/981 380/424/982 413/453/452
f 544/582/983 378/422/984 413/453/985
f 138/186/138 100/148/100 99/147/99
f 99/147/99 100/148/100 125/173/125
f 403/578/440 402/547/439 493/526/576
f 403/578/440 493/526/576 319/365/330
f 305/623/314 151/199/151 365/535/394
f 305/352/946 291/338/948 151/199/986
f 175/223/176 153/201/153 536/573/679
f 175/223/176 536/573/679 351/396/372
f 244/295/246 207/257/208 431/471/478
f 254/470/256 431/471/478 207/257/208
f 516/552/987 563/596/988 535/571/989
f 454/492/765 456/494/898 242/293/766
f 293/340/896 242/293/766 456/494/898
f 517/553/990 564/612/991 514/551/992
f 564/491/788 517/624/993 535/599/789
f 410/450/449 377/421/407 415/455/994
f 415/455/995 414/454/453 410/450/996
f 511/544/997 390/433/998 388/431/999
f 532/569/1000 395/279/791 147/195/793
f 533/460/1001 147/195/147 146/194/146
f 544/582/707 415/455/1002 377/421/1003
f 376/420/406 544/582/1004 377/421/407
f 218/269/1005 237/510/239 206/255/207
f 218/269/219 206/255/207 205/254/206
f 223/274/224 486/278/565 146/194/146
f 486/278/565 223/274/224 308/329/317
f 406/300/444 222/273/223 243/294/245
f 222/273/223 406/300/444 308/329/317
f 541/320/697 407/219/445 150/198/319
f 407/219/445 541/320/697 308/329/317
f 276/324/282 97/145/97 277/325/283
f 99/147/99 467/325/1006 97/145/97
f 419/459/702 416/625/882 542/579/700
f 416/625/882 419/459/702 585/590/883
f 264/315/269 581/615/1007 580/614/1008
f 580/614/1009 581/615/855 267/318/854
f 480/513/557 275/321/281 274/323/280
f 328/374/573 275/321/613 480/513/1010
f 451/457/1011 453/626/1012 593/627/1013
f 594/588/1014 451/457/1015 593/627/1016
f 296/343/304 525/430/639 294/341/302
f 525/430/970 296/343/638 500/533/592
f 444/482/500 294/341/302 525/430/639
f 229/280/230 294/341/302 444/482/500
f 462/500/526 412/452/451 411/451/450
f 578/499/872 594/567/1017 453/565/1018
f 593/627/1016 453/626/1019 594/588/1014
f 343/388/358 163/211/164 263/314/268
f 343/388/1020 263/314/1021 465/503/1022
f 273/322/279 272/321/1023 274/323/280
f 274/323/280 272/321/892 479/513/556
f 595/628/1024 579/613/1025 506/612/926
f 592/588/1026 595/628/1027 506/612/1028
f 209/260/210 177/225/178 303/350/312
f 178/226/179 177/225/178 209/260/210
f 103/151/103 291/338/1029 524/560/637
f 291/338/1029 307/354/1030 524/560/637
f 588/329/904 589/565/904 587/619/902
f 589/565/908 588/329/1031 572/603/906
f 190/236/191 192/238/193 481/514/559
f 481/515/559 192/242/193 230/282/231
f 442/480/498 298/345/307 228/279/306
f 442/480/498 228/279/306 333/379/348
f 289/336/1032 487/520/1033 244/295/1034
f 488/521/567 487/520/566 289/336/1035
f 537/574/753 194/240/367 234/286/366
f 114/162/114 194/240/195 537/574/684
f 189/235/190 254/305/256 187/233/188
f 207/257/208 187/256/188 254/470/256
f 108/156/108 439/478/490 156/204/157
f 108/156/108 470/506/541 439/478/490
f 570/568/1036 569/601/1037 566/567/1037
f 387/430/897 386/343/1038 148/196/895
f 149/197/1039 148/196/895 386/343/1038
f 499/532/956 164/212/1040 359/403/629
f 163/211/164 359/403/629 164/212/1040
f 473/508/646 576/460/828 529/563/830
f 473/508/544 529/563/645 199/247/200
f 582/616/859 273/322/279 329/375/341
f 582/616/859 272/321/1023 273/322/279
f 477/217/553 528/197/644 285/332/1041
f 215/266/1042 285/332/1043 528/197/644
f 509/542/612 373/417/403 446/587/502
f 509/542/612 374/418/404 373/417/403
f 319/365/330 314/360/325 523/559/633
f 523/559/633 314/360/325 562/595/780
f 134/182/134 137/185/137 257/308/259
f 234/286/1044 257/308/867 137/185/137
f 119/167/119 109/157/109 510/543/614
f 510/543/614 109/157/109 158/206/159
f 540/577/696 539/576/695 308/329/317
f 539/576/695 485/519/564 308/329/317
f 276/324/282 328/374/340 586/374/893
f 276/324/282 586/374/893 97/145/97
f 411/451/450 410/450/449 414/454/930
f 463/501/527 411/451/450 414/454/930
f 329/375/341 492/525/1045 582/616/859
f 492/525/1046 329/375/1047 278/326/1048
f 484/518/562 384/428/414 562/595/780
f 484/518/562 562/595/780 313/359/324
f 218/269/808 576/460/828 283/230/290
f 576/460/828 473/508/646 283/230/290
f 493/526/576 512/546/618 320/366/331
f 315/361/326 320/366/331 512/546/618
f 155/203/155 408/448/446 152/200/152
f 151/199/1049 155/203/155 152/200/152
f 538/609/1050 507/611/1051 591/617/922
f 591/617/922 596/629/1052 538/609/1053
f 162/210/1054 262/313/267 466/504/1055
f 161/209/1056 466/504/535 262/313/1057
f 281/329/288 472/474/543 527/562/643
f 281/329/288 527/562/643 477/217/553
f 501/536/595 577/608/1058 344/389/361
f 440/479/494 344/389/496 577/608/835
f 459/557/521 445/483/501 460/498/522
f 447/485/503 460/498/522 445/483/501
f 364/534/393 365/299/394 153/201/153
f 365/630/394 364/409/393 172/220/173
f 548/585/715 369/413/971 367/411/1059
f 367/411/1060 366/410/1061 548/585/1062
f 256/307/1063 464/502/1064 265/316/1065
f 234/286/260 464/502/1066 256/307/258
f 270/196/276 169/217/170 171/219/172
f 169/217/170 270/196/276 455/493/659
f 420/460/461 180/228/181 182/230/183
f 180/228/181 420/460/461 303/350/688
f 221/272/222 184/229/1067 186/232/187
f 184/229/772 221/272/1068 398/440/773
f 149/197/1069 280/328/286 309/355/318
f 280/328/1070 149/197/1071 385/429/415
f 100/148/100 138/186/138 195/241/196
f 195/241/196 138/186/138 266/317/1072
f 227/278/228 559/272/1073 443/481/1074
f 443/481/1074 228/279/229 227/278/228
f 363/407/1075 165/213/166 164/212/1076
f 466/504/1077 165/213/1078 363/407/389
f 327/373/338 174/222/175 173/221/174
f 327/373/338 159/207/160 174/222/175
f 371/415/401 450/488/885 518/427/1079
f 518/427/1080 450/488/1081 449/487/1082
f 236/631/238 204/253/205 237/510/239
f 239/436/241 204/253/205 236/288/238
f 470/506/541 107/155/107 142/190/343
f 470/506/541 108/156/108 107/155/107
f 378/422/1083 545/583/1083 376/420/1083
f 545/583/708 544/582/707 376/420/406
f 157/205/158 156/204/157 438/477/489
f 438/477/489 156/204/157 439/478/490
f 465/503/533 161/209/162 160/208/359
f 465/503/536 466/504/535 161/209/1056
f 324/370/335 323/369/334 559/272/1084
f 324/370/594 559/272/755 500/533/592
f 521/556/627 339/385/354 458/496/520
f 341/386/356 458/496/520 339/385/354
f 546/584/710 413/453/452 380/424/982
f 414/454/1085 546/584/1086 380/424/1087
f 358/402/382 215/266/216 216/267/217
f 285/332/1088 215/266/1089 358/402/1090
f 404/446/441 317/363/328 560/592/769
f 404/446/441 560/592/769 402/444/439
f 97/145/97 467/325/1091 277/325/283
f 468/505/539 277/325/283 467/325/858
f 397/439/952 532/569/1000 533/460/953
f 147/195/793 533/460/953 532/569/1000
f 163/211/164 343/388/358 342/387/357
f 163/211/164 342/387/357 501/536/1092
f 228/279/1093 297/344/1094 226/277/1095
f 526/494/969 226/277/968 297/344/1094
f 246/297/248 219/270/220 205/254/206
f 205/254/206 219/270/220 218/269/219
f 508/621/924 538/609/1096 596/629/1097
f 596/629/1052 592/567/1026 508/621/1098
f 115/163/1099 409/449/1100 408/448/1101
f 115/163/1099 224/275/1102 409/449/1100
f 473/508/544 201/249/202 575/190/1103
f 215/266/216 575/190/1103 201/249/202
