# Blender 5.0.0
# www.blender.org
mtllib Slingshot.mtl
o Right_Arm
v -0.800000 4.000000 3.800000
v -0.800000 4.200000 4.000000
v -1.000000 4.200000 3.800000
v -0.800000 4.026721 3.899869
v -0.899869 4.026721 3.800000
v -0.895642 4.052673 3.895642
v -0.899869 4.200000 3.973281
v -0.800000 4.100132 3.973281
v -0.895642 4.104361 3.947326
v -0.973281 4.100132 3.800000
v -0.973281 4.200000 3.899869
v -0.947326 4.104361 3.895642
v -0.800000 7.800003 4.000000
v -0.800000 8.000000 3.799997
v -1.000000 7.800003 3.799999
v -0.800000 7.899869 3.973278
v -0.899869 7.800003 3.973279
v -0.895642 7.895642 3.947323
v -0.899869 7.973281 3.799997
v -0.800000 7.973281 3.899866
v -0.895642 7.947330 3.895639
v -0.973281 7.800003 3.899868
v -0.973281 7.899869 3.799997
v -0.947326 7.895642 3.895639
v -0.800000 4.000000 2.200000
v -1.000000 4.200000 2.200000
v -0.800000 4.200000 2.000000
v -0.899869 4.026719 2.200000
v -0.800000 4.026719 2.100131
v -0.895642 4.052673 2.104358
v -0.973281 4.200000 2.100131
v -0.973281 4.100131 2.200000
v -0.947326 4.104358 2.104358
v -0.800000 4.100131 2.026719
v -0.899869 4.200000 2.026719
v -0.895642 4.104358 2.052674
v -0.800000 8.000000 2.199997
v -0.800000 7.800000 1.999997
v -1.000000 7.800000 2.200000
v -0.800000 7.973281 2.100128
v -0.899869 7.973281 2.199997
v -0.895642 7.947327 2.104355
v -0.899869 7.800000 2.026719
v -0.800000 7.899869 2.026716
v -0.895642 7.895642 2.052671
v -0.973281 7.899869 2.199997
v -0.973281 7.800000 2.100131
v -0.947326 7.895642 2.104355
v 0.800000 4.000000 3.800000
v 1.000000 4.200000 3.800000
v 0.800000 4.200000 4.000000
v 0.899869 4.026721 3.800000
v 0.800000 4.026721 3.899869
v 0.895642 4.052673 3.895642
v 0.973281 4.200000 3.899869
v 0.973281 4.100132 3.800000
v 0.947326 4.104361 3.895642
v 0.800000 4.100132 3.973281
v 0.899869 4.200000 3.973281
v 0.895642 4.104361 3.947326
v 0.800000 8.000000 3.799997
v 0.800000 7.800003 4.000000
v 1.000000 7.800003 3.799999
v 0.800000 7.973281 3.899866
v 0.899869 7.973281 3.799997
v 0.895642 7.947330 3.895639
v 0.899869 7.800003 3.973279
v 0.800000 7.899869 3.973278
v 0.895642 7.895642 3.947323
v 0.973281 7.899869 3.799997
v 0.973281 7.800003 3.899868
v 0.947326 7.895642 3.895639
v 0.800000 4.000000 2.200000
v 0.800000 4.200000 2.000000
v 1.000000 4.200000 2.200000
v 0.800000 4.026719 2.100131
v 0.899869 4.026719 2.200000
v 0.895642 4.052673 2.104358
v 0.899869 4.200000 2.026719
v 0.800000 4.100131 2.026719
v 0.895642 4.104358 2.052674
v 0.973281 4.100131 2.200000
v 0.973281 4.200000 2.100131
v 0.947326 4.104358 2.104358
v 0.800000 8.000000 2.199997
v 1.000000 7.800000 2.200000
v 0.800000 7.800000 1.999997
v 0.899869 7.973281 2.199997
v 0.800000 7.973281 2.100128
v 0.895642 7.947327 2.104355
v 0.973281 7.800000 2.100131
v 0.973281 7.899869 2.199997
v 0.947326 7.895642 2.104355
v 0.800000 7.899869 2.026716
v 0.899869 7.800000 2.026719
v 0.895642 7.895642 2.052671
vn -0.1296 -0.9831 0.1296
vn -0.1216 -0.8623 0.4916
vn -0.4474 -0.7744 0.4474
vn -0.4916 -0.8623 0.1216
vn -0.1216 -0.4915 0.8623
vn -0.4474 -0.4473 0.7744
vn -0.1296 -0.1296 0.9831
vn -0.4915 -0.1216 0.8623
vn -0.8623 -0.1216 0.4915
vn -0.7744 -0.4473 0.4474
vn -0.9831 -0.1296 0.1296
vn -0.8623 -0.4915 0.1216
vn -0.1296 0.1296 0.9831
vn -0.1216 0.4916 0.8623
vn -0.4474 0.4473 0.7744
vn -0.4915 0.1216 0.8623
vn -0.1216 0.8623 0.4915
vn -0.4474 0.7744 0.4474
vn -0.1296 0.9831 0.1296
vn -0.4915 0.8623 0.1216
vn -0.8623 0.4915 0.1216
vn -0.7744 0.4473 0.4474
vn -0.9831 0.1296 0.1296
vn -0.8623 0.1216 0.4915
vn -0.1296 -0.9831 -0.1296
vn -0.4915 -0.8623 -0.1216
vn -0.4474 -0.7744 -0.4474
vn -0.1216 -0.8623 -0.4915
vn -0.8623 -0.4915 -0.1216
vn -0.7744 -0.4473 -0.4474
vn -0.9831 -0.1296 -0.1296
vn -0.8623 -0.1216 -0.4915
vn -0.4915 -0.1216 -0.8623
vn -0.4474 -0.4473 -0.7744
vn -0.1296 -0.1296 -0.9831
vn -0.1216 -0.4915 -0.8623
vn -0.1296 0.9831 -0.1296
vn -0.1216 0.8623 -0.4915
vn -0.4474 0.7744 -0.4474
vn -0.4915 0.8623 -0.1216
vn -0.1216 0.4915 -0.8623
vn -0.4474 0.4473 -0.7744
vn -0.1296 0.1296 -0.9831
vn -0.4916 0.1216 -0.8623
vn -0.8623 0.1216 -0.4915
vn -0.7744 0.4473 -0.4474
vn -0.9831 0.1296 -0.1296
vn -0.8623 0.4915 -0.1216
vn 0.1296 -0.9831 0.1296
vn 0.4916 -0.8623 0.1216
vn 0.4474 -0.7744 0.4474
vn 0.1216 -0.8623 0.4916
vn 0.8623 -0.4915 0.1216
vn 0.7744 -0.4473 0.4474
vn 0.9831 -0.1296 0.1296
vn 0.8623 -0.1216 0.4915
vn 0.4915 -0.1216 0.8623
vn 0.4474 -0.4473 0.7744
vn 0.1296 -0.1296 0.9831
vn 0.1216 -0.4915 0.8623
vn 0.1296 0.9831 0.1296
vn 0.1216 0.8623 0.4915
vn 0.4474 0.7744 0.4474
vn 0.4915 0.8623 0.1216
vn 0.1216 0.4916 0.8623
vn 0.4474 0.4473 0.7744
vn 0.1296 0.1296 0.9831
vn 0.4915 0.1216 0.8623
vn 0.8623 0.1216 0.4915
vn 0.7744 0.4473 0.4474
vn 0.9831 0.1296 0.1296
vn 0.8623 0.4915 0.1216
vn 0.1296 -0.9831 -0.1296
vn 0.1216 -0.8623 -0.4915
vn 0.4474 -0.7744 -0.4474
vn 0.4915 -0.8623 -0.1216
vn 0.1216 -0.4915 -0.8623
vn 0.4474 -0.4473 -0.7744
vn 0.1296 -0.1296 -0.9831
vn 0.4915 -0.1216 -0.8623
vn 0.8623 -0.1216 -0.4915
vn 0.7744 -0.4473 -0.4474
vn 0.9831 -0.1296 -0.1296
vn 0.8623 -0.4915 -0.1216
vn 0.1296 0.9831 -0.1296
vn 0.4915 0.8623 -0.1216
vn 0.4474 0.7744 -0.4474
vn 0.1216 0.8623 -0.4915
vn 0.8623 0.4915 -0.1216
vn 0.7744 0.4473 -0.4474
vn 0.9831 0.1296 -0.1296
vn 0.8623 0.1216 -0.4915
vn 0.4916 0.1216 -0.8623
vn 0.4474 0.4473 -0.7744
vn 0.1296 0.1296 -0.9831
vn 0.1216 0.4915 -0.8623
vt 0.572622 0.380996
vt 0.568018 0.380996
vt 0.568212 0.376587
vt 0.572622 0.376392
vt 0.563401 0.380996
vt 0.563401 0.376587
vt 0.779421 0.484998
vt 0.774800 0.484998
vt 0.774995 0.475743
vt 0.779421 0.475743
vt 0.770166 0.484998
vt 0.770166 0.475743
vt 0.646399 0.485262
vt 0.646399 0.476028
vt 0.650814 0.476028
vt 0.655632 0.485262
vt 0.572622 0.371775
vt 0.568212 0.371775
vt 0.779421 0.651588
vt 0.779421 0.660843
vt 0.774995 0.660843
vt 0.774800 0.651588
vt 0.459976 0.454736
vt 0.464585 0.454736
vt 0.464780 0.459138
vt 0.459976 0.459138
vt 0.469182 0.454736
vt 0.469182 0.459332
vt 0.469182 0.463941
vt 0.464780 0.463941
vt 0.646399 0.651462
vt 0.655632 0.651462
vt 0.650814 0.660695
vt 0.646399 0.660695
vt 0.770166 0.651588
vt 0.770166 0.660843
vt 0.646389 0.380996
vt 0.646389 0.376392
vt 0.650798 0.376587
vt 0.650993 0.380996
vt 0.646389 0.371775
vt 0.650798 0.371775
vt 0.572532 0.485262
vt 0.563299 0.485262
vt 0.568117 0.476028
vt 0.572532 0.476028
vt 0.759401 0.484717
vt 0.754754 0.484717
vt 0.754558 0.475436
vt 0.759401 0.475436
vt 0.750119 0.484717
vt 0.750119 0.475436
vt 0.655609 0.380996
vt 0.655609 0.376587
vt 0.542826 0.454736
vt 0.547423 0.454736
vt 0.547228 0.459138
vt 0.542826 0.459332
vt 0.552032 0.454736
vt 0.552032 0.459138
vt 0.750119 0.651780
vt 0.754754 0.651780
vt 0.754558 0.661061
vt 0.750119 0.661061
vt 0.759401 0.651780
vt 0.759401 0.661061
vt 0.572532 0.651462
vt 0.572532 0.660695
vt 0.568117 0.660695
vt 0.563299 0.651462
vt 0.542826 0.463941
vt 0.547229 0.463941
vt 0.572622 0.454763
vt 0.572622 0.459367
vt 0.568212 0.459172
vt 0.568018 0.454763
vt 0.572622 0.463984
vt 0.568212 0.463984
vt 0.468988 0.485149
vt 0.464371 0.485149
vt 0.464567 0.475904
vt 0.468988 0.475904
vt 0.459743 0.485149
vt 0.459743 0.475904
vt 0.853461 0.484998
vt 0.853461 0.475743
vt 0.857887 0.475743
vt 0.862716 0.484998
vt 0.563401 0.454763
vt 0.563401 0.459172
vt 0.469182 0.381091
vt 0.464585 0.381091
vt 0.464780 0.376689
vt 0.469182 0.376494
vt 0.459976 0.381091
vt 0.459976 0.376689
vt 0.853461 0.651588
vt 0.862716 0.651588
vt 0.857887 0.660843
vt 0.853461 0.660843
vt 0.459743 0.651551
vt 0.464371 0.651551
vt 0.464567 0.660796
vt 0.459743 0.660796
vt 0.468988 0.651551
vt 0.468988 0.660796
vt 0.469182 0.371885
vt 0.464780 0.371885
vt 0.646389 0.454763
vt 0.650993 0.454763
vt 0.650798 0.459172
vt 0.646389 0.459367
vt 0.655609 0.454763
vt 0.655609 0.459172
vt 0.675869 0.484717
vt 0.666588 0.484717
vt 0.671431 0.475436
vt 0.675869 0.475436
vt 0.552189 0.485149
vt 0.547561 0.485149
vt 0.547365 0.475904
vt 0.552189 0.475904
vt 0.542944 0.485149
vt 0.542944 0.475904
vt 0.646389 0.463984
vt 0.650798 0.463984
vt 0.542826 0.381091
vt 0.542826 0.376494
vt 0.547228 0.376689
vt 0.547423 0.381091
vt 0.542826 0.371885
vt 0.547229 0.371885
vt 0.542944 0.651551
vt 0.547561 0.651551
vt 0.547365 0.660796
vt 0.542944 0.660796
vt 0.552189 0.651551
vt 0.552189 0.660796
vt 0.675869 0.651780
vt 0.675869 0.661061
vt 0.671431 0.661061
vt 0.666588 0.651780
vt 0.552032 0.381091
vt 0.552032 0.376689
s 1
usemtl Material.021
f 1/1/1 4/2/2 6/3/3 5/4/4
f 4/2/2 8/5/5 9/6/6 6/3/3
f 2/7/7 7/8/8 9/9/6 8/10/5
f 7/8/8 11/11/9 12/12/10 9/9/6
f 3/13/11 10/14/12 12/15/10 11/16/9
f 10/17/12 5/4/4 6/3/3 12/18/10
f 6/3/3 9/6/6 12/18/10
f 13/19/13 16/20/14 18/21/15 17/22/16
f 16/23/14 20/24/17 21/25/18 18/26/15
f 14/27/19 19/28/20 21/25/18 20/24/17
f 19/28/20 23/29/21 24/30/22 21/25/18
f 15/31/23 22/32/24 24/33/22 23/34/21
f 22/35/24 17/22/16 18/21/15 24/36/22
f 18/26/15 21/25/18 24/30/22
f 25/37/25 28/38/26 30/39/27 29/40/28
f 28/38/26 32/41/29 33/42/30 30/39/27
f 26/43/31 31/44/32 33/45/30 32/46/29
f 31/47/32 35/48/33 36/49/34 33/50/30
f 27/51/35 34/52/36 36/49/34 35/48/33
f 34/53/36 29/40/28 30/39/27 36/54/34
f 30/39/27 33/42/30 36/54/34
f 37/55/37 40/56/38 42/57/39 41/58/40
f 40/56/38 44/59/41 45/60/42 42/57/39
f 38/61/43 43/62/44 45/63/42 44/64/41
f 43/62/44 47/65/45 48/66/46 45/63/42
f 39/67/47 46/68/48 48/69/46 47/70/45
f 46/71/48 41/58/40 42/57/39 48/72/46
f 42/57/39 45/60/42 48/72/46
f 49/73/49 52/74/50 54/75/51 53/76/52
f 52/74/50 56/77/53 57/78/54 54/75/51
f 50/79/55 55/80/56 57/81/54 56/82/53
f 55/80/56 59/83/57 60/84/58 57/81/54
f 51/85/59 58/86/60 60/87/58 59/88/57
f 58/89/60 53/76/52 54/75/51 60/90/58
f 54/75/51 57/78/54 60/90/58
f 61/91/61 64/92/62 66/93/63 65/94/64
f 64/92/62 68/95/65 69/96/66 66/93/63
f 62/97/67 67/98/68 69/99/66 68/100/65
f 67/101/68 71/102/69 72/103/70 69/104/66
f 63/105/71 70/106/72 72/103/70 71/102/69
f 70/107/72 65/94/64 66/93/63 72/108/70
f 66/93/63 69/96/66 72/108/70
f 73/109/73 76/110/74 78/111/75 77/112/76
f 76/110/74 80/113/77 81/114/78 78/111/75
f 74/115/79 79/116/80 81/117/78 80/118/77
f 79/119/80 83/120/81 84/121/82 81/122/78
f 75/123/83 82/124/84 84/121/82 83/120/81
f 82/125/84 77/112/76 78/111/75 84/126/82
f 78/111/75 81/114/78 84/126/82
f 85/127/85 88/128/86 90/129/87 89/130/88
f 88/128/86 92/131/89 93/132/90 90/129/87
f 86/133/91 91/134/92 93/135/90 92/136/89
f 91/134/92 95/137/93 96/138/94 93/135/90
f 87/139/95 94/140/96 96/141/94 95/142/93
f 94/143/96 89/130/88 90/129/87 96/144/94
f 90/129/87 93/132/90 96/144/94
f 25/37/25 1/1/1 5/4/4 28/38/26
f 28/38/26 5/4/4 10/17/12 32/41/29
f 32/46/29 10/14/12 3/13/11 26/43/31
f 2/7/7 13/19/13 17/22/16 7/8/8
f 7/8/8 17/22/16 22/35/24 11/11/9
f 11/16/9 22/32/24 15/31/23 3/13/11
f 14/27/19 37/55/37 41/58/40 19/28/20
f 19/28/20 41/58/40 46/71/48 23/29/21
f 23/34/21 46/68/48 39/67/47 15/31/23
f 38/61/43 27/51/35 35/48/33 43/62/44
f 43/62/44 35/48/33 31/47/32 47/65/45
f 47/70/45 31/44/32 26/43/31 39/67/47
f 73/109/73 25/37/25 29/40/28 76/110/74
f 76/110/74 29/40/28 34/53/36 80/113/77
f 80/118/77 34/52/36 27/51/35 74/115/79
f 37/55/37 85/127/85 89/130/88 40/56/38
f 40/56/38 89/130/88 94/143/96 44/59/41
f 44/64/41 94/140/96 87/139/95 38/61/43
f 86/133/91 75/123/83 83/120/81 91/134/92
f 91/134/92 83/120/81 79/119/80 95/137/93
f 95/142/93 79/116/80 74/115/79 87/139/95
f 49/73/49 73/109/73 77/112/76 52/74/50
f 52/74/50 77/112/76 82/125/84 56/77/53
f 56/82/53 82/124/84 75/123/83 50/79/55
f 85/127/85 61/91/61 65/94/64 88/128/86
f 88/128/86 65/94/64 70/107/72 92/131/89
f 92/136/89 70/106/72 63/105/71 86/133/91
f 62/97/67 51/85/59 59/88/57 67/98/68
f 67/101/68 59/83/57 55/80/56 71/102/69
f 71/102/69 55/80/56 50/79/55 63/105/71
f 1/1/1 49/73/49 53/76/52 4/2/2
f 4/2/2 53/76/52 58/89/60 8/5/5
f 8/10/5 58/86/60 51/85/59 2/7/7
f 61/91/61 14/27/19 20/24/17 64/92/62
f 64/92/62 20/24/17 16/23/14 68/95/65
f 68/100/65 16/20/14 13/19/13 62/97/67
f 25/37/25 73/109/73 49/73/49 1/1/1
f 3/13/11 15/31/23 39/67/47 26/43/31
f 51/85/59 62/97/67 13/19/13 2/7/7
f 85/127/85 37/55/37 14/27/19 61/91/61
f 27/51/35 38/61/43 87/139/95 74/115/79
f 75/123/83 86/133/91 63/105/71 50/79/55
o RightArm
v 2.198834 4.002797 2.938339
v 0.791725 4.002797 2.938339
v 2.198834 4.052988 2.834117
v 0.791725 4.052987 2.834117
v 2.198834 4.165765 2.808376
v 0.791725 4.165765 2.808376
v 2.198834 4.256206 2.880500
v 0.791725 4.256206 2.880500
v 2.198834 4.256206 2.996178
v 0.791725 4.256206 2.996178
v 2.198834 4.165765 3.068302
v 0.791725 4.165765 3.068302
v 2.198834 4.052988 3.042561
v 0.791725 4.052987 3.042561
v 2.198834 4.256206 2.940958
v 2.939418 4.002797 2.345872
v 2.939418 4.052988 2.241650
v 2.939418 4.165765 2.215909
v 2.939418 4.256206 2.288033
v 2.939418 4.256206 2.348491
v 2.939418 4.256206 3.533425
v 2.939418 4.256206 3.588645
v 2.939418 4.165765 3.660769
v 2.939418 4.052988 3.635028
v 2.939418 4.002797 3.530806
v 2.901959 4.073466 2.415389
v 2.901959 4.133713 2.416947
v 2.198834 4.061956 3.008037
v 2.198834 4.202298 2.925861
v 2.198834 4.214622 2.910194
v 2.198834 4.087769 2.924677
v 2.217932 4.202114 2.994208
v 2.901959 4.075482 3.447630
v 2.901959 4.115336 3.448977
v 2.817636 4.076346 2.512844
v 2.821053 4.134851 2.511651
v 2.855388 4.080170 3.388293
v 2.870092 4.118877 3.398542
v 3.007714 4.256346 3.523064
v 3.007714 4.256346 3.578283
v 3.007714 4.165905 3.650407
v 3.007714 4.053128 3.624666
v 3.007714 4.002937 3.520444
v 2.970255 4.115477 3.438616
v 2.970255 4.075623 3.437269
v 3.024084 4.002610 2.359875
v 3.024084 4.052801 2.255653
v 3.024084 4.165578 2.229912
v 3.024084 4.256019 2.302036
v 3.024084 4.256019 2.362494
v 2.986625 4.133527 2.430950
v 2.986625 4.073279 2.429392
vn -0.1570 -0.9876 -0.0000
vn -0.0000 -1.0000 -0.0000
vn -0.0000 -0.6235 -0.7818
vn -0.2815 -0.6346 -0.7198
vn -0.0000 0.2225 -0.9749
vn -0.3641 0.2236 -0.9041
vn -0.0000 0.9010 -0.4339
vn -0.1266 0.9205 -0.3698
vn -0.0000 0.9010 0.4339
vn -0.1266 0.9205 0.3698
vn -0.0000 1.0000 -0.0000
vn -0.0000 0.2225 0.9749
vn -0.3641 0.2236 0.9041
vn -1.0000 -0.0000 -0.0000
vn -0.0000 -0.6235 0.7818
vn -0.2815 -0.6346 0.7198
vn -0.2305 -0.5746 0.7853
vn -0.2609 0.2012 0.9442
vn 0.5603 0.4787 0.6760
vn 0.5648 0.2430 0.7887
vn 0.5676 0.3243 0.7567
vn 0.1941 0.3743 0.9068
vn 0.1248 0.5350 0.8356
vn 0.1712 -0.6422 0.7471
vn -0.1465 -0.4523 0.8797
vn -0.1560 0.2811 0.9469
vn -0.2266 -0.5742 -0.7867
vn -0.1534 -0.8903 -0.4287
vn -0.1598 0.8590 -0.4864
vn -0.2545 0.2017 -0.9458
vn 0.0010 1.0000 -0.0000
vn -0.0009 1.0000 -0.0000
vn -0.1647 0.8588 0.4851
vn 0.0603 0.9101 0.4099
vn -0.0021 1.0000 -0.0000
vn -0.1549 -0.8901 0.4286
vn 0.5237 -0.4223 -0.7399
vn 0.5587 -0.2224 -0.7990
vn 0.5518 -0.2767 -0.7867
vn 0.2209 -0.4107 -0.8846
vn 0.0959 -0.7054 -0.7023
vn -0.9827 0.1786 0.0496
vn 0.4157 -0.6925 0.5896
vn 0.5489 -0.3375 0.7647
vn 0.5068 -0.6093 0.6098
vn 0.0695 -0.7233 0.6870
vn -0.9107 0.3246 0.2553
vn -0.0565 -0.9984 0.0042
vn 0.2061 0.3664 -0.9073
vn 0.5939 0.2868 -0.7517
vn 0.5951 0.2000 -0.7784
vn 0.5823 0.4172 -0.6978
vn 0.1528 0.5243 -0.8377
vn 0.0480 0.9987 0.0167
vn 0.5322 -0.0018 0.8466
vn 0.5685 -0.0726 -0.8195
vn 1.0000 -0.0000 -0.0000
vn 0.9887 0.0020 -0.1500
vn -0.1430 0.3150 -0.9383
vn -0.1323 -0.4590 -0.8785
vn 0.0675 -0.8989 0.4329
vn 0.1174 -0.6327 0.7654
vn 0.1456 0.2267 0.9630
vn -0.0941 -0.7703 -0.6307
vn -0.1278 0.5347 -0.8353
vn 0.9866 -0.0022 0.1632
vn -0.1388 0.5151 0.8458
vn 0.0695 0.9104 -0.4078
vn 0.1594 0.2261 -0.9610
vn 0.1248 -0.6339 -0.7633
vn 0.0696 -0.8988 -0.4328
vn -0.1137 -0.7267 0.6775
vn 0.0022 1.0000 -0.0000
vt 0.187867 0.589179
vt 0.175471 0.001487
vt 0.204519 -0.000000
vt 0.216915 0.587692
vt 0.771634 0.587461
vt 0.793919 -0.000000
vt 0.826170 0.001186
vt 0.803886 0.588646
vt 0.846708 0.003473
vt 0.824423 0.590934
vt 0.580336 0.588840
vt 0.592238 0.000000
vt 0.624511 0.000652
vt 0.612608 0.589492
vt 0.597203 0.589180
vt 0.849625 0.588658
vt 0.846708 -0.000000
vt 0.871394 0.000545
vt 0.874310 0.589203
vt 0.771634 0.947311
vt 0.796816 0.927132
vt 0.828218 0.934012
vt 0.842193 0.962770
vt 0.828218 0.991750
vt 0.796816 0.999131
vt 0.771634 0.979353
vt 0.903045 0.000185
vt 0.905962 0.588843
vt 0.158763 0.588921
vt 0.146367 0.001229
vt 0.903045 0.903985
vt 0.871394 0.904344
vt 0.905962 0.349274
vt 0.917797 0.349163
vt 0.920536 0.357943
vt 0.939718 0.606230
vt 0.940322 0.639241
vt 0.906478 0.653831
vt 0.957138 0.639461
vt 0.956621 0.675002
vt 0.939806 0.674783
vt 0.388727 0.893510
vt 0.359679 0.894998
vt 0.560282 0.588570
vt 0.408781 0.895417
vt 0.388727 0.895147
vt 0.425648 0.895757
vt 0.826170 0.889297
vt 0.793919 0.888112
vt 0.756229 0.902435
vt 0.771634 0.902746
vt 0.768166 0.931267
vt 0.752760 0.930956
vt 0.029104 0.901984
vt -0.000000 0.901726
vt 0.846708 0.903800
vt 0.909270 0.005624
vt 0.921546 0.005822
vt 0.933159 0.003420
vt 0.931547 0.286808
vt 0.928848 0.307581
vt 0.905962 0.326611
vt 0.988720 0.594302
vt 0.977178 0.597253
vt 0.977178 0.349163
vt 0.993546 0.349635
vt 0.956045 0.605038
vt 0.959626 0.350619
vt 0.976662 0.350232
vt 0.977178 0.654789
vt 0.842193 0.950989
vt 0.842193 0.927132
vt 0.845143 0.931838
vt 0.905962 0.689373
vt 0.925501 0.705928
vt 0.941235 0.950216
vt 0.905962 0.977414
vt 0.939626 0.306717
vt 0.942104 0.292280
vt 0.968497 0.000259
vt 0.978129 -0.000000
vt 0.974821 0.320987
vt 0.954577 0.963291
vt 0.941235 0.977368
vt 0.941235 0.689373
vt 0.975103 0.715796
vt 0.921114 0.349349
vt 0.953067 0.349782
vt 0.964280 0.000878
vt 0.975103 0.689373
vt 0.986229 0.689551
vt 0.991920 0.977530
vt 0.975103 0.977395
vt 0.089381 0.999435
vt 0.059143 0.993864
vt 0.053766 0.984122
vt 0.053766 0.938342
vt 0.066997 0.930445
vt 0.097212 0.941800
vt 0.107174 0.972504
vt 0.942934 0.334893
vt 0.932156 0.335757
vt 0.032596 0.930445
vt 0.003492 0.930187
vt 0.871574 0.932823
vt 0.846889 0.932278
vt 0.051938 0.884585
vt 0.055430 0.913046
vt 0.978129 0.349163
vt 0.903226 0.932463
vt -0.000000 0.991737
vt -0.000000 0.952531
vt 0.008613 0.938087
vt 0.035271 0.930445
vt 0.053766 0.956899
vt 0.044615 0.987854
vt 0.014708 1.000000
vt 0.905962 0.689373
vt 0.846708 0.891585
vt 0.844513 0.927132
vt 0.823975 0.924844
vt 0.385566 0.928958
vt 0.356518 0.930445
vt 0.339916 0.878534
vt 0.336755 0.913981
vt 0.428839 0.931267
vt 0.411972 0.930927
vt 0.791723 0.923659
s 1
usemtl Material.023
f 97/145/97 98/146/98 100/147/99 99/148/100
f 99/149/100 100/150/99 102/151/101 101/152/102
f 101/152/102 102/151/101 104/153/103 103/154/104
f 103/155/104 104/156/103 106/157/105 105/158/106 111/159/107
f 105/160/106 106/161/105 108/162/108 107/163/109
f 100/164/110 98/165/110 110/166/110 108/167/110 106/168/110 104/169/110 102/170/110
f 107/163/109 108/162/108 110/171/111 109/172/112
f 109/173/112 110/174/111 98/146/98 97/145/97
f 107/163/109 109/172/112 120/175/113 119/176/114
f 111/177/115 126/178/115 128/179/116 132/180/117 123/181/118 116/182/119
f 123/181/118 122/183/120 148/184/121 147/185/122
f 97/145/97 99/148/100 113/186/123 112/187/124
f 101/188/102 103/155/104 115/189/125 114/190/126
f 103/155/104 111/159/107 116/191/127 115/189/125
f 99/149/100 101/152/102 114/192/126 113/193/123
f 117/194/128 118/195/129 136/196/130 135/197/131
f 111/159/107 105/158/106 118/195/129 117/194/128
f 109/173/112 97/145/97 121/198/132 120/199/113
f 105/160/106 107/163/109 119/176/114 118/200/129
f 97/201/133 124/202/133 127/203/134 133/204/135 129/205/136 121/206/137
f 133/207/138 134/208/138 132/209/138 131/210/138
f 122/183/120 131/211/139 124/212/140 97/213/141 112/214/142
f 128/215/143 126/216/143 125/217/143
f 129/218/144 133/219/144 131/220/139 122/221/120
f 130/222/145 134/223/146 126/224/147 111/225/148 117/226/149
f 134/227/150 130/228/150 123/229/150 132/230/150
f 131/211/139 132/180/117 128/179/116 125/231/151 127/232/151 124/212/140
f 134/223/146 133/204/135 127/203/134 125/233/152 126/224/147
f 130/234/153 129/235/153 122/236/153 123/237/153
f 139/238/154 141/239/154 140/240/154 135/241/154 136/242/154 137/243/154 138/244/154
f 129/205/136 130/222/145 140/245/155 141/246/156
f 120/199/113 121/198/132 139/247/157 138/248/158
f 118/200/129 119/176/114 137/249/159 136/250/130
f 121/198/137 129/251/136 141/252/156 139/247/160
f 130/222/145 117/226/149 135/253/161 140/245/155
f 119/176/114 120/175/113 138/254/158 137/249/159
f 146/255/162 147/256/162 148/257/162 142/258/162 143/259/162 144/260/162 145/261/162
f 116/182/119 123/181/118 147/185/122 146/262/163
f 114/192/126 115/263/125 145/264/164 144/265/165
f 112/187/124 113/186/123 143/266/166 142/267/167
f 122/268/120 112/187/142 142/267/168 148/269/121
f 115/189/125 116/191/127 146/270/169 145/271/164
f 113/193/123 114/192/126 144/265/165 143/272/166
