# Blender 5.0.0
# www.blender.org
mtllib SuperBall.mtl
o RightArm
v -0.040248 5.500781 2.998589
v -0.040248 5.163720 4.109729
v -0.040248 4.914994 4.412802
v -0.040248 4.266148 4.846348
v -0.040248 3.890961 4.960159
v -0.040248 3.110600 4.960159
v -0.040248 2.086567 4.412802
v -0.040248 1.837842 4.109729
v -0.040248 1.500781 2.998589
v -0.116369 5.462351 3.381272
v -0.189564 5.348540 3.749249
v -0.257021 5.163720 4.088378
v -0.316148 4.914994 4.385628
v -0.364672 4.611921 4.629575
v -0.400728 4.266148 4.810843
v -0.422932 3.890961 4.922468
v -0.430429 3.500781 4.960159
v -0.422932 3.110600 4.922468
v -0.400728 2.735414 4.810843
v -0.364672 2.389640 4.629575
v -0.316148 2.086567 4.385628
v -0.257021 1.837842 4.088378
v -0.189564 1.653022 3.749249
v -0.116369 1.539210 3.381272
v -0.189564 5.462351 3.359068
v -0.333141 5.348540 3.705695
v -0.465463 5.163720 4.025148
v -0.581444 4.914994 4.305151
v -0.676628 4.611921 4.534944
v -0.747355 4.266148 4.705695
v -0.790909 3.890961 4.810843
v -0.805615 3.500781 4.846347
v -0.790909 3.110600 4.810843
v -0.747355 2.735414 4.705695
v -0.676628 2.389640 4.534944
v -0.581444 2.086567 4.305151
v -0.465463 1.837842 4.025148
v -0.333141 1.653022 3.705695
v -0.189564 1.539210 3.359068
v -0.257021 5.462351 3.323012
v -0.465463 5.348540 3.634968
v -0.657565 5.163720 3.922468
v -0.825943 4.914994 4.174464
v -0.964128 4.611921 4.381271
v -1.066808 4.266148 4.534944
v -1.130038 3.890961 4.629574
v -1.151389 3.500781 4.661528
v -1.130038 3.110600 4.629574
v -1.066808 2.735414 4.534944
v -0.964128 2.389640 4.381271
v -0.825943 2.086567 4.174464
v -0.657565 1.837842 3.922468
v -0.465463 1.653022 3.634968
v -0.257021 1.539210 3.323012
v -0.316147 5.462351 3.274488
v -0.581444 5.348540 3.539784
v -0.825943 5.163720 3.784283
v -1.040248 4.914994 3.998588
v -1.216124 4.611921 4.174464
v -1.346811 4.266148 4.305151
v -1.427288 3.890961 4.385628
v -1.454462 3.500781 4.412802
v -1.427288 3.110600 4.385628
v -1.346811 2.735414 4.305151
v -1.216124 2.389640 4.174464
v -1.040248 2.086567 3.998588
v -0.825943 1.837842 3.784283
v -0.581444 1.653022 3.539784
v -0.316147 1.539210 3.274488
v -0.364671 5.462351 3.215361
v -0.676627 5.348540 3.423803
v -0.964127 5.163720 3.615905
v -1.216124 4.914994 3.784283
v -1.422931 4.611921 3.922467
v -1.576603 4.266148 4.025148
v -1.671234 3.890961 4.088378
v -1.703187 3.500781 4.109729
v -1.671234 3.110600 4.088378
v -1.576603 2.735414 4.025148
v -1.422931 2.389640 3.922467
v -1.216124 2.086567 3.784283
v -0.964127 1.837842 3.615905
v -0.676627 1.653022 3.423803
v -0.364671 1.539210 3.215361
v -0.400728 5.462351 3.147904
v -0.747355 5.348540 3.291481
v -1.066808 5.163720 3.423803
v -1.346811 4.914994 3.539784
v -1.576603 4.611921 3.634967
v -1.747355 4.266148 3.705695
v -1.852503 3.890961 3.749249
v -1.888007 3.500781 3.763955
v -1.852503 3.110600 3.749249
v -1.747355 2.735414 3.705695
v -1.576603 2.389640 3.634967
v -1.346811 2.086567 3.539784
v -1.066808 1.837842 3.423803
v -0.747355 1.653022 3.291481
v -0.400728 1.539210 3.147904
v -0.422931 5.462351 3.074709
v -0.790908 5.348540 3.147904
v -1.130038 5.163720 3.215361
v -1.427287 4.914994 3.274487
v -1.671234 4.611921 3.323011
v -1.852502 4.266148 3.359068
v -1.964127 3.890961 3.381271
v -2.001818 3.500781 3.388769
v -1.964127 3.110600 3.381271
v -1.852502 2.735414 3.359068
v -1.671234 2.389640 3.323011
v -1.427287 2.086567 3.274487
v -1.130038 1.837842 3.215361
v -0.790908 1.653022 3.147904
v -0.422931 1.539210 3.074709
v -0.430429 5.462351 2.998588
v -0.805615 5.348540 2.998588
v -1.151388 5.163720 2.998588
v -1.454461 4.914994 2.998588
v -1.703187 4.611921 2.998588
v -1.888006 4.266148 2.998588
v -2.001818 3.890961 2.998588
v -2.040248 3.500781 2.998588
v -2.001818 3.110600 2.998588
v -1.888006 2.735414 2.998588
v -1.703187 2.389640 2.998588
v -1.454461 2.086567 2.998588
v -1.151388 1.837842 2.998588
v -0.805615 1.653022 2.998588
v -0.430429 1.539210 2.998588
v -0.422931 5.462351 2.922468
v -0.790908 5.348540 2.849273
v -1.130038 5.163720 2.781816
v -1.427287 4.914994 2.722689
v -1.671234 4.611921 2.674165
v -1.852502 4.266148 2.638108
v -1.964127 3.890961 2.615905
v -2.001818 3.500781 2.608407
v -1.964127 3.110600 2.615905
v -1.852502 2.735414 2.638108
v -1.671234 2.389640 2.674165
v -1.427287 2.086567 2.722689
v -1.130038 1.837842 2.781816
v -0.790908 1.653022 2.849273
v -0.422931 1.539210 2.922468
v -0.400728 5.462351 2.849273
v -0.747355 5.348540 2.705695
v -1.066808 5.163720 2.573373
v -1.346810 4.914994 2.457392
v -1.576603 4.611921 2.362209
v -1.747354 4.266148 2.291481
v -1.852502 3.890961 2.247928
v -1.888006 3.500781 2.233222
v -1.852502 3.110600 2.247928
v -1.747354 2.735414 2.291481
v -1.576603 2.389640 2.362209
v -1.346810 2.086567 2.457392
v -1.066808 1.837842 2.573373
v -0.747355 1.653022 2.705695
v -0.400728 1.539210 2.849273
v -0.364671 5.462351 2.781816
v -0.676627 5.348540 2.573373
v -0.964127 5.163720 2.381272
v -1.216123 4.914994 2.212893
v -1.422931 4.611921 2.074709
v -1.576602 4.266148 1.972029
v -1.671233 3.890961 1.908798
v -1.703187 3.500781 1.887448
v -1.671233 3.110600 1.908798
v -1.576602 2.735414 1.972029
v -1.422931 2.389640 2.074709
v -1.216123 2.086567 2.212893
v -0.964127 1.837842 2.381272
v -0.676627 1.653022 2.573373
v -0.364671 1.539210 2.781816
v -0.316147 5.462351 2.722689
v -0.581444 5.348540 2.457392
v -0.825942 5.163720 2.212894
v -1.040247 4.914994 1.998589
v -1.216123 4.611921 1.822713
v -1.346810 4.266148 1.692026
v -1.427287 3.890961 1.611549
v -1.454461 3.500781 1.584375
v -1.427287 3.110600 1.611549
v -1.346810 2.735414 1.692026
v -1.216123 2.389640 1.822713
v -1.040247 2.086567 1.998589
v -0.825942 1.837842 2.212894
v -0.581444 1.653022 2.457392
v -0.316147 1.539210 2.722689
v -0.257021 5.462351 2.674165
v -0.465463 5.348540 2.362209
v -0.657564 5.163720 2.074709
v -0.825942 4.914994 1.822713
v -0.964127 4.611921 1.615905
v -1.066807 4.266148 1.462234
v -1.130037 3.890961 1.367603
v -1.151388 3.500781 1.335650
v -1.130037 3.110600 1.367603
v -1.066807 2.735414 1.462234
v -0.964127 2.389640 1.615905
v -0.825942 2.086567 1.822713
v -0.657564 1.837842 2.074709
v -0.465463 1.653022 2.362209
v -0.257021 1.539210 2.674165
v -0.189564 5.462351 2.638109
v -0.333141 5.348540 2.291482
v -0.465463 5.163720 1.972029
v -0.581443 4.914994 1.692026
v -0.676627 4.611921 1.462233
v -0.747354 4.266148 1.291483
v -0.790908 3.890961 1.186334
v -0.805614 3.500781 1.150830
v -0.790908 3.110600 1.186334
v -0.747354 2.735414 1.291483
v -0.676627 2.389640 1.462233
v -0.581443 2.086567 1.692026
v -0.465463 1.837842 1.972029
v -0.333141 1.653022 2.291482
v -0.189564 1.539210 2.638109
v -0.116368 5.462351 2.615905
v -0.189563 5.348540 2.247928
v -0.257020 5.163720 1.908799
v -0.316147 4.914994 1.611549
v -0.364671 4.611921 1.367603
v -0.400727 4.266148 1.186335
v -0.422931 3.890961 1.074710
v -0.430428 3.500781 1.037018
v -0.422931 3.110600 1.074710
v -0.400727 2.735414 1.186335
v -0.364671 2.389640 1.367603
v -0.316147 2.086567 1.611549
v -0.257020 1.837842 1.908799
v -0.189563 1.653022 2.247928
v -0.116368 1.539210 2.615905
v -0.040248 5.462351 2.608408
v -0.040248 5.348540 2.233222
v -0.040248 5.163720 1.887449
v -0.040247 4.914994 1.584376
v -0.040248 4.611921 1.335650
v -0.040248 4.266148 1.150831
v -0.040247 3.890961 1.037019
v -0.040248 3.500781 0.998589
v -0.040247 3.110600 1.037019
v -0.040248 2.735414 1.150831
v -0.040248 2.389640 1.335650
v -0.040247 2.086567 1.584376
v -0.040248 1.837842 1.887449
v -0.040248 1.653022 2.233222
v -0.040248 1.539210 2.608408
v 0.035873 5.462351 2.615905
v 0.109068 5.348540 2.247928
v 0.176525 5.163720 1.908799
v 0.235652 4.914994 1.611549
v 0.284175 4.611921 1.367603
v 0.320232 4.266148 1.186335
v 0.342436 3.890961 1.074710
v 0.349933 3.500781 1.037019
v 0.342436 3.110600 1.074710
v 0.320232 2.735414 1.186335
v 0.284175 2.389640 1.367603
v 0.235652 2.086567 1.611549
v 0.176525 1.837842 1.908799
v 0.109068 1.653022 2.247928
v 0.035873 1.539210 2.615905
v 0.109068 5.462351 2.638109
v 0.252645 5.348540 2.291482
v 0.384967 5.163720 1.972029
v 0.500948 4.914994 1.692026
v 0.596131 4.611921 1.462234
v 0.666859 4.266148 1.291483
v 0.710413 3.890961 1.186335
v 0.725119 3.500781 1.150830
v 0.710413 3.110600 1.186335
v 0.666859 2.735414 1.291483
v 0.596131 2.389640 1.462234
v 0.500948 2.086567 1.692026
v 0.384967 1.837842 1.972029
v 0.252645 1.653022 2.291482
v 0.109068 1.539210 2.638109
v 0.176525 5.462351 2.674165
v 0.384967 5.348540 2.362210
v 0.577068 5.163720 2.074710
v 0.745447 4.914994 1.822714
v 0.883631 4.611921 1.615906
v 0.986312 4.266148 1.462234
v 1.049542 3.890961 1.367604
v 1.070892 3.500781 1.335650
v 1.049542 3.110600 1.367604
v 0.986312 2.735414 1.462234
v 0.883631 2.389640 1.615906
v 0.745447 2.086567 1.822714
v 0.577068 1.837842 2.074710
v 0.384967 1.653022 2.362210
v 0.176525 1.539210 2.674165
v 0.235651 5.462351 2.722689
v 0.500948 5.348540 2.457393
v 0.745447 5.163720 2.212894
v 0.959752 4.914994 1.998590
v 1.135627 4.611921 1.822714
v 1.266314 4.266148 1.692027
v 1.346791 3.890961 1.611550
v 1.373965 3.500781 1.584376
v 1.346791 3.110600 1.611550
v 1.266314 2.735414 1.692027
v 1.135627 2.389640 1.822714
v 0.959752 2.086567 1.998590
v 0.745447 1.837842 2.212894
v 0.500948 1.653022 2.457393
v 0.235651 1.539210 2.722689
v 0.284175 5.462351 2.781816
v 0.596131 5.348540 2.573374
v 0.883631 5.163720 2.381273
v 1.135627 4.914994 2.212894
v 1.342435 4.611921 2.074710
v 1.496106 4.266148 1.972030
v 1.590737 3.890961 1.908800
v 1.622691 3.500781 1.887449
v 1.590737 3.110600 1.908800
v 1.496106 2.735414 1.972030
v 1.342435 2.389640 2.074710
v 1.135627 2.086567 2.212894
v 0.883631 1.837842 2.381273
v 0.596131 1.653022 2.573374
v 0.284175 1.539210 2.781816
v 0.320232 5.462351 2.849273
v 0.666858 5.348540 2.705696
v 0.986311 5.163720 2.573374
v 1.266314 4.914994 2.457393
v 1.496107 4.611921 2.362210
v 1.666857 4.266148 2.291483
v 1.772005 3.890961 2.247929
v 1.807510 3.500781 2.233222
v 1.772005 3.110600 2.247929
v 1.666857 2.735414 2.291483
v 1.496107 2.389640 2.362210
v 1.266314 2.086567 2.457393
v 0.986311 1.837842 2.573374
v 0.666858 1.653022 2.705696
v 0.320232 1.539210 2.849273
v 0.342435 5.462351 2.922468
v 0.710412 5.348540 2.849273
v 1.049542 5.163720 2.781816
v 1.346791 4.914994 2.722690
v 1.590737 4.611921 2.674166
v 1.772005 4.266148 2.638109
v 1.883630 3.890961 2.615906
v 1.921322 3.500781 2.608408
v 1.883630 3.110600 2.615906
v 1.772005 2.735414 2.638109
v 1.590737 2.389640 2.674166
v 1.346791 2.086567 2.722690
v 1.049542 1.837842 2.781816
v 0.710412 1.653022 2.849273
v 0.342435 1.539210 2.922468
v 0.349932 5.462351 2.998589
v 0.725118 5.348540 2.998589
v 1.070892 5.163720 2.998589
v 1.373964 4.914994 2.998589
v 1.622690 4.611921 2.998589
v 1.807509 4.266148 2.998589
v 1.921320 3.890961 2.998589
v 1.959751 3.500781 2.998589
v 1.921320 3.110600 2.998589
v 1.807509 2.735414 2.998589
v 1.622690 2.389640 2.998589
v 1.373964 2.086567 2.998589
v 1.070892 1.837842 2.998589
v 0.725118 1.653022 2.998589
v 0.349932 1.539210 2.998589
v 0.342435 5.462351 3.074709
v 0.710412 5.348540 3.147904
v 1.049541 5.163720 3.215362
v 1.346791 4.914994 3.274488
v 1.590737 4.611921 3.323012
v 1.772005 4.266148 3.359069
v 1.883629 3.890961 3.381272
v 1.921322 3.500781 3.388769
v 1.883629 3.110600 3.381272
v 1.772005 2.735414 3.359069
v 1.590737 2.389640 3.323012
v 1.346791 2.086567 3.274488
v 1.049541 1.837842 3.215362
v 0.710412 1.653022 3.147904
v 0.342435 1.539210 3.074709
v 0.320232 5.462351 3.147904
v 0.666858 5.348540 3.291482
v 0.986311 5.163720 3.423804
v 1.266314 4.914994 3.539785
v 1.496106 4.611921 3.634968
v 1.666857 4.266148 3.705695
v 1.772004 3.890961 3.749249
v 1.807510 3.500781 3.763955
v 1.772004 3.110600 3.749249
v 1.666857 2.735414 3.705695
v 1.496106 2.389640 3.634968
v 1.266314 2.086567 3.539785
v 0.986311 1.837842 3.423804
v 0.666858 1.653022 3.291482
v 0.320232 1.539210 3.147904
v 0.284175 5.462351 3.215361
v 0.596131 5.348540 3.423803
v 0.883631 5.163720 3.615905
v 1.135626 4.914994 3.784283
v 1.342434 4.611921 3.922467
v 1.496106 4.266148 4.025148
v 1.590736 3.890961 4.088378
v 1.622690 3.500781 4.109729
v 1.590736 3.110600 4.088378
v 1.496106 2.735414 4.025148
v 1.342434 2.389640 3.922467
v 1.135626 2.086567 3.784283
v 0.883631 1.837842 3.615905
v 0.596131 1.653022 3.423803
v 0.284175 1.539210 3.215361
v 0.235651 5.462351 3.274488
v 0.500947 5.348540 3.539784
v 0.745446 5.163720 3.784283
v 0.959751 4.914994 3.998588
v 1.135626 4.611921 4.174463
v 1.266313 4.266148 4.305151
v 1.346789 3.890961 4.385627
v 1.373965 3.500781 4.412802
v 1.346789 3.110600 4.385627
v 1.266313 2.735414 4.305151
v 1.135626 2.389640 4.174463
v 0.959751 2.086567 3.998588
v 0.745446 1.837842 3.784283
v 0.500947 1.653022 3.539784
v 0.235651 1.539210 3.274488
v 0.176524 5.462351 3.323012
v 0.384966 5.348540 3.634967
v 0.577068 5.163720 3.922467
v 0.745446 4.914994 4.174463
v 0.883630 4.611921 4.381271
v 0.986310 4.266148 4.534943
v 1.049540 3.890961 4.629573
v 1.070892 3.500781 4.661527
v 1.049540 3.110600 4.629573
v 0.986310 2.735414 4.534943
v 0.883630 2.389640 4.381271
v 0.745446 2.086567 4.174463
v 0.577068 1.837842 3.922467
v 0.384966 1.653022 3.634967
v 0.176524 1.539210 3.323012
v 0.109067 5.462351 3.359068
v 0.252645 5.348540 3.705695
v 0.384966 5.163720 4.025148
v 0.500947 4.914994 4.305151
v 0.596130 4.611921 4.534943
v 0.666857 4.266148 4.705694
v 0.710411 3.890961 4.810842
v 0.725118 3.500781 4.846347
v 0.710411 3.110600 4.810842
v 0.666857 2.735414 4.705694
v 0.596130 2.389640 4.534943
v 0.500947 2.086567 4.305151
v 0.384966 1.837842 4.025148
v 0.252645 1.653022 3.705695
v 0.109067 1.539210 3.359068
v 0.035872 5.462351 3.381272
v 0.109067 5.348540 3.749249
v 0.176524 5.163720 4.088378
v 0.235650 4.914994 4.385627
v 0.284174 4.611921 4.629573
v 0.320231 4.266148 4.810842
v 0.342434 3.890961 4.922466
v 0.349932 3.500781 4.960158
v 0.342434 3.110600 4.922466
v 0.320231 2.735414 4.810842
v 0.284174 2.389640 4.629573
v 0.235650 2.086567 4.385627
v 0.176524 1.837842 4.088378
v 0.109067 1.653022 3.749249
v 0.035872 1.539210 3.381272
v -0.040248 5.462351 3.388769
v -0.040248 5.348540 3.763955
v -0.040249 4.611921 4.661526
v -0.040248 3.500781 4.998588
v -0.040249 2.735414 4.846346
v -0.040249 2.389640 4.661526
v -0.040248 1.653022 3.763955
v -0.040248 1.539210 3.388769
vn -0.0000 1.0000 -0.0000
vn -0.0000 0.8286 0.5598
vn -0.0000 0.7041 0.7101
vn -0.0000 0.3805 0.9248
vn -0.0000 0.1939 0.9810
vn -0.0000 -0.1939 0.9810
vn -0.0000 -0.7041 0.7101
vn -0.0000 -0.8286 0.5598
vn -0.0000 -1.0000 -0.0000
vn -0.0392 0.9796 0.1971
vn -0.0757 0.9217 0.3804
vn -0.1092 0.8286 0.5490
vn -0.1385 0.7041 0.6965
vn -0.1626 0.5528 0.8173
vn -0.1804 0.3805 0.9070
vn -0.1914 0.1939 0.9622
vn -0.1951 -0.0000 0.9808
vn -0.1914 -0.1939 0.9622
vn -0.1804 -0.3805 0.9070
vn -0.1626 -0.5528 0.8173
vn -0.1385 -0.7041 0.6965
vn -0.1092 -0.8286 0.5490
vn -0.0757 -0.9217 0.3804
vn -0.0392 -0.9796 0.1971
vn -0.0769 0.9796 0.1857
vn -0.1484 0.9217 0.3584
vn -0.2142 0.8286 0.5172
vn -0.2718 0.7041 0.6561
vn -0.3189 0.5528 0.7699
vn -0.3539 0.3805 0.8544
vn -0.3754 0.1939 0.9063
vn -0.3827 -0.0000 0.9239
vn -0.3754 -0.1939 0.9063
vn -0.3539 -0.3805 0.8544
vn -0.3189 -0.5528 0.7699
vn -0.2718 -0.7041 0.6561
vn -0.2142 -0.8286 0.5172
vn -0.1484 -0.9217 0.3584
vn -0.0769 -0.9796 0.1857
vn -0.1117 0.9796 0.1671
vn -0.2155 0.9217 0.3225
vn -0.3110 0.8286 0.4654
vn -0.3945 0.7041 0.5905
vn -0.4630 0.5528 0.6929
vn -0.5138 0.3805 0.7689
vn -0.5450 0.1939 0.8157
vn -0.5556 -0.0000 0.8315
vn -0.5450 -0.1939 0.8157
vn -0.5138 -0.3805 0.7689
vn -0.4630 -0.5528 0.6929
vn -0.3945 -0.7041 0.5905
vn -0.3110 -0.8286 0.4654
vn -0.2155 -0.9217 0.3225
vn -0.1117 -0.9796 0.1671
vn -0.1421 0.9796 0.1421
vn -0.2743 0.9217 0.2743
vn -0.3958 0.8286 0.3958
vn -0.5021 0.7041 0.5021
vn -0.5893 0.5528 0.5893
vn -0.6539 0.3805 0.6539
vn -0.6937 0.1939 0.6937
vn -0.7071 -0.0000 0.7071
vn -0.6937 -0.1939 0.6937
vn -0.6539 -0.3805 0.6539
vn -0.5893 -0.5528 0.5893
vn -0.5021 -0.7041 0.5021
vn -0.3958 -0.8286 0.3958
vn -0.2743 -0.9217 0.2743
vn -0.1421 -0.9796 0.1421
vn -0.1671 0.9796 0.1117
vn -0.3225 0.9217 0.2155
vn -0.4654 0.8286 0.3110
vn -0.5905 0.7041 0.3945
vn -0.6929 0.5528 0.4630
vn -0.7689 0.3805 0.5138
vn -0.8157 0.1939 0.5450
vn -0.8315 -0.0000 0.5556
vn -0.8157 -0.1939 0.5450
vn -0.7689 -0.3805 0.5138
vn -0.6929 -0.5528 0.4630
vn -0.5905 -0.7041 0.3945
vn -0.4654 -0.8286 0.3110
vn -0.3225 -0.9217 0.2155
vn -0.1671 -0.9796 0.1117
vn -0.1857 0.9796 0.0769
vn -0.3584 0.9217 0.1484
vn -0.5172 0.8286 0.2142
vn -0.6561 0.7041 0.2718
vn -0.7699 0.5528 0.3189
vn -0.8544 0.3805 0.3539
vn -0.9063 0.1939 0.3754
vn -0.9239 -0.0000 0.3827
vn -0.9063 -0.1939 0.3754
vn -0.8544 -0.3805 0.3539
vn -0.7699 -0.5528 0.3189
vn -0.6561 -0.7041 0.2718
vn -0.5172 -0.8286 0.2142
vn -0.3584 -0.9217 0.1484
vn -0.1857 -0.9796 0.0769
vn -0.1971 0.9796 0.0392
vn -0.3804 0.9217 0.0757
vn -0.5490 0.8286 0.1092
vn -0.6965 0.7041 0.1385
vn -0.8173 0.5528 0.1626
vn -0.9070 0.3805 0.1804
vn -0.9622 0.1939 0.1914
vn -0.9808 -0.0000 0.1951
vn -0.9622 -0.1939 0.1914
vn -0.9070 -0.3805 0.1804
vn -0.8173 -0.5528 0.1626
vn -0.6965 -0.7041 0.1385
vn -0.5490 -0.8286 0.1092
vn -0.3804 -0.9217 0.0757
vn -0.1971 -0.9796 0.0392
vn -0.2010 0.9796 -0.0000
vn -0.3879 0.9217 -0.0000
vn -0.5598 0.8286 -0.0000
vn -0.7101 0.7041 -0.0000
vn -0.8333 0.5528 -0.0000
vn -0.9248 0.3805 -0.0000
vn -0.9810 0.1939 -0.0000
vn -1.0000 -0.0000 -0.0000
vn -0.9810 -0.1939 -0.0000
vn -0.9248 -0.3805 -0.0000
vn -0.8333 -0.5528 -0.0000
vn -0.7101 -0.7041 -0.0000
vn -0.5598 -0.8286 -0.0000
vn -0.3879 -0.9217 -0.0000
vn -0.2010 -0.9796 -0.0000
vn -0.1971 0.9796 -0.0392
vn -0.3804 0.9217 -0.0757
vn -0.5490 0.8286 -0.1092
vn -0.6965 0.7041 -0.1385
vn -0.8173 0.5528 -0.1626
vn -0.9070 0.3805 -0.1804
vn -0.9622 0.1939 -0.1914
vn -0.9808 -0.0000 -0.1951
vn -0.9622 -0.1939 -0.1914
vn -0.9070 -0.3805 -0.1804
vn -0.8173 -0.5528 -0.1626
vn -0.6965 -0.7041 -0.1385
vn -0.5490 -0.8286 -0.1092
vn -0.3804 -0.9217 -0.0757
vn -0.1971 -0.9796 -0.0392
vn -0.1857 0.9796 -0.0769
vn -0.3584 0.9217 -0.1484
vn -0.5172 0.8286 -0.2142
vn -0.6561 0.7041 -0.2718
vn -0.7699 0.5528 -0.3189
vn -0.8544 0.3805 -0.3539
vn -0.9063 0.1939 -0.3754
vn -0.9239 -0.0000 -0.3827
vn -0.9063 -0.1939 -0.3754
vn -0.8544 -0.3805 -0.3539
vn -0.7699 -0.5528 -0.3189
vn -0.6561 -0.7041 -0.2718
vn -0.5172 -0.8286 -0.2142
vn -0.3584 -0.9217 -0.1484
vn -0.1857 -0.9796 -0.0769
vn -0.1671 0.9796 -0.1117
vn -0.3225 0.9217 -0.2155
vn -0.4654 0.8286 -0.3110
vn -0.5905 0.7041 -0.3945
vn -0.6929 0.5528 -0.4630
vn -0.7689 0.3805 -0.5138
vn -0.8157 0.1939 -0.5450
vn -0.8315 -0.0000 -0.5556
vn -0.8157 -0.1939 -0.5450
vn -0.7689 -0.3805 -0.5138
vn -0.6929 -0.5528 -0.4630
vn -0.5905 -0.7041 -0.3945
vn -0.4654 -0.8286 -0.3110
vn -0.3225 -0.9217 -0.2155
vn -0.1671 -0.9796 -0.1117
vn -0.1421 0.9796 -0.1421
vn -0.2743 0.9217 -0.2743
vn -0.3958 0.8286 -0.3958
vn -0.5021 0.7041 -0.5021
vn -0.5893 0.5528 -0.5893
vn -0.6539 0.3805 -0.6539
vn -0.6937 0.1939 -0.6937
vn -0.7071 -0.0000 -0.7071
vn -0.6937 -0.1939 -0.6937
vn -0.6539 -0.3805 -0.6539
vn -0.5893 -0.5528 -0.5893
vn -0.5021 -0.7041 -0.5021
vn -0.3958 -0.8286 -0.3958
vn -0.2743 -0.9217 -0.2743
vn -0.1421 -0.9796 -0.1421
vn -0.1117 0.9796 -0.1671
vn -0.2155 0.9217 -0.3225
vn -0.3110 0.8286 -0.4654
vn -0.3945 0.7041 -0.5905
vn -0.4630 0.5528 -0.6929
vn -0.5138 0.3805 -0.7689
vn -0.5450 0.1939 -0.8157
vn -0.5556 -0.0000 -0.8315
vn -0.5450 -0.1939 -0.8157
vn -0.5138 -0.3805 -0.7689
vn -0.4630 -0.5528 -0.6929
vn -0.3945 -0.7041 -0.5905
vn -0.3110 -0.8286 -0.4654
vn -0.2155 -0.9217 -0.3225
vn -0.1117 -0.9796 -0.1671
vn -0.0769 0.9796 -0.1857
vn -0.1484 0.9217 -0.3584
vn -0.2142 0.8286 -0.5172
vn -0.2718 0.7041 -0.6561
vn -0.3189 0.5528 -0.7699
vn -0.3539 0.3805 -0.8544
vn -0.3754 0.1939 -0.9063
vn -0.3827 -0.0000 -0.9239
vn -0.3754 -0.1939 -0.9063
vn -0.3539 -0.3805 -0.8544
vn -0.3189 -0.5528 -0.7699
vn -0.2718 -0.7041 -0.6561
vn -0.2142 -0.8286 -0.5172
vn -0.1484 -0.9217 -0.3584
vn -0.0769 -0.9796 -0.1857
vn -0.0392 0.9796 -0.1971
vn -0.0757 0.9217 -0.3804
vn -0.1092 0.8286 -0.5490
vn -0.1385 0.7041 -0.6965
vn -0.1626 0.5528 -0.8173
vn -0.1804 0.3805 -0.9070
vn -0.1914 0.1939 -0.9622
vn -0.1951 -0.0000 -0.9808
vn -0.1914 -0.1939 -0.9622
vn -0.1804 -0.3805 -0.9070
vn -0.1626 -0.5528 -0.8173
vn -0.1385 -0.7041 -0.6965
vn -0.1092 -0.8286 -0.5490
vn -0.0757 -0.9217 -0.3804
vn -0.0392 -0.9796 -0.1971
vn -0.0000 0.9796 -0.2010
vn -0.0000 0.9217 -0.3879
vn -0.0000 0.8286 -0.5598
vn -0.0000 0.7041 -0.7101
vn -0.0000 0.5528 -0.8333
vn -0.0000 0.3805 -0.9248
vn -0.0000 0.1939 -0.9810
vn -0.0000 -0.0000 -1.0000
vn -0.0000 -0.1939 -0.9810
vn -0.0000 -0.3805 -0.9248
vn -0.0000 -0.5528 -0.8333
vn -0.0000 -0.7041 -0.7101
vn -0.0000 -0.8286 -0.5598
vn -0.0000 -0.9217 -0.3879
vn -0.0000 -0.9796 -0.2010
vn 0.0392 0.9796 -0.1971
vn 0.0757 0.9217 -0.3804
vn 0.1092 0.8286 -0.5490
vn 0.1385 0.7041 -0.6965
vn 0.1626 0.5528 -0.8173
vn 0.1804 0.3805 -0.9070
vn 0.1914 0.1939 -0.9622
vn 0.1951 -0.0000 -0.9808
vn 0.1914 -0.1939 -0.9622
vn 0.1804 -0.3805 -0.9070
vn 0.1626 -0.5528 -0.8173
vn 0.1385 -0.7041 -0.6965
vn 0.1092 -0.8286 -0.5490
vn 0.0757 -0.9217 -0.3804
vn 0.0392 -0.9796 -0.1971
vn 0.0769 0.9796 -0.1857
vn 0.1484 0.9217 -0.3584
vn 0.2142 0.8286 -0.5172
vn 0.2718 0.7041 -0.6561
vn 0.3189 0.5528 -0.7699
vn 0.3539 0.3805 -0.8544
vn 0.3754 0.1939 -0.9063
vn 0.3827 -0.0000 -0.9239
vn 0.3754 -0.1939 -0.9063
vn 0.3539 -0.3805 -0.8544
vn 0.3189 -0.5528 -0.7699
vn 0.2718 -0.7041 -0.6561
vn 0.2142 -0.8286 -0.5172
vn 0.1484 -0.9217 -0.3584
vn 0.0769 -0.9796 -0.1857
vn 0.1117 0.9796 -0.1671
vn 0.2155 0.9217 -0.3225
vn 0.3110 0.8286 -0.4654
vn 0.3945 0.7041 -0.5905
vn 0.4630 0.5528 -0.6929
vn 0.5138 0.3805 -0.7689
vn 0.5450 0.1939 -0.8157
vn 0.5556 -0.0000 -0.8315
vn 0.5450 -0.1939 -0.8157
vn 0.5138 -0.3805 -0.7689
vn 0.4630 -0.5528 -0.6929
vn 0.3945 -0.7041 -0.5905
vn 0.3110 -0.8286 -0.4654
vn 0.2155 -0.9217 -0.3225
vn 0.1117 -0.9796 -0.1671
vn 0.1421 0.9796 -0.1421
vn 0.2743 0.9217 -0.2743
vn 0.3958 0.8286 -0.3958
vn 0.5021 0.7041 -0.5021
vn 0.5893 0.5528 -0.5893
vn 0.6539 0.3805 -0.6539
vn 0.6937 0.1939 -0.6937
vn 0.7071 -0.0000 -0.7071
vn 0.6937 -0.1939 -0.6937
vn 0.6539 -0.3805 -0.6539
vn 0.5893 -0.5528 -0.5893
vn 0.5021 -0.7041 -0.5021
vn 0.3958 -0.8286 -0.3958
vn 0.2743 -0.9217 -0.2743
vn 0.1421 -0.9796 -0.1421
vn 0.1671 0.9796 -0.1117
vn 0.3225 0.9217 -0.2155
vn 0.4654 0.8286 -0.3110
vn 0.5905 0.7041 -0.3945
vn 0.6929 0.5528 -0.4630
vn 0.7689 0.3805 -0.5138
vn 0.8157 0.1939 -0.5450
vn 0.8315 -0.0000 -0.5556
vn 0.8157 -0.1939 -0.5450
vn 0.7689 -0.3805 -0.5138
vn 0.6929 -0.5528 -0.4630
vn 0.5905 -0.7041 -0.3945
vn 0.4654 -0.8286 -0.3110
vn 0.3225 -0.9217 -0.2155
vn 0.1671 -0.9796 -0.1117
vn 0.1857 0.9796 -0.0769
vn 0.3584 0.9217 -0.1484
vn 0.5172 0.8286 -0.2142
vn 0.6561 0.7041 -0.2718
vn 0.7699 0.5528 -0.3189
vn 0.8544 0.3805 -0.3539
vn 0.9063 0.1939 -0.3754
vn 0.9239 -0.0000 -0.3827
vn 0.9063 -0.1939 -0.3754
vn 0.8544 -0.3805 -0.3539
vn 0.7699 -0.5528 -0.3189
vn 0.6561 -0.7041 -0.2718
vn 0.5172 -0.8286 -0.2142
vn 0.3584 -0.9217 -0.1484
vn 0.1857 -0.9796 -0.0769
vn 0.1971 0.9796 -0.0392
vn 0.3804 0.9217 -0.0757
vn 0.5490 0.8286 -0.1092
vn 0.6965 0.7041 -0.1385
vn 0.8173 0.5528 -0.1626
vn 0.9070 0.3805 -0.1804
vn 0.9622 0.1939 -0.1914
vn 0.9808 -0.0000 -0.1951
vn 0.9622 -0.1939 -0.1914
vn 0.9070 -0.3805 -0.1804
vn 0.8173 -0.5528 -0.1626
vn 0.6965 -0.7041 -0.1385
vn 0.5490 -0.8286 -0.1092
vn 0.3804 -0.9217 -0.0757
vn 0.1971 -0.9796 -0.0392
vn 0.2010 0.9796 -0.0000
vn 0.3879 0.9217 -0.0000
vn 0.5598 0.8286 -0.0000
vn 0.7101 0.7041 -0.0000
vn 0.8333 0.5528 -0.0000
vn 0.9248 0.3805 -0.0000
vn 0.9810 0.1939 -0.0000
vn 1.0000 -0.0000 -0.0000
vn 0.9810 -0.1939 -0.0000
vn 0.9248 -0.3805 -0.0000
vn 0.8333 -0.5528 -0.0000
vn 0.7101 -0.7041 -0.0000
vn 0.5598 -0.8286 -0.0000
vn 0.3879 -0.9217 -0.0000
vn 0.2010 -0.9796 -0.0000
vn 0.1971 0.9796 0.0392
vn 0.3804 0.9217 0.0757
vn 0.5490 0.8286 0.1092
vn 0.6965 0.7041 0.1385
vn 0.8173 0.5528 0.1626
vn 0.9070 0.3805 0.1804
vn 0.9622 0.1939 0.1914
vn 0.9808 -0.0000 0.1951
vn 0.9622 -0.1939 0.1914
vn 0.9070 -0.3805 0.1804
vn 0.8173 -0.5528 0.1626
vn 0.6965 -0.7041 0.1385
vn 0.5490 -0.8286 0.1092
vn 0.3804 -0.9217 0.0757
vn 0.1971 -0.9796 0.0392
vn 0.1857 0.9796 0.0769
vn 0.3584 0.9217 0.1484
vn 0.5172 0.8286 0.2142
vn 0.6561 0.7041 0.2718
vn 0.7699 0.5528 0.3189
vn 0.8544 0.3805 0.3539
vn 0.9063 0.1939 0.3754
vn 0.9239 -0.0000 0.3827
vn 0.9063 -0.1939 0.3754
vn 0.8544 -0.3805 0.3539
vn 0.7699 -0.5528 0.3189
vn 0.6561 -0.7041 0.2718
vn 0.5172 -0.8286 0.2142
vn 0.3584 -0.9217 0.1484
vn 0.1857 -0.9796 0.0769
vn 0.1671 0.9796 0.1117
vn 0.3225 0.9217 0.2155
vn 0.4654 0.8286 0.3110
vn 0.5905 0.7041 0.3945
vn 0.6929 0.5528 0.4630
vn 0.7689 0.3805 0.5138
vn 0.8157 0.1939 0.5450
vn 0.8315 -0.0000 0.5556
vn 0.8157 -0.1939 0.5450
vn 0.7689 -0.3805 0.5138
vn 0.6929 -0.5528 0.4630
vn 0.5905 -0.7041 0.3945
vn 0.4654 -0.8286 0.3110
vn 0.3225 -0.9217 0.2155
vn 0.1671 -0.9796 0.1117
vn 0.1421 0.9796 0.1421
vn 0.2743 0.9217 0.2743
vn 0.3958 0.8286 0.3958
vn 0.5021 0.7041 0.5021
vn 0.5893 0.5528 0.5893
vn 0.6539 0.3805 0.6539
vn 0.6937 0.1939 0.6937
vn 0.7071 -0.0000 0.7071
vn 0.6937 -0.1939 0.6937
vn 0.6539 -0.3805 0.6539
vn 0.5893 -0.5528 0.5893
vn 0.5021 -0.7041 0.5021
vn 0.3958 -0.8286 0.3958
vn 0.2743 -0.9217 0.2743
vn 0.1421 -0.9796 0.1421
vn 0.1117 0.9796 0.1671
vn 0.2155 0.9217 0.3225
vn 0.3110 0.8286 0.4654
vn 0.3945 0.7041 0.5905
vn 0.4630 0.5528 0.6929
vn 0.5138 0.3805 0.7689
vn 0.5450 0.1939 0.8157
vn 0.5556 -0.0000 0.8315
vn 0.5450 -0.1939 0.8157
vn 0.5138 -0.3805 0.7689
vn 0.4630 -0.5528 0.6929
vn 0.3945 -0.7041 0.5905
vn 0.3110 -0.8286 0.4654
vn 0.2155 -0.9217 0.3225
vn 0.1117 -0.9796 0.1671
vn 0.0769 0.9796 0.1857
vn 0.1484 0.9217 0.3584
vn 0.2142 0.8286 0.5172
vn 0.2718 0.7041 0.6561
vn 0.3189 0.5528 0.7699
vn 0.3539 0.3805 0.8544
vn 0.3754 0.1939 0.9063
vn 0.3827 -0.0000 0.9239
vn 0.3754 -0.1939 0.9063
vn 0.3539 -0.3805 0.8544
vn 0.3189 -0.5528 0.7699
vn 0.2718 -0.7041 0.6561
vn 0.2142 -0.8286 0.5172
vn 0.1484 -0.9217 0.3584
vn 0.0769 -0.9796 0.1857
vn 0.0392 0.9796 0.1971
vn 0.0757 0.9217 0.3804
vn 0.1092 0.8286 0.5490
vn 0.1385 0.7041 0.6965
vn 0.1626 0.5528 0.8173
vn 0.1804 0.3805 0.9070
vn 0.1914 0.1939 0.9622
vn 0.1951 -0.0000 0.9808
vn 0.1914 -0.1939 0.9622
vn 0.1804 -0.3805 0.9070
vn 0.1626 -0.5528 0.8173
vn 0.1385 -0.7041 0.6965
vn 0.1092 -0.8286 0.5490
vn 0.0757 -0.9217 0.3804
vn 0.0392 -0.9796 0.1971
vn -0.0000 0.9796 0.2010
vn -0.0000 0.9217 0.3879
vn -0.0000 0.5528 0.8333
vn -0.0000 -0.0000 1.0000
vn -0.0000 -0.3805 0.9248
vn -0.0000 -0.5528 0.8333
vn -0.0000 -0.9217 0.3879
vn -0.0000 -0.9796 0.2010
vt 0.986397 0.012884
vt 0.986397 0.013180
vt 0.986249 0.013180
vt 0.986249 0.012884
vt 0.986397 0.014959
vt 0.986397 0.015255
vt 0.986249 0.015255
vt 0.986249 0.014959
vt 0.986397 0.012587
vt 0.986249 0.012587
vt 0.986397 0.014663
vt 0.986249 0.014663
vt 0.986397 0.012291
vt 0.986249 0.012291
vt 0.986397 0.014366
vt 0.986249 0.014366
vt 0.986397 0.011995
vt 0.986249 0.011995
vt 0.986397 0.014070
vt 0.986249 0.014070
vt 0.986397 0.011698
vt 0.986249 0.011698
vt 0.986397 0.013773
vt 0.986249 0.013773
vt 0.986397 0.011402
vt 0.986249 0.011402
vt 0.986397 0.013477
vt 0.986249 0.013477
vt 0.986397 0.015552
vt 0.986323 0.015848
vt 0.986249 0.015552
vt 0.986323 0.011105
vt 0.986101 0.013477
vt 0.986101 0.013180
vt 0.986101 0.015552
vt 0.986101 0.015255
vt 0.986101 0.012884
vt 0.986101 0.014959
vt 0.986101 0.012587
vt 0.986101 0.014663
vt 0.986101 0.012291
vt 0.986101 0.014366
vt 0.986101 0.011995
vt 0.986101 0.014070
vt 0.986101 0.011698
vt 0.986101 0.013773
vt 0.986101 0.011402
vt 0.986175 0.015848
vt 0.986175 0.011105
vt 0.985952 0.012291
vt 0.985952 0.011995
vt 0.985952 0.014366
vt 0.985952 0.014070
vt 0.985952 0.011698
vt 0.985952 0.013773
vt 0.985952 0.011402
vt 0.985952 0.013477
vt 0.986027 0.015848
vt 0.985952 0.015552
vt 0.986027 0.011105
vt 0.985952 0.013180
vt 0.985952 0.015255
vt 0.985952 0.012884
vt 0.985952 0.014959
vt 0.985952 0.012587
vt 0.985952 0.014663
vt 0.985804 0.015552
vt 0.985804 0.015255
vt 0.985804 0.013180
vt 0.985804 0.012884
vt 0.985804 0.014959
vt 0.985804 0.012587
vt 0.985804 0.014663
vt 0.985804 0.012291
vt 0.985804 0.014366
vt 0.985804 0.011995
vt 0.985804 0.014070
vt 0.985804 0.011698
vt 0.985804 0.013773
vt 0.985804 0.011402
vt 0.985804 0.013477
vt 0.985878 0.015848
vt 0.985878 0.011105
vt 0.985656 0.014366
vt 0.985656 0.014070
vt 0.985656 0.011995
vt 0.985656 0.011698
vt 0.985656 0.013773
vt 0.985656 0.011402
vt 0.985656 0.013477
vt 0.985730 0.015848
vt 0.985656 0.015552
vt 0.985730 0.011105
vt 0.985656 0.013180
vt 0.985656 0.015255
vt 0.985656 0.012884
vt 0.985656 0.014959
vt 0.985656 0.012587
vt 0.985656 0.014663
vt 0.985656 0.012291
vt 0.985508 0.013180
vt 0.985508 0.012884
vt 0.985508 0.015255
vt 0.985508 0.014959
vt 0.985508 0.012587
vt 0.985508 0.014663
vt 0.985508 0.012291
vt 0.985508 0.014366
vt 0.985508 0.011995
vt 0.985508 0.014070
vt 0.985508 0.011698
vt 0.985508 0.013773
vt 0.985508 0.011402
vt 0.985508 0.013477
vt 0.985582 0.015848
vt 0.985508 0.015552
vt 0.985582 0.011105
vt 0.985360 0.011995
vt 0.985360 0.011698
vt 0.985360 0.014070
vt 0.985360 0.013773
vt 0.985360 0.011402
vt 0.985360 0.013477
vt 0.985434 0.015848
vt 0.985360 0.015552
vt 0.985434 0.011105
vt 0.985360 0.013180
vt 0.985360 0.015255
vt 0.985360 0.012884
vt 0.985360 0.014959
vt 0.985360 0.012587
vt 0.985360 0.014663
vt 0.985360 0.012291
vt 0.985360 0.014366
vt 0.985211 0.012884
vt 0.985211 0.012587
vt 0.985211 0.014959
vt 0.985211 0.014663
vt 0.985211 0.012291
vt 0.985211 0.014366
vt 0.985211 0.011995
vt 0.985211 0.014070
vt 0.985211 0.011698
vt 0.985211 0.013773
vt 0.985211 0.011402
vt 0.985211 0.013477
vt 0.985286 0.015848
vt 0.985211 0.015552
vt 0.985286 0.011105
vt 0.985211 0.013180
vt 0.985211 0.015255
vt 0.547163 0.436513
vt 0.565937 0.442208
vt 0.565201 0.442208
vt 0.546788 0.436513
vt 0.627714 0.534665
vt 0.625791 0.554188
vt 0.623906 0.554188
vt 0.625791 0.534665
vt 0.985137 0.015848
vt 0.985063 0.015552
vt 0.985137 0.011105
vt 0.985063 0.011402
vt 0.625791 0.515141
vt 0.623906 0.515141
vt 0.565937 0.627122
vt 0.547163 0.632816
vt 0.546788 0.632816
vt 0.565201 0.627122
vt 0.620097 0.496368
vt 0.618320 0.496368
vt 0.583238 0.617874
vt 0.582170 0.617874
vt 0.610849 0.479066
vt 0.609250 0.479066
vt 0.598403 0.605428
vt 0.597043 0.605428
vt 0.598403 0.463901
vt 0.597043 0.463901
vt 0.610849 0.590263
vt 0.609250 0.590263
vt 0.583238 0.451456
vt 0.582170 0.451456
vt 0.620097 0.572962
vt 0.618320 0.572962
vt 0.579006 0.617874
vt 0.593017 0.605428
vt 0.604515 0.479066
vt 0.593017 0.463901
vt 0.604515 0.590263
vt 0.579006 0.451456
vt 0.613059 0.572962
vt 0.563021 0.442208
vt 0.618320 0.554188
vt 0.545677 0.436513
vt 0.620097 0.534665
vt 0.527640 0.634739
vt 0.545677 0.632816
vt 0.527640 0.434590
vt 0.618320 0.515141
vt 0.563021 0.627122
vt 0.613059 0.496368
vt 0.609250 0.554188
vt 0.610849 0.534665
vt 0.543873 0.632816
vt 0.543873 0.436513
vt 0.609250 0.515141
vt 0.559482 0.627122
vt 0.604515 0.496368
vt 0.573868 0.617874
vt 0.596825 0.479066
vt 0.586477 0.605428
vt 0.586477 0.463901
vt 0.596825 0.590263
vt 0.573868 0.451456
vt 0.604515 0.572962
vt 0.559482 0.442208
vt 0.586477 0.479066
vt 0.577677 0.463901
vt 0.577677 0.605428
vt 0.586477 0.590263
vt 0.566954 0.451456
vt 0.593017 0.572962
vt 0.554720 0.442208
vt 0.597043 0.554188
vt 0.541445 0.436513
vt 0.598403 0.534665
vt 0.541445 0.632816
vt 0.597043 0.515141
vt 0.554720 0.627122
vt 0.593017 0.496368
vt 0.566954 0.617874
vt 0.538486 0.632816
vt 0.538486 0.436513
vt 0.583238 0.534665
vt 0.582170 0.515141
vt 0.548916 0.627122
vt 0.579006 0.496368
vt 0.558529 0.617874
vt 0.573868 0.479066
vt 0.566954 0.605428
vt 0.566954 0.463901
vt 0.573868 0.590263
vt 0.558529 0.451456
vt 0.579006 0.572962
vt 0.548916 0.442208
vt 0.582170 0.554188
vt 0.554720 0.605428
vt 0.559482 0.590263
vt 0.554720 0.463901
vt 0.548916 0.451456
vt 0.563021 0.572962
vt 0.542295 0.442208
vt 0.565201 0.554188
vt 0.535111 0.436513
vt 0.565937 0.534665
vt 0.535111 0.632816
vt 0.565201 0.515141
vt 0.542295 0.627122
vt 0.563021 0.496368
vt 0.548916 0.617874
vt 0.559482 0.479066
vt 0.547163 0.534665
vt 0.546788 0.515141
vt 0.531449 0.632816
vt 0.535111 0.627122
vt 0.545677 0.496368
vt 0.538486 0.617874
vt 0.543873 0.479066
vt 0.541445 0.605428
vt 0.541445 0.463901
vt 0.543873 0.590263
vt 0.538486 0.451456
vt 0.545677 0.572962
vt 0.535111 0.442208
vt 0.546788 0.554188
vt 0.531449 0.436513
vt 0.527640 0.463901
vt 0.527640 0.451456
vt 0.527640 0.590263
vt 0.527640 0.572962
vt 0.527640 0.442208
vt 0.527640 0.554188
vt 0.527640 0.436513
vt 0.527640 0.534665
vt 0.527640 0.632816
vt 0.527640 0.515141
vt 0.527640 0.627122
vt 0.527640 0.496368
vt 0.527640 0.617874
vt 0.527640 0.479066
vt 0.527640 0.605428
vt 0.508491 0.515141
vt 0.509602 0.496368
vt 0.520168 0.627122
vt 0.516793 0.617874
vt 0.511406 0.479066
vt 0.513834 0.605428
vt 0.513834 0.463901
vt 0.511406 0.590263
vt 0.516793 0.451456
vt 0.509602 0.572962
vt 0.520168 0.442208
vt 0.508491 0.554188
vt 0.523831 0.436513
vt 0.508116 0.534665
vt 0.523831 0.632816
vt 0.506363 0.451456
vt 0.512984 0.442208
vt 0.492258 0.572962
vt 0.490079 0.554188
vt 0.520168 0.436513
vt 0.489343 0.534665
vt 0.520168 0.632816
vt 0.490079 0.515141
vt 0.512984 0.627122
vt 0.492258 0.496368
vt 0.506363 0.617874
vt 0.495797 0.479066
vt 0.500560 0.605428
vt 0.500560 0.463901
vt 0.495797 0.590263
vt 0.506363 0.627122
vt 0.496751 0.617874
vt 0.476273 0.496368
vt 0.481411 0.479066
vt 0.488326 0.605428
vt 0.488326 0.463901
vt 0.481411 0.590263
vt 0.496751 0.451456
vt 0.476273 0.572962
vt 0.506363 0.442208
vt 0.473109 0.554188
vt 0.516793 0.436513
vt 0.472041 0.534665
vt 0.516793 0.632816
vt 0.473109 0.515141
vt 0.462263 0.572962
vt 0.458236 0.554188
vt 0.500560 0.442208
vt 0.513834 0.436513
vt 0.456876 0.534665
vt 0.513834 0.632816
vt 0.458236 0.515141
vt 0.500560 0.627122
vt 0.462263 0.496368
vt 0.488326 0.617874
vt 0.468802 0.479066
vt 0.477602 0.605428
vt 0.477602 0.463901
vt 0.468802 0.590263
vt 0.488326 0.451456
vt 0.450765 0.496368
vt 0.458454 0.479066
vt 0.481411 0.617874
vt 0.468802 0.605428
vt 0.468802 0.463901
vt 0.458454 0.590263
vt 0.481411 0.451456
vt 0.450765 0.572962
vt 0.495797 0.442208
vt 0.446030 0.554188
vt 0.511406 0.436513
vt 0.444431 0.534665
vt 0.511406 0.632816
vt 0.446030 0.515141
vt 0.495797 0.627122
vt 0.492258 0.442208
vt 0.509602 0.436513
vt 0.436959 0.554188
vt 0.435183 0.534665
vt 0.509602 0.632816
vt 0.436959 0.515141
vt 0.492258 0.627122
vt 0.442221 0.496368
vt 0.476273 0.617874
vt 0.450765 0.479066
vt 0.462263 0.605428
vt 0.462263 0.463901
vt 0.450765 0.590263
vt 0.476273 0.451456
vt 0.442221 0.572962
vt 0.473110 0.617874
vt 0.458236 0.605428
vt 0.446030 0.479066
vt 0.458236 0.463901
vt 0.446030 0.590263
vt 0.473110 0.451456
vt 0.436959 0.572962
vt 0.490079 0.442208
vt 0.431374 0.554188
vt 0.508491 0.436513
vt 0.429488 0.534665
vt 0.508491 0.632816
vt 0.431374 0.515141
vt 0.490079 0.627122
vt 0.436959 0.496368
vt 0.429488 0.554188
vt 0.427565 0.534665
vt 0.982988 0.015552
vt 0.982914 0.015848
vt 0.982840 0.015552
vt 0.508116 0.436513
vt 0.429488 0.515141
vt 0.508116 0.632816
vt 0.489343 0.627122
vt 0.435183 0.496368
vt 0.472041 0.617874
vt 0.444431 0.479066
vt 0.456876 0.605428
vt 0.456876 0.463901
vt 0.444431 0.590263
vt 0.472041 0.451456
vt 0.435183 0.572962
vt 0.489343 0.442208
vt 0.987583 0.012291
vt 0.987583 0.012587
vt 0.987435 0.012587
vt 0.987435 0.012291
vt 0.987583 0.014366
vt 0.987583 0.014663
vt 0.987435 0.014663
vt 0.987435 0.014366
vt 0.987583 0.011995
vt 0.987435 0.011995
vt 0.987583 0.014070
vt 0.987435 0.014070
vt 0.987583 0.011698
vt 0.987435 0.011698
vt 0.987583 0.013773
vt 0.987435 0.013773
vt 0.987583 0.011402
vt 0.987435 0.011402
vt 0.987583 0.013477
vt 0.987435 0.013477
vt 0.987583 0.015552
vt 0.987509 0.015848
vt 0.987435 0.015552
vt 0.987509 0.011105
vt 0.987583 0.013180
vt 0.987435 0.013180
vt 0.987583 0.015255
vt 0.987435 0.015255
vt 0.987583 0.012884
vt 0.987435 0.012884
vt 0.987583 0.014959
vt 0.987435 0.014959
vt 0.987361 0.011105
vt 0.987287 0.011402
vt 0.987287 0.013477
vt 0.987287 0.013180
vt 0.987287 0.015552
vt 0.987287 0.015255
vt 0.987287 0.012884
vt 0.987287 0.014959
vt 0.987287 0.012587
vt 0.987287 0.014663
vt 0.987287 0.012291
vt 0.987287 0.014366
vt 0.987287 0.011995
vt 0.987287 0.014070
vt 0.987287 0.011698
vt 0.987287 0.013773
vt 0.987361 0.015848
vt 0.987138 0.012291
vt 0.987138 0.011995
vt 0.987138 0.014366
vt 0.987138 0.014070
vt 0.987138 0.011698
vt 0.987138 0.013773
vt 0.987138 0.011402
vt 0.987138 0.013477
vt 0.987212 0.015848
vt 0.987138 0.015552
vt 0.987212 0.011105
vt 0.987138 0.013180
vt 0.987138 0.015255
vt 0.987138 0.012884
vt 0.987138 0.014959
vt 0.987138 0.012587
vt 0.987138 0.014663
vt 0.986990 0.015552
vt 0.986990 0.015255
vt 0.986990 0.013180
vt 0.986990 0.012884
vt 0.986990 0.014959
vt 0.986990 0.012587
vt 0.986990 0.014663
vt 0.986990 0.012291
vt 0.986990 0.014366
vt 0.986990 0.011995
vt 0.986990 0.014070
vt 0.986990 0.011698
vt 0.986990 0.013773
vt 0.986990 0.011402
vt 0.986990 0.013477
vt 0.987064 0.015848
vt 0.987064 0.011105
vt 0.986842 0.014366
vt 0.986842 0.014070
vt 0.986842 0.011995
vt 0.986842 0.011698
vt 0.986842 0.013773
vt 0.986842 0.011402
vt 0.986842 0.013477
vt 0.986916 0.015848
vt 0.986842 0.015552
vt 0.986916 0.011105
vt 0.986842 0.013180
vt 0.986842 0.015255
vt 0.986842 0.012884
vt 0.986842 0.014959
vt 0.986842 0.012587
vt 0.986842 0.014663
vt 0.986842 0.012291
vt 0.986694 0.013180
vt 0.986694 0.012884
vt 0.986694 0.015255
vt 0.986694 0.014959
vt 0.986694 0.012587
vt 0.986694 0.014663
vt 0.986694 0.012291
vt 0.986694 0.014366
vt 0.986694 0.011995
vt 0.986694 0.014070
vt 0.986694 0.011698
vt 0.986694 0.013773
vt 0.986694 0.011402
vt 0.986694 0.013477
vt 0.986768 0.015848
vt 0.986694 0.015552
vt 0.986768 0.011105
vt 0.986545 0.011995
vt 0.986545 0.011698
vt 0.986545 0.014070
vt 0.986545 0.013773
vt 0.986545 0.011402
vt 0.986545 0.013477
vt 0.986619 0.015848
vt 0.986545 0.015552
vt 0.986619 0.011105
vt 0.986545 0.013180
vt 0.986545 0.015255
vt 0.986545 0.012884
vt 0.986545 0.014959
vt 0.986545 0.012587
vt 0.986545 0.014663
vt 0.986545 0.012291
vt 0.986545 0.014366
vt 0.986471 0.015848
vt 0.986471 0.011105
s 1
usemtl this_is_a_material
f 479/1/479 6/2/6 18/3/18 19/4/19
f 2/5/2 476/6/476 11/7/11 12/8/12
f 480/9/480 479/1/479 19/4/19 20/10/20
f 3/11/3 2/5/2 12/8/12 13/12/13
f 7/13/7 480/9/480 20/10/20 21/14/21
f 477/15/477 3/11/3 13/12/13 14/16/14
f 8/17/8 7/13/7 21/14/21 22/18/22
f 4/19/4 477/15/477 14/16/14 15/20/15
f 481/21/481 8/17/8 22/18/22 23/22/23
f 5/23/5 4/19/4 15/20/15 16/24/16
f 482/25/482 481/21/481 23/22/23 24/26/24
f 478/27/478 5/23/5 16/24/16 17/28/17
f 475/29/475 1/30/1 10/31/10
f 9/32/9 482/25/482 24/26/24
f 6/2/6 478/27/478 17/28/17 18/3/18
f 476/6/476 475/29/475 10/31/10 11/7/11
f 18/3/18 17/28/17 32/33/32 33/34/33
f 11/7/11 10/31/10 25/35/25 26/36/26
f 19/4/19 18/3/18 33/34/33 34/37/34
f 12/8/12 11/7/11 26/36/26 27/38/27
f 20/10/20 19/4/19 34/37/34 35/39/35
f 13/12/13 12/8/12 27/38/27 28/40/28
f 21/14/21 20/10/20 35/39/35 36/41/36
f 14/16/14 13/12/13 28/40/28 29/42/29
f 22/18/22 21/14/21 36/41/36 37/43/37
f 15/20/15 14/16/14 29/42/29 30/44/30
f 23/22/23 22/18/22 37/43/37 38/45/38
f 16/24/16 15/20/15 30/44/30 31/46/31
f 24/26/24 23/22/23 38/45/38 39/47/39
f 17/28/17 16/24/16 31/46/31 32/33/32
f 10/31/10 1/48/1 25/35/25
f 9/49/9 24/26/24 39/47/39
f 37/43/37 36/41/36 51/50/51 52/51/52
f 30/44/30 29/42/29 44/52/44 45/53/45
f 38/45/38 37/43/37 52/51/52 53/54/53
f 31/46/31 30/44/30 45/53/45 46/55/46
f 39/47/39 38/45/38 53/54/53 54/56/54
f 32/33/32 31/46/31 46/55/46 47/57/47
f 25/35/25 1/58/1 40/59/40
f 9/60/9 39/47/39 54/56/54
f 33/34/33 32/33/32 47/57/47 48/61/48
f 26/36/26 25/35/25 40/59/40 41/62/41
f 34/37/34 33/34/33 48/61/48 49/63/49
f 27/38/27 26/36/26 41/62/41 42/64/42
f 35/39/35 34/37/34 49/63/49 50/65/50
f 28/40/28 27/38/27 42/64/42 43/66/43
f 36/41/36 35/39/35 50/65/50 51/50/51
f 29/42/29 28/40/28 43/66/43 44/52/44
f 41/62/41 40/59/40 55/67/55 56/68/56
f 49/63/49 48/61/48 63/69/63 64/70/64
f 42/64/42 41/62/41 56/68/56 57/71/57
f 50/65/50 49/63/49 64/70/64 65/72/65
f 43/66/43 42/64/42 57/71/57 58/73/58
f 51/50/51 50/65/50 65/72/65 66/74/66
f 44/52/44 43/66/43 58/73/58 59/75/59
f 52/51/52 51/50/51 66/74/66 67/76/67
f 45/53/45 44/52/44 59/75/59 60/77/60
f 53/54/53 52/51/52 67/76/67 68/78/68
f 46/55/46 45/53/45 60/77/60 61/79/61
f 54/56/54 53/54/53 68/78/68 69/80/69
f 47/57/47 46/55/46 61/79/61 62/81/62
f 40/59/40 1/82/1 55/67/55
f 9/83/9 54/56/54 69/80/69
f 48/61/48 47/57/47 62/81/62 63/69/63
f 60/77/60 59/75/59 74/84/74 75/85/75
f 68/78/68 67/76/67 82/86/82 83/87/83
f 61/79/61 60/77/60 75/85/75 76/88/76
f 69/80/69 68/78/68 83/87/83 84/89/84
f 62/81/62 61/79/61 76/88/76 77/90/77
f 55/67/55 1/91/1 70/92/70
f 9/93/9 69/80/69 84/89/84
f 63/69/63 62/81/62 77/90/77 78/94/78
f 56/68/56 55/67/55 70/92/70 71/95/71
f 64/70/64 63/69/63 78/94/78 79/96/79
f 57/71/57 56/68/56 71/95/71 72/97/72
f 65/72/65 64/70/64 79/96/79 80/98/80
f 58/73/58 57/71/57 72/97/72 73/99/73
f 66/74/66 65/72/65 80/98/80 81/100/81
f 59/75/59 58/73/58 73/99/73 74/84/74
f 67/76/67 66/74/66 81/100/81 82/86/82
f 79/96/79 78/94/78 93/101/93 94/102/94
f 72/97/72 71/95/71 86/103/86 87/104/87
f 80/98/80 79/96/79 94/102/94 95/105/95
f 73/99/73 72/97/72 87/104/87 88/106/88
f 81/100/81 80/98/80 95/105/95 96/107/96
f 74/84/74 73/99/73 88/106/88 89/108/89
f 82/86/82 81/100/81 96/107/96 97/109/97
f 75/85/75 74/84/74 89/108/89 90/110/90
f 83/87/83 82/86/82 97/109/97 98/111/98
f 76/88/76 75/85/75 90/110/90 91/112/91
f 84/89/84 83/87/83 98/111/98 99/113/99
f 77/90/77 76/88/76 91/112/91 92/114/92
f 70/92/70 1/115/1 85/116/85
f 9/117/9 84/89/84 99/113/99
f 78/94/78 77/90/77 92/114/92 93/101/93
f 71/95/71 70/92/70 85/116/85 86/103/86
f 98/111/98 97/109/97 112/118/112 113/119/113
f 91/112/91 90/110/90 105/120/105 106/121/106
f 99/113/99 98/111/98 113/119/113 114/122/114
f 92/114/92 91/112/91 106/121/106 107/123/107
f 85/116/85 1/124/1 100/125/100
f 9/126/9 99/113/99 114/122/114
f 93/101/93 92/114/92 107/123/107 108/127/108
f 86/103/86 85/116/85 100/125/100 101/128/101
f 94/102/94 93/101/93 108/127/108 109/129/109
f 87/104/87 86/103/86 101/128/101 102/130/102
f 95/105/95 94/102/94 109/129/109 110/131/110
f 88/106/88 87/104/87 102/130/102 103/132/103
f 96/107/96 95/105/95 110/131/110 111/133/111
f 89/108/89 88/106/88 103/132/103 104/134/104
f 97/109/97 96/107/96 111/133/111 112/118/112
f 90/110/90 89/108/89 104/134/104 105/120/105
f 110/131/110 109/129/109 124/135/124 125/136/125
f 103/132/103 102/130/102 117/137/117 118/138/118
f 111/133/111 110/131/110 125/136/125 126/139/126
f 104/134/104 103/132/103 118/138/118 119/140/119
f 112/118/112 111/133/111 126/139/126 127/141/127
f 105/120/105 104/134/104 119/140/119 120/142/120
f 113/119/113 112/118/112 127/141/127 128/143/128
f 106/121/106 105/120/105 120/142/120 121/144/121
f 114/122/114 113/119/113 128/143/128 129/145/129
f 107/123/107 106/121/106 121/144/121 122/146/122
f 100/125/100 1/147/1 115/148/115
f 9/149/9 114/122/114 129/145/129
f 108/127/108 107/123/107 122/146/122 123/150/123
f 101/128/101 100/125/100 115/148/115 116/151/116
f 109/129/109 108/127/108 123/150/123 124/135/124
f 102/130/102 101/128/101 116/151/116 117/137/117
f 129/152/129 128/153/128 143/154/143 144/155/144
f 122/156/122 121/157/121 136/158/136 137/159/137
f 115/148/115 1/160/1 130/161/130
f 9/162/9 129/145/129 144/163/144
f 123/164/123 122/156/122 137/159/137 138/165/138
f 116/166/116 115/167/115 130/168/130 131/169/131
f 124/170/124 123/164/123 138/165/138 139/171/139
f 117/172/117 116/166/116 131/169/131 132/173/132
f 125/174/125 124/170/124 139/171/139 140/175/140
f 118/176/118 117/172/117 132/173/132 133/177/133
f 126/178/126 125/174/125 140/175/140 141/179/141
f 119/180/119 118/176/118 133/177/133 134/181/134
f 127/182/127 126/178/126 141/179/141 142/183/142
f 120/184/120 119/180/119 134/181/134 135/185/135
f 128/153/128 127/182/127 142/183/142 143/154/143
f 121/157/121 120/184/120 135/185/135 136/158/136
f 133/177/133 132/173/132 147/186/147 148/187/148
f 141/179/141 140/175/140 155/188/155 156/189/156
f 134/181/134 133/177/133 148/187/148 149/190/149
f 142/183/142 141/179/141 156/189/156 157/191/157
f 135/185/135 134/181/134 149/190/149 150/192/150
f 143/154/143 142/183/142 157/191/157 158/193/158
f 136/158/136 135/185/135 150/192/150 151/194/151
f 144/155/144 143/154/143 158/193/158 159/195/159
f 137/159/137 136/158/136 151/194/151 152/196/152
f 130/168/130 1/197/1 145/198/145
f 9/199/9 144/155/144 159/195/159
f 138/165/138 137/159/137 152/196/152 153/200/153
f 131/169/131 130/168/130 145/198/145 146/201/146
f 139/171/139 138/165/138 153/200/153 154/202/154
f 132/173/132 131/169/131 146/201/146 147/186/147
f 140/175/140 139/171/139 154/202/154 155/188/155
f 152/196/152 151/194/151 166/203/166 167/204/167
f 145/198/145 1/197/1 160/205/160
f 9/199/9 159/195/159 174/206/174
f 153/200/153 152/196/152 167/204/167 168/207/168
f 146/201/146 145/198/145 160/205/160 161/208/161
f 154/202/154 153/200/153 168/207/168 169/209/169
f 147/186/147 146/201/146 161/208/161 162/210/162
f 155/188/155 154/202/154 169/209/169 170/211/170
f 148/187/148 147/186/147 162/210/162 163/212/163
f 156/189/156 155/188/155 170/211/170 171/213/171
f 149/190/149 148/187/148 163/212/163 164/214/164
f 157/191/157 156/189/156 171/213/171 172/215/172
f 150/192/150 149/190/149 164/214/164 165/216/165
f 158/193/158 157/191/157 172/215/172 173/217/173
f 151/194/151 150/192/150 165/216/165 166/203/166
f 159/195/159 158/193/158 173/217/173 174/206/174
f 171/213/171 170/211/170 185/218/185 186/219/186
f 164/214/164 163/212/163 178/220/178 179/221/179
f 172/215/172 171/213/171 186/219/186 187/222/187
f 165/216/165 164/214/164 179/221/179 180/223/180
f 173/217/173 172/215/172 187/222/187 188/224/188
f 166/203/166 165/216/165 180/223/180 181/225/181
f 174/206/174 173/217/173 188/224/188 189/226/189
f 167/204/167 166/203/166 181/225/181 182/227/182
f 160/205/160 1/197/1 175/228/175
f 9/199/9 174/206/174 189/226/189
f 168/207/168 167/204/167 182/227/182 183/229/183
f 161/208/161 160/205/160 175/228/175 176/230/176
f 169/209/169 168/207/168 183/229/183 184/231/184
f 162/210/162 161/208/161 176/230/176 177/232/177
f 170/211/170 169/209/169 184/231/184 185/218/185
f 163/212/163 162/210/162 177/232/177 178/220/178
f 175/228/175 1/197/1 190/233/190
f 9/199/9 189/226/189 204/234/204
f 183/229/183 182/227/182 197/235/197 198/236/198
f 176/230/176 175/228/175 190/233/190 191/237/191
f 184/231/184 183/229/183 198/236/198 199/238/199
f 177/232/177 176/230/176 191/237/191 192/239/192
f 185/218/185 184/231/184 199/238/199 200/240/200
f 178/220/178 177/232/177 192/239/192 193/241/193
f 186/219/186 185/218/185 200/240/200 201/242/201
f 179/221/179 178/220/178 193/241/193 194/243/194
f 187/222/187 186/219/186 201/242/201 202/244/202
f 180/223/180 179/221/179 194/243/194 195/245/195
f 188/224/188 187/222/187 202/244/202 203/246/203
f 181/225/181 180/223/180 195/245/195 196/247/196
f 189/226/189 188/224/188 203/246/203 204/234/204
f 182/227/182 181/225/181 196/247/196 197/235/197
f 194/243/194 193/241/193 208/248/208 209/249/209
f 202/244/202 201/242/201 216/250/216 217/251/217
f 195/245/195 194/243/194 209/249/209 210/252/210
f 203/246/203 202/244/202 217/251/217 218/253/218
f 196/247/196 195/245/195 210/252/210 211/254/211
f 204/234/204 203/246/203 218/253/218 219/255/219
f 197/235/197 196/247/196 211/254/211 212/256/212
f 190/233/190 1/197/1 205/257/205
f 9/199/9 204/234/204 219/255/219
f 198/236/198 197/235/197 212/256/212 213/258/213
f 191/237/191 190/233/190 205/257/205 206/259/206
f 199/238/199 198/236/198 213/258/213 214/260/214
f 192/239/192 191/237/191 206/259/206 207/261/207
f 200/240/200 199/238/199 214/260/214 215/262/215
f 193/241/193 192/239/192 207/261/207 208/248/208
f 201/242/201 200/240/200 215/262/215 216/250/216
f 213/258/213 212/256/212 227/263/227 228/264/228
f 206/259/206 205/257/205 220/265/220 221/266/221
f 214/260/214 213/258/213 228/264/228 229/267/229
f 207/261/207 206/259/206 221/266/221 222/268/222
f 215/262/215 214/260/214 229/267/229 230/269/230
f 208/248/208 207/261/207 222/268/222 223/270/223
f 216/250/216 215/262/215 230/269/230 231/271/231
f 209/249/209 208/248/208 223/270/223 224/272/224
f 217/251/217 216/250/216 231/271/231 232/273/232
f 210/252/210 209/249/209 224/272/224 225/274/225
f 218/253/218 217/251/217 232/273/232 233/275/233
f 211/254/211 210/252/210 225/274/225 226/276/226
f 219/255/219 218/253/218 233/275/233 234/277/234
f 212/256/212 211/254/211 226/276/226 227/263/227
f 205/257/205 1/197/1 220/265/220
f 9/199/9 219/255/219 234/277/234
f 232/273/232 231/271/231 246/278/246 247/279/247
f 225/274/225 224/272/224 239/280/239 240/281/240
f 233/275/233 232/273/232 247/279/247 248/282/248
f 226/276/226 225/274/225 240/281/240 241/283/241
f 234/277/234 233/275/233 248/282/248 249/284/249
f 227/263/227 226/276/226 241/283/241 242/285/242
f 220/265/220 1/197/1 235/286/235
f 9/199/9 234/277/234 249/284/249
f 228/264/228 227/263/227 242/285/242 243/287/243
f 221/266/221 220/265/220 235/286/235 236/288/236
f 229/267/229 228/264/228 243/287/243 244/289/244
f 222/268/222 221/266/221 236/288/236 237/290/237
f 230/269/230 229/267/229 244/289/244 245/291/245
f 223/270/223 222/268/222 237/290/237 238/292/238
f 231/271/231 230/269/230 245/291/245 246/278/246
f 224/272/224 223/270/223 238/292/238 239/280/239
f 244/289/244 243/287/243 258/293/258 259/294/259
f 237/290/237 236/288/236 251/295/251 252/296/252
f 245/291/245 244/289/244 259/294/259 260/297/260
f 238/292/238 237/290/237 252/296/252 253/298/253
f 246/278/246 245/291/245 260/297/260 261/299/261
f 239/280/239 238/292/238 253/298/253 254/300/254
f 247/279/247 246/278/246 261/299/261 262/301/262
f 240/281/240 239/280/239 254/300/254 255/302/255
f 248/282/248 247/279/247 262/301/262 263/303/263
f 241/283/241 240/281/240 255/302/255 256/304/256
f 249/284/249 248/282/248 263/303/263 264/305/264
f 242/285/242 241/283/241 256/304/256 257/306/257
f 235/286/235 1/197/1 250/307/250
f 9/199/9 249/284/249 264/305/264
f 243/287/243 242/285/242 257/306/257 258/293/258
f 236/288/236 235/286/235 250/307/250 251/295/251
f 263/303/263 262/301/262 277/308/277 278/309/278
f 256/304/256 255/302/255 270/310/270 271/311/271
f 264/305/264 263/303/263 278/309/278 279/312/279
f 257/306/257 256/304/256 271/311/271 272/313/272
f 250/307/250 1/197/1 265/314/265
f 9/199/9 264/305/264 279/312/279
f 258/293/258 257/306/257 272/313/272 273/315/273
f 251/295/251 250/307/250 265/314/265 266/316/266
f 259/294/259 258/293/258 273/315/273 274/317/274
f 252/296/252 251/295/251 266/316/266 267/318/267
f 260/297/260 259/294/259 274/317/274 275/319/275
f 253/298/253 252/296/252 267/318/267 268/320/268
f 261/299/261 260/297/260 275/319/275 276/321/276
f 254/300/254 253/298/253 268/320/268 269/322/269
f 262/301/262 261/299/261 276/321/276 277/308/277
f 255/302/255 254/300/254 269/322/269 270/310/270
f 267/318/267 266/316/266 281/323/281 282/324/282
f 275/319/275 274/317/274 289/325/289 290/326/290
f 268/320/268 267/318/267 282/324/282 283/327/283
f 276/321/276 275/319/275 290/326/290 291/328/291
f 269/322/269 268/320/268 283/327/283 284/329/284
f 277/308/277 276/321/276 291/328/291 292/330/292
f 270/310/270 269/322/269 284/329/284 285/331/285
f 278/309/278 277/308/277 292/330/292 293/332/293
f 271/311/271 270/310/270 285/331/285 286/333/286
f 279/312/279 278/309/278 293/332/293 294/334/294
f 272/313/272 271/311/271 286/333/286 287/335/287
f 265/314/265 1/197/1 280/336/280
f 9/199/9 279/312/279 294/334/294
f 273/315/273 272/313/272 287/335/287 288/337/288
f 266/316/266 265/314/265 280/336/280 281/323/281
f 274/317/274 273/315/273 288/337/288 289/325/289
f 286/333/286 285/331/285 300/338/300 301/339/301
f 294/334/294 293/332/293 308/340/308 309/341/309
f 287/335/287 286/333/286 301/339/301 302/342/302
f 280/336/280 1/197/1 295/343/295
f 9/199/9 294/334/294 309/341/309
f 288/337/288 287/335/287 302/342/302 303/344/303
f 281/323/281 280/336/280 295/343/295 296/345/296
f 289/325/289 288/337/288 303/344/303 304/346/304
f 282/324/282 281/323/281 296/345/296 297/347/297
f 290/326/290 289/325/289 304/346/304 305/348/305
f 283/327/283 282/324/282 297/347/297 298/349/298
f 291/328/291 290/326/290 305/348/305 306/350/306
f 284/329/284 283/327/283 298/349/298 299/351/299
f 292/330/292 291/328/291 306/350/306 307/352/307
f 285/331/285 284/329/284 299/351/299 300/338/300
f 293/332/293 292/330/292 307/352/307 308/340/308
f 305/348/305 304/346/304 319/353/319 320/354/320
f 298/349/298 297/347/297 312/355/312 313/356/313
f 306/350/306 305/348/305 320/354/320 321/357/321
f 299/351/299 298/349/298 313/356/313 314/358/314
f 307/352/307 306/350/306 321/357/321 322/359/322
f 300/338/300 299/351/299 314/358/314 315/360/315
f 308/340/308 307/352/307 322/359/322 323/361/323
f 301/339/301 300/338/300 315/360/315 316/362/316
f 309/341/309 308/340/308 323/361/323 324/363/324
f 302/342/302 301/339/301 316/362/316 317/364/317
f 295/343/295 1/197/1 310/365/310
f 9/199/9 309/341/309 324/363/324
f 303/344/303 302/342/302 317/364/317 318/366/318
f 296/345/296 295/343/295 310/365/310 311/367/311
f 304/346/304 303/344/303 318/366/318 319/353/319
f 297/347/297 296/345/296 311/367/311 312/355/312
f 324/363/324 323/361/323 338/368/338 339/369/339
f 317/364/317 316/362/316 331/370/331 332/371/332
f 310/365/310 1/197/1 325/372/325
f 9/199/9 324/363/324 339/369/339
f 318/366/318 317/364/317 332/371/332 333/373/333
f 311/367/311 310/365/310 325/372/325 326/374/326
f 319/353/319 318/366/318 333/373/333 334/375/334
f 312/355/312 311/367/311 326/374/326 327/376/327
f 320/354/320 319/353/319 334/375/334 335/377/335
f 313/356/313 312/355/312 327/376/327 328/378/328
f 321/357/321 320/354/320 335/377/335 336/379/336
f 314/358/314 313/356/313 328/378/328 329/380/329
f 322/359/322 321/357/321 336/379/336 337/381/337
f 315/360/315 314/358/314 329/380/329 330/382/330
f 323/361/323 322/359/322 337/381/337 338/368/338
f 316/362/316 315/360/315 330/382/330 331/370/331
f 328/378/328 327/376/327 342/383/342 343/384/343
f 336/379/336 335/377/335 350/385/350 351/386/351
f 329/380/329 328/378/328 343/384/343 344/387/344
f 337/381/337 336/379/336 351/386/351 352/388/352
f 330/382/330 329/380/329 344/387/344 345/389/345
f 338/368/338 337/381/337 352/388/352 353/390/353
f 331/370/331 330/382/330 345/389/345 346/391/346
f 339/369/339 338/368/338 353/390/353 354/392/354
f 332/371/332 331/370/331 346/391/346 347/393/347
f 325/372/325 1/197/1 340/394/340
f 9/199/9 339/369/339 354/392/354
f 333/373/333 332/371/332 347/393/347 348/395/348
f 326/374/326 325/372/325 340/394/340 341/396/341
f 334/375/334 333/373/333 348/395/348 349/397/349
f 327/376/327 326/374/326 341/396/341 342/383/342
f 335/377/335 334/375/334 349/397/349 350/385/350
f 347/393/347 346/391/346 361/398/361 362/399/362
f 340/400/340 1/401/1 355/402/355
f 9/199/9 354/392/354 369/403/369
f 348/395/348 347/393/347 362/399/362 363/404/363
f 341/396/341 340/394/340 355/405/355 356/406/356
f 349/397/349 348/395/348 363/404/363 364/407/364
f 342/383/342 341/396/341 356/406/356 357/408/357
f 350/385/350 349/397/349 364/407/364 365/409/365
f 343/384/343 342/383/342 357/408/357 358/410/358
f 351/386/351 350/385/350 365/409/365 366/411/366
f 344/387/344 343/384/343 358/410/358 359/412/359
f 352/388/352 351/386/351 366/411/366 367/413/367
f 345/389/345 344/387/344 359/412/359 360/414/360
f 353/390/353 352/388/352 367/413/367 368/415/368
f 346/391/346 345/389/345 360/414/360 361/398/361
f 354/392/354 353/390/353 368/415/368 369/403/369
f 366/416/366 365/417/365 380/418/380 381/419/381
f 359/420/359 358/421/358 373/422/373 374/423/374
f 367/424/367 366/416/366 381/419/381 382/425/382
f 360/426/360 359/420/359 374/423/374 375/427/375
f 368/428/368 367/424/367 382/425/382 383/429/383
f 361/430/361 360/426/360 375/427/375 376/431/376
f 369/432/369 368/428/368 383/429/383 384/433/384
f 362/434/362 361/430/361 376/431/376 377/435/377
f 355/436/355 1/437/1 370/438/370
f 9/439/9 369/432/369 384/433/384
f 363/440/363 362/434/362 377/435/377 378/441/378
f 356/442/356 355/436/355 370/438/370 371/443/371
f 364/444/364 363/440/363 378/441/378 379/445/379
f 357/446/357 356/442/356 371/443/371 372/447/372
f 365/417/365 364/444/364 379/445/379 380/418/380
f 358/421/358 357/446/357 372/447/372 373/422/373
f 9/448/9 384/433/384 399/449/399
f 378/441/378 377/435/377 392/450/392 393/451/393
f 371/443/371 370/438/370 385/452/385 386/453/386
f 379/445/379 378/441/378 393/451/393 394/454/394
f 372/447/372 371/443/371 386/453/386 387/455/387
f 380/418/380 379/445/379 394/454/394 395/456/395
f 373/422/373 372/447/372 387/455/387 388/457/388
f 381/419/381 380/418/380 395/456/395 396/458/396
f 374/423/374 373/422/373 388/457/388 389/459/389
f 382/425/382 381/419/381 396/458/396 397/460/397
f 375/427/375 374/423/374 389/459/389 390/461/390
f 383/429/383 382/425/382 397/460/397 398/462/398
f 376/431/376 375/427/375 390/461/390 391/463/391
f 384/433/384 383/429/383 398/462/398 399/449/399
f 377/435/377 376/431/376 391/463/391 392/450/392
f 370/438/370 1/464/1 385/452/385
f 397/460/397 396/458/396 411/465/411 412/466/412
f 390/461/390 389/459/389 404/467/404 405/468/405
f 398/462/398 397/460/397 412/466/412 413/469/413
f 391/463/391 390/461/390 405/468/405 406/470/406
f 399/449/399 398/462/398 413/469/413 414/471/414
f 392/450/392 391/463/391 406/470/406 407/472/407
f 385/452/385 1/473/1 400/474/400
f 9/475/9 399/449/399 414/471/414
f 393/451/393 392/450/392 407/472/407 408/476/408
f 386/453/386 385/452/385 400/474/400 401/477/401
f 394/454/394 393/451/393 408/476/408 409/478/409
f 387/455/387 386/453/386 401/477/401 402/479/402
f 395/456/395 394/454/394 409/478/409 410/480/410
f 388/457/388 387/455/387 402/479/402 403/481/403
f 396/458/396 395/456/395 410/480/410 411/465/411
f 389/459/389 388/457/388 403/481/403 404/467/404
f 401/477/401 400/474/400 415/482/415 416/483/416
f 409/478/409 408/476/408 423/484/423 424/485/424
f 402/479/402 401/477/401 416/483/416 417/486/417
f 410/480/410 409/478/409 424/485/424 425/487/425
f 403/481/403 402/479/402 417/486/417 418/488/418
f 411/465/411 410/480/410 425/487/425 426/489/426
f 404/467/404 403/481/403 418/488/418 419/490/419
f 412/466/412 411/465/411 426/489/426 427/491/427
f 405/468/405 404/467/404 419/490/419 420/492/420
f 413/469/413 412/466/412 427/491/427 428/493/428
f 406/470/406 405/468/405 420/492/420 421/494/421
f 414/471/414 413/469/413 428/493/428 429/495/429
f 407/472/407 406/470/406 421/494/421 422/496/422
f 400/474/400 1/497/1 415/482/415
f 9/498/9 414/471/414 429/495/429
f 408/476/408 407/472/407 422/496/422 423/484/423
f 420/492/420 419/490/419 434/499/434 435/500/435
f 428/493/428 427/491/427 442/501/442 443/502/443
f 421/494/421 420/492/420 435/500/435 436/503/436
f 429/495/429 428/493/428 443/502/443 444/504/444
f 422/496/422 421/494/421 436/503/436 437/505/437
f 415/482/415 1/506/1 430/507/430
f 9/508/9 429/495/429 444/504/444
f 423/484/423 422/496/422 437/505/437 438/509/438
f 416/483/416 415/482/415 430/507/430 431/510/431
f 424/485/424 423/484/423 438/509/438 439/511/439
f 417/486/417 416/483/416 431/510/431 432/512/432
f 425/487/425 424/485/424 439/511/439 440/513/440
f 418/488/418 417/486/417 432/512/432 433/514/433
f 426/489/426 425/487/425 440/513/440 441/515/441
f 419/490/419 418/488/418 433/514/433 434/499/434
f 427/491/427 426/489/426 441/515/441 442/501/442
f 439/511/439 438/509/438 453/516/453 454/517/454
f 432/512/432 431/510/431 446/518/446 447/519/447
f 440/513/440 439/511/439 454/517/454 455/520/455
f 433/514/433 432/512/432 447/519/447 448/521/448
f 441/515/441 440/513/440 455/520/455 456/522/456
f 434/499/434 433/514/433 448/521/448 449/523/449
f 442/501/442 441/515/441 456/522/456 457/524/457
f 435/500/435 434/499/434 449/523/449 450/525/450
f 443/502/443 442/501/442 457/524/457 458/526/458
f 436/503/436 435/500/435 450/525/450 451/527/451
f 444/504/444 443/502/443 458/526/458 459/528/459
f 437/505/437 436/503/436 451/527/451 452/529/452
f 430/507/430 1/530/1 445/531/445
f 9/532/9 444/504/444 459/528/459
f 438/509/438 437/505/437 452/529/452 453/516/453
f 431/510/431 430/507/430 445/531/445 446/518/446
f 458/526/458 457/524/457 472/533/472 473/534/473
f 451/527/451 450/525/450 465/535/465 466/536/466
f 459/528/459 458/526/458 473/534/473 474/537/474
f 452/529/452 451/527/451 466/536/466 467/538/467
f 445/531/445 1/539/1 460/540/460
f 9/541/9 459/528/459 474/537/474
f 453/516/453 452/529/452 467/538/467 468/542/468
f 446/518/446 445/531/445 460/540/460 461/543/461
f 454/517/454 453/516/453 468/542/468 469/544/469
f 447/519/447 446/518/446 461/543/461 462/545/462
f 455/520/455 454/517/454 469/544/469 470/546/470
f 448/521/448 447/519/447 462/545/462 463/547/463
f 456/522/456 455/520/455 470/546/470 471/548/471
f 449/523/449 448/521/448 463/547/463 464/549/464
f 457/524/457 456/522/456 471/548/471 472/533/472
f 450/525/450 449/523/449 464/549/464 465/535/465
f 462/545/462 461/543/461 476/6/476 2/5/2
f 470/546/470 469/544/469 479/1/479 480/9/480
f 463/547/463 462/545/462 2/5/2 3/11/3
f 471/548/471 470/546/470 480/9/480 7/13/7
f 464/549/464 463/547/463 3/11/3 477/15/477
f 472/533/472 471/548/471 7/13/7 8/17/8
f 465/535/465 464/549/464 477/15/477 4/19/4
f 473/534/473 472/533/472 8/17/8 481/21/481
f 466/536/466 465/535/465 4/19/4 5/23/5
f 474/537/474 473/534/473 481/21/481 482/25/482
f 467/538/467 466/536/466 5/23/5 478/27/478
f 460/540/460 1/550/1 475/29/475
f 9/551/9 474/537/474 482/25/482
f 468/542/468 467/538/467 478/27/478 6/2/6
f 461/543/461 460/540/460 475/29/475 476/6/476
f 469/544/469 468/542/468 6/2/6 479/1/479
o Cube
v -1.000000 4.000000 4.000000
v -1.000000 8.000000 4.000000
v -1.000000 4.000000 2.000000
v -1.000000 8.000000 2.000000
v 1.000000 4.000000 4.000000
v 1.000000 8.000000 4.000000
v 1.000000 4.000000 2.000000
v 1.000000 8.000000 2.000000
vn -1.0000 -0.0000 -0.0000
vn -0.0000 -0.0000 -1.0000
vn 1.0000 -0.0000 -0.0000
vn -0.0000 -0.0000 1.0000
vn -0.0000 -1.0000 -0.0000
vn -0.0000 1.0000 -0.0000
vt 0.375000 0.000000
vt 0.625000 0.000000
vt 0.625000 0.250000
vt 0.375000 0.250000
vt 0.625000 0.500000
vt 0.375000 0.500000
vt 0.625000 0.750000
vt 0.375000 0.750000
vt 0.625000 1.000000
vt 0.375000 1.000000
vt 0.125000 0.500000
vt 0.125000 0.750000
vt 0.875000 0.500000
vt 0.875000 0.750000
s 0
f 483/552/483 484/553/483 486/554/483 485/555/483
f 485/555/484 486/554/484 490/556/484 489/557/484
f 489/557/485 490/556/485 488/558/485 487/559/485
f 487/559/486 488/558/486 484/560/486 483/561/486
f 485/562/487 489/557/487 487/559/487 483/563/487
f 490/556/488 486/564/488 484/565/488 488/558/488
