# Blender 5.0.0
# www.blender.org
mtllib Sword.mtl
o Right_Arm
v -0.800000 4.000000 3.800000
v -0.800000 4.200000 4.000000
v -1.000000 4.200000 3.800000
v -0.800000 4.026721 3.899869
v -0.899869 4.026721 3.800000
v -0.895642 4.052673 3.895642
v -0.899869 4.200000 3.973281
v -0.800000 4.100132 3.973281
v -0.895642 4.104361 3.947326
v -0.973281 4.100132 3.800000
v -0.973281 4.200000 3.899869
v -0.947326 4.104361 3.895642
v -0.800000 7.800003 4.000000
v -0.800000 8.000000 3.799997
v -1.000000 7.800003 3.799999
v -0.800000 7.899869 3.973278
v -0.899869 7.800003 3.973279
v -0.895642 7.895642 3.947323
v -0.899869 7.973281 3.799997
v -0.800000 7.973281 3.899866
v -0.895642 7.947330 3.895639
v -0.973281 7.800003 3.899868
v -0.973281 7.899869 3.799997
v -0.947326 7.895642 3.895639
v -0.800000 4.000000 2.200000
v -1.000000 4.200000 2.200000
v -0.800000 4.200000 2.000000
v -0.899869 4.026719 2.200000
v -0.800000 4.026719 2.100131
v -0.895642 4.052673 2.104358
v -0.973281 4.200000 2.100131
v -0.973281 4.100131 2.200000
v -0.947326 4.104358 2.104358
v -0.800000 4.100131 2.026719
v -0.899869 4.200000 2.026719
v -0.895642 4.104358 2.052674
v -0.800000 8.000000 2.199997
v -0.800000 7.800000 1.999997
v -1.000000 7.800000 2.200000
v -0.800000 7.973281 2.100128
v -0.899869 7.973281 2.199997
v -0.895642 7.947327 2.104355
v -0.899869 7.800000 2.026719
v -0.800000 7.899869 2.026716
v -0.895642 7.895642 2.052671
v -0.973281 7.899869 2.199997
v -0.973281 7.800000 2.100131
v -0.947326 7.895642 2.104355
v 0.800000 4.000000 3.800000
v 1.000000 4.200000 3.800000
v 0.800000 4.200000 4.000000
v 0.899869 4.026721 3.800000
v 0.800000 4.026721 3.899869
v 0.895642 4.052673 3.895642
v 0.973281 4.200000 3.899869
v 0.973281 4.100132 3.800000
v 0.947326 4.104361 3.895642
v 0.800000 4.100132 3.973281
v 0.899869 4.200000 3.973281
v 0.895642 4.104361 3.947326
v 0.800000 8.000000 3.799997
v 0.800000 7.800003 4.000000
v 1.000000 7.800003 3.799999
v 0.800000 7.973281 3.899866
v 0.899869 7.973281 3.799997
v 0.895642 7.947330 3.895639
v 0.899869 7.800003 3.973279
v 0.800000 7.899869 3.973278
v 0.895642 7.895642 3.947323
v 0.973281 7.899869 3.799997
v 0.973281 7.800003 3.899868
v 0.947326 7.895642 3.895639
v 0.800000 4.000000 2.200000
v 0.800000 4.200000 2.000000
v 1.000000 4.200000 2.200000
v 0.800000 4.026719 2.100131
v 0.899869 4.026719 2.200000
v 0.895642 4.052673 2.104358
v 0.899869 4.200000 2.026719
v 0.800000 4.100131 2.026719
v 0.895642 4.104358 2.052674
v 0.973281 4.100131 2.200000
v 0.973281 4.200000 2.100131
v 0.947326 4.104358 2.104358
v 0.800000 8.000000 2.199997
v 1.000000 7.800000 2.200000
v 0.800000 7.800000 1.999997
v 0.899869 7.973281 2.199997
v 0.800000 7.973281 2.100128
v 0.895642 7.947327 2.104355
v 0.973281 7.800000 2.100131
v 0.973281 7.899869 2.199997
v 0.947326 7.895642 2.104355
v 0.800000 7.899869 2.026716
v 0.899869 7.800000 2.026719
v 0.895642 7.895642 2.052671
vn -0.1296 -0.9831 0.1296
vn -0.1216 -0.8623 0.4916
vn -0.4474 -0.7744 0.4474
vn -0.4916 -0.8623 0.1216
vn -0.1216 -0.4915 0.8623
vn -0.4474 -0.4473 0.7744
vn -0.1296 -0.1296 0.9831
vn -0.4915 -0.1216 0.8623
vn -0.8623 -0.1216 0.4915
vn -0.7744 -0.4473 0.4474
vn -0.9831 -0.1296 0.1296
vn -0.8623 -0.4915 0.1216
vn -0.1296 0.1296 0.9831
vn -0.1216 0.4916 0.8623
vn -0.4474 0.4473 0.7744
vn -0.4915 0.1216 0.8623
vn -0.1216 0.8623 0.4915
vn -0.4474 0.7744 0.4474
vn -0.1296 0.9831 0.1296
vn -0.4915 0.8623 0.1216
vn -0.8623 0.4915 0.1216
vn -0.7744 0.4473 0.4474
vn -0.9831 0.1296 0.1296
vn -0.8623 0.1216 0.4915
vn -0.1296 -0.9831 -0.1296
vn -0.4915 -0.8623 -0.1216
vn -0.4474 -0.7744 -0.4474
vn -0.1216 -0.8623 -0.4915
vn -0.8623 -0.4915 -0.1216
vn -0.7744 -0.4473 -0.4474
vn -0.9831 -0.1296 -0.1296
vn -0.8623 -0.1216 -0.4915
vn -0.4915 -0.1216 -0.8623
vn -0.4474 -0.4473 -0.7744
vn -0.1296 -0.1296 -0.9831
vn -0.1216 -0.4915 -0.8623
vn -0.1296 0.9831 -0.1296
vn -0.1216 0.8623 -0.4915
vn -0.4474 0.7744 -0.4474
vn -0.4915 0.8623 -0.1216
vn -0.1216 0.4915 -0.8623
vn -0.4474 0.4473 -0.7744
vn -0.1296 0.1296 -0.9831
vn -0.4916 0.1216 -0.8623
vn -0.8623 0.1216 -0.4915
vn -0.7744 0.4473 -0.4474
vn -0.9831 0.1296 -0.1296
vn -0.8623 0.4915 -0.1216
vn 0.1296 -0.9831 0.1296
vn 0.4916 -0.8623 0.1216
vn 0.4474 -0.7744 0.4474
vn 0.1216 -0.8623 0.4916
vn 0.8623 -0.4915 0.1216
vn 0.7744 -0.4473 0.4474
vn 0.9831 -0.1296 0.1296
vn 0.8623 -0.1216 0.4915
vn 0.4915 -0.1216 0.8623
vn 0.4474 -0.4473 0.7744
vn 0.1296 -0.1296 0.9831
vn 0.1216 -0.4915 0.8623
vn 0.1296 0.9831 0.1296
vn 0.1216 0.8623 0.4915
vn 0.4474 0.7744 0.4474
vn 0.4915 0.8623 0.1216
vn 0.1216 0.4916 0.8623
vn 0.4474 0.4473 0.7744
vn 0.1296 0.1296 0.9831
vn 0.4915 0.1216 0.8623
vn 0.8623 0.1216 0.4915
vn 0.7744 0.4473 0.4474
vn 0.9831 0.1296 0.1296
vn 0.8623 0.4915 0.1216
vn 0.1296 -0.9831 -0.1296
vn 0.1216 -0.8623 -0.4915
vn 0.4474 -0.7744 -0.4474
vn 0.4915 -0.8623 -0.1216
vn 0.1216 -0.4915 -0.8623
vn 0.4474 -0.4473 -0.7744
vn 0.1296 -0.1296 -0.9831
vn 0.4915 -0.1216 -0.8623
vn 0.8623 -0.1216 -0.4915
vn 0.7744 -0.4473 -0.4474
vn 0.9831 -0.1296 -0.1296
vn 0.8623 -0.4915 -0.1216
vn 0.1296 0.9831 -0.1296
vn 0.4915 0.8623 -0.1216
vn 0.4474 0.7744 -0.4474
vn 0.1216 0.8623 -0.4915
vn 0.8623 0.4915 -0.1216
vn 0.7744 0.4473 -0.4474
vn 0.9831 0.1296 -0.1296
vn 0.8623 0.1216 -0.4915
vn 0.4916 0.1216 -0.8623
vn 0.4474 0.4473 -0.7744
vn 0.1296 0.1296 -0.9831
vn 0.1216 0.4915 -0.8623
vt 0.572622 0.380996
vt 0.568018 0.380996
vt 0.568212 0.376587
vt 0.572622 0.376392
vt 0.563401 0.380996
vt 0.563401 0.376587
vt 0.779421 0.484998
vt 0.774800 0.484998
vt 0.774995 0.475743
vt 0.779421 0.475743
vt 0.770166 0.484998
vt 0.770166 0.475743
vt 0.646399 0.485262
vt 0.646399 0.476028
vt 0.650814 0.476028
vt 0.655632 0.485262
vt 0.572622 0.371775
vt 0.568212 0.371775
vt 0.779421 0.651588
vt 0.779421 0.660843
vt 0.774995 0.660843
vt 0.774800 0.651588
vt 0.459976 0.454736
vt 0.464585 0.454736
vt 0.464780 0.459138
vt 0.459976 0.459138
vt 0.469182 0.454736
vt 0.469182 0.459332
vt 0.469182 0.463941
vt 0.464780 0.463941
vt 0.646399 0.651462
vt 0.655632 0.651462
vt 0.650814 0.660695
vt 0.646399 0.660695
vt 0.770166 0.651588
vt 0.770166 0.660843
vt 0.646389 0.380996
vt 0.646389 0.376392
vt 0.650798 0.376587
vt 0.650993 0.380996
vt 0.646389 0.371775
vt 0.650798 0.371775
vt 0.572532 0.485262
vt 0.563299 0.485262
vt 0.568117 0.476028
vt 0.572532 0.476028
vt 0.759401 0.484717
vt 0.754754 0.484717
vt 0.754558 0.475436
vt 0.759401 0.475436
vt 0.750119 0.484717
vt 0.750119 0.475436
vt 0.655609 0.380996
vt 0.655609 0.376587
vt 0.542826 0.454736
vt 0.547423 0.454736
vt 0.547228 0.459138
vt 0.542826 0.459332
vt 0.552032 0.454736
vt 0.552032 0.459138
vt 0.750119 0.651780
vt 0.754754 0.651780
vt 0.754558 0.661061
vt 0.750119 0.661061
vt 0.759401 0.651780
vt 0.759401 0.661061
vt 0.572532 0.651462
vt 0.572532 0.660695
vt 0.568117 0.660695
vt 0.563299 0.651462
vt 0.542826 0.463941
vt 0.547229 0.463941
vt 0.572622 0.454763
vt 0.572622 0.459367
vt 0.568212 0.459172
vt 0.568018 0.454763
vt 0.572622 0.463984
vt 0.568212 0.463984
vt 0.468988 0.485149
vt 0.464371 0.485149
vt 0.464567 0.475904
vt 0.468988 0.475904
vt 0.459743 0.485149
vt 0.459743 0.475904
vt 0.853461 0.484998
vt 0.853461 0.475743
vt 0.857887 0.475743
vt 0.862716 0.484998
vt 0.563401 0.454763
vt 0.563401 0.459172
vt 0.469182 0.381091
vt 0.464585 0.381091
vt 0.464780 0.376689
vt 0.469182 0.376494
vt 0.459976 0.381091
vt 0.459976 0.376689
vt 0.853461 0.651588
vt 0.862716 0.651588
vt 0.857887 0.660843
vt 0.853461 0.660843
vt 0.459743 0.651551
vt 0.464371 0.651551
vt 0.464567 0.660796
vt 0.459743 0.660796
vt 0.468988 0.651551
vt 0.468988 0.660796
vt 0.469182 0.371885
vt 0.464780 0.371885
vt 0.646389 0.454763
vt 0.650993 0.454763
vt 0.650798 0.459172
vt 0.646389 0.459367
vt 0.655609 0.454763
vt 0.655609 0.459172
vt 0.675869 0.484717
vt 0.666588 0.484717
vt 0.671431 0.475436
vt 0.675869 0.475436
vt 0.552189 0.485149
vt 0.547561 0.485149
vt 0.547365 0.475904
vt 0.552189 0.475904
vt 0.542944 0.485149
vt 0.542944 0.475904
vt 0.646389 0.463984
vt 0.650798 0.463984
vt 0.542826 0.381091
vt 0.542826 0.376494
vt 0.547228 0.376689
vt 0.547423 0.381091
vt 0.542826 0.371885
vt 0.547229 0.371885
vt 0.542944 0.651551
vt 0.547561 0.651551
vt 0.547365 0.660796
vt 0.542944 0.660796
vt 0.552189 0.651551
vt 0.552189 0.660796
vt 0.675869 0.651780
vt 0.675869 0.661061
vt 0.671431 0.661061
vt 0.666588 0.651780
vt 0.552032 0.381091
vt 0.552032 0.376689
s 1
usemtl Material.009
f 1/1/1 4/2/2 6/3/3 5/4/4
f 4/2/2 8/5/5 9/6/6 6/3/3
f 2/7/7 7/8/8 9/9/6 8/10/5
f 7/8/8 11/11/9 12/12/10 9/9/6
f 3/13/11 10/14/12 12/15/10 11/16/9
f 10/17/12 5/4/4 6/3/3 12/18/10
f 6/3/3 9/6/6 12/18/10
f 13/19/13 16/20/14 18/21/15 17/22/16
f 16/23/14 20/24/17 21/25/18 18/26/15
f 14/27/19 19/28/20 21/25/18 20/24/17
f 19/28/20 23/29/21 24/30/22 21/25/18
f 15/31/23 22/32/24 24/33/22 23/34/21
f 22/35/24 17/22/16 18/21/15 24/36/22
f 18/26/15 21/25/18 24/30/22
f 25/37/25 28/38/26 30/39/27 29/40/28
f 28/38/26 32/41/29 33/42/30 30/39/27
f 26/43/31 31/44/32 33/45/30 32/46/29
f 31/47/32 35/48/33 36/49/34 33/50/30
f 27/51/35 34/52/36 36/49/34 35/48/33
f 34/53/36 29/40/28 30/39/27 36/54/34
f 30/39/27 33/42/30 36/54/34
f 37/55/37 40/56/38 42/57/39 41/58/40
f 40/56/38 44/59/41 45/60/42 42/57/39
f 38/61/43 43/62/44 45/63/42 44/64/41
f 43/62/44 47/65/45 48/66/46 45/63/42
f 39/67/47 46/68/48 48/69/46 47/70/45
f 46/71/48 41/58/40 42/57/39 48/72/46
f 42/57/39 45/60/42 48/72/46
f 49/73/49 52/74/50 54/75/51 53/76/52
f 52/74/50 56/77/53 57/78/54 54/75/51
f 50/79/55 55/80/56 57/81/54 56/82/53
f 55/80/56 59/83/57 60/84/58 57/81/54
f 51/85/59 58/86/60 60/87/58 59/88/57
f 58/89/60 53/76/52 54/75/51 60/90/58
f 54/75/51 57/78/54 60/90/58
f 61/91/61 64/92/62 66/93/63 65/94/64
f 64/92/62 68/95/65 69/96/66 66/93/63
f 62/97/67 67/98/68 69/99/66 68/100/65
f 67/101/68 71/102/69 72/103/70 69/104/66
f 63/105/71 70/106/72 72/103/70 71/102/69
f 70/107/72 65/94/64 66/93/63 72/108/70
f 66/93/63 69/96/66 72/108/70
f 73/109/73 76/110/74 78/111/75 77/112/76
f 76/110/74 80/113/77 81/114/78 78/111/75
f 74/115/79 79/116/80 81/117/78 80/118/77
f 79/119/80 83/120/81 84/121/82 81/122/78
f 75/123/83 82/124/84 84/121/82 83/120/81
f 82/125/84 77/112/76 78/111/75 84/126/82
f 78/111/75 81/114/78 84/126/82
f 85/127/85 88/128/86 90/129/87 89/130/88
f 88/128/86 92/131/89 93/132/90 90/129/87
f 86/133/91 91/134/92 93/135/90 92/136/89
f 91/134/92 95/137/93 96/138/94 93/135/90
f 87/139/95 94/140/96 96/141/94 95/142/93
f 94/143/96 89/130/88 90/129/87 96/144/94
f 90/129/87 93/132/90 96/144/94
f 25/37/25 1/1/1 5/4/4 28/38/26
f 28/38/26 5/4/4 10/17/12 32/41/29
f 32/46/29 10/14/12 3/13/11 26/43/31
f 2/7/7 13/19/13 17/22/16 7/8/8
f 7/8/8 17/22/16 22/35/24 11/11/9
f 11/16/9 22/32/24 15/31/23 3/13/11
f 14/27/19 37/55/37 41/58/40 19/28/20
f 19/28/20 41/58/40 46/71/48 23/29/21
f 23/34/21 46/68/48 39/67/47 15/31/23
f 38/61/43 27/51/35 35/48/33 43/62/44
f 43/62/44 35/48/33 31/47/32 47/65/45
f 47/70/45 31/44/32 26/43/31 39/67/47
f 73/109/73 25/37/25 29/40/28 76/110/74
f 76/110/74 29/40/28 34/53/36 80/113/77
f 80/118/77 34/52/36 27/51/35 74/115/79
f 37/55/37 85/127/85 89/130/88 40/56/38
f 40/56/38 89/130/88 94/143/96 44/59/41
f 44/64/41 94/140/96 87/139/95 38/61/43
f 86/133/91 75/123/83 83/120/81 91/134/92
f 91/134/92 83/120/81 79/119/80 95/137/93
f 95/142/93 79/116/80 74/115/79 87/139/95
f 49/73/49 73/109/73 77/112/76 52/74/50
f 52/74/50 77/112/76 82/125/84 56/77/53
f 56/82/53 82/124/84 75/123/83 50/79/55
f 85/127/85 61/91/61 65/94/64 88/128/86
f 88/128/86 65/94/64 70/107/72 92/131/89
f 92/136/89 70/106/72 63/105/71 86/133/91
f 62/97/67 51/85/59 59/88/57 67/98/68
f 67/101/68 59/83/57 55/80/56 71/102/69
f 71/102/69 55/80/56 50/79/55 63/105/71
f 1/1/1 49/73/49 53/76/52 4/2/2
f 4/2/2 53/76/52 58/89/60 8/5/5
f 8/10/5 58/86/60 51/85/59 2/7/7
f 61/91/61 14/27/19 20/24/17 64/92/62
f 64/92/62 20/24/17 16/23/14 68/95/65
f 68/100/65 16/20/14 13/19/13 62/97/67
f 25/37/25 73/109/73 49/73/49 1/1/1
f 3/13/11 15/31/23 39/67/47 26/43/31
f 51/85/59 62/97/67 13/19/13 2/7/7
f 85/127/85 37/55/37 14/27/19 61/91/61
f 27/51/35 38/61/43 87/139/95 74/115/79
f 75/123/83 86/133/91 63/105/71 50/79/55
o RightArm
v 0.815130 4.117748 3.012600
v 0.814310 4.060182 2.909800
v 0.815110 3.882251 3.009501
v 0.814300 3.942434 2.908300
v 0.815930 3.939817 3.112299
v 0.815940 4.057566 3.113800
v 0.960000 4.082948 3.157900
v 0.958840 4.169666 3.012100
v 0.957660 4.086717 2.864100
v 0.957640 3.917052 2.861900
v 0.958810 3.830334 3.007700
v 0.959990 3.913282 3.155699
v 1.088490 4.057566 3.111599
v 1.087690 4.117748 3.010399
v 1.086870 4.060182 2.907700
v 1.086860 3.942434 2.906099
v 1.087660 3.882251 3.007401
v 1.088480 3.939817 3.110100
v 1.784900 4.057566 3.105999
v 1.784100 4.117748 3.004799
v 1.783280 4.060182 2.902100
v 1.783260 3.942434 2.900600
v 1.784070 3.882251 3.001801
v 1.784890 3.939817 3.104500
v 1.860480 4.082948 3.150700
v 1.859310 4.169666 3.004900
v 1.858130 4.086717 2.856899
v 1.858120 3.917052 2.854700
v 1.859280 3.830334 3.000500
v 1.860460 3.913282 3.148600
v 2.057980 4.097651 3.073500
v 2.023570 4.082153 3.211399
v 2.023070 3.998115 3.148399
v 2.181470 4.042655 3.071899
v 2.146560 3.998115 3.147400
v 2.057410 4.098563 3.002399
v 2.056850 4.099475 2.931299
v 2.020720 4.001884 2.854500
v 2.020240 4.087513 2.793600
v 2.180340 4.044480 2.929600
v 2.180900 4.043567 3.000700
v 2.056830 3.902349 2.928699
v 2.020220 3.917847 2.791399
v 2.180330 3.957344 2.928499
v 2.144220 4.001884 2.853500
v 2.057390 3.901437 2.999899
v 2.057960 3.900524 3.070999
v 2.023550 3.912487 3.209299
v 2.181460 3.955520 3.070700
v 2.180900 3.956432 2.999599
v 1.860970 4.082153 3.212700
v 1.860950 3.912487 3.210600
v 1.857620 3.917847 2.792700
v 1.857640 4.087513 2.794899
v 2.036750 3.952728 3.458700
v 2.036750 4.035525 3.459799
v 2.117730 4.035525 3.459099
v 2.117720 3.952728 3.458099
v 2.029450 4.047272 2.544001
v 2.029450 3.964475 2.542900
v 2.110420 3.964475 2.542299
v 2.110430 4.047272 2.543301
v 2.230460 3.971760 3.574400
v 2.181880 3.971760 3.574800
v 2.181880 4.013489 3.575300
v 2.230460 4.013489 3.574900
v 2.221300 4.028239 2.425200
v 2.172710 4.028239 2.425600
v 2.172710 3.986510 2.424999
v 2.221290 3.986510 2.424700
v 4.736440 3.998528 3.094500
v 4.454990 3.998115 3.129000
v 4.776300 3.978893 2.997601
v 4.366370 3.977760 3.018000
v 4.734610 4.001471 2.865099
v 4.452650 4.001884 2.835100
v 4.776010 4.021106 2.961399
v 4.365810 4.022240 2.947399
v 2.866110 3.998398 3.119600
v 2.901110 3.962191 3.054399
v 2.901110 4.036256 3.055399
v 2.902630 4.037033 2.994900
v 2.900150 4.037808 2.934401
v 2.864120 4.001602 2.869801
v 2.900140 3.963743 2.933500
v 2.902620 3.962967 2.993900
v 3.512140 3.998115 3.136499
v 3.547040 3.955520 3.059799
v 3.547050 4.042655 3.060999
v 3.549490 4.043567 2.989799
v 3.545920 4.044480 2.918699
v 3.509800 4.001884 2.842600
v 3.545910 3.957344 2.917601
v 3.549480 3.956432 2.988699
v 4.366380 4.021327 3.018600
v 4.365810 3.978672 2.946899
v 5.185700 4.000000 2.976200
v 5.016570 4.001057 2.895100
v 5.017880 3.998942 3.059999
v 4.776300 4.020634 2.998100
v 4.776000 3.979365 2.960800
vn -0.8382 0.5328 0.1164
vn -0.7575 0.4366 -0.4853
vn -0.8400 -0.5328 -0.1030
vn -0.6063 -0.2521 -0.7542
vn -0.7497 -0.4366 0.4973
vn -0.5941 0.2521 0.7639
vn 0.0257 0.4896 0.8716
vn 0.0188 0.9998 0.0117
vn 0.0120 0.5101 -0.8600
vn 0.0117 -0.4894 -0.8720
vn 0.0187 -0.9998 -0.0119
vn 0.0257 -0.5101 0.8597
vn 0.1989 0.4750 0.8572
vn 0.1922 0.9812 0.0165
vn 0.1852 0.5064 -0.8422
vn 0.1852 -0.4749 -0.8603
vn 0.1919 -0.9812 -0.0193
vn 0.1986 -0.5062 0.8393
vn -0.2973 0.4780 0.8265
vn -0.3038 0.9527 0.0006
vn -0.3102 0.4749 -0.8235
vn -0.3102 -0.4779 -0.8218
vn -0.3037 -0.9527 0.0042
vn -0.2973 -0.4748 0.8283
vn -0.6520 0.6244 0.4301
vn -0.1575 0.9851 -0.0694
vn -0.4078 0.7921 -0.4542
vn -0.4681 0.7116 -0.5239
vn -0.6588 -0.6244 -0.4197
vn -0.1565 -0.9851 0.0718
vn -0.4008 -0.7921 0.4604
vn -0.4600 -0.7116 0.5311
vn 0.4425 0.7854 0.4328
vn 0.9972 -0.0574 -0.0489
vn 0.7671 -0.1996 0.6096
vn 0.2117 0.9328 0.2915
vn 0.3188 0.8845 0.3407
vn 0.1234 0.7493 0.6506
vn 0.7280 0.0158 0.6854
vn -0.3418 0.7757 0.5305
vn -0.1574 0.9851 -0.0694
vn 0.3069 0.9490 -0.0725
vn 0.6351 0.7004 -0.3257
vn 0.8325 -0.0123 -0.5538
vn 0.9927 -0.0451 0.1116
vn 0.1203 0.9410 -0.3165
vn 0.4007 0.8868 -0.2303
vn 0.2125 0.9771 0.0108
vn 0.4357 -0.7852 -0.4399
vn 0.9978 0.0575 0.0331
vn 0.7572 0.1997 -0.6219
vn 0.2071 -0.9329 -0.2947
vn 0.3134 -0.8844 -0.3458
vn 0.1133 -0.7492 -0.6526
vn 0.7167 -0.0155 -0.6972
vn -0.3502 -0.7756 -0.5251
vn -0.1564 -0.9851 0.0718
vn 0.3080 -0.9490 0.0676
vn 0.6402 -0.7003 0.3156
vn 0.8414 0.0125 0.5403
vn 0.9908 0.0449 -0.1274
vn 0.1254 -0.9410 0.3144
vn 0.4043 -0.8868 0.2239
vn 0.2123 -0.9771 -0.0142
vn -0.6322 0.6935 0.3457
vn 0.1781 0.9323 0.3148
vn -0.4571 0.7968 0.3951
vn 0.0013 0.9871 0.1603
vn 0.1781 0.9323 0.3149
vn 0.2101 -0.9602 0.1838
vn -0.0109 -0.9971 0.0749
vn -0.4007 -0.7921 0.4605
vn 0.0008 -0.9948 0.1022
vn -0.0668 -0.9774 0.2008
vn 0.9193 -0.1605 0.3593
vn 0.9971 -0.0574 -0.0490
vn -0.5951 -0.6264 0.5034
vn -0.9784 -0.0024 0.2066
vn -0.7639 0.5233 0.3777
vn -0.8694 0.3165 0.3796
vn -0.6376 -0.6934 -0.3356
vn 0.1731 -0.9323 -0.3177
vn -0.4633 -0.7968 -0.3878
vn -0.0012 -0.9871 -0.1604
vn 0.2071 0.9603 -0.1871
vn -0.0121 0.9971 -0.0747
vn -0.0008 0.9948 -0.1022
vn -0.0699 0.9773 -0.1998
vn 0.9927 -0.0450 0.1116
vn 0.9134 0.1605 -0.3740
vn 0.9978 0.0574 0.0331
vn -0.6028 0.6265 -0.4940
vn -0.9816 0.0026 -0.1910
vn -0.7698 -0.5232 -0.3655
vn -0.8753 -0.3164 -0.3657
vn -0.7901 -0.5567 0.2565
vn -0.5054 -0.6705 0.5431
vn -0.6321 0.6935 0.3456
vn -0.4598 0.6525 0.6023
vn 0.0016 0.9827 0.1851
vn 0.8786 0.0057 -0.4774
vn 0.8047 0.0071 -0.5936
vn -0.0109 -0.9971 0.0750
vn 0.0012 -0.9871 0.1600
vn -0.2529 -0.9275 0.2751
vn -0.7941 0.5567 -0.2439
vn -0.5140 0.6705 -0.5350
vn -0.6375 -0.6935 -0.3356
vn -0.4696 -0.6523 -0.5950
vn -0.0014 -0.9827 -0.1850
vn 0.8861 -0.0058 0.4634
vn 0.8141 -0.0071 0.5807
vn -0.0121 0.9971 -0.0748
vn -0.0014 0.9871 -0.1600
vn -0.2572 0.9276 -0.2710
vn 0.0044 -0.8328 0.5536
vn -0.3033 -0.2543 0.9184
vn -0.2065 0.6558 0.7262
vn 0.0076 0.4017 0.9157
vn 0.7173 0.0083 -0.6967
vn -0.0046 0.8327 -0.5537
vn -0.3177 0.2552 -0.9132
vn -0.2179 -0.6552 -0.7234
vn -0.0065 -0.4010 -0.9161
vn 0.7284 -0.0084 0.6851
vn 0.0142 -0.8712 0.4908
vn 0.4832 -0.6356 0.6021
vn 0.7672 -0.1996 0.6096
vn 0.0063 0.8711 -0.4911
vn 0.4733 0.6356 -0.6098
vn 0.7572 0.1997 -0.6220
vn -0.2496 0.8395 -0.4827
vn -0.2421 -0.8394 0.4865
vn 0.0298 -0.9896 0.1405
vn 0.0133 -0.9823 0.1867
vn 0.0307 -0.9928 0.1162
vn 0.0173 -0.9930 0.1166
vn 0.0275 0.9896 -0.1409
vn 0.0103 0.9823 -0.1870
vn 0.0288 0.9928 -0.1165
vn 0.0154 0.9930 -0.1169
vn -0.0022 -0.8746 0.4849
vn 0.0024 -0.9692 0.2462
vn 0.0004 0.9631 0.2691
vn 0.0087 0.8595 0.5111
vn -0.0006 0.9999 0.0128
vn -0.0015 0.9692 -0.2463
vn -0.0099 0.8745 -0.4849
vn -0.0040 -0.9632 -0.2689
vn 0.0005 -0.8597 -0.5108
vn -0.0005 -0.9999 -0.0127
vn 0.0127 -0.9197 0.3924
vn 0.0081 -0.9547 0.2973
vn 0.0056 0.9775 0.2108
vn -0.0070 0.8628 0.5054
vn 0.0089 0.9999 0.0128
vn 0.0034 0.9547 -0.2975
vn 0.0064 0.9196 -0.3927
vn 0.0022 -0.9775 -0.2108
vn -0.0152 -0.8631 -0.5048
vn 0.0082 -0.9999 -0.0129
vn 0.0210 0.9941 0.1064
vn 0.0205 0.9548 0.2964
vn 0.0193 -0.9941 -0.1068
vn 0.0158 -0.9549 -0.2966
vn 0.0418 0.9990 -0.0182
vn 0.0001 0.9999 0.0128
vn 0.0421 -0.9990 0.0176
vn -0.0001 -0.9999 -0.0128
vn 0.0256 0.9941 0.1050
vn 0.0239 -0.9941 -0.1054
vn 0.0172 -0.9759 -0.2177
vn 0.0392 -0.9827 -0.1811
vn 0.0207 0.9759 0.2173
vn 0.0420 0.9827 0.1803
vt 0.517590 0.228315
vt 0.545166 0.271589
vt 0.474390 0.382653
vt 0.523566 0.348757
vt 0.446814 0.339379
vt 0.468413 0.262210
vt 0.089455 0.015964
vt 0.089455 0.084309
vt 0.033405 0.015964
vt 0.008692 0.084309
vt 0.264701 0.015239
vt 0.278902 0.084721
vt 0.200287 0.015239
vt 0.186086 0.084721
vt 0.145922 0.017748
vt 0.170635 0.086093
vt 0.089872 0.017748
vt 0.089872 0.086093
vt 0.033823 0.017748
vt 0.009109 0.086093
vt 0.264401 0.015240
vt 0.278602 0.084720
vt 0.199986 0.015240
vt 0.185785 0.084720
vt 0.145505 0.015964
vt 0.170218 0.084309
vt 0.089455 0.082691
vt 0.089455 0.143971
vt 0.008692 0.082691
vt 0.033405 0.143971
vt 0.264701 0.147020
vt 0.200287 0.147020
vt 0.170635 0.081238
vt 0.145922 0.142518
vt 0.089872 0.081238
vt 0.089872 0.142518
vt 0.009109 0.081238
vt 0.033823 0.142518
vt 0.264401 0.147019
vt 0.199986 0.147019
vt 0.170218 0.082691
vt 0.145505 0.143971
vt 0.132378 0.161417
vt 0.132378 0.497819
vt 0.075908 0.161417
vt 0.075908 0.497819
vt 0.264701 0.163201
vt 0.264701 0.499910
vt 0.200287 0.163201
vt 0.200287 0.499910
vt 0.189268 0.161586
vt 0.189268 0.497987
vt 0.132798 0.161586
vt 0.132798 0.497987
vt 0.076328 0.161586
vt 0.076328 0.497987
vt 0.264401 0.163200
vt 0.264401 0.499910
vt 0.199986 0.163200
vt 0.199986 0.499910
vt 0.188848 0.161417
vt 0.188848 0.497819
vt 0.118046 0.860840
vt 0.118046 0.896611
vt 0.061997 0.860840
vt 0.037283 0.896611
vt 0.292280 0.859687
vt 0.306481 0.896052
vt 0.227866 0.859687
vt 0.213665 0.896052
vt 0.173501 0.861006
vt 0.198214 0.896776
vt 0.117451 0.861006
vt 0.117451 0.896776
vt 0.061402 0.861006
vt 0.036688 0.896776
vt 0.291980 0.859687
vt 0.306181 0.896052
vt 0.227565 0.859687
vt 0.213364 0.896052
vt 0.174096 0.860840
vt 0.198809 0.896611
vt 0.517146 0.030088
vt 0.571521 0.032750
vt 0.563752 0.091198
vt 0.837735 0.548001
vt 0.870688 0.514985
vt 0.847211 0.600429
vt 0.880165 0.600429
vt 0.995774 0.765955
vt 0.937785 0.728820
vt 0.995774 0.712358
vt 0.937785 0.689897
vt 0.476541 0.023855
vt 0.466096 0.091935
vt 0.427203 0.039189
vt 0.843197 0.667188
vt 0.876289 0.684491
vt 0.843197 0.705953
vt 0.876289 0.723255
vt 0.512702 0.153045
vt 0.458327 0.150383
vt 0.835827 0.548527
vt 0.868780 0.515513
vt 0.845304 0.600955
vt 0.878257 0.600955
vt 0.995775 0.765607
vt 0.937786 0.728473
vt 0.995775 0.712011
vt 0.937786 0.689550
vt 0.553307 0.159279
vt 0.602645 0.143944
vt 0.843196 0.666843
vt 0.876290 0.684145
vt 0.843196 0.705607
vt 0.876290 0.722909
vt 0.995774 0.799874
vt 0.948179 0.799874
vt 0.937786 0.650628
vt 0.948179 0.570898
vt 0.995775 0.604818
vt 0.995775 0.570898
vt 0.425131 0.354324
vt 0.401800 0.351473
vt 0.456255 0.243130
vt 0.432924 0.240280
vt 0.995775 0.799527
vt 0.948179 0.799527
vt 0.937785 0.650975
vt 0.948179 0.571245
vt 0.995774 0.605165
vt 0.995774 0.571245
vt 0.566849 0.256644
vt 0.590180 0.259494
vt 0.535725 0.367838
vt 0.559056 0.370688
vt 0.316068 0.311559
vt 0.331256 0.257296
vt 0.944900 0.922381
vt 0.921196 0.922381
vt 0.673189 0.049767
vt 0.688377 0.104029
vt 0.921196 0.420950
vt 0.944900 0.420950
vt 0.675912 0.299409
vt 0.660724 0.353671
vt 0.944900 0.922034
vt 0.921196 0.922034
vt 0.356659 0.133366
vt 0.341471 0.079104
vt 0.921196 0.421298
vt 0.944900 0.421298
vt 0.888470 0.350454
vt 0.902692 0.350454
vt 0.942585 0.031905
vt 0.991600 0.229585
vt 0.856258 0.031905
vt 0.948091 0.229585
vt 0.902692 0.979904
vt 0.888471 0.979904
vt 0.720982 0.057845
vt 0.728638 0.085193
vt 0.992612 0.294571
vt 0.949103 0.294571
vt 0.992612 0.227967
vt 0.949103 0.227967
vt 0.888471 0.350801
vt 0.902692 0.350801
vt 0.942300 0.029199
vt 0.991315 0.226879
vt 0.855973 0.029199
vt 0.947806 0.226879
vt 0.902692 0.979557
vt 0.888470 0.979557
vt 0.308865 0.125288
vt 0.301210 0.097941
vt 0.991315 0.295101
vt 0.947806 0.295101
vt 0.991315 0.228497
vt 0.947806 0.228497
vt 0.852711 0.611832
vt 0.885805 0.611832
vt 0.852711 0.612178
vt 0.885805 0.612178
vt 0.843197 0.744717
vt 0.876289 0.762020
vt 0.843196 0.744372
vt 0.876290 0.761674
vt 0.158636 0.629405
vt 0.234125 0.611832
vt 0.147749 0.688455
vt 0.257632 0.679372
vt 0.158636 0.629751
vt 0.234124 0.612178
vt 0.147749 0.688800
vt 0.257632 0.679717
vt 0.659847 0.623842
vt 0.650332 0.670602
vt 0.645687 0.548226
vt 0.655164 0.592789
vt 0.649795 0.703897
vt 0.650332 0.736847
vt 0.650332 0.670947
vt 0.659847 0.624189
vt 0.643778 0.548752
vt 0.653253 0.593315
vt 0.649795 0.703551
vt 0.650332 0.736501
vt 0.486778 0.611832
vt 0.477263 0.666843
vt 0.473351 0.548001
vt 0.482825 0.600429
vt 0.476459 0.705953
vt 0.477263 0.744717
vt 0.477263 0.667188
vt 0.486778 0.612178
vt 0.471442 0.548527
vt 0.480917 0.600955
vt 0.476459 0.705607
vt 0.477263 0.744372
vt 0.254650 0.548751
vt 0.231242 0.600429
vt 0.257632 0.718481
vt 0.252741 0.549277
vt 0.229332 0.600955
vt 0.257632 0.718136
vt 0.038001 0.692246
vt 0.083149 0.647324
vt 0.038001 0.691901
vt 0.083149 0.646978
vt 0.147749 0.708824
vt 0.147749 0.708478
vt 0.158636 0.754395
vt 0.083149 0.736823
vt 0.158636 0.754742
vt 0.083149 0.737168
vt 0.234124 0.772314
vt 0.234124 0.771968
s 1
usemtl sword
f 97/145/97 98/146/98 99/147/99
f 98/146/98 100/148/100 99/147/99
f 99/147/99 101/149/101 97/145/97
f 101/149/101 102/150/102 97/145/97
f 102/151/102 103/152/103 97/153/97
f 103/152/103 104/154/104 97/153/97
f 97/155/97 104/156/104 98/157/98
f 104/156/104 105/158/105 98/157/98
f 98/159/98 105/160/105 100/161/100
f 105/160/105 106/162/106 100/161/100
f 100/161/100 106/162/106 99/163/99
f 106/162/106 107/164/107 99/163/99
f 99/165/99 107/166/107 101/167/101
f 107/166/107 108/168/108 101/167/101
f 101/169/101 108/170/108 102/151/102
f 108/170/108 103/152/103 102/151/102
f 103/171/103 109/172/109 104/173/104
f 109/172/109 110/174/110 104/173/104
f 104/156/104 110/175/110 105/158/105
f 110/175/110 111/176/111 105/158/105
f 105/177/105 111/178/111 106/179/106
f 111/178/111 112/180/112 106/179/106
f 106/179/106 112/180/112 107/181/107
f 112/180/112 113/182/113 107/181/107
f 107/166/107 113/183/113 108/168/108
f 113/183/113 114/184/114 108/168/108
f 108/185/108 114/186/114 103/171/103
f 114/186/114 109/172/109 103/171/103
f 109/187/109 115/188/115 110/189/110
f 115/188/115 116/190/116 110/189/110
f 110/191/110 116/192/116 111/193/111
f 116/192/116 117/194/117 111/193/111
f 111/195/111 117/196/117 112/197/112
f 117/196/117 118/198/118 112/197/112
f 112/197/112 118/198/118 113/199/113
f 118/198/118 119/200/119 113/199/113
f 113/201/113 119/202/119 114/203/114
f 119/202/119 120/204/120 114/203/114
f 114/205/114 120/206/120 109/187/109
f 120/206/120 115/188/115 109/187/109
f 115/207/115 121/208/121 116/209/116
f 121/208/121 122/210/122 116/209/116
f 116/211/116 122/212/122 117/213/117
f 122/212/122 123/214/123 117/213/117
f 117/215/117 123/216/124 118/217/118
f 123/216/124 124/218/125 118/217/118
f 118/217/118 124/218/125 119/219/119
f 124/218/125 125/220/126 119/219/119
f 119/221/119 125/222/126 120/223/120
f 125/222/126 126/224/127 120/223/120
f 120/225/120 126/226/128 115/207/115
f 126/226/128 121/208/121 115/207/115
f 127/227/129 128/228/130 129/229/131
f 130/230/132 127/231/133 131/232/134
f 127/231/133 129/233/135 131/232/134
f 121/234/136 127/235/133 122/236/137
f 127/235/133 132/237/138 122/236/137
f 133/238/139 134/239/140 135/240/141
f 136/241/142 133/242/143 137/243/144
f 133/242/143 132/244/138 137/243/144
f 138/245/145 139/246/146 134/239/147
f 140/247/148 138/248/149 141/249/150
f 138/248/149 134/250/151 141/249/150
f 124/251/152 138/252/149 125/253/153
f 138/252/149 142/254/154 125/253/153
f 143/255/155 129/229/156 144/256/157
f 145/257/158 143/258/159 146/259/160
f 143/258/159 142/260/154 146/259/160
f 121/234/121 147/261/161 127/235/162
f 147/261/163 128/262/164 127/235/165
f 143/263/166 144/264/167 126/265/168
f 144/264/167 148/266/169 126/265/170
f 144/256/157 129/229/171 128/228/172
f 126/267/173 148/268/174 121/269/175
f 148/268/174 147/270/176 121/269/175
f 124/251/125 149/271/177 138/252/178
f 149/271/179 139/272/180 138/252/178
f 133/273/181 135/274/182 123/275/123
f 135/274/182 150/276/183 123/275/184
f 135/240/185 134/239/186 139/246/187
f 123/277/188 150/278/189 124/279/190
f 150/278/189 149/280/191 124/279/190
f 148/268/192 151/281/193 147/270/194
f 151/281/193 152/282/195 147/270/194
f 147/261/163 152/283/195 128/262/164
f 152/283/195 153/284/196 128/262/164
f 128/228/172 153/285/197 144/256/157
f 153/285/197 154/286/198 144/256/157
f 144/264/199 154/287/200 148/266/201
f 154/287/200 151/288/193 148/266/201
f 150/278/202 155/289/203 149/280/204
f 155/289/203 156/290/205 149/280/204
f 149/271/179 156/291/205 139/272/180
f 156/291/205 157/292/206 139/272/180
f 139/246/187 157/293/207 135/240/185
f 157/293/207 158/294/208 135/240/185
f 135/274/209 158/295/210 150/276/211
f 158/295/210 155/296/203 150/276/211
f 154/287/200 159/297/212 151/288/193
f 159/297/212 160/298/213 151/288/193
f 151/299/193 160/300/213 152/301/195
f 160/300/213 161/302/214 152/301/195
f 152/283/195 161/303/214 153/284/196
f 161/303/214 162/304/215 153/284/196
f 153/285/197 162/305/216 154/286/198
f 162/305/216 159/306/216 154/286/198
f 159/307/212 162/308/215 160/309/213
f 162/308/215 161/310/214 160/309/213
f 158/295/210 163/311/217 155/296/203
f 163/311/217 164/312/218 155/296/203
f 155/313/203 164/314/218 156/315/205
f 164/314/218 165/316/219 156/315/205
f 156/291/205 165/317/219 157/292/206
f 165/317/219 166/318/220 157/292/206
f 157/293/207 166/319/221 158/294/208
f 166/319/221 163/320/221 158/294/208
f 163/321/217 166/322/220 164/323/218
f 166/322/220 165/324/219 164/323/218
f 131/325/222 129/326/223 145/257/158
f 129/326/224 143/258/159 145/257/158
f 141/327/225 134/328/226 136/241/142
f 134/328/227 133/242/143 136/241/142
f 137/243/144 132/244/138 130/329/132
f 132/244/138 127/330/133 130/329/132
f 122/236/137 132/237/138 123/275/228
f 132/237/138 133/273/181 123/275/123
f 146/259/160 142/260/154 140/331/148
f 142/260/154 138/332/149 140/331/148
f 125/253/153 142/254/154 126/265/229
f 142/254/154 143/263/166 126/265/168
f 167/333/230 168/334/231 169/335/232
f 168/334/231 170/336/233 169/335/232
f 171/337/234 172/338/235 173/339/236
f 172/338/235 174/340/237 173/339/236
f 175/341/238 131/325/222 176/342/239
f 131/325/222 145/257/158 176/342/239
f 177/343/240 130/230/132 175/344/241
f 130/230/132 131/232/134 175/344/241
f 178/345/242 137/243/144 177/346/240
f 137/243/144 130/329/132 177/346/240
f 179/347/243 136/241/142 178/345/242
f 136/241/142 137/243/144 178/345/242
f 180/348/244 141/327/225 179/347/243
f 141/327/225 136/241/142 179/347/243
f 181/349/245 140/247/148 180/350/246
f 140/247/148 141/249/150 180/350/246
f 182/351/247 146/259/160 181/352/245
f 146/259/160 140/331/148 181/352/245
f 176/342/239 145/257/158 182/351/247
f 145/257/158 146/259/160 182/351/247
f 183/353/248 175/341/238 184/354/249
f 175/341/238 176/342/239 184/354/249
f 185/355/250 177/343/240 183/356/251
f 177/343/240 175/344/241 183/356/251
f 186/357/252 178/345/242 185/358/250
f 178/345/242 177/346/240 185/358/250
f 187/359/253 179/347/243 186/357/252
f 179/347/243 178/345/242 186/357/252
f 188/360/254 180/348/244 187/359/253
f 180/348/244 179/347/243 187/359/253
f 189/361/255 181/349/245 188/362/256
f 181/349/245 180/350/246 188/362/256
f 190/363/257 182/351/247 189/364/255
f 182/351/247 181/352/245 189/364/255
f 184/354/249 176/342/239 190/363/257
f 176/342/239 182/351/247 190/363/257
f 168/334/231 183/353/248 170/336/233
f 183/353/248 184/354/249 170/336/233
f 191/365/258 185/355/250 168/366/259
f 185/355/250 183/356/251 168/366/259
f 185/358/250 191/367/258 186/357/252
f 186/357/252 191/367/258 174/340/237
f 187/359/253 186/357/252 174/340/237
f 172/338/235 188/360/254 174/340/237
f 188/360/254 187/359/253 174/340/237
f 192/368/260 189/361/255 172/369/261
f 189/361/255 188/362/256 172/369/261
f 189/364/255 192/370/260 190/363/257
f 190/363/257 192/370/260 170/336/233
f 184/354/249 190/363/257 170/336/233
f 173/339/236 193/371/262 171/337/234
f 193/371/262 194/372/263 171/337/234
f 169/335/232 193/373/264 167/333/230
f 193/373/264 195/374/265 167/333/230
f 193/371/262 173/339/236 196/375/266
f 193/373/264 169/335/232 197/376/267
f 171/377/268 194/378/269 197/376/267
f 194/378/269 193/373/264 197/376/267
f 167/379/270 195/380/271 196/375/266
f 195/380/271 193/371/262 196/375/266
f 173/339/236 174/340/237 196/375/266
f 174/340/237 191/367/258 196/375/266
f 196/375/266 191/367/258 167/379/270
f 191/367/258 168/381/259 167/379/270
f 169/335/232 170/336/233 197/376/267
f 170/336/233 192/370/260 197/376/267
f 197/376/267 192/370/260 171/377/268
f 192/370/260 172/382/261 171/377/268
