# Blender 5.0.0
# www.blender.org
mtllib TimeBomb.mtl
o RightArm
v -0.040248 5.500781 2.998589
v -0.040248 5.163721 4.109729
v -0.040248 4.914994 4.412803
v -0.040248 4.266148 4.846348
v -0.040248 3.890962 4.960160
v -0.040248 3.110600 4.960160
v -0.040248 2.086568 4.412803
v -0.040248 1.837842 4.109730
v -0.040248 1.500781 2.998589
v -0.116368 5.462353 3.381272
v -0.189563 5.348541 3.749249
v -0.257021 5.163721 4.088379
v -0.316147 4.914994 4.385629
v -0.364672 4.611921 4.629576
v -0.400728 4.266148 4.810845
v -0.422931 3.890962 4.922468
v -0.430429 3.500781 4.960160
v -0.422931 3.110600 4.922468
v -0.400728 2.735415 4.810845
v -0.364672 2.389640 4.629576
v -0.316147 2.086568 4.385629
v -0.257021 1.837842 4.088379
v -0.189563 1.653021 3.749249
v -0.116368 1.539210 3.381272
v -0.189563 5.462353 3.359069
v -0.333141 5.348541 3.705696
v -0.465462 5.163721 4.025148
v -0.581445 4.914994 4.305152
v -0.676627 4.611921 4.534944
v -0.747355 4.266148 4.705696
v -0.790909 3.890962 4.810843
v -0.805614 3.500781 4.846348
v -0.790909 3.110600 4.810843
v -0.747355 2.735415 4.705696
v -0.676627 2.389640 4.534944
v -0.581445 2.086568 4.305152
v -0.465462 1.837842 4.025148
v -0.333141 1.653021 3.705696
v -0.189563 1.539210 3.359069
v -0.257021 5.462353 3.323012
v -0.465462 5.348541 3.634968
v -0.657565 5.163721 3.922468
v -0.825942 4.914994 4.174464
v -0.964128 4.611921 4.381272
v -1.066808 4.266148 4.534944
v -1.130038 3.890962 4.629576
v -1.151389 3.500781 4.661528
v -1.130038 3.110600 4.629576
v -1.066808 2.735415 4.534944
v -0.964128 2.389640 4.381272
v -0.825942 2.086568 4.174464
v -0.657565 1.837842 3.922469
v -0.465462 1.653021 3.634968
v -0.257021 1.539210 3.323013
v -0.316147 5.462353 3.274487
v -0.581445 5.348541 3.539785
v -0.825942 5.163721 3.784283
v -1.040248 4.914994 3.998589
v -1.216123 4.611921 4.174464
v -1.346811 4.266148 4.305152
v -1.427288 3.890962 4.385629
v -1.454462 3.500781 4.412801
v -1.427288 3.110600 4.385629
v -1.346811 2.735415 4.305152
v -1.216123 2.389640 4.174464
v -1.040248 2.086568 3.998589
v -0.825942 1.837842 3.784283
v -0.581445 1.653021 3.539786
v -0.316147 1.539210 3.274488
v -0.364672 5.462353 3.215361
v -0.676627 5.348541 3.423803
v -0.964128 5.163721 3.615905
v -1.216123 4.914994 3.784283
v -1.422931 4.611921 3.922469
v -1.576603 4.266148 4.025148
v -1.671234 3.890962 4.088379
v -1.703187 3.500781 4.109729
v -1.671234 3.110600 4.088379
v -1.576603 2.735415 4.025148
v -1.422931 2.389640 3.922469
v -1.216123 2.086568 3.784283
v -0.964128 1.837842 3.615906
v -0.676627 1.653021 3.423803
v -0.364672 1.539210 3.215362
v -0.400728 5.462353 3.147905
v -0.747355 5.348541 3.291481
v -1.066808 5.163721 3.423803
v -1.346811 4.914994 3.539785
v -1.576603 4.611921 3.634968
v -1.747355 4.266148 3.705696
v -1.852502 3.890962 3.749249
v -1.888006 3.500781 3.763955
v -1.852502 3.110600 3.749249
v -1.747355 2.735415 3.705696
v -1.576603 2.389640 3.634968
v -1.346811 2.086568 3.539786
v -1.066808 1.837842 3.423803
v -0.747355 1.653021 3.291481
v -0.400728 1.539210 3.147906
v -0.422931 5.462353 3.074708
v -0.790909 5.348541 3.147904
v -1.130038 5.163721 3.215361
v -1.427288 4.914994 3.274487
v -1.671234 4.611921 3.323013
v -1.852502 4.266148 3.359069
v -1.964126 3.890962 3.381272
v -2.001817 3.500781 3.388770
v -1.964126 3.110600 3.381272
v -1.852502 2.735415 3.359069
v -1.671234 2.389640 3.323013
v -1.427288 2.086568 3.274488
v -1.130038 1.837842 3.215362
v -0.790909 1.653021 3.147904
v -0.422931 1.539210 3.074709
v -0.430429 5.462353 2.998589
v -0.805614 5.348541 2.998589
v -1.151389 5.163721 2.998589
v -1.454461 4.914994 2.998589
v -1.703187 4.611921 2.998589
v -1.888006 4.266148 2.998589
v -2.001817 3.890962 2.998589
v -2.040248 3.500781 2.998589
v -2.001817 3.110600 2.998589
v -1.888006 2.735415 2.998589
v -1.703187 2.389640 2.998589
v -1.454461 2.086568 2.998589
v -1.151389 1.837842 2.998589
v -0.805614 1.653021 2.998589
v -0.430429 1.539210 2.998589
v -0.422931 5.462353 2.922468
v -0.790909 5.348541 2.849273
v -1.130038 5.163721 2.781816
v -1.427288 4.914994 2.722689
v -1.671234 4.611921 2.674165
v -1.852502 4.266148 2.638108
v -1.964126 3.890962 2.615905
v -2.001817 3.500781 2.608408
v -1.964126 3.110600 2.615906
v -1.852502 2.735415 2.638108
v -1.671234 2.389640 2.674165
v -1.427288 2.086568 2.722690
v -1.130038 1.837842 2.781816
v -0.790909 1.653021 2.849273
v -0.422931 1.539210 2.922469
v -0.400728 5.462353 2.849273
v -0.747355 5.348541 2.705696
v -1.066808 5.163721 2.573374
v -1.346810 4.914994 2.457392
v -1.576603 4.611921 2.362209
v -1.747354 4.266147 2.291483
v -1.852502 3.890962 2.247928
v -1.888006 3.500781 2.233222
v -1.852502 3.110600 2.247928
v -1.747354 2.735415 2.291483
v -1.576603 2.389640 2.362209
v -1.346810 2.086568 2.457392
v -1.066808 1.837842 2.573374
v -0.747355 1.653021 2.705696
v -0.400728 1.539210 2.849273
v -0.364670 5.462353 2.781816
v -0.676627 5.348541 2.573374
v -0.964126 5.163721 2.381272
v -1.216123 4.914994 2.212894
v -1.422931 4.611921 2.074708
v -1.576602 4.266147 1.972029
v -1.671234 3.890962 1.908798
v -1.703187 3.500781 1.887448
v -1.671234 3.110600 1.908798
v -1.576602 2.735415 1.972029
v -1.422931 2.389640 2.074709
v -1.216123 2.086568 2.212894
v -0.964126 1.837842 2.381272
v -0.676627 1.653021 2.573374
v -0.364670 1.539210 2.781816
v -0.316147 5.462353 2.722689
v -0.581443 5.348541 2.457393
v -0.825942 5.163721 2.212894
v -1.040246 4.914994 1.998588
v -1.216123 4.611921 1.822713
v -1.346810 4.266147 1.692025
v -1.427286 3.890962 1.611550
v -1.454461 3.500781 1.584376
v -1.427286 3.110600 1.611550
v -1.346810 2.735415 1.692025
v -1.216123 2.389640 1.822714
v -1.040246 2.086568 1.998589
v -0.825942 1.837842 2.212894
v -0.581443 1.653021 2.457393
v -0.316147 1.539210 2.722690
v -0.257021 5.462353 2.674166
v -0.465462 5.348541 2.362209
v -0.657565 5.163720 2.074710
v -0.825942 4.914994 1.822713
v -0.964126 4.611921 1.615905
v -1.066806 4.266147 1.462233
v -1.130037 3.890962 1.367603
v -1.151387 3.500781 1.335649
v -1.130037 3.110600 1.367603
v -1.066806 2.735415 1.462233
v -0.964126 2.389640 1.615906
v -0.825942 2.086568 1.822714
v -0.657565 1.837842 2.074710
v -0.465462 1.653021 2.362210
v -0.257021 1.539210 2.674166
v -0.189563 5.462353 2.638108
v -0.333141 5.348541 2.291483
v -0.465462 5.163720 1.972030
v -0.581443 4.914994 1.692025
v -0.676627 4.611921 1.462233
v -0.747354 4.266147 1.291483
v -0.790907 3.890962 1.186334
v -0.805614 3.500781 1.150830
v -0.790907 3.110600 1.186334
v -0.747354 2.735415 1.291483
v -0.676627 2.389640 1.462234
v -0.581443 2.086568 1.692026
v -0.465462 1.837842 1.972030
v -0.333141 1.653021 2.291483
v -0.189563 1.539210 2.638109
v -0.116368 5.462353 2.615905
v -0.189563 5.348541 2.247929
v -0.257021 5.163720 1.908800
v -0.316147 4.914994 1.611550
v -0.364670 4.611921 1.367603
v -0.400728 4.266147 1.186336
v -0.422931 3.890962 1.074710
v -0.430429 3.500781 1.037019
v -0.422931 3.110600 1.074710
v -0.400728 2.735415 1.186336
v -0.364670 2.389640 1.367603
v -0.316147 2.086568 1.611550
v -0.257021 1.837842 1.908800
v -0.189563 1.653021 2.247930
v -0.116368 1.539210 2.615906
v -0.040248 5.462353 2.608407
v -0.040248 5.348541 2.233222
v -0.040248 5.163720 1.887449
v -0.040248 4.914994 1.584376
v -0.040248 4.611921 1.335651
v -0.040248 4.266147 1.150832
v -0.040248 3.890962 1.037019
v -0.040248 3.500781 0.998590
v -0.040248 3.110600 1.037019
v -0.040248 2.735415 1.150832
v -0.040248 2.389640 1.335651
v -0.040248 2.086568 1.584376
v -0.040248 1.837842 1.887449
v -0.040248 1.653021 2.233222
v -0.040248 1.539210 2.608408
v 0.035872 5.462353 2.615905
v 0.109067 5.348541 2.247929
v 0.176525 5.163720 1.908800
v 0.235651 4.914994 1.611550
v 0.284176 4.611921 1.367603
v 0.320232 4.266147 1.186336
v 0.342435 3.890962 1.074710
v 0.349933 3.500781 1.037019
v 0.342435 3.110600 1.074710
v 0.320232 2.735415 1.186336
v 0.284176 2.389640 1.367603
v 0.235651 2.086568 1.611550
v 0.176525 1.837842 1.908800
v 0.109067 1.653021 2.247930
v 0.035872 1.539210 2.615906
v 0.109067 5.462353 2.638108
v 0.252645 5.348541 2.291483
v 0.384966 5.163720 1.972030
v 0.500949 4.914994 1.692027
v 0.596131 4.611921 1.462233
v 0.666859 4.266147 1.291485
v 0.710413 3.890962 1.186336
v 0.725118 3.500781 1.150830
v 0.710413 3.110600 1.186336
v 0.666859 2.735415 1.291485
v 0.596131 2.389640 1.462234
v 0.500949 2.086568 1.692027
v 0.384966 1.837842 1.972030
v 0.252645 1.653021 2.291483
v 0.109067 1.539210 2.638109
v 0.176525 5.462353 2.674166
v 0.384966 5.348541 2.362209
v 0.577069 5.163720 2.074710
v 0.745446 4.914994 1.822715
v 0.883632 4.611921 1.615907
v 0.986312 4.266147 1.462235
v 1.049542 3.890962 1.367605
v 1.070893 3.500781 1.335651
v 1.049542 3.110600 1.367605
v 0.986312 2.735415 1.462235
v 0.883632 2.389640 1.615907
v 0.745446 2.086568 1.822715
v 0.577069 1.837842 2.074710
v 0.384966 1.653021 2.362210
v 0.176525 1.539210 2.674166
v 0.235651 5.462353 2.722689
v 0.500947 5.348541 2.457393
v 0.745446 5.163721 2.212894
v 0.959752 4.914994 1.998590
v 1.135627 4.611921 1.822715
v 1.266314 4.266147 1.692027
v 1.346790 3.890962 1.611550
v 1.373965 3.500781 1.584376
v 1.346790 3.110600 1.611550
v 1.266314 2.735415 1.692027
v 1.135627 2.389640 1.822715
v 0.959752 2.086568 1.998590
v 0.745446 1.837842 2.212894
v 0.500947 1.653021 2.457393
v 0.235651 1.539210 2.722690
v 0.284176 5.462353 2.781816
v 0.596131 5.348541 2.573374
v 0.883632 5.163721 2.381273
v 1.135627 4.914994 2.212894
v 1.342435 4.611921 2.074710
v 1.496107 4.266147 1.972030
v 1.590738 3.890962 1.908800
v 1.622691 3.500781 1.887449
v 1.590738 3.110600 1.908800
v 1.496107 2.735415 1.972030
v 1.342435 2.389640 2.074710
v 1.135627 2.086568 2.212894
v 0.883632 1.837842 2.381274
v 0.596131 1.653021 2.573374
v 0.284176 1.539210 2.781816
v 0.320232 5.462353 2.849273
v 0.666859 5.348541 2.705696
v 0.986312 5.163721 2.573374
v 1.266314 4.914994 2.457393
v 1.496107 4.611921 2.362211
v 1.666858 4.266147 2.291483
v 1.772005 3.890962 2.247929
v 1.807510 3.500781 2.233222
v 1.772005 3.110600 2.247929
v 1.666858 2.735415 2.291483
v 1.496107 2.389640 2.362211
v 1.266314 2.086568 2.457393
v 0.986312 1.837842 2.573374
v 0.666859 1.653021 2.705696
v 0.320232 1.539210 2.849273
v 0.342435 5.462353 2.922468
v 0.710413 5.348541 2.849273
v 1.049542 5.163721 2.781816
v 1.346790 4.914994 2.722691
v 1.590738 4.611921 2.674166
v 1.772005 4.266148 2.638110
v 1.883629 3.890962 2.615907
v 1.921322 3.500781 2.608410
v 1.883629 3.110600 2.615907
v 1.772005 2.735415 2.638110
v 1.590738 2.389640 2.674166
v 1.346790 2.086568 2.722691
v 1.049542 1.837842 2.781816
v 0.710413 1.653021 2.849273
v 0.342435 1.539210 2.922469
v 0.349933 5.462353 2.998589
v 0.725118 5.348541 2.998589
v 1.070891 5.163721 2.998589
v 1.373965 4.914994 2.998589
v 1.622690 4.611921 2.998589
v 1.807509 4.266148 2.998589
v 1.921320 3.890962 2.998590
v 1.959750 3.500781 2.998589
v 1.921320 3.110600 2.998590
v 1.807509 2.735415 2.998589
v 1.622690 2.389640 2.998589
v 1.373965 2.086568 2.998589
v 1.070891 1.837842 2.998589
v 0.725118 1.653021 2.998589
v 0.349933 1.539210 2.998589
v 0.342435 5.462353 3.074708
v 0.710411 5.348541 3.147905
v 1.049541 5.163721 3.215361
v 1.346790 4.914994 3.274487
v 1.590738 4.611921 3.323013
v 1.772005 4.266148 3.359069
v 1.883629 3.890962 3.381272
v 1.921322 3.500781 3.388770
v 1.883629 3.110600 3.381272
v 1.772005 2.735415 3.359069
v 1.590738 2.389640 3.323013
v 1.346790 2.086568 3.274488
v 1.049541 1.837842 3.215362
v 0.710411 1.653021 3.147906
v 0.342435 1.539210 3.074709
v 0.320232 5.462353 3.147905
v 0.666858 5.348541 3.291483
v 0.986310 5.163721 3.423804
v 1.266314 4.914994 3.539785
v 1.496106 4.611921 3.634968
v 1.666856 4.266148 3.705696
v 1.772005 3.890962 3.749249
v 1.807510 3.500781 3.763955
v 1.772005 3.110600 3.749249
v 1.666856 2.735415 3.705696
v 1.496106 2.389640 3.634968
v 1.266314 2.086568 3.539786
v 0.986310 1.837842 3.423805
v 0.666858 1.653021 3.291483
v 0.320232 1.539210 3.147906
v 0.284174 5.462353 3.215361
v 0.596131 5.348541 3.423803
v 0.883630 5.163721 3.615905
v 1.135626 4.914994 3.784285
v 1.342434 4.611921 3.922469
v 1.496106 4.266148 4.025148
v 1.590736 3.890962 4.088379
v 1.622690 3.500781 4.109729
v 1.590736 3.110600 4.088379
v 1.496106 2.735415 4.025148
v 1.342434 2.389640 3.922469
v 1.135626 2.086568 3.784285
v 0.883630 1.837842 3.615906
v 0.596131 1.653021 3.423803
v 0.284174 1.539210 3.215362
v 0.235651 5.462353 3.274487
v 0.500947 5.348541 3.539785
v 0.745446 5.163721 3.784283
v 0.959750 4.914994 3.998589
v 1.135626 4.611921 4.174464
v 1.266314 4.266148 4.305152
v 1.346790 3.890962 4.385627
v 1.373965 3.500781 4.412801
v 1.346790 3.110600 4.385627
v 1.266314 2.735415 4.305152
v 1.135626 2.389640 4.174464
v 0.959750 2.086568 3.998589
v 0.745446 1.837842 3.784283
v 0.500947 1.653021 3.539786
v 0.235651 1.539210 3.274488
v 0.176525 5.462353 3.323012
v 0.384966 5.348541 3.634968
v 0.577067 5.163721 3.922468
v 0.745446 4.914994 4.174464
v 0.883630 4.611921 4.381272
v 0.986310 4.266148 4.534944
v 1.049541 3.890962 4.629574
v 1.070891 3.500781 4.661528
v 1.049541 3.110600 4.629574
v 0.986310 2.735415 4.534944
v 0.883630 2.389640 4.381272
v 0.745446 2.086568 4.174464
v 0.577067 1.837842 3.922469
v 0.384966 1.653021 3.634968
v 0.176525 1.539210 3.323013
v 0.109067 5.462353 3.359069
v 0.252645 5.348541 3.705696
v 0.384966 5.163721 4.025148
v 0.500947 4.914994 4.305152
v 0.596130 4.611921 4.534944
v 0.666858 4.266148 4.705694
v 0.710411 3.890962 4.810841
v 0.725118 3.500781 4.846347
v 0.710411 3.110600 4.810841
v 0.666858 2.735415 4.705694
v 0.596130 2.389640 4.534944
v 0.500947 2.086568 4.305152
v 0.384966 1.837842 4.025148
v 0.252645 1.653021 3.705696
v 0.109067 1.539210 3.359069
v 0.035872 5.462353 3.381272
v 0.109067 5.348541 3.749249
v 0.176525 5.163721 4.088377
v 0.235651 4.914994 4.385627
v 0.284174 4.611921 4.629574
v 0.320230 4.266148 4.810841
v 0.342434 3.890962 4.922465
v 0.349933 3.500781 4.960158
v 0.342434 3.110600 4.922465
v 0.320230 2.735415 4.810841
v 0.284174 2.389640 4.629574
v 0.235651 2.086568 4.385627
v 0.176525 1.837842 4.088377
v 0.109067 1.653021 3.749249
v 0.035872 1.539210 3.381272
v -0.040248 5.462353 3.388769
v -0.040248 5.348541 3.763955
v -0.040248 4.611921 4.661526
v -0.040248 3.500781 4.998588
v -0.040248 2.735415 4.846345
v -0.040248 2.389640 4.661526
v -0.040248 1.653021 3.763955
v -0.040248 1.539210 3.388770
v 1.237474 3.258111 2.872725
v 2.681237 3.233581 3.347430
v 1.237218 3.424125 2.882078
v 2.680982 3.399595 3.356784
v 1.282378 3.348880 2.740843
v 2.726141 3.324351 3.215550
vn -0.0000 -0.3805 0.9248
vn -0.0000 -0.1939 0.9810
vn -0.1914 -0.1939 0.9622
vn -0.1804 -0.3805 0.9070
vn -0.0000 0.8286 0.5598
vn -0.0000 0.9217 0.3879
vn -0.0757 0.9217 0.3804
vn -0.1092 0.8286 0.5490
vn -0.0000 -0.5528 0.8333
vn -0.1626 -0.5528 0.8173
vn -0.0000 0.7041 0.7101
vn -0.1385 0.7041 0.6965
vn -0.0000 -0.7041 0.7101
vn -0.1385 -0.7041 0.6965
vn -0.0000 0.5528 0.8333
vn -0.1626 0.5528 0.8173
vn -0.0000 -0.8286 0.5598
vn -0.1092 -0.8286 0.5490
vn -0.0000 0.3805 0.9248
vn -0.1804 0.3805 0.9070
vn -0.0000 -0.9217 0.3879
vn -0.0757 -0.9217 0.3804
vn -0.0000 0.1939 0.9810
vn -0.1914 0.1939 0.9622
vn -0.0000 -0.9796 0.2010
vn -0.0392 -0.9796 0.1971
vn -0.0000 -0.0000 1.0000
vn -0.1951 -0.0000 0.9808
vn -0.0000 0.9796 0.2010
vn -0.0000 1.0000 -0.0000
vn -0.0392 0.9796 0.1971
vn -0.0000 -1.0000 -0.0000
vn -0.3827 -0.0000 0.9239
vn -0.3754 -0.1939 0.9063
vn -0.0769 0.9796 0.1857
vn -0.1484 0.9217 0.3584
vn -0.3539 -0.3805 0.8544
vn -0.2142 0.8286 0.5172
vn -0.3189 -0.5528 0.7699
vn -0.2718 0.7041 0.6561
vn -0.2718 -0.7041 0.6561
vn -0.3189 0.5528 0.7699
vn -0.2142 -0.8286 0.5172
vn -0.3539 0.3805 0.8544
vn -0.1484 -0.9217 0.3584
vn -0.3754 0.1939 0.9063
vn -0.0769 -0.9796 0.1857
vn -0.3945 -0.7041 0.5905
vn -0.3110 -0.8286 0.4654
vn -0.4630 0.5528 0.6929
vn -0.5138 0.3805 0.7689
vn -0.2155 -0.9217 0.3225
vn -0.5450 0.1939 0.8157
vn -0.1117 -0.9796 0.1671
vn -0.5556 -0.0000 0.8315
vn -0.1117 0.9796 0.1671
vn -0.5450 -0.1939 0.8157
vn -0.2155 0.9217 0.3225
vn -0.5138 -0.3805 0.7689
vn -0.3110 0.8286 0.4654
vn -0.4630 -0.5528 0.6929
vn -0.3945 0.7041 0.5905
vn -0.1421 0.9796 0.1421
vn -0.2743 0.9217 0.2743
vn -0.6937 -0.1939 0.6937
vn -0.6539 -0.3805 0.6539
vn -0.3958 0.8286 0.3958
vn -0.5893 -0.5528 0.5893
vn -0.5021 0.7041 0.5021
vn -0.5021 -0.7041 0.5021
vn -0.5893 0.5528 0.5893
vn -0.3958 -0.8286 0.3958
vn -0.6539 0.3805 0.6539
vn -0.2743 -0.9217 0.2743
vn -0.6937 0.1939 0.6937
vn -0.1421 -0.9796 0.1421
vn -0.7071 -0.0000 0.7071
vn -0.6929 0.5528 0.4630
vn -0.7689 0.3805 0.5138
vn -0.4654 -0.8286 0.3110
vn -0.3225 -0.9217 0.2155
vn -0.8157 0.1939 0.5450
vn -0.1671 -0.9796 0.1117
vn -0.8315 -0.0000 0.5556
vn -0.1671 0.9796 0.1117
vn -0.8157 -0.1939 0.5450
vn -0.3225 0.9217 0.2155
vn -0.7689 -0.3805 0.5138
vn -0.4654 0.8286 0.3110
vn -0.6929 -0.5528 0.4630
vn -0.5905 0.7041 0.3945
vn -0.5905 -0.7041 0.3945
vn -0.9063 -0.1939 0.3754
vn -0.8544 -0.3805 0.3539
vn -0.3584 0.9217 0.1484
vn -0.5172 0.8286 0.2142
vn -0.7699 -0.5528 0.3189
vn -0.6561 0.7041 0.2718
vn -0.6561 -0.7041 0.2718
vn -0.7699 0.5528 0.3189
vn -0.5172 -0.8286 0.2142
vn -0.8544 0.3805 0.3539
vn -0.3584 -0.9217 0.1484
vn -0.9063 0.1939 0.3754
vn -0.1857 -0.9796 0.0769
vn -0.9239 -0.0000 0.3827
vn -0.1857 0.9796 0.0769
vn -0.5490 -0.8286 0.1092
vn -0.3804 -0.9217 0.0757
vn -0.9070 0.3805 0.1804
vn -0.9622 0.1939 0.1914
vn -0.1971 -0.9796 0.0392
vn -0.9808 -0.0000 0.1951
vn -0.1971 0.9796 0.0392
vn -0.9622 -0.1939 0.1914
vn -0.3804 0.9217 0.0757
vn -0.9070 -0.3805 0.1804
vn -0.5490 0.8286 0.1092
vn -0.8173 -0.5528 0.1626
vn -0.6965 0.7041 0.1385
vn -0.6965 -0.7041 0.1385
vn -0.8173 0.5528 0.1626
vn -0.9248 -0.3805 -0.0000
vn -0.8333 -0.5528 -0.0000
vn -0.5598 0.8286 -0.0000
vn -0.7101 0.7041 -0.0000
vn -0.7101 -0.7041 -0.0000
vn -0.8333 0.5528 -0.0000
vn -0.5598 -0.8286 -0.0000
vn -0.9248 0.3805 -0.0000
vn -0.3879 -0.9217 -0.0000
vn -0.9810 0.1939 -0.0000
vn -0.2010 -0.9796 -0.0000
vn -1.0000 -0.0000 -0.0000
vn -0.2010 0.9796 -0.0000
vn -0.9810 -0.1939 -0.0000
vn -0.3879 0.9217 -0.0000
vn -0.3804 -0.9217 -0.0757
vn -0.1971 -0.9796 -0.0392
vn -0.9622 0.1939 -0.1914
vn -0.9808 -0.0000 -0.1951
vn -0.1971 0.9796 -0.0392
vn -0.9622 -0.1939 -0.1914
vn -0.3804 0.9217 -0.0757
vn -0.9070 -0.3805 -0.1804
vn -0.5490 0.8286 -0.1092
vn -0.8173 -0.5528 -0.1626
vn -0.6965 0.7041 -0.1385
vn -0.6965 -0.7041 -0.1385
vn -0.8173 0.5528 -0.1626
vn -0.5490 -0.8286 -0.1092
vn -0.9070 0.3805 -0.1804
vn -0.5172 0.8286 -0.2142
vn -0.6561 0.7041 -0.2718
vn -0.7699 -0.5528 -0.3189
vn -0.6561 -0.7041 -0.2718
vn -0.7699 0.5528 -0.3189
vn -0.5172 -0.8286 -0.2142
vn -0.8544 0.3805 -0.3539
vn -0.3584 -0.9217 -0.1484
vn -0.9063 0.1939 -0.3754
vn -0.1857 -0.9796 -0.0769
vn -0.9239 -0.0000 -0.3827
vn -0.1857 0.9796 -0.0769
vn -0.9063 -0.1939 -0.3754
vn -0.3584 0.9217 -0.1484
vn -0.8544 -0.3805 -0.3539
vn -0.8157 0.1939 -0.5450
vn -0.8315 -0.0000 -0.5556
vn -0.1671 0.9796 -0.1117
vn -0.1671 -0.9796 -0.1117
vn -0.8157 -0.1939 -0.5450
vn -0.3225 0.9217 -0.2155
vn -0.7689 -0.3805 -0.5138
vn -0.4654 0.8286 -0.3110
vn -0.6929 -0.5528 -0.4630
vn -0.5905 0.7041 -0.3945
vn -0.5905 -0.7041 -0.3945
vn -0.6929 0.5528 -0.4630
vn -0.4654 -0.8286 -0.3110
vn -0.7689 0.3805 -0.5138
vn -0.3225 -0.9217 -0.2155
vn -0.5893 -0.5528 -0.5893
vn -0.5021 -0.7041 -0.5021
vn -0.5021 0.7041 -0.5021
vn -0.5893 0.5528 -0.5893
vn -0.3958 -0.8286 -0.3958
vn -0.6539 0.3805 -0.6539
vn -0.2743 -0.9217 -0.2743
vn -0.6937 0.1939 -0.6937
vn -0.1421 -0.9796 -0.1421
vn -0.7071 -0.0000 -0.7071
vn -0.1421 0.9796 -0.1421
vn -0.6937 -0.1939 -0.6937
vn -0.2743 0.9217 -0.2743
vn -0.6539 -0.3805 -0.6539
vn -0.3958 0.8286 -0.3958
vn -0.1117 0.9796 -0.1671
vn -0.1117 -0.9796 -0.1671
vn -0.5556 -0.0000 -0.8315
vn -0.5450 -0.1939 -0.8157
vn -0.2155 0.9217 -0.3225
vn -0.5138 -0.3805 -0.7689
vn -0.3110 0.8286 -0.4654
vn -0.4630 -0.5528 -0.6929
vn -0.3945 0.7041 -0.5905
vn -0.3945 -0.7041 -0.5905
vn -0.4630 0.5528 -0.6929
vn -0.3110 -0.8286 -0.4654
vn -0.5138 0.3805 -0.7689
vn -0.2155 -0.9217 -0.3225
vn -0.5450 0.1939 -0.8157
vn -0.2718 0.7041 -0.6561
vn -0.3189 0.5528 -0.7699
vn -0.2718 -0.7041 -0.6561
vn -0.2142 -0.8286 -0.5172
vn -0.3539 0.3805 -0.8544
vn -0.1484 -0.9217 -0.3584
vn -0.3754 0.1939 -0.9063
vn -0.0769 -0.9796 -0.1857
vn -0.3827 -0.0000 -0.9239
vn -0.0769 0.9796 -0.1857
vn -0.3754 -0.1939 -0.9063
vn -0.1484 0.9217 -0.3584
vn -0.3539 -0.3805 -0.8544
vn -0.2142 0.8286 -0.5172
vn -0.3189 -0.5528 -0.7699
vn -0.1951 -0.0000 -0.9808
vn -0.1914 -0.1939 -0.9622
vn -0.0392 0.9796 -0.1971
vn -0.0757 0.9217 -0.3804
vn -0.1804 -0.3805 -0.9070
vn -0.1092 0.8286 -0.5490
vn -0.1626 -0.5528 -0.8173
vn -0.1385 0.7041 -0.6965
vn -0.1385 -0.7041 -0.6965
vn -0.1626 0.5528 -0.8173
vn -0.1092 -0.8286 -0.5490
vn -0.1804 0.3805 -0.9070
vn -0.0757 -0.9217 -0.3804
vn -0.1914 0.1939 -0.9622
vn -0.0392 -0.9796 -0.1971
vn -0.0000 -0.7041 -0.7101
vn -0.0000 -0.8286 -0.5598
vn -0.0000 0.5528 -0.8333
vn -0.0000 0.3805 -0.9248
vn -0.0000 -0.9217 -0.3879
vn -0.0000 0.1939 -0.9810
vn -0.0000 -0.9796 -0.2010
vn -0.0000 -0.0000 -1.0000
vn -0.0000 0.9796 -0.2010
vn -0.0000 -0.1939 -0.9810
vn -0.0000 0.9217 -0.3879
vn -0.0000 -0.3805 -0.9248
vn -0.0000 0.8286 -0.5598
vn -0.0000 -0.5528 -0.8333
vn -0.0000 0.7041 -0.7101
vn 0.1914 -0.1939 -0.9622
vn 0.1804 -0.3805 -0.9070
vn 0.0757 0.9217 -0.3804
vn 0.1092 0.8286 -0.5490
vn 0.1626 -0.5528 -0.8173
vn 0.1385 0.7041 -0.6965
vn 0.1385 -0.7041 -0.6965
vn 0.1626 0.5528 -0.8173
vn 0.1092 -0.8286 -0.5490
vn 0.1804 0.3805 -0.9070
vn 0.0757 -0.9217 -0.3804
vn 0.1914 0.1939 -0.9622
vn 0.0392 -0.9796 -0.1971
vn 0.1951 -0.0000 -0.9808
vn 0.0392 0.9796 -0.1971
vn 0.2142 -0.8286 -0.5172
vn 0.1484 -0.9217 -0.3584
vn 0.3539 0.3805 -0.8544
vn 0.3754 0.1939 -0.9063
vn 0.0769 -0.9796 -0.1857
vn 0.3827 -0.0000 -0.9239
vn 0.0769 0.9796 -0.1857
vn 0.3754 -0.1939 -0.9063
vn 0.1484 0.9217 -0.3584
vn 0.3539 -0.3805 -0.8544
vn 0.2142 0.8286 -0.5172
vn 0.3189 -0.5528 -0.7699
vn 0.2718 0.7041 -0.6561
vn 0.2718 -0.7041 -0.6561
vn 0.3189 0.5528 -0.7699
vn 0.2155 0.9217 -0.3225
vn 0.3110 0.8286 -0.4654
vn 0.5138 -0.3805 -0.7689
vn 0.4630 -0.5528 -0.6929
vn 0.3945 0.7041 -0.5905
vn 0.3945 -0.7041 -0.5905
vn 0.4630 0.5528 -0.6929
vn 0.3110 -0.8286 -0.4654
vn 0.5138 0.3805 -0.7689
vn 0.2155 -0.9217 -0.3225
vn 0.5450 0.1939 -0.8157
vn 0.1117 -0.9796 -0.1671
vn 0.5556 -0.0000 -0.8315
vn 0.1117 0.9796 -0.1671
vn 0.5450 -0.1939 -0.8157
vn 0.6539 0.3805 -0.6539
vn 0.6937 0.1939 -0.6937
vn 0.2743 -0.9217 -0.2743
vn 0.1421 -0.9796 -0.1421
vn 0.7071 -0.0000 -0.7071
vn 0.1421 0.9796 -0.1421
vn 0.6937 -0.1939 -0.6937
vn 0.2743 0.9217 -0.2743
vn 0.6539 -0.3805 -0.6539
vn 0.3958 0.8286 -0.3958
vn 0.5893 -0.5528 -0.5893
vn 0.5021 0.7041 -0.5021
vn 0.5021 -0.7041 -0.5021
vn 0.5893 0.5528 -0.5893
vn 0.3958 -0.8286 -0.3958
vn 0.7689 -0.3805 -0.5138
vn 0.6929 -0.5528 -0.4630
vn 0.4654 0.8286 -0.3110
vn 0.5905 0.7041 -0.3945
vn 0.5905 -0.7041 -0.3945
vn 0.6929 0.5528 -0.4630
vn 0.4654 -0.8286 -0.3110
vn 0.7689 0.3805 -0.5138
vn 0.3225 -0.9217 -0.2155
vn 0.8157 0.1939 -0.5450
vn 0.1671 -0.9796 -0.1117
vn 0.8315 -0.0000 -0.5556
vn 0.1671 0.9796 -0.1117
vn 0.8157 -0.1939 -0.5450
vn 0.3225 0.9217 -0.2155
vn 0.3584 -0.9217 -0.1484
vn 0.1857 -0.9796 -0.0769
vn 0.9063 0.1939 -0.3754
vn 0.9239 -0.0000 -0.3827
vn 0.1857 0.9796 -0.0769
vn 0.9063 -0.1939 -0.3754
vn 0.3584 0.9217 -0.1484
vn 0.8544 -0.3805 -0.3539
vn 0.5172 0.8286 -0.2142
vn 0.7699 -0.5528 -0.3189
vn 0.6561 0.7041 -0.2718
vn 0.6561 -0.7041 -0.2718
vn 0.7699 0.5528 -0.3189
vn 0.5172 -0.8286 -0.2142
vn 0.8544 0.3805 -0.3539
vn 0.5490 0.8286 -0.1092
vn 0.6965 0.7041 -0.1385
vn 0.8173 -0.5528 -0.1626
vn 0.6965 -0.7041 -0.1385
vn 0.8173 0.5528 -0.1626
vn 0.5490 -0.8286 -0.1092
vn 0.9070 0.3805 -0.1804
vn 0.3804 -0.9217 -0.0757
vn 0.9622 0.1939 -0.1914
vn 0.1971 -0.9796 -0.0392
vn 0.9808 -0.0000 -0.1951
vn 0.1971 0.9796 -0.0392
vn 0.9622 -0.1939 -0.1914
vn 0.3804 0.9217 -0.0757
vn 0.9070 -0.3805 -0.1804
vn 0.9810 0.1939 -0.0000
vn 1.0000 -0.0000 -0.0000
vn 0.2010 0.9796 -0.0000
vn 0.2010 -0.9796 -0.0000
vn 0.9810 -0.1939 -0.0000
vn 0.3879 0.9217 -0.0000
vn 0.9248 -0.3805 -0.0000
vn 0.5598 0.8286 -0.0000
vn 0.8333 -0.5528 -0.0000
vn 0.7101 0.7041 -0.0000
vn 0.7101 -0.7041 -0.0000
vn 0.8333 0.5528 -0.0000
vn 0.5598 -0.8286 -0.0000
vn 0.9248 0.3805 -0.0000
vn 0.3879 -0.9217 -0.0000
vn 0.8173 -0.5528 0.1626
vn 0.6965 -0.7041 0.1385
vn 0.6965 0.7041 0.1385
vn 0.8173 0.5528 0.1626
vn 0.5490 -0.8286 0.1092
vn 0.9070 0.3805 0.1804
vn 0.3804 -0.9217 0.0757
vn 0.9622 0.1939 0.1914
vn 0.1971 -0.9796 0.0392
vn 0.9808 -0.0000 0.1951
vn 0.1971 0.9796 0.0392
vn 0.9622 -0.1939 0.1914
vn 0.3804 0.9217 0.0757
vn 0.9070 -0.3805 0.1804
vn 0.5490 0.8286 0.1092
vn 0.1857 -0.9796 0.0769
vn 0.9239 -0.0000 0.3827
vn 0.9063 -0.1939 0.3754
vn 0.1857 0.9796 0.0769
vn 0.3584 0.9217 0.1484
vn 0.8544 -0.3805 0.3539
vn 0.5172 0.8286 0.2142
vn 0.7699 -0.5528 0.3189
vn 0.6561 0.7041 0.2718
vn 0.6561 -0.7041 0.2718
vn 0.7699 0.5528 0.3189
vn 0.5172 -0.8286 0.2142
vn 0.8544 0.3805 0.3539
vn 0.3584 -0.9217 0.1484
vn 0.9063 0.1939 0.3754
vn 0.5905 -0.7041 0.3945
vn 0.4654 -0.8286 0.3110
vn 0.6929 0.5528 0.4630
vn 0.7689 0.3805 0.5138
vn 0.3225 -0.9217 0.2155
vn 0.8157 0.1939 0.5450
vn 0.1671 -0.9796 0.1116
vn 0.8315 -0.0000 0.5556
vn 0.1671 0.9796 0.1116
vn 0.8157 -0.1939 0.5450
vn 0.3225 0.9217 0.2155
vn 0.7689 -0.3805 0.5138
vn 0.4654 0.8286 0.3110
vn 0.6929 -0.5528 0.4630
vn 0.5905 0.7041 0.3945
vn 0.1421 0.9796 0.1421
vn 0.2743 0.9217 0.2743
vn 0.6937 -0.1939 0.6937
vn 0.6539 -0.3805 0.6539
vn 0.3958 0.8286 0.3958
vn 0.5893 -0.5528 0.5893
vn 0.5021 0.7041 0.5021
vn 0.5021 -0.7041 0.5021
vn 0.5893 0.5528 0.5893
vn 0.3958 -0.8286 0.3958
vn 0.6539 0.3805 0.6539
vn 0.2743 -0.9217 0.2743
vn 0.6937 0.1939 0.6937
vn 0.1421 -0.9796 0.1421
vn 0.7071 -0.0000 0.7071
vn 0.4630 0.5528 0.6929
vn 0.5138 0.3805 0.7689
vn 0.3110 -0.8286 0.4654
vn 0.2155 -0.9217 0.3225
vn 0.5450 0.1939 0.8157
vn 0.1117 -0.9796 0.1671
vn 0.5556 -0.0000 0.8315
vn 0.1117 0.9796 0.1671
vn 0.5450 -0.1939 0.8157
vn 0.2155 0.9217 0.3225
vn 0.5138 -0.3805 0.7689
vn 0.3110 0.8286 0.4654
vn 0.4630 -0.5528 0.6929
vn 0.3945 0.7041 0.5905
vn 0.3945 -0.7041 0.5905
vn 0.3754 -0.1939 0.9063
vn 0.3539 -0.3805 0.8544
vn 0.1484 0.9217 0.3584
vn 0.2142 0.8286 0.5172
vn 0.3189 -0.5528 0.7699
vn 0.2718 0.7041 0.6561
vn 0.2718 -0.7041 0.6561
vn 0.3189 0.5528 0.7699
vn 0.2142 -0.8286 0.5172
vn 0.3539 0.3805 0.8544
vn 0.1484 -0.9217 0.3584
vn 0.3754 0.1939 0.9063
vn 0.0769 -0.9796 0.1857
vn 0.3827 -0.0000 0.9239
vn 0.0769 0.9796 0.1857
vn 0.1092 -0.8286 0.5490
vn 0.0757 -0.9217 0.3804
vn 0.1804 0.3805 0.9070
vn 0.1914 0.1939 0.9622
vn 0.0392 -0.9796 0.1971
vn 0.1951 -0.0000 0.9808
vn 0.0392 0.9796 0.1971
vn 0.1914 -0.1939 0.9622
vn 0.0757 0.9217 0.3804
vn 0.1804 -0.3805 0.9070
vn 0.1092 0.8286 0.5490
vn 0.1626 -0.5528 0.8173
vn 0.1385 0.7041 0.6965
vn 0.1385 -0.7041 0.6965
vn 0.1626 0.5528 0.8173
vn -0.6559 -0.7329 0.1808
vn 0.3979 -0.7508 0.5272
vn 0.3957 0.6881 0.6083
vn -0.6581 0.7060 0.2618
vn 0.7871 0.0359 -0.6158
vn -0.2667 0.0538 -0.9623
vt 0.985971 0.013097
vt 0.985971 0.013287
vt 0.985876 0.013287
vt 0.985876 0.013097
vt 0.985971 0.014426
vt 0.985971 0.014616
vt 0.985876 0.014616
vt 0.985876 0.014426
vt 0.985971 0.012907
vt 0.985876 0.012907
vt 0.985971 0.014236
vt 0.985876 0.014236
vt 0.985971 0.012717
vt 0.985876 0.012717
vt 0.985971 0.014047
vt 0.985876 0.014047
vt 0.985971 0.012527
vt 0.985876 0.012527
vt 0.985971 0.013857
vt 0.985876 0.013857
vt 0.985971 0.012337
vt 0.985876 0.012337
vt 0.985971 0.013667
vt 0.985876 0.013667
vt 0.985971 0.012147
vt 0.985876 0.012147
vt 0.985971 0.013477
vt 0.985876 0.013477
vt 0.985971 0.014806
vt 0.985924 0.014996
vt 0.985876 0.014806
vt 0.985924 0.011957
vt 0.985781 0.013477
vt 0.985781 0.013287
vt 0.985781 0.014806
vt 0.985781 0.014616
vt 0.985781 0.013097
vt 0.985781 0.014426
vt 0.985781 0.012907
vt 0.985781 0.014236
vt 0.985781 0.012717
vt 0.985781 0.014047
vt 0.985781 0.012527
vt 0.985781 0.013857
vt 0.985781 0.012337
vt 0.985781 0.013667
vt 0.985781 0.012147
vt 0.985829 0.014996
vt 0.985829 0.011957
vt 0.985686 0.012717
vt 0.985686 0.012527
vt 0.985686 0.014047
vt 0.985686 0.013857
vt 0.985686 0.012337
vt 0.985686 0.013667
vt 0.985686 0.012147
vt 0.985686 0.013477
vt 0.985734 0.014996
vt 0.985686 0.014806
vt 0.985734 0.011957
vt 0.985686 0.013287
vt 0.985686 0.014616
vt 0.985686 0.013097
vt 0.985686 0.014426
vt 0.985686 0.012907
vt 0.985686 0.014236
vt 0.985591 0.014806
vt 0.985591 0.014616
vt 0.985591 0.013287
vt 0.985591 0.013097
vt 0.985591 0.014426
vt 0.985591 0.012907
vt 0.985591 0.014236
vt 0.985591 0.012717
vt 0.985591 0.014047
vt 0.985591 0.012527
vt 0.985591 0.013857
vt 0.985591 0.012337
vt 0.985591 0.013667
vt 0.985591 0.012147
vt 0.985591 0.013477
vt 0.985639 0.014996
vt 0.985639 0.011957
vt 0.985496 0.014047
vt 0.985496 0.013857
vt 0.985496 0.012527
vt 0.985496 0.012337
vt 0.985496 0.013667
vt 0.985496 0.012147
vt 0.985496 0.013477
vt 0.985544 0.014996
vt 0.985496 0.014806
vt 0.985544 0.011957
vt 0.985496 0.013287
vt 0.985496 0.014616
vt 0.985496 0.013097
vt 0.985496 0.014426
vt 0.985496 0.012907
vt 0.985496 0.014236
vt 0.985496 0.012717
vt 0.985401 0.013287
vt 0.985401 0.013097
vt 0.985401 0.014616
vt 0.985401 0.014426
vt 0.985401 0.012907
vt 0.985401 0.014236
vt 0.985401 0.012717
vt 0.985401 0.014047
vt 0.985401 0.012527
vt 0.985401 0.013857
vt 0.985401 0.012337
vt 0.985401 0.013667
vt 0.985401 0.012147
vt 0.985401 0.013477
vt 0.985449 0.014996
vt 0.985401 0.014806
vt 0.985449 0.011957
vt 0.985306 0.012527
vt 0.985306 0.012337
vt 0.985306 0.013857
vt 0.985306 0.013667
vt 0.985306 0.012147
vt 0.985306 0.013477
vt 0.985354 0.014996
vt 0.985306 0.014806
vt 0.985354 0.011957
vt 0.985306 0.013287
vt 0.985306 0.014616
vt 0.985306 0.013097
vt 0.985306 0.014426
vt 0.985306 0.012907
vt 0.985306 0.014236
vt 0.985306 0.012717
vt 0.985306 0.014047
vt 0.985211 0.013097
vt 0.985211 0.012907
vt 0.985211 0.014426
vt 0.985211 0.014236
vt 0.985211 0.012717
vt 0.985211 0.014047
vt 0.985211 0.012527
vt 0.985211 0.013857
vt 0.985211 0.012337
vt 0.985211 0.013667
vt 0.985211 0.012147
vt 0.985211 0.013477
vt 0.985259 0.014996
vt 0.985211 0.014806
vt 0.985259 0.011957
vt 0.985211 0.013287
vt 0.985211 0.014616
vt 0.985116 0.012337
vt 0.985116 0.012147
vt 0.985116 0.013667
vt 0.985116 0.013477
vt 0.985164 0.014996
vt 0.985116 0.014806
vt 0.985164 0.011957
vt 0.985116 0.013287
vt 0.985116 0.014616
vt 0.985116 0.013097
vt 0.985116 0.014426
vt 0.985116 0.012907
vt 0.985116 0.014236
vt 0.985116 0.012717
vt 0.985116 0.014047
vt 0.985116 0.012527
vt 0.985116 0.013857
vt 0.985021 0.014426
vt 0.985021 0.014236
vt 0.985021 0.012907
vt 0.985021 0.012717
vt 0.985021 0.014047
vt 0.985021 0.012527
vt 0.985021 0.013857
vt 0.985021 0.012337
vt 0.985021 0.013667
vt 0.985021 0.012147
vt 0.985021 0.013477
vt 0.985069 0.014996
vt 0.985021 0.014806
vt 0.985069 0.011957
vt 0.985021 0.013287
vt 0.985021 0.014616
vt 0.985021 0.013097
vt 0.984926 0.013667
vt 0.984926 0.013477
vt 0.984974 0.014996
vt 0.984926 0.014806
vt 0.984974 0.011957
vt 0.984926 0.012147
vt 0.984926 0.013287
vt 0.984926 0.014616
vt 0.984926 0.013097
vt 0.984926 0.014426
vt 0.984926 0.012907
vt 0.984926 0.014236
vt 0.984926 0.012717
vt 0.984926 0.014047
vt 0.984926 0.012527
vt 0.984926 0.013857
vt 0.984926 0.012337
vt 0.984832 0.012907
vt 0.984832 0.012717
vt 0.984832 0.014236
vt 0.984832 0.014047
vt 0.984832 0.012527
vt 0.984832 0.013857
vt 0.984832 0.012337
vt 0.984832 0.013667
vt 0.984832 0.012147
vt 0.984832 0.013477
vt 0.984879 0.014996
vt 0.984832 0.014806
vt 0.984879 0.011957
vt 0.984832 0.013287
vt 0.984832 0.014616
vt 0.984832 0.013097
vt 0.984832 0.014426
vt 0.984784 0.014996
vt 0.984737 0.014806
vt 0.984784 0.011957
vt 0.984737 0.012147
vt 0.984737 0.013477
vt 0.984737 0.013287
vt 0.984737 0.014616
vt 0.984737 0.013097
vt 0.984737 0.014426
vt 0.984737 0.012907
vt 0.984737 0.014236
vt 0.984737 0.012717
vt 0.984737 0.014047
vt 0.984737 0.012527
vt 0.984737 0.013857
vt 0.984737 0.012337
vt 0.984737 0.013667
vt 0.984642 0.014236
vt 0.984642 0.014047
vt 0.984642 0.012717
vt 0.984642 0.012527
vt 0.984642 0.013857
vt 0.984642 0.012337
vt 0.984642 0.013667
vt 0.984642 0.012147
vt 0.984642 0.013477
vt 0.984689 0.014996
vt 0.984642 0.014806
vt 0.984689 0.011957
vt 0.984642 0.013287
vt 0.984642 0.014616
vt 0.984642 0.013097
vt 0.984642 0.014426
vt 0.984642 0.012907
vt 0.984547 0.013477
vt 0.984547 0.013287
vt 0.984547 0.014806
vt 0.984547 0.014616
vt 0.984547 0.013097
vt 0.984547 0.014426
vt 0.984547 0.012907
vt 0.984547 0.014236
vt 0.984547 0.012717
vt 0.984547 0.014047
vt 0.984547 0.012527
vt 0.984547 0.013857
vt 0.984547 0.012337
vt 0.984547 0.013667
vt 0.984547 0.012147
vt 0.984594 0.014996
vt 0.984594 0.011957
vt 0.984452 0.012717
vt 0.984452 0.012527
vt 0.984452 0.014047
vt 0.984452 0.013857
vt 0.984452 0.012337
vt 0.984452 0.013667
vt 0.984452 0.012147
vt 0.984452 0.013477
vt 0.984499 0.014996
vt 0.984452 0.014806
vt 0.984499 0.011957
vt 0.984452 0.013287
vt 0.984452 0.014616
vt 0.984452 0.013097
vt 0.984452 0.014426
vt 0.984452 0.012907
vt 0.984452 0.014236
vt 0.984357 0.013287
vt 0.984357 0.013097
vt 0.984357 0.014616
vt 0.984357 0.014426
vt 0.984357 0.012907
vt 0.984357 0.014236
vt 0.984357 0.012717
vt 0.984357 0.014047
vt 0.984357 0.012527
vt 0.984357 0.013857
vt 0.984357 0.012337
vt 0.984357 0.013667
vt 0.984357 0.012147
vt 0.984357 0.013477
vt 0.984404 0.014996
vt 0.984357 0.014806
vt 0.984404 0.011957
vt 0.984262 0.012527
vt 0.984262 0.012337
vt 0.984262 0.013857
vt 0.984262 0.013667
vt 0.984262 0.012147
vt 0.984262 0.013477
vt 0.984309 0.014996
vt 0.984262 0.014806
vt 0.984309 0.011957
vt 0.984262 0.013287
vt 0.984262 0.014616
vt 0.984262 0.013097
vt 0.984262 0.014426
vt 0.984262 0.012907
vt 0.984262 0.014236
vt 0.984262 0.012717
vt 0.984262 0.014047
vt 0.984167 0.014616
vt 0.984167 0.014426
vt 0.984167 0.013097
vt 0.984167 0.012907
vt 0.984167 0.014236
vt 0.984167 0.012717
vt 0.984167 0.014047
vt 0.984167 0.012527
vt 0.984167 0.013857
vt 0.984167 0.012337
vt 0.984167 0.013667
vt 0.984167 0.012147
vt 0.984167 0.013477
vt 0.984214 0.014996
vt 0.984167 0.014806
vt 0.984214 0.011957
vt 0.984167 0.013287
vt 0.984072 0.013857
vt 0.984072 0.013667
vt 0.984072 0.012337
vt 0.984072 0.012147
vt 0.984072 0.013477
vt 0.984119 0.014996
vt 0.984072 0.014806
vt 0.984119 0.011957
vt 0.984072 0.013287
vt 0.984072 0.014616
vt 0.984072 0.013097
vt 0.984072 0.014426
vt 0.984072 0.012907
vt 0.984072 0.014236
vt 0.984072 0.012717
vt 0.984072 0.014047
vt 0.984072 0.012527
vt 0.983977 0.013097
vt 0.983977 0.012907
vt 0.983977 0.014426
vt 0.983977 0.014236
vt 0.983977 0.012717
vt 0.983977 0.014047
vt 0.983977 0.012527
vt 0.983977 0.013857
vt 0.983977 0.012337
vt 0.983977 0.013667
vt 0.983977 0.012147
vt 0.983977 0.013477
vt 0.984024 0.014996
vt 0.983977 0.014806
vt 0.984024 0.011957
vt 0.983977 0.013287
vt 0.983977 0.014616
vt 0.983882 0.012337
vt 0.983882 0.012147
vt 0.983882 0.013667
vt 0.983882 0.013477
vt 0.983929 0.014996
vt 0.983882 0.014806
vt 0.983929 0.011957
vt 0.983882 0.013287
vt 0.983882 0.014616
vt 0.983882 0.013097
vt 0.983882 0.014426
vt 0.983882 0.012907
vt 0.983882 0.014236
vt 0.983882 0.012717
vt 0.983882 0.014047
vt 0.983882 0.012527
vt 0.983882 0.013857
vt 0.983787 0.014426
vt 0.983787 0.014236
vt 0.983787 0.012907
vt 0.983787 0.012717
vt 0.983787 0.014047
vt 0.983787 0.012527
vt 0.983787 0.013857
vt 0.983787 0.012337
vt 0.983787 0.013667
vt 0.983787 0.012147
vt 0.983787 0.013477
vt 0.983834 0.014996
vt 0.983787 0.014806
vt 0.983834 0.011957
vt 0.983787 0.013287
vt 0.983787 0.014616
vt 0.983787 0.013097
vt 0.983692 0.013667
vt 0.983692 0.013477
vt 0.983739 0.014996
vt 0.983692 0.014806
vt 0.983739 0.011957
vt 0.983692 0.012147
vt 0.983692 0.013287
vt 0.983692 0.014616
vt 0.983692 0.013097
vt 0.983692 0.014426
vt 0.983692 0.012907
vt 0.983692 0.014236
vt 0.983692 0.012717
vt 0.983692 0.014047
vt 0.983692 0.012527
vt 0.983692 0.013857
vt 0.983692 0.012337
vt 0.986731 0.012717
vt 0.986731 0.012907
vt 0.986636 0.012907
vt 0.986636 0.012717
vt 0.986731 0.014047
vt 0.986731 0.014236
vt 0.986636 0.014236
vt 0.986636 0.014047
vt 0.986731 0.012527
vt 0.986636 0.012527
vt 0.986731 0.013857
vt 0.986636 0.013857
vt 0.986731 0.012337
vt 0.986636 0.012337
vt 0.986731 0.013667
vt 0.986636 0.013667
vt 0.986731 0.012147
vt 0.986636 0.012147
vt 0.986731 0.013477
vt 0.986636 0.013477
vt 0.986731 0.014806
vt 0.986683 0.014996
vt 0.986636 0.014806
vt 0.986683 0.011957
vt 0.986731 0.013287
vt 0.986636 0.013287
vt 0.986731 0.014616
vt 0.986636 0.014616
vt 0.986731 0.013097
vt 0.986636 0.013097
vt 0.986731 0.014426
vt 0.986636 0.014426
vt 0.986588 0.011957
vt 0.986541 0.012147
vt 0.986541 0.013477
vt 0.986541 0.013287
vt 0.986541 0.014806
vt 0.986541 0.014616
vt 0.986541 0.013097
vt 0.986541 0.014426
vt 0.986541 0.012907
vt 0.986541 0.014236
vt 0.986541 0.012717
vt 0.986541 0.014047
vt 0.986541 0.012527
vt 0.986541 0.013857
vt 0.986541 0.012337
vt 0.986541 0.013667
vt 0.986588 0.014996
vt 0.986446 0.012717
vt 0.986446 0.012527
vt 0.986446 0.014047
vt 0.986446 0.013857
vt 0.986446 0.012337
vt 0.986446 0.013667
vt 0.986446 0.012147
vt 0.986446 0.013477
vt 0.986493 0.014996
vt 0.986446 0.014806
vt 0.986493 0.011957
vt 0.986446 0.013287
vt 0.986446 0.014616
vt 0.986446 0.013097
vt 0.986446 0.014426
vt 0.986446 0.012907
vt 0.986446 0.014236
vt 0.986351 0.014806
vt 0.986351 0.014616
vt 0.986351 0.013287
vt 0.986351 0.013097
vt 0.986351 0.014426
vt 0.986351 0.012907
vt 0.986351 0.014236
vt 0.986351 0.012717
vt 0.986351 0.014047
vt 0.986351 0.012527
vt 0.986351 0.013857
vt 0.986351 0.012337
vt 0.986351 0.013667
vt 0.986351 0.012147
vt 0.986351 0.013477
vt 0.986398 0.014996
vt 0.986398 0.011957
vt 0.986256 0.014047
vt 0.986256 0.013857
vt 0.986256 0.012527
vt 0.986256 0.012337
vt 0.986256 0.013667
vt 0.986256 0.012147
vt 0.986256 0.013477
vt 0.986303 0.014996
vt 0.986256 0.014806
vt 0.986303 0.011957
vt 0.986256 0.013287
vt 0.986256 0.014616
vt 0.986256 0.013097
vt 0.986256 0.014426
vt 0.986256 0.012907
vt 0.986256 0.014236
vt 0.986256 0.012717
vt 0.986161 0.013287
vt 0.986161 0.013097
vt 0.986161 0.014616
vt 0.986161 0.014426
vt 0.986161 0.012907
vt 0.986161 0.014236
vt 0.986161 0.012717
vt 0.986161 0.014047
vt 0.986161 0.012527
vt 0.986161 0.013857
vt 0.986161 0.012337
vt 0.986161 0.013667
vt 0.986161 0.012147
vt 0.986161 0.013477
vt 0.986208 0.014996
vt 0.986161 0.014806
vt 0.986208 0.011957
vt 0.986066 0.012527
vt 0.986066 0.012337
vt 0.986066 0.013857
vt 0.986066 0.013667
vt 0.986066 0.012147
vt 0.986066 0.013477
vt 0.986114 0.014996
vt 0.986066 0.014806
vt 0.986114 0.011957
vt 0.986066 0.013287
vt 0.986066 0.014616
vt 0.986066 0.013097
vt 0.986066 0.014426
vt 0.986066 0.012907
vt 0.986066 0.014236
vt 0.986066 0.012717
vt 0.986066 0.014047
vt 0.986019 0.014996
vt 0.986019 0.011957
vt 1.000000 0.500000
vt 1.000000 1.000000
vt 0.666667 1.000000
vt 0.666667 0.500000
vt 0.333333 1.000000
vt 0.333333 0.500000
vt 0.457846 0.083494
vt 0.250000 0.443494
vt 0.042154 0.083494
vt -0.000000 1.000000
vt -0.000000 0.500000
vt 0.736048 0.432643
vt 0.943894 0.072643
vt 0.528202 0.072643
s 1
usemtl this_is_a_material
f 479/1/1 6/2/2 18/3/3 19/4/4
f 2/5/5 476/6/6 11/7/7 12/8/8
f 480/9/9 479/1/1 19/4/4 20/10/10
f 3/11/11 2/5/5 12/8/8 13/12/12
f 7/13/13 480/9/9 20/10/10 21/14/14
f 477/15/15 3/11/11 13/12/12 14/16/16
f 8/17/17 7/13/13 21/14/14 22/18/18
f 4/19/19 477/15/15 14/16/16 15/20/20
f 481/21/21 8/17/17 22/18/18 23/22/22
f 5/23/23 4/19/19 15/20/20 16/24/24
f 482/25/25 481/21/21 23/22/22 24/26/26
f 478/27/27 5/23/23 16/24/24 17/28/28
f 475/29/29 1/30/30 10/31/31
f 9/32/32 482/25/25 24/26/26
f 6/2/2 478/27/27 17/28/28 18/3/3
f 476/6/6 475/29/29 10/31/31 11/7/7
f 18/3/3 17/28/28 32/33/33 33/34/34
f 11/7/7 10/31/31 25/35/35 26/36/36
f 19/4/4 18/3/3 33/34/34 34/37/37
f 12/8/8 11/7/7 26/36/36 27/38/38
f 20/10/10 19/4/4 34/37/37 35/39/39
f 13/12/12 12/8/8 27/38/38 28/40/40
f 21/14/14 20/10/10 35/39/39 36/41/41
f 14/16/16 13/12/12 28/40/40 29/42/42
f 22/18/18 21/14/14 36/41/41 37/43/43
f 15/20/20 14/16/16 29/42/42 30/44/44
f 23/22/22 22/18/18 37/43/43 38/45/45
f 16/24/24 15/20/20 30/44/44 31/46/46
f 24/26/26 23/22/22 38/45/45 39/47/47
f 17/28/28 16/24/24 31/46/46 32/33/33
f 10/31/31 1/48/30 25/35/35
f 9/49/32 24/26/26 39/47/47
f 37/43/43 36/41/41 51/50/48 52/51/49
f 30/44/44 29/42/42 44/52/50 45/53/51
f 38/45/45 37/43/43 52/51/49 53/54/52
f 31/46/46 30/44/44 45/53/51 46/55/53
f 39/47/47 38/45/45 53/54/52 54/56/54
f 32/33/33 31/46/46 46/55/53 47/57/55
f 25/35/35 1/58/30 40/59/56
f 9/60/32 39/47/47 54/56/54
f 33/34/34 32/33/33 47/57/55 48/61/57
f 26/36/36 25/35/35 40/59/56 41/62/58
f 34/37/37 33/34/34 48/61/57 49/63/59
f 27/38/38 26/36/36 41/62/58 42/64/60
f 35/39/39 34/37/37 49/63/59 50/65/61
f 28/40/40 27/38/38 42/64/60 43/66/62
f 36/41/41 35/39/39 50/65/61 51/50/48
f 29/42/42 28/40/40 43/66/62 44/52/50
f 41/62/58 40/59/56 55/67/63 56/68/64
f 49/63/59 48/61/57 63/69/65 64/70/66
f 42/64/60 41/62/58 56/68/64 57/71/67
f 50/65/61 49/63/59 64/70/66 65/72/68
f 43/66/62 42/64/60 57/71/67 58/73/69
f 51/50/48 50/65/61 65/72/68 66/74/70
f 44/52/50 43/66/62 58/73/69 59/75/71
f 52/51/49 51/50/48 66/74/70 67/76/72
f 45/53/51 44/52/50 59/75/71 60/77/73
f 53/54/52 52/51/49 67/76/72 68/78/74
f 46/55/53 45/53/51 60/77/73 61/79/75
f 54/56/54 53/54/52 68/78/74 69/80/76
f 47/57/55 46/55/53 61/79/75 62/81/77
f 40/59/56 1/82/30 55/67/63
f 9/83/32 54/56/54 69/80/76
f 48/61/57 47/57/55 62/81/77 63/69/65
f 60/77/73 59/75/71 74/84/78 75/85/79
f 68/78/74 67/76/72 82/86/80 83/87/81
f 61/79/75 60/77/73 75/85/79 76/88/82
f 69/80/76 68/78/74 83/87/81 84/89/83
f 62/81/77 61/79/75 76/88/82 77/90/84
f 55/67/63 1/91/30 70/92/85
f 9/93/32 69/80/76 84/89/83
f 63/69/65 62/81/77 77/90/84 78/94/86
f 56/68/64 55/67/63 70/92/85 71/95/87
f 64/70/66 63/69/65 78/94/86 79/96/88
f 57/71/67 56/68/64 71/95/87 72/97/89
f 65/72/68 64/70/66 79/96/88 80/98/90
f 58/73/69 57/71/67 72/97/89 73/99/91
f 66/74/70 65/72/68 80/98/90 81/100/92
f 59/75/71 58/73/69 73/99/91 74/84/78
f 67/76/72 66/74/70 81/100/92 82/86/80
f 79/96/88 78/94/86 93/101/93 94/102/94
f 72/97/89 71/95/87 86/103/95 87/104/96
f 80/98/90 79/96/88 94/102/94 95/105/97
f 73/99/91 72/97/89 87/104/96 88/106/98
f 81/100/92 80/98/90 95/105/97 96/107/99
f 74/84/78 73/99/91 88/106/98 89/108/100
f 82/86/80 81/100/92 96/107/99 97/109/101
f 75/85/79 74/84/78 89/108/100 90/110/102
f 83/87/81 82/86/80 97/109/101 98/111/103
f 76/88/82 75/85/79 90/110/102 91/112/104
f 84/89/83 83/87/81 98/111/103 99/113/105
f 77/90/84 76/88/82 91/112/104 92/114/106
f 70/92/85 1/115/30 85/116/107
f 9/117/32 84/89/83 99/113/105
f 78/94/86 77/90/84 92/114/106 93/101/93
f 71/95/87 70/92/85 85/116/107 86/103/95
f 98/111/103 97/109/101 112/118/108 113/119/109
f 91/112/104 90/110/102 105/120/110 106/121/111
f 99/113/105 98/111/103 113/119/109 114/122/112
f 92/114/106 91/112/104 106/121/111 107/123/113
f 85/116/107 1/124/30 100/125/114
f 9/126/32 99/113/105 114/122/112
f 93/101/93 92/114/106 107/123/113 108/127/115
f 86/103/95 85/116/107 100/125/114 101/128/116
f 94/102/94 93/101/93 108/127/115 109/129/117
f 87/104/96 86/103/95 101/128/116 102/130/118
f 95/105/97 94/102/94 109/129/117 110/131/119
f 88/106/98 87/104/96 102/130/118 103/132/120
f 96/107/99 95/105/97 110/131/119 111/133/121
f 89/108/100 88/106/98 103/132/120 104/134/122
f 97/109/101 96/107/99 111/133/121 112/118/108
f 90/110/102 89/108/100 104/134/122 105/120/110
f 110/131/119 109/129/117 124/135/123 125/136/124
f 103/132/120 102/130/118 117/137/125 118/138/126
f 111/133/121 110/131/119 125/136/124 126/139/127
f 104/134/122 103/132/120 118/138/126 119/140/128
f 112/118/108 111/133/121 126/139/127 127/141/129
f 105/120/110 104/134/122 119/140/128 120/142/130
f 113/119/109 112/118/108 127/141/129 128/143/131
f 106/121/111 105/120/110 120/142/130 121/144/132
f 114/122/112 113/119/109 128/143/131 129/145/133
f 107/123/113 106/121/111 121/144/132 122/146/134
f 100/125/114 1/147/30 115/148/135
f 9/149/32 114/122/112 129/145/133
f 108/127/115 107/123/113 122/146/134 123/150/136
f 101/128/116 100/125/114 115/148/135 116/151/137
f 109/129/117 108/127/115 123/150/136 124/135/123
f 102/130/118 101/128/116 116/151/137 117/137/125
f 129/145/133 128/143/131 143/152/138 144/153/139
f 122/146/134 121/144/132 136/154/140 137/155/141
f 115/148/135 1/156/30 130/157/142
f 9/158/32 129/145/133 144/153/139
f 123/150/136 122/146/134 137/155/141 138/159/143
f 116/151/137 115/148/135 130/157/142 131/160/144
f 124/135/123 123/150/136 138/159/143 139/161/145
f 117/137/125 116/151/137 131/160/144 132/162/146
f 125/136/124 124/135/123 139/161/145 140/163/147
f 118/138/126 117/137/125 132/162/146 133/164/148
f 126/139/127 125/136/124 140/163/147 141/165/149
f 119/140/128 118/138/126 133/164/148 134/166/150
f 127/141/129 126/139/127 141/165/149 142/167/151
f 120/142/130 119/140/128 134/166/150 135/168/152
f 128/143/131 127/141/129 142/167/151 143/152/138
f 121/144/132 120/142/130 135/168/152 136/154/140
f 133/164/148 132/162/146 147/169/153 148/170/154
f 141/165/149 140/163/147 155/171/155 156/172/156
f 134/166/150 133/164/148 148/170/154 149/173/157
f 142/167/151 141/165/149 156/172/156 157/174/158
f 135/168/152 134/166/150 149/173/157 150/175/159
f 143/152/138 142/167/151 157/174/158 158/176/160
f 136/154/140 135/168/152 150/175/159 151/177/161
f 144/153/139 143/152/138 158/176/160 159/178/162
f 137/155/141 136/154/140 151/177/161 152/179/163
f 130/157/142 1/180/30 145/181/164
f 9/182/32 144/153/139 159/178/162
f 138/159/143 137/155/141 152/179/163 153/183/165
f 131/160/144 130/157/142 145/181/164 146/184/166
f 139/161/145 138/159/143 153/183/165 154/185/167
f 132/162/146 131/160/144 146/184/166 147/169/153
f 140/163/147 139/161/145 154/185/167 155/171/155
f 152/179/163 151/177/161 166/186/168 167/187/169
f 145/181/164 1/188/30 160/189/170
f 9/190/32 159/178/162 174/191/171
f 153/183/165 152/179/163 167/187/169 168/192/172
f 146/184/166 145/181/164 160/189/170 161/193/173
f 154/185/167 153/183/165 168/192/172 169/194/174
f 147/169/153 146/184/166 161/193/173 162/195/175
f 155/171/155 154/185/167 169/194/174 170/196/176
f 148/170/154 147/169/153 162/195/175 163/197/177
f 156/172/156 155/171/155 170/196/176 171/198/178
f 149/173/157 148/170/154 163/197/177 164/199/179
f 157/174/158 156/172/156 171/198/178 172/200/180
f 150/175/159 149/173/157 164/199/179 165/201/181
f 158/176/160 157/174/158 172/200/180 173/202/182
f 151/177/161 150/175/159 165/201/181 166/186/168
f 159/178/162 158/176/160 173/202/182 174/191/171
f 171/198/178 170/196/176 185/203/183 186/204/184
f 164/199/179 163/197/177 178/205/185 179/206/186
f 172/200/180 171/198/178 186/204/184 187/207/187
f 165/201/181 164/199/179 179/206/186 180/208/188
f 173/202/182 172/200/180 187/207/187 188/209/189
f 166/186/168 165/201/181 180/208/188 181/210/190
f 174/191/171 173/202/182 188/209/189 189/211/191
f 167/187/169 166/186/168 181/210/190 182/212/192
f 160/189/170 1/213/30 175/214/193
f 9/215/32 174/191/171 189/211/191
f 168/192/172 167/187/169 182/212/192 183/216/194
f 161/193/173 160/189/170 175/214/193 176/217/195
f 169/194/174 168/192/172 183/216/194 184/218/196
f 162/195/175 161/193/173 176/217/195 177/219/197
f 170/196/176 169/194/174 184/218/196 185/203/183
f 163/197/177 162/195/175 177/219/197 178/205/185
f 175/214/193 1/220/30 190/221/198
f 9/222/32 189/211/191 204/223/199
f 183/216/194 182/212/192 197/224/200 198/225/201
f 176/217/195 175/214/193 190/221/198 191/226/202
f 184/218/196 183/216/194 198/225/201 199/227/203
f 177/219/197 176/217/195 191/226/202 192/228/204
f 185/203/183 184/218/196 199/227/203 200/229/205
f 178/205/185 177/219/197 192/228/204 193/230/206
f 186/204/184 185/203/183 200/229/205 201/231/207
f 179/206/186 178/205/185 193/230/206 194/232/208
f 187/207/187 186/204/184 201/231/207 202/233/209
f 180/208/188 179/206/186 194/232/208 195/234/210
f 188/209/189 187/207/187 202/233/209 203/235/211
f 181/210/190 180/208/188 195/234/210 196/236/212
f 189/211/191 188/209/189 203/235/211 204/223/199
f 182/212/192 181/210/190 196/236/212 197/224/200
f 194/232/208 193/230/206 208/237/213 209/238/214
f 202/233/209 201/231/207 216/239/215 217/240/216
f 195/234/210 194/232/208 209/238/214 210/241/217
f 203/235/211 202/233/209 217/240/216 218/242/218
f 196/236/212 195/234/210 210/241/217 211/243/219
f 204/223/199 203/235/211 218/242/218 219/244/220
f 197/224/200 196/236/212 211/243/219 212/245/221
f 190/221/198 1/246/30 205/247/222
f 9/248/32 204/223/199 219/244/220
f 198/225/201 197/224/200 212/245/221 213/249/223
f 191/226/202 190/221/198 205/247/222 206/250/224
f 199/227/203 198/225/201 213/249/223 214/251/225
f 192/228/204 191/226/202 206/250/224 207/252/226
f 200/229/205 199/227/203 214/251/225 215/253/227
f 193/230/206 192/228/204 207/252/226 208/237/213
f 201/231/207 200/229/205 215/253/227 216/239/215
f 213/249/223 212/245/221 227/254/228 228/255/229
f 206/250/224 205/247/222 220/256/230 221/257/231
f 214/251/225 213/249/223 228/255/229 229/258/232
f 207/252/226 206/250/224 221/257/231 222/259/233
f 215/253/227 214/251/225 229/258/232 230/260/234
f 208/237/213 207/252/226 222/259/233 223/261/235
f 216/239/215 215/253/227 230/260/234 231/262/236
f 209/238/214 208/237/213 223/261/235 224/263/237
f 217/240/216 216/239/215 231/262/236 232/264/238
f 210/241/217 209/238/214 224/263/237 225/265/239
f 218/242/218 217/240/216 232/264/238 233/266/240
f 211/243/219 210/241/217 225/265/239 226/267/241
f 219/244/220 218/242/218 233/266/240 234/268/242
f 212/245/221 211/243/219 226/267/241 227/254/228
f 205/247/222 1/269/30 220/256/230
f 9/270/32 219/244/220 234/268/242
f 232/264/238 231/262/236 246/271/243 247/272/244
f 225/265/239 224/263/237 239/273/245 240/274/246
f 233/266/240 232/264/238 247/272/244 248/275/247
f 226/267/241 225/265/239 240/274/246 241/276/248
f 234/268/242 233/266/240 248/275/247 249/277/249
f 227/254/228 226/267/241 241/276/248 242/278/250
f 220/256/230 1/279/30 235/280/251
f 9/281/32 234/268/242 249/277/249
f 228/255/229 227/254/228 242/278/250 243/282/252
f 221/257/231 220/256/230 235/280/251 236/283/253
f 229/258/232 228/255/229 243/282/252 244/284/254
f 222/259/233 221/257/231 236/283/253 237/285/255
f 230/260/234 229/258/232 244/284/254 245/286/256
f 223/261/235 222/259/233 237/285/255 238/287/257
f 231/262/236 230/260/234 245/286/256 246/271/243
f 224/263/237 223/261/235 238/287/257 239/273/245
f 244/284/254 243/282/252 258/288/258 259/289/259
f 237/285/255 236/283/253 251/290/260 252/291/261
f 245/286/256 244/284/254 259/289/259 260/292/262
f 238/287/257 237/285/255 252/291/261 253/293/263
f 246/271/243 245/286/256 260/292/262 261/294/264
f 239/273/245 238/287/257 253/293/263 254/295/265
f 247/272/244 246/271/243 261/294/264 262/296/266
f 240/274/246 239/273/245 254/295/265 255/297/267
f 248/275/247 247/272/244 262/296/266 263/298/268
f 241/276/248 240/274/246 255/297/267 256/299/269
f 249/277/249 248/275/247 263/298/268 264/300/270
f 242/278/250 241/276/248 256/299/269 257/301/271
f 235/280/251 1/302/30 250/303/272
f 9/304/32 249/277/249 264/300/270
f 243/282/252 242/278/250 257/301/271 258/288/258
f 236/283/253 235/280/251 250/303/272 251/290/260
f 263/298/268 262/296/266 277/305/273 278/306/274
f 256/299/269 255/297/267 270/307/275 271/308/276
f 264/300/270 263/298/268 278/306/274 279/309/277
f 257/301/271 256/299/269 271/308/276 272/310/278
f 250/303/272 1/311/30 265/312/279
f 9/313/32 264/300/270 279/309/277
f 258/288/258 257/301/271 272/310/278 273/314/280
f 251/290/260 250/303/272 265/312/279 266/315/281
f 259/289/259 258/288/258 273/314/280 274/316/282
f 252/291/261 251/290/260 266/315/281 267/317/283
f 260/292/262 259/289/259 274/316/282 275/318/284
f 253/293/263 252/291/261 267/317/283 268/319/285
f 261/294/264 260/292/262 275/318/284 276/320/286
f 254/295/265 253/293/263 268/319/285 269/321/287
f 262/296/266 261/294/264 276/320/286 277/305/273
f 255/297/267 254/295/265 269/321/287 270/307/275
f 267/317/283 266/315/281 281/322/288 282/323/289
f 275/318/284 274/316/282 289/324/290 290/325/291
f 268/319/285 267/317/283 282/323/289 283/326/292
f 276/320/286 275/318/284 290/325/291 291/327/293
f 269/321/287 268/319/285 283/326/292 284/328/294
f 277/305/273 276/320/286 291/327/293 292/329/295
f 270/307/275 269/321/287 284/328/294 285/330/296
f 278/306/274 277/305/273 292/329/295 293/331/297
f 271/308/276 270/307/275 285/330/296 286/332/298
f 279/309/277 278/306/274 293/331/297 294/333/299
f 272/310/278 271/308/276 286/332/298 287/334/300
f 265/312/279 1/335/30 280/336/301
f 9/337/32 279/309/277 294/333/299
f 273/314/280 272/310/278 287/334/300 288/338/302
f 266/315/281 265/312/279 280/336/301 281/322/288
f 274/316/282 273/314/280 288/338/302 289/324/290
f 286/332/298 285/330/296 300/339/303 301/340/304
f 294/333/299 293/331/297 308/341/305 309/342/306
f 287/334/300 286/332/298 301/340/304 302/343/307
f 280/336/301 1/344/30 295/345/308
f 9/346/32 294/333/299 309/342/306
f 288/338/302 287/334/300 302/343/307 303/347/309
f 281/322/288 280/336/301 295/345/308 296/348/310
f 289/324/290 288/338/302 303/347/309 304/349/311
f 282/323/289 281/322/288 296/348/310 297/350/312
f 290/325/291 289/324/290 304/349/311 305/351/313
f 283/326/292 282/323/289 297/350/312 298/352/314
f 291/327/293 290/325/291 305/351/313 306/353/315
f 284/328/294 283/326/292 298/352/314 299/354/316
f 292/329/295 291/327/293 306/353/315 307/355/317
f 285/330/296 284/328/294 299/354/316 300/339/303
f 293/331/297 292/329/295 307/355/317 308/341/305
f 305/351/313 304/349/311 319/356/318 320/357/319
f 298/352/314 297/350/312 312/358/320 313/359/321
f 306/353/315 305/351/313 320/357/319 321/360/322
f 299/354/316 298/352/314 313/359/321 314/361/323
f 307/355/317 306/353/315 321/360/322 322/362/324
f 300/339/303 299/354/316 314/361/323 315/363/325
f 308/341/305 307/355/317 322/362/324 323/364/326
f 301/340/304 300/339/303 315/363/325 316/365/327
f 309/342/306 308/341/305 323/364/326 324/366/328
f 302/343/307 301/340/304 316/365/327 317/367/329
f 295/345/308 1/368/30 310/369/330
f 9/370/32 309/342/306 324/366/328
f 303/347/309 302/343/307 317/367/329 318/371/331
f 296/348/310 295/345/308 310/369/330 311/372/332
f 304/349/311 303/347/309 318/371/331 319/356/318
f 297/350/312 296/348/310 311/372/332 312/358/320
f 324/366/328 323/364/326 338/373/333 339/374/334
f 317/367/329 316/365/327 331/375/335 332/376/336
f 310/369/330 1/377/30 325/378/337
f 9/379/32 324/366/328 339/374/334
f 318/371/331 317/367/329 332/376/336 333/380/338
f 311/372/332 310/369/330 325/378/337 326/381/339
f 319/356/318 318/371/331 333/380/338 334/382/340
f 312/358/320 311/372/332 326/381/339 327/383/341
f 320/357/319 319/356/318 334/382/340 335/384/342
f 313/359/321 312/358/320 327/383/341 328/385/343
f 321/360/322 320/357/319 335/384/342 336/386/344
f 314/361/323 313/359/321 328/385/343 329/387/345
f 322/362/324 321/360/322 336/386/344 337/388/346
f 315/363/325 314/361/323 329/387/345 330/389/347
f 323/364/326 322/362/324 337/388/346 338/373/333
f 316/365/327 315/363/325 330/389/347 331/375/335
f 328/385/343 327/383/341 342/390/348 343/391/349
f 336/386/344 335/384/342 350/392/350 351/393/351
f 329/387/345 328/385/343 343/391/349 344/394/352
f 337/388/346 336/386/344 351/393/351 352/395/353
f 330/389/347 329/387/345 344/394/352 345/396/354
f 338/373/333 337/388/346 352/395/353 353/397/355
f 331/375/335 330/389/347 345/396/354 346/398/356
f 339/374/334 338/373/333 353/397/355 354/399/357
f 332/376/336 331/375/335 346/398/356 347/400/358
f 325/378/337 1/401/30 340/402/359
f 9/403/32 339/374/334 354/399/357
f 333/380/338 332/376/336 347/400/358 348/404/360
f 326/381/339 325/378/337 340/402/359 341/405/361
f 334/382/340 333/380/338 348/404/360 349/406/362
f 327/383/341 326/381/339 341/405/361 342/390/348
f 335/384/342 334/382/340 349/406/362 350/392/350
f 347/400/358 346/398/356 361/407/363 362/408/364
f 340/402/359 1/409/30 355/410/365
f 9/411/32 354/399/357 369/412/366
f 348/404/360 347/400/358 362/408/364 363/413/367
f 341/405/361 340/402/359 355/410/365 356/414/368
f 349/406/362 348/404/360 363/413/367 364/415/369
f 342/390/348 341/405/361 356/414/368 357/416/370
f 350/392/350 349/406/362 364/415/369 365/417/371
f 343/391/349 342/390/348 357/416/370 358/418/372
f 351/393/351 350/392/350 365/417/371 366/419/373
f 344/394/352 343/391/349 358/418/372 359/420/374
f 352/395/353 351/393/351 366/419/373 367/421/375
f 345/396/354 344/394/352 359/420/374 360/422/376
f 353/397/355 352/395/353 367/421/375 368/423/377
f 346/398/356 345/396/354 360/422/376 361/407/363
f 354/399/357 353/397/355 368/423/377 369/412/366
f 366/424/373 365/425/371 380/426/378 381/427/379
f 359/428/374 358/429/372 373/430/380 374/431/381
f 367/432/375 366/424/373 381/427/379 382/433/382
f 360/434/376 359/428/374 374/431/381 375/435/383
f 368/436/377 367/432/375 382/433/382 383/437/384
f 361/438/363 360/434/376 375/435/383 376/439/385
f 369/440/366 368/436/377 383/437/384 384/441/386
f 362/442/364 361/438/363 376/439/385 377/443/387
f 355/444/365 1/445/30 370/446/388
f 9/447/32 369/440/366 384/441/386
f 363/448/367 362/442/364 377/443/387 378/449/389
f 356/450/368 355/444/365 370/446/388 371/451/390
f 364/452/369 363/448/367 378/449/389 379/453/391
f 357/454/370 356/450/368 371/451/390 372/455/392
f 365/425/371 364/452/369 379/453/391 380/426/378
f 358/429/372 357/454/370 372/455/392 373/430/380
f 9/456/32 384/441/386 399/457/393
f 378/449/389 377/443/387 392/458/394 393/459/395
f 371/451/390 370/446/388 385/460/396 386/461/397
f 379/453/391 378/449/389 393/459/395 394/462/398
f 372/455/392 371/451/390 386/461/397 387/463/399
f 380/426/378 379/453/391 394/462/398 395/464/400
f 373/430/380 372/455/392 387/463/399 388/465/401
f 381/427/379 380/426/378 395/464/400 396/466/402
f 374/431/381 373/430/380 388/465/401 389/467/403
f 382/433/382 381/427/379 396/466/402 397/468/404
f 375/435/383 374/431/381 389/467/403 390/469/405
f 383/437/384 382/433/382 397/468/404 398/470/406
f 376/439/385 375/435/383 390/469/405 391/471/407
f 384/441/386 383/437/384 398/470/406 399/457/393
f 377/443/387 376/439/385 391/471/407 392/458/394
f 370/446/388 1/472/30 385/460/396
f 397/468/404 396/466/402 411/473/408 412/474/409
f 390/469/405 389/467/403 404/475/410 405/476/411
f 398/470/406 397/468/404 412/474/409 413/477/412
f 391/471/407 390/469/405 405/476/411 406/478/413
f 399/457/393 398/470/406 413/477/412 414/479/414
f 392/458/394 391/471/407 406/478/413 407/480/415
f 385/460/396 1/481/30 400/482/416
f 9/483/32 399/457/393 414/479/414
f 393/459/395 392/458/394 407/480/415 408/484/417
f 386/461/397 385/460/396 400/482/416 401/485/418
f 394/462/398 393/459/395 408/484/417 409/486/419
f 387/463/399 386/461/397 401/485/418 402/487/420
f 395/464/400 394/462/398 409/486/419 410/488/421
f 388/465/401 387/463/399 402/487/420 403/489/422
f 396/466/402 395/464/400 410/488/421 411/473/408
f 389/467/403 388/465/401 403/489/422 404/475/410
f 401/485/418 400/482/416 415/490/423 416/491/424
f 409/486/419 408/484/417 423/492/425 424/493/426
f 402/487/420 401/485/418 416/491/424 417/494/427
f 410/488/421 409/486/419 424/493/426 425/495/428
f 403/489/422 402/487/420 417/494/427 418/496/429
f 411/473/408 410/488/421 425/495/428 426/497/430
f 404/475/410 403/489/422 418/496/429 419/498/431
f 412/474/409 411/473/408 426/497/430 427/499/432
f 405/476/411 404/475/410 419/498/431 420/500/433
f 413/477/412 412/474/409 427/499/432 428/501/434
f 406/478/413 405/476/411 420/500/433 421/502/435
f 414/479/414 413/477/412 428/501/434 429/503/436
f 407/480/415 406/478/413 421/502/435 422/504/437
f 400/482/416 1/505/30 415/490/423
f 9/506/32 414/479/414 429/503/436
f 408/484/417 407/480/415 422/504/437 423/492/425
f 420/500/433 419/498/431 434/507/438 435/508/439
f 428/501/434 427/499/432 442/509/440 443/510/441
f 421/502/435 420/500/433 435/508/439 436/511/442
f 429/503/436 428/501/434 443/510/441 444/512/443
f 422/504/437 421/502/435 436/511/442 437/513/444
f 415/490/423 1/514/30 430/515/445
f 9/516/32 429/503/436 444/512/443
f 423/492/425 422/504/437 437/513/444 438/517/446
f 416/491/424 415/490/423 430/515/445 431/518/447
f 424/493/426 423/492/425 438/517/446 439/519/448
f 417/494/427 416/491/424 431/518/447 432/520/449
f 425/495/428 424/493/426 439/519/448 440/521/450
f 418/496/429 417/494/427 432/520/449 433/522/451
f 426/497/430 425/495/428 440/521/450 441/523/452
f 419/498/431 418/496/429 433/522/451 434/507/438
f 427/499/432 426/497/430 441/523/452 442/509/440
f 439/519/448 438/517/446 453/524/453 454/525/454
f 432/520/449 431/518/447 446/526/455 447/527/456
f 440/521/450 439/519/448 454/525/454 455/528/457
f 433/522/451 432/520/449 447/527/456 448/529/458
f 441/523/452 440/521/450 455/528/457 456/530/459
f 434/507/438 433/522/451 448/529/458 449/531/460
f 442/509/440 441/523/452 456/530/459 457/532/461
f 435/508/439 434/507/438 449/531/460 450/533/462
f 443/510/441 442/509/440 457/532/461 458/534/463
f 436/511/442 435/508/439 450/533/462 451/535/464
f 444/512/443 443/510/441 458/534/463 459/536/465
f 437/513/444 436/511/442 451/535/464 452/537/466
f 430/515/445 1/538/30 445/539/467
f 9/540/32 444/512/443 459/536/465
f 438/517/446 437/513/444 452/537/466 453/524/453
f 431/518/447 430/515/445 445/539/467 446/526/455
f 458/534/463 457/532/461 472/541/468 473/542/469
f 451/535/464 450/533/462 465/543/470 466/544/471
f 459/536/465 458/534/463 473/542/469 474/545/472
f 452/537/466 451/535/464 466/544/471 467/546/473
f 445/539/467 1/547/30 460/548/474
f 9/549/32 459/536/465 474/545/472
f 453/524/453 452/537/466 467/546/473 468/550/475
f 446/526/455 445/539/467 460/548/474 461/551/476
f 454/525/454 453/524/453 468/550/475 469/552/477
f 447/527/456 446/526/455 461/551/476 462/553/478
f 455/528/457 454/525/454 469/552/477 470/554/479
f 448/529/458 447/527/456 462/553/478 463/555/480
f 456/530/459 455/528/457 470/554/479 471/556/481
f 449/531/460 448/529/458 463/555/480 464/557/482
f 457/532/461 456/530/459 471/556/481 472/541/468
f 450/533/462 449/531/460 464/557/482 465/543/470
f 462/553/478 461/551/476 476/6/6 2/5/5
f 470/554/479 469/552/477 479/1/1 480/9/9
f 463/555/480 462/553/478 2/5/5 3/11/11
f 471/556/481 470/554/479 480/9/9 7/13/13
f 464/557/482 463/555/480 3/11/11 477/15/15
f 472/541/468 471/556/481 7/13/13 8/17/17
f 465/543/470 464/557/482 477/15/15 4/19/19
f 473/542/469 472/541/468 8/17/17 481/21/21
f 466/544/471 465/543/470 4/19/19 5/23/23
f 474/545/472 473/542/469 481/21/21 482/25/25
f 467/546/473 466/544/471 5/23/23 478/27/27
f 460/548/474 1/558/30 475/29/29
f 9/559/32 474/545/472 482/25/25
f 468/550/475 467/546/473 478/27/27 6/2/2
f 461/551/476 460/548/474 475/29/29 476/6/6
f 469/552/477 468/550/475 6/2/2 479/1/1
f 483/560/483 484/561/484 486/562/485 485/563/486
f 485/563/486 486/562/485 488/564/487 487/565/488
f 486/566/485 484/567/484 488/568/487
f 487/565/488 488/564/487 484/569/484 483/570/483
f 483/571/483 485/572/486 487/573/488
